<?xml version="1.0" encoding="UTF-8"?>
<svg width="732px" height="178px" viewBox="0 0 732 178" version="1.1" xmlns="http://www.w3.org/2000/svg" xmlns:xlink="http://www.w3.org/1999/xlink">
    <!-- Generator: Sketch 49.3 (51167) - http://www.bohemiancoding.com/sketch -->
    <title>_1</title>
    <desc>Created with Sketch.</desc>
    <defs>
        <linearGradient x1="50%" y1="91.3930456%" x2="53.6230755%" y2="9.99674797%" id="linearGradient-1">
            <stop stop-color="#F89096" offset="0%"></stop>
            <stop stop-color="#B1B4E5" offset="100%"></stop>
        </linearGradient>
    </defs>
    <g id="Symbols" stroke="none" stroke-width="1" fill="none" fill-rule="evenodd" opacity="0.100000001">
        <g id="Nav/cta/Request-5-hover" transform="translate(-10.000000, -2.000000)" fill="url(#linearGradient-1)">
            <g id="Group" transform="translate(10.000000, 0.000000)">
                <g id="Group-1" transform="translate(0.000000, 0.976703)">
                    <path d="M103.725968,1.93991861 C175.080122,1.23627018 225.116833,53.2947794 255.52262,63.3729965 C285.928406,73.4512136 304.932932,62.985001 323.936549,52.5201692 C342.940166,42.0553374 366.378414,36.2409283 402.485741,64.1482971 C438.593067,92.0556659 474.61854,26.8158139 474.61854,26.8158139 C474.61854,26.8158139 487.935168,1.11629119 523.448603,1.93991861 C559.446792,2.77459216 563.400308,32.8207688 572.912575,44.829298 C582.424843,56.8378271 591.116199,86.8412 714.728308,86.8412 C781.821927,86.8412 879.355102,86.8412 879.355102,86.8412 L879.355102,94.4354176 C879.355102,94.4354176 713.094829,97.5044701 649.127355,99.9898504 C599.971697,101.902212 582.741342,119.672099 576.400437,131.684771 C570.059532,143.697442 555.473267,178.863502 525.03383,178.434774 C494.594392,178.006046 482.545581,166.854283 460.350594,138.116383 C438.155606,109.378483 400.902333,119.769727 385.065531,124.42084 C369.228729,129.071954 333.121403,138.762175 306.51634,111.242111 C279.911276,83.7220477 253.305304,91.4743631 237.469411,101.939885 C221.633519,112.405408 164.481265,180.023297 103.725968,180.023297 C-45.2580509,178.823697 -37.663559,105.993841 -37.663559,86.8412 C-37.663559,67.6885585 -51.783629,-1.11191729 103.725968,1.93991861 Z" id="_1"></path>
                </g>
            </g>
        </g>
    </g>
</svg>