<?xml version="1.0" encoding="UTF-8"?>
<svg width="732px" height="134px" viewBox="0 0 732 134" version="1.1" xmlns="http://www.w3.org/2000/svg" xmlns:xlink="http://www.w3.org/1999/xlink">
    <!-- Generator: Sketch 49.3 (51167) - http://www.bohemiancoding.com/sketch -->
    <title>_2</title>
    <desc>Created with Sketch.</desc>
    <defs>
        <linearGradient x1="65.5258011%" y1="-7.65958408%" x2="63.3266133%" y2="95.9773231%" id="linearGradient-1">
            <stop stop-color="#88D1F1" offset="0%"></stop>
            <stop stop-color="#B1B5E5" offset="100%"></stop>
        </linearGradient>
    </defs>
    <g id="Symbols" stroke="none" stroke-width="1" fill="none" fill-rule="evenodd">
        <g id="Nav/cta/Request-5-hover" transform="translate(-10.000000, -21.000000)" fill="url(#linearGradient-1)">
            <g id="Group" transform="translate(10.000000, 0.000000)">
                <g id="Group-1" transform="translate(0.000000, 0.976703)">
                    <path d="M-150.366295,76.6742568 C-150.636103,89.6742568 132.786641,83.5300273 176.092277,79.4061332 C219.397914,75.282239 224.759373,66.3966218 230.532973,61.0030681 C236.306572,55.6095144 257.34118,28.0069162 282.912058,27.6880017 C308.482936,27.3690873 322.093565,59.4164935 341.889933,67.6662813 C361.686301,75.9160691 374.0596,61.3483665 386.432899,52.7816638 C398.806198,44.214961 414.065387,39.4552373 437.574655,62.3001113 C461.083922,85.1449853 484.179231,38.8214073 484.179231,38.8214073 C484.179231,38.8214073 492.598605,20.964027 512.451574,20.4183422 C532.304542,19.8726574 541.919776,43.2632162 548.106425,52.146834 C554.293074,61.0304518 552.058602,82.3907239 698.304626,82.3907239 L879.355102,82.3907239 L879.355102,89.3888473 C879.355102,89.3888473 634.146776,92.4230337 589.55559,93.2358157 C557.524213,93.8196591 554.499599,109.735391 550.370921,118.619009 C546.242242,127.502627 536.761202,153.52165 516.963924,153.203735 C497.166645,152.88582 489.335075,144.637032 474.899256,123.379732 C460.463438,102.122433 436.54294,107.832901 426.232161,111.639881 C415.921382,115.44686 392.413024,123.379732 375.091315,100.850774 C357.769606,78.321815 340.446988,90.6691129 330.135299,99.2358157 C319.82361,107.802518 313.6406,124.081689 291.778982,128.205584 C269.917365,132.329478 257.134655,116.783646 244.349217,108.533859 C231.563778,100.284071 205.58076,89.1790488 127.218657,90.4487083 C48.8565534,91.7183679 -150.15977,89.0825384 -150.15977,89.0825384 L-150.366295,76.6742568 Z" id="_2"></path>
                </g>
            </g>
        </g>
    </g>
</svg>