<?xml version="1.0" encoding="UTF-8"?>
<svg width="732px" height="163px" viewBox="0 0 732 163" version="1.1" xmlns="http://www.w3.org/2000/svg" xmlns:xlink="http://www.w3.org/1999/xlink">
    <!-- Generator: Sketch 49.3 (51167) - http://www.bohemiancoding.com/sketch -->
    <title>_3</title>
    <desc>Created with Sketch.</desc>
    <defs>
        <linearGradient x1="50%" y1="91.3930456%" x2="53.6230755%" y2="9.99674797%" id="linearGradient-1">
            <stop stop-color="#F89096" offset="0%"></stop>
            <stop stop-color="#B1B4E5" offset="100%"></stop>
        </linearGradient>
    </defs>
    <g id="Symbols" stroke="none" stroke-width="1" fill="none" fill-rule="evenodd" opacity="0.4">
        <g id="Nav/cta/Request-5-hover" transform="translate(-10.000000, -10.000000)" fill="url(#linearGradient-1)">
            <g id="Group" transform="translate(10.000000, 0.000000)">
                <g id="Group-1" transform="translate(0.000000, 0.976703)">
                    <path d="M-225.345774,80.9386508 C-225.345774,80.9386508 28.748773,79.1479339 79.0281906,77.2213416 C129.482959,75.2947492 144.653409,66.6920072 152.607186,62.0854235 C165.93488,54.370942 180.667479,34.9691428 204.013257,36.0490485 C238.761023,37.6562321 234.490659,62.0468916 257.799686,69.7999049 C289.691443,80.407317 333.95854,36.7278402 362.040884,64.049962 C379.184291,80.728168 404.825377,58.761973 410.945847,49.661359 C417.066317,40.560745 427.955904,9.40571829 459.141008,9.40571829 C490.326112,9.40571829 503.382905,41.0768689 509.357425,49.1026472 C515.331945,57.1284254 519.138208,74.8307674 619.779993,76.3193135 C690.436829,77.3647433 728.853268,78.4963629 728.034265,78.3473054 L880.935465,78.3473054 L880.935465,89.386486 C878.711335,89.386486 759.312858,91.5072853 735.280378,91.5519011 C633.217238,93.2278623 569.968527,95.6730265 545.534246,98.8873938 C508.882823,103.708945 505.789513,125.727868 501.029847,134.728096 C496.270181,143.728324 481.514482,171.798361 458.666406,171.478952 C435.81833,171.159544 425.424345,153.501218 408.72929,131.977125 C398.257605,118.476782 384.88896,116.086794 372.98927,119.944034 C361.089581,123.801275 330.232078,133.277068 306.350798,112.229553 C278.267405,87.478925 260.478245,105.404932 246.85235,112.836508 C234.477009,119.58668 230.668646,126.979724 208.297271,129.871641 C192.87692,131.865157 182.187884,124.583652 161.650866,110.909916 C143.436455,88.8291393 -225.472824,94.3473054 -225.472824,94.3473054 L-225.345774,80.9386508 Z" id="_3"></path>
                </g>
            </g>
        </g>
    </g>
</svg>