<?xml version="1.0" encoding="UTF-8"?>
<svg width="494px" height="118px" viewBox="0 0 494 118" version="1.1" xmlns="http://www.w3.org/2000/svg" xmlns:xlink="http://www.w3.org/1999/xlink">
    <!-- Generator: Sketch 49.3 (51167) - http://www.bohemiancoding.com/sketch -->
    <title>Eq</title>
    <desc>Created with Sketch.</desc>
    <defs></defs>
    <g id="Symbols" stroke="none" stroke-width="1" fill="none" fill-rule="evenodd">
        <g id="Nav/cta/Request-5-hover" transform="translate(-145.000000, -28.000000)" fill="#0A1B56">
            <g id="Group" transform="translate(10.000000, 0.000000)">
                <g id="Group-1" transform="translate(0.000000, 0.976703)">
                    <path d="M627.226258,85.5428752 C626.897472,85.6225137 626.561743,85.4452796 626.410824,85.1124007 L626.410824,84.0578894 C626.609923,83.785448 626.909613,83.6271364 627.226258,83.6271364 C627.542902,83.6271364 627.842593,83.785448 628.041692,84.0578894 L628.041692,85.1124007 C627.891013,85.4455505 627.555083,85.6228906 627.226258,85.5428752 Z M621.008002,85.5428752 C620.679176,85.6228906 620.343247,85.4455505 620.192567,85.1124007 L620.192567,81.0244053 C620.391666,80.7519638 620.691357,80.5936522 621.008002,80.5936522 C621.324646,80.5936522 621.624337,80.7519638 621.823436,81.0244053 L621.823436,85.1124007 C621.672756,85.4455505 621.336827,85.6228906 621.008002,85.5428752 Z M614.789745,85.5428752 C614.459516,85.6246791 614.121371,85.447161 613.969755,85.1124007 L613.969755,81.0244053 C614.169222,80.7522716 614.468986,80.5942173 614.785645,80.5942173 C615.102305,80.5942173 615.402069,80.7522716 615.601535,81.0244053 L615.601535,85.1124007 C615.450986,85.4435679 615.117342,85.6204921 614.789745,85.5428752 Z M608.570577,85.5428752 C608.241752,85.6228906 607.905823,85.4455505 607.755143,85.1124007 L607.755143,77.8124809 C607.954242,77.5400394 608.253933,77.3817278 608.570577,77.3817278 C608.887222,77.3817278 609.186913,77.5400394 609.386012,77.8124809 L609.386012,85.1124007 C609.235092,85.4452796 608.899363,85.6225137 608.570577,85.5428752 Z M602.35141,85.5428752 C602.022624,85.6225137 601.686895,85.4452796 601.535976,85.1124007 L601.535976,81.0244053 C601.735075,80.7519638 602.034765,80.5936522 602.35141,80.5936522 C602.668054,80.5936522 602.967745,80.7519638 603.166844,81.0244053 L603.166844,85.1124007 C603.015893,85.4468438 602.678391,85.624419 602.348677,85.5428752 L602.35141,85.5428752 Z M596.133153,85.5428752 C595.804328,85.6228906 595.468399,85.4455505 595.317719,85.1124007 L595.317719,77.8124809 C595.516818,77.5400394 595.816509,77.3817278 596.133153,77.3817278 C596.449798,77.3817278 596.749489,77.5400394 596.948588,77.8124809 L596.948588,85.1124007 C596.797908,85.4455505 596.461978,85.6228906 596.133153,85.5428752 Z M589.914897,85.5428752 C589.584668,85.6246791 589.246523,85.447161 589.094907,85.1124007 L589.094907,74.4382464 C589.294373,74.1661128 589.594138,74.0080585 589.910797,74.0080585 C590.227456,74.0080585 590.527221,74.1661128 590.726687,74.4382464 L590.726687,85.1124007 C590.576138,85.4435679 590.242494,85.6204921 589.914897,85.5428752 Z M583.695729,85.5428752 C583.366944,85.6225137 583.031215,85.4452796 582.880295,85.1124007 L582.880295,77.8124809 C583.079394,77.5400394 583.379085,77.3817278 583.695729,77.3817278 C584.012374,77.3817278 584.312065,77.5400394 584.511164,77.8124809 L584.511164,85.1124007 C584.360484,85.4455505 584.024554,85.6228906 583.695729,85.5428752 Z M577.477473,85.5428752 C577.148648,85.6228906 576.812718,85.4455505 576.662039,85.1124007 L576.662039,81.0244053 C576.861138,80.7519638 577.160828,80.5936522 577.477473,80.5936522 C577.794117,80.5936522 578.093808,80.7519638 578.292907,81.0244053 L578.292907,85.1124007 C578.142046,85.446412 577.805069,85.6239087 577.475651,85.5428752 L577.477473,85.5428752 Z M571.258305,85.5428752 C570.928,85.6254422 570.589445,85.4477095 570.438315,85.1124007 L570.438315,77.8124809 C570.637415,77.5400394 570.937105,77.3817278 571.25375,77.3817278 C571.570394,77.3817278 571.870085,77.5400394 572.069184,77.8124809 L572.069184,85.1124007 C571.918966,85.4434087 571.585644,85.6203604 571.258305,85.5428752 Z M565.040049,85.5428752 C564.711224,85.6228906 564.375294,85.4455505 564.224614,85.1124007 L564.224614,67.7119565 C564.423714,67.4395151 564.723404,67.2812035 565.040049,67.2812035 C565.356693,67.2812035 565.656384,67.4395151 565.855483,67.7119565 L565.855483,85.1124007 C565.704564,85.4452796 565.368835,85.6225137 565.040049,85.5428752 Z M558.820881,85.5428752 C558.492095,85.6225137 558.156366,85.4452796 558.005447,85.1124007 L558.005447,74.6348331 C558.204356,74.3620514 558.504117,74.2034838 558.820881,74.2034838 C559.137646,74.2034838 559.437406,74.3620514 559.636316,74.6348331 L559.636316,85.1124007 C559.485636,85.4455505 559.149706,85.6228906 558.820881,85.5428752 Z M552.602625,85.5428752 C552.272319,85.6254422 551.933765,85.4477095 551.782635,85.1124007 L551.782635,81.0244053 C551.981734,80.7519638 552.281425,80.5936522 552.598069,80.5936522 C552.914714,80.5936522 553.214405,80.7519638 553.413504,81.0244053 L553.413504,85.1124007 C553.263285,85.4434087 552.929964,85.6203604 552.602625,85.5428752 Z M546.384368,85.5428752 C546.05414,85.6246791 545.715994,85.447161 545.564378,85.1124007 L545.564378,70.7484651 C545.763467,70.4756528 546.06337,70.3170883 546.380268,70.3170883 C546.697167,70.3170883 546.99707,70.4756528 547.196158,70.7484651 L547.196158,85.1124007 C547.045609,85.4435679 546.711965,85.6204921 546.384368,85.5428752 Z M540.165201,85.5428752 C539.836376,85.6228906 539.500446,85.4455505 539.349766,85.1124007 L539.349766,61.5633291 C539.548866,61.2908877 539.848556,61.1325761 540.165201,61.1325761 C540.481845,61.1325761 540.781536,61.2908877 540.980635,61.5633291 L540.980635,85.1124007 C540.829956,85.4455505 540.494026,85.6228906 540.165201,85.5428752 Z M533.946033,85.5428752 C533.617247,85.6225137 533.281518,85.4452796 533.130599,85.1124007 L533.130599,71.5448933 C533.329698,71.2724518 533.629389,71.1141403 533.946033,71.1141403 C534.262678,71.1141403 534.562368,71.2724518 534.761468,71.5448933 L534.761468,85.1124007 C534.610788,85.4455505 534.274858,85.6228906 533.946033,85.5428752 Z M527.727777,85.5428752 C527.398952,85.6228906 527.063022,85.4455505 526.912342,85.1124007 L526.912342,77.8124809 C527.111441,77.5400394 527.411132,77.3817278 527.727777,77.3817278 C528.044421,77.3817278 528.344112,77.5400394 528.543211,77.8124809 L528.543211,85.1124007 C528.392715,85.4446917 528.05783,85.621876 527.729599,85.5428752 L527.727777,85.5428752 Z M521.50952,85.5428752 C521.179291,85.6246791 520.841146,85.447161 520.68953,85.1124007 L520.68953,64.3790557 C520.888997,64.106922 521.188761,63.9488677 521.50542,63.9488677 C521.82208,63.9488677 522.121844,64.106922 522.32131,64.3790557 L522.32131,85.1124007 C522.170761,85.4435679 521.837117,85.6204921 521.50952,85.5428752 Z M515.290353,85.5428752 C514.961567,85.6225137 514.625838,85.4452796 514.474918,85.1124007 L514.474918,51.4728862 C514.673828,51.2001044 514.973588,51.0415369 515.290353,51.0415369 C515.607117,51.0415369 515.906878,51.2001044 516.105787,51.4728862 L516.105787,85.1124007 C515.955108,85.4455505 515.619178,85.6228906 515.290353,85.5428752 Z M509.072096,85.5428752 C508.743271,85.6228906 508.407341,85.4455505 508.256662,85.1124007 L508.256662,61.2044324 C508.455761,60.9319909 508.755452,60.7736793 509.072096,60.7736793 C509.388741,60.7736793 509.688431,60.9319909 509.887531,61.2044324 L509.887531,85.1124007 C509.736851,85.4455505 509.400921,85.6228906 509.072096,85.5428752 Z M502.85384,85.5428752 C502.523611,85.6246791 502.185465,85.447161 502.03385,85.1124007 L502.03385,74.1085856 C502.233316,73.836452 502.53308,73.6783977 502.84974,73.6783977 C503.166399,73.6783977 503.466163,73.836452 503.66563,74.1085856 L503.66563,85.1124007 C503.515363,85.4422912 503.183276,85.6189848 502.856573,85.5428752 L502.85384,85.5428752 Z M496.634672,85.5428752 C496.305847,85.6228906 495.969917,85.4455505 495.819238,85.1124007 L495.819238,77.6753742 C496.018337,77.4029328 496.318028,77.2446212 496.634672,77.2446212 C496.951317,77.2446212 497.251007,77.4029328 497.450107,77.6753742 L497.450107,85.1124007 C497.299187,85.4452796 496.963458,85.6225137 496.634672,85.5428752 Z M490.415505,85.5428752 C490.085237,85.6250599 489.746888,85.4474348 489.595515,85.1124007 L489.595515,71.2182569 C489.794614,70.9458155 490.094305,70.7875039 490.410949,70.7875039 C490.727594,70.7875039 491.027284,70.9458155 491.226383,71.2182569 L491.226383,85.1124007 C491.076165,85.4434087 490.742844,85.6203604 490.415505,85.5428752 Z M484.197248,85.5428752 C483.868423,85.6228906 483.532493,85.4455505 483.381814,85.1124007 L483.381814,61.3375064 C483.580913,61.065065 483.880604,60.9067534 484.197248,60.9067534 C484.513893,60.9067534 484.813583,61.065065 485.012682,61.3375064 L485.012682,85.1124007 C484.862003,85.4455505 484.526073,85.6228906 484.197248,85.5428752 Z M477.978992,85.5428752 C477.650167,85.6228906 477.314237,85.4455505 477.163557,85.1124007 L477.163557,67.7986563 C477.362467,67.5258746 477.662227,67.367307 477.978992,67.367307 C478.295756,67.367307 478.595517,67.5258746 478.794426,67.7986563 L478.794426,85.1124007 C478.643971,85.4431416 478.310846,85.6199888 477.983547,85.5428752 L477.978992,85.5428752 Z M471.759824,85.5428752 C471.429557,85.6250599 471.091207,85.4474348 470.939834,85.1124007 L470.939834,77.8124809 C471.138933,77.5400394 471.438624,77.3817278 471.755269,77.3817278 C472.071913,77.3817278 472.371604,77.5400394 472.570703,77.8124809 L472.570703,85.1124007 C472.420485,85.4434087 472.087163,85.6203604 471.759824,85.5428752 Z M465.541568,85.5428752 C465.212743,85.6228906 464.876813,85.4455505 464.726133,85.1124007 L464.726133,67.9670152 C464.925232,67.6945737 465.224923,67.5362622 465.541568,67.5362622 C465.858212,67.5362622 466.157903,67.6945737 466.357002,67.9670152 L466.357002,85.1124007 C466.206322,85.4455505 465.870393,85.6228906 465.541568,85.5428752 Z M459.3224,85.5428752 C458.993575,85.6228906 458.657645,85.4455505 458.506966,85.1124007 L458.506966,51.4678455 C458.706065,51.195404 459.005756,51.0370924 459.3224,51.0370924 C459.639044,51.0370924 459.938735,51.195404 460.137834,51.4678455 L460.137834,85.1124007 C459.987155,85.4455505 459.651225,85.6228906 459.3224,85.5428752 Z M453.104144,85.5428752 C452.773838,85.6254422 452.435284,85.4477095 452.284154,85.1124007 L452.284154,61.2044324 C452.483253,60.9319909 452.782944,60.7736793 453.099588,60.7736793 C453.416233,60.7736793 453.715923,60.9319909 453.915022,61.2044324 L453.915022,85.1124007 C453.764567,85.4431416 453.431442,85.6199888 453.104144,85.5428752 Z M446.884976,85.5428752 C446.55619,85.6225137 446.220461,85.4452796 446.069542,85.1124007 L446.069542,71.1315572 C446.268641,70.8591157 446.568331,70.7008041 446.884976,70.7008041 C447.20162,70.7008041 447.501311,70.8591157 447.70041,71.1315572 L447.70041,85.1124007 C447.549731,85.4455505 447.213801,85.6228906 446.884976,85.5428752 Z M440.666719,85.5428752 C440.337894,85.6228906 440.001965,85.4455505 439.851285,85.1124007 L439.851285,81.0244053 C440.050384,80.7519638 440.350075,80.5936522 440.666719,80.5936522 C440.983364,80.5936522 441.283055,80.7519638 441.482154,81.0244053 L441.482154,85.1124007 C441.331474,85.4455505 440.995545,85.6228906 440.666719,85.5428752 Z M434.448463,85.5428752 C434.118157,85.6254422 433.779603,85.4477095 433.628473,85.1124007 L433.628473,71.1144188 C433.827572,70.8419774 434.127263,70.6836658 434.443908,70.6836658 C434.760552,70.6836658 435.060243,70.8419774 435.259342,71.1144188 L435.259342,85.1124007 C435.108887,85.4431416 434.775762,85.6199888 434.448463,85.5428752 Z M428.229295,85.5428752 C427.90047,85.6228906 427.564541,85.4455505 427.413861,85.1124007 L427.413861,54.4650367 C427.612771,54.192255 427.912531,54.0336874 428.229295,54.0336874 C428.54606,54.0336874 428.84582,54.192255 429.04473,54.4650367 L429.04473,85.1124007 C428.89381,85.4452796 428.558081,85.6225137 428.229295,85.5428752 Z M422.010128,85.5428752 C421.681342,85.6225137 421.345613,85.4452796 421.194694,85.1124007 L421.194694,38.4013822 C421.393793,38.1289407 421.693483,37.9706291 422.010128,37.9706291 C422.326772,37.9706291 422.626463,38.1289407 422.825562,38.4013822 L422.825562,85.1134088 C422.67459,85.4461672 422.338731,85.6230549 422.010128,85.5428752 Z M415.791871,85.5428752 C415.463046,85.6228906 415.127117,85.4455505 414.976437,85.1124007 L414.976437,44.6165466 C415.175536,44.3441051 415.475227,44.1857936 415.791871,44.1857936 C416.108516,44.1857936 416.408207,44.3441051 416.607306,44.6165466 L416.607306,85.1124007 C416.456626,85.4455505 416.120696,85.6228906 415.791871,85.5428752 Z M409.573615,85.5428752 C409.24479,85.6228906 408.90886,85.4455505 408.758181,85.1124007 L408.758181,57.8412874 C408.95728,57.568846 409.25697,57.4105344 409.573615,57.4105344 C409.890259,57.4105344 410.18995,57.568846 410.389049,57.8412874 L410.389049,85.1124007 C410.23813,85.4452796 409.902401,85.6225137 409.573615,85.5428752 Z M403.354447,85.5428752 C403.025662,85.6225137 402.689933,85.4452796 402.539013,85.1124007 L402.539013,67.906527 C402.737922,67.6337452 403.037683,67.4751777 403.354447,67.4751777 C403.671212,67.4751777 403.970972,67.6337452 404.169882,67.906527 L404.169882,85.1124007 C404.019202,85.4455505 403.683272,85.6228906 403.354447,85.5428752 Z M397.136191,85.5428752 C396.807366,85.6228906 396.471436,85.4455505 396.320757,85.1124007 L396.320757,77.8124809 C396.519856,77.5400394 396.819546,77.3817278 397.136191,77.3817278 C397.452835,77.3817278 397.752526,77.5400394 397.951625,77.8124809 L397.951625,85.1124007 C397.800946,85.4455505 397.465016,85.6228906 397.136191,85.5428752 Z M390.917023,85.5428752 C390.586718,85.6254422 390.248163,85.4477095 390.097033,85.1124007 L390.097033,71.2384197 C390.295943,70.9656379 390.595703,70.8070704 390.912468,70.8070704 C391.229232,70.8070704 391.528993,70.9656379 391.727902,71.2384197 L391.727902,85.1124007 C391.577684,85.4434087 391.244362,85.6203604 390.917023,85.5428752 Z M384.698767,85.5428752 C384.369942,85.6228906 384.034012,85.4455505 383.883332,85.1124007 L383.883332,54.6414607 C384.082432,54.3690192 384.382122,54.2107076 384.698767,54.2107076 C385.015411,54.2107076 385.315102,54.3690192 385.514201,54.6414607 L385.514201,85.1124007 C385.363522,85.4455505 385.027592,85.6228906 384.698767,85.5428752 Z M378.479599,85.5428752 C378.150813,85.6225137 377.815084,85.4452796 377.664165,85.1124007 L377.664165,41.7473888 C377.863443,41.4749163 378.163276,41.3166074 378.480055,41.3166074 C378.796833,41.3166074 379.096667,41.4749163 379.295945,41.7473888 L379.295945,85.1124007 C379.144694,85.4454386 378.808643,85.6226447 378.479599,85.5428752 Z M372.261343,85.5428752 C371.932518,85.6228906 371.596588,85.4455505 371.445908,85.1124007 L371.445908,28.1466129 C371.645008,27.8741714 371.944698,27.7158598 372.261343,27.7158598 C372.577987,27.7158598 372.877678,27.8741714 373.076777,28.1466129 L373.076777,85.1124007 C372.926098,85.4455505 372.590168,85.6228906 372.261343,85.5428752 Z M366.043086,85.5428752 C365.714261,85.6228906 365.378331,85.4455505 365.227652,85.1124007 L365.227652,28.1526617 C365.426751,27.8802202 365.726442,27.7219086 366.043086,27.7219086 C366.359731,27.7219086 366.659422,27.8802202 366.858521,28.1526617 L366.858521,85.1124007 C366.707601,85.4452796 366.371872,85.6225137 366.043086,85.5428752 Z M359.823919,85.5428752 C359.495133,85.6225137 359.159404,85.4452796 359.008484,85.1124007 L359.008484,38.1180957 C359.207762,37.8456232 359.507596,37.6873143 359.824374,37.6873143 C360.141153,37.6873143 360.440986,37.8456232 360.640264,38.1180957 L360.640264,85.1124007 C360.489013,85.4454386 360.152962,85.6226447 359.823919,85.5428752 Z M353.604751,85.5428752 C353.275965,85.6225137 352.940236,85.4452796 352.789317,85.1124007 L352.789317,51.2924296 C352.988783,51.020296 353.288547,50.8622417 353.605207,50.8622417 C353.921866,50.8622417 354.22163,51.020296 354.421097,51.2924296 L354.421097,85.1124007 C354.269846,85.4454386 353.933795,85.6226447 353.604751,85.5428752 Z M347.386495,85.5428752 C347.05767,85.6228906 346.72174,85.4455505 346.57106,85.1124007 L346.57106,64.1552493 C346.76997,63.8824676 347.06973,63.7239 347.386495,63.7239 C347.703259,63.7239 348.00302,63.8824676 348.201929,64.1552493 L348.201929,85.1124007 C348.05125,85.4455505 347.71532,85.6228906 347.386495,85.5428752 Z M341.168238,85.5428752 C340.839413,85.6228906 340.503483,85.4455505 340.352804,85.1124007 L340.352804,74.4170755 C340.551903,74.1446341 340.851594,73.9863225 341.168238,73.9863225 C341.484883,73.9863225 341.784573,74.1446341 341.983673,74.4170755 L341.983673,85.1124007 C341.832993,85.4455505 341.497063,85.6228906 341.168238,85.5428752 Z M334.949071,85.5428752 C334.620285,85.6225137 334.284556,85.4452796 334.133636,85.1124007 L334.133636,61.3254088 C334.332725,61.0525965 334.632628,60.894032 334.949526,60.894032 C335.266425,60.894032 335.566328,61.0525965 335.765416,61.3254088 L335.765416,85.1174414 C335.61271,85.448524 335.277008,85.6234736 334.949071,85.5428752 Z M328.730814,85.5428752 C328.401989,85.6228906 328.066059,85.4455505 327.91538,85.1124007 L327.91538,44.6185629 C328.114479,44.3461214 328.41417,44.1878098 328.730814,44.1878098 C329.047459,44.1878098 329.347149,44.3461214 329.546249,44.6185629 L329.546249,85.1124007 C329.395569,85.4455505 329.059639,85.6228906 328.730814,85.5428752 Z M322.512558,85.5428752 C322.183733,85.6228906 321.847803,85.4455505 321.697123,85.1124007 L321.697123,54.3974915 C321.896222,54.1250501 322.195913,53.9667385 322.512558,53.9667385 C322.829202,53.9667385 323.128893,54.1250501 323.327992,54.3974915 L323.327992,85.1124007 C323.177073,85.4452796 322.841344,85.6225137 322.512558,85.5428752 Z M316.29339,85.5428752 C315.963085,85.6254422 315.62453,85.4477095 315.4734,85.1124007 L315.4734,64.4002266 C315.67231,64.1274449 315.97207,63.9688773 316.288835,63.9688773 C316.605599,63.9688773 316.90536,64.1274449 317.104269,64.4002266 L317.104269,85.1124007 C316.954051,85.4434087 316.620729,85.6203604 316.29339,85.5428752 Z M310.074223,85.5428752 C309.745437,85.6225137 309.409708,85.4452796 309.258788,85.1124007 L309.258788,71.2878184 C309.457877,71.015006 309.75778,70.8564415 310.074678,70.8564415 C310.391577,70.8564415 310.69148,71.015006 310.890568,71.2878184 L310.890568,85.1124007 C310.739317,85.4454386 310.403266,85.6226447 310.074223,85.5428752 Z M303.855966,85.5428752 C303.525661,85.6254422 303.187106,85.4477095 303.035976,85.1124007 L303.035976,77.8124809 C303.235075,77.5400394 303.534766,77.3817278 303.851411,77.3817278 C304.168055,77.3817278 304.467746,77.5400394 304.666845,77.8124809 L304.666845,85.1124007 C304.516627,85.4434087 304.183305,85.6203604 303.855966,85.5428752 Z M297.63771,85.5428752 C297.307404,85.6254422 296.96885,85.4477095 296.81772,85.1124007 L296.81772,64.3165512 C297.016819,64.0441097 297.31651,63.8857982 297.633154,63.8857982 C297.949799,63.8857982 298.249489,64.0441097 298.448588,64.3165512 L298.448588,85.1124007 C298.298133,85.4431416 297.965009,85.6199888 297.63771,85.5428752 Z M291.418542,85.5428752 C291.089756,85.6225137 290.754027,85.4452796 290.603108,85.1124007 L290.603108,54.7090058 C290.802196,54.4361935 291.102099,54.277629 291.418998,54.277629 C291.735896,54.277629 292.035799,54.4361935 292.234888,54.7090058 L292.234888,85.1124007 C292.083637,85.4454386 291.747586,85.6226447 291.418542,85.5428752 Z M285.200286,85.5428752 C284.86998,85.6254422 284.531426,85.4477095 284.380296,85.1124007 L284.380296,45.1558999 C284.579395,44.8834584 284.879086,44.7251468 285.19573,44.7251468 C285.512375,44.7251468 285.812065,44.8834584 286.011164,45.1558999 L286.011164,85.1134088 C285.860655,85.4440254 285.527403,85.6205258 285.200286,85.5428752 Z M278.981118,85.5428752 C278.652293,85.6228906 278.316363,85.4455505 278.165684,85.1124007 L278.165684,34.9979117 C278.364783,34.7254703 278.664474,34.5671587 278.981118,34.5671587 C279.297762,34.5671587 279.597453,34.7254703 279.796552,34.9979117 L279.796552,85.1124007 C279.645873,85.4455505 279.309943,85.6228906 278.981118,85.5428752 Z M272.762862,85.5428752 C272.434036,85.6228906 272.098107,85.4455505 271.947427,85.1124007 L271.947427,48.461581 C272.146526,48.1891396 272.446217,48.030828 272.762862,48.030828 C273.079506,48.030828 273.379197,48.1891396 273.578296,48.461581 L273.578296,85.1124007 C273.427616,85.4455505 273.091687,85.6228906 272.762862,85.5428752 Z M266.543694,85.5428752 C266.214908,85.6225137 265.879179,85.4452796 265.72826,85.1124007 L265.72826,58.1951435 C265.927348,57.9223312 266.227251,57.7637667 266.54415,57.7637667 C266.861048,57.7637667 267.160951,57.9223312 267.360039,58.1951435 L267.360039,85.1124007 C267.208789,85.4454386 266.872737,85.6226447 266.543694,85.5428752 Z M260.325437,85.5428752 C259.996612,85.6228906 259.660683,85.4455505 259.510003,85.1124007 L259.510003,64.4455927 C259.709102,64.1731513 260.008793,64.0148397 260.325437,64.0148397 C260.642082,64.0148397 260.941773,64.1731513 261.140872,64.4455927 L261.140872,85.1124007 C260.989831,85.4472763 260.651803,85.6249301 260.321793,85.5428752 L260.325437,85.5428752 Z M254.107181,85.5428752 C253.778356,85.6228906 253.442426,85.4455505 253.291747,85.1124007 L253.291747,74.3253351 C253.490656,74.0525534 253.790417,73.8939858 254.107181,73.8939858 C254.423946,73.8939858 254.723706,74.0525534 254.922615,74.3253351 L254.922615,85.1124007 C254.771936,85.4455505 254.436006,85.6228906 254.107181,85.5428752 Z M247.888013,85.5428752 C247.559188,85.6228906 247.223259,85.4455505 247.072579,85.1124007 L247.072579,81.0244053 C247.271678,80.7519638 247.571369,80.5936522 247.888013,80.5936522 C248.204658,80.5936522 248.504349,80.7519638 248.703448,81.0244053 L248.703448,85.1124007 C248.552768,85.4455505 248.216838,85.6228906 247.888013,85.5428752 Z M241.668846,85.5428752 C241.338579,85.6250599 241.000229,85.4474348 240.848856,85.1124007 L240.848856,77.8124809 C241.048322,77.5403472 241.348086,77.3822929 241.664746,77.3822929 C241.981405,77.3822929 242.281169,77.5403472 242.480636,77.8124809 L242.480636,85.1124007 C242.32985,85.4433009 241.996403,85.6201208 241.668846,85.5428752 Z M235.450589,85.5428752 C235.121764,85.6228906 234.785835,85.4455505 234.635155,85.1124007 L234.635155,71.3422578 C234.834254,71.0698163 235.133945,70.9115047 235.450589,70.9115047 C235.767234,70.9115047 236.066925,71.0698163 236.266024,71.3422578 L236.266024,85.1124007 C236.115163,85.446412 235.778185,85.6239087 235.448767,85.5428752 L235.450589,85.5428752 Z M229.232333,85.5428752 C228.903508,85.6228906 228.567578,85.4455505 228.416899,85.1124007 L228.416899,77.8124809 C228.615998,77.5400394 228.915688,77.3817278 229.232333,77.3817278 C229.548977,77.3817278 229.848668,77.5400394 230.047767,77.8124809 L230.047767,85.1124007 C229.897088,85.4455505 229.561158,85.6228906 229.232333,85.5428752 Z M223.013165,85.5428752 C222.682898,85.6250599 222.344549,85.4474348 222.193175,85.1124007 L222.193175,81.0244053 C222.392642,80.7522716 222.692406,80.5942173 223.009065,80.5942173 C223.325725,80.5942173 223.625489,80.7522716 223.824955,81.0244053 L223.824955,85.1124007 C223.67417,85.4433009 223.340722,85.6201208 223.013165,85.5428752 Z M216.794909,85.5428752 C216.466084,85.6228906 216.130154,85.4455505 215.979475,85.1124007 L215.979475,74.4543766 C216.178384,74.1815949 216.478144,74.0230273 216.794909,74.0230273 C217.111673,74.0230273 217.411434,74.1815949 217.610343,74.4543766 L217.610343,85.1124007 C217.459664,85.4455505 217.123734,85.6228906 216.794909,85.5428752 Z M210.575741,85.5428752 C210.245436,85.6254422 209.906881,85.4477095 209.755751,85.1124007 L209.755751,64.6411713 C209.954851,64.3687298 210.254541,64.2104183 210.571186,64.2104183 C210.88783,64.2104183 211.187521,64.3687298 211.38662,64.6411713 L211.38662,85.1124007 C211.236402,85.4434087 210.90308,85.6203604 210.575741,85.5428752 Z M204.357485,85.5428752 C204.027179,85.6254422 203.688625,85.4477095 203.537495,85.1124007 L203.537495,71.152728 C203.736594,70.8802866 204.036285,70.721975 204.352929,70.721975 C204.669574,70.721975 204.969265,70.8802866 205.168364,71.152728 L205.168364,85.1124007 C205.018145,85.4434087 204.684824,85.6203604 204.357485,85.5428752 Z M198.138317,85.5428752 C197.809531,85.6225137 197.473802,85.4452796 197.322883,85.1124007 L197.322883,77.8124809 C197.522349,77.5403472 197.822113,77.3822929 198.138773,77.3822929 C198.455432,77.3822929 198.755196,77.5403472 198.954663,77.8124809 L198.954663,85.1124007 C198.803412,85.4454386 198.467361,85.6226447 198.138317,85.5428752 Z M191.920061,85.5428752 C191.589755,85.6254422 191.251201,85.4477095 191.100071,85.1124007 L191.100071,81.0244053 C191.29917,80.7519638 191.598861,80.5936522 191.915505,80.5936522 C192.23215,80.5936522 192.53184,80.7519638 192.73094,81.0244053 L192.73094,85.1124007 C192.580721,85.4434087 192.2474,85.6203604 191.920061,85.5428752 Z M185.701804,85.5428752 C185.371499,85.6254422 185.032944,85.4477095 184.881814,85.1124007 L184.881814,77.8124809 C185.080914,77.5400394 185.380604,77.3817278 185.697249,77.3817278 C186.013893,77.3817278 186.313584,77.5400394 186.512683,77.8124809 L186.512683,85.1124007 C186.362558,85.4429824 186.029756,85.6198569 185.702715,85.5428752 L185.701804,85.5428752 Z M179.482637,85.5428752 C179.153851,85.6225137 178.818122,85.4452796 178.667202,85.1124007 L178.667202,74.1237077 C178.866291,73.8508954 179.166194,73.6923309 179.483092,73.6923309 C179.799991,73.6923309 180.099894,73.8508954 180.298982,74.1237077 L180.298982,85.1124007 C180.147731,85.4454386 179.81168,85.6226447 179.482637,85.5428752 Z M173.263469,85.5428752 C172.934683,85.6225137 172.598954,85.4452796 172.448035,85.1124007 L172.448035,77.8124809 C172.647501,77.5403472 172.947265,77.3822929 173.263925,77.3822929 C173.580584,77.3822929 173.880348,77.5403472 174.079815,77.8124809 L174.079815,85.1124007 C173.928564,85.4454386 173.592513,85.6226447 173.263469,85.5428752 Z M167.045213,85.5428752 C166.716388,85.6228906 166.380458,85.4455505 166.229778,85.1124007 L166.229778,81.0244053 C166.428877,80.7519638 166.728568,80.5936522 167.045213,80.5936522 C167.361857,80.5936522 167.661548,80.7519638 167.860647,81.0244053 L167.860647,85.1124007 C167.709968,85.4455505 167.374038,85.6228906 167.045213,85.5428752 Z M160.826956,85.5428752 C160.498131,85.6228906 160.162201,85.4455505 160.011522,85.1124007 L160.011522,77.8124809 C160.210621,77.5400394 160.510312,77.3817278 160.826956,77.3817278 C161.143601,77.3817278 161.443291,77.5400394 161.642391,77.8124809 L161.642391,85.1124007 C161.491987,85.4442633 161.157624,85.6213699 160.82969,85.5428752 L160.826956,85.5428752 Z M154.6087,85.5428752 C154.278471,85.6246791 153.940325,85.447161 153.78871,85.1124007 L153.78871,81.0244053 C153.988176,80.7522716 154.28794,80.5942173 154.6046,80.5942173 C154.921259,80.5942173 155.221023,80.7522716 155.42049,81.0244053 L155.42049,85.1124007 C155.269941,85.4435679 154.936297,85.6204921 154.6087,85.5428752 Z M148.389532,85.5428752 C148.060707,85.6228906 147.724777,85.4455505 147.574098,85.1124007 L147.574098,81.0244053 C147.773197,80.7519638 148.072888,80.5936522 148.389532,80.5936522 C148.706177,80.5936522 149.005867,80.7519638 149.204967,81.0244053 L149.204967,85.1124007 C149.054287,85.4455505 148.718357,85.6228906 148.389532,85.5428752 Z M142.171276,85.5428752 C141.842451,85.6228906 141.506521,85.4455505 141.355841,85.1124007 L141.355841,84.0578894 C141.55494,83.785448 141.854631,83.6271364 142.171276,83.6271364 C142.48792,83.6271364 142.787611,83.785448 142.98671,84.0578894 L142.98671,85.1124007 C142.836031,85.4455505 142.500101,85.6228906 142.171276,85.5428752 Z M135.952108,85.5428752 C135.623283,85.6228906 135.287353,85.4455505 135.136674,85.1124007 L135.136674,84.0578894 C135.335773,83.785448 135.635464,83.6271364 135.952108,83.6271364 C136.268753,83.6271364 136.568443,83.785448 136.767542,84.0578894 L136.767542,85.1124007 C136.617324,85.4434087 136.284003,85.6203604 135.956664,85.5428752 L135.952108,85.5428752 Z M627.226258,88.7467345 C626.89721,88.826586 626.56121,88.6487932 626.410824,88.3152519 L626.410824,87.2617487 C626.609923,86.9893073 626.909613,86.8309957 627.226258,86.8309957 C627.542902,86.8309957 627.842593,86.9893073 628.041692,87.2617487 L628.041692,88.3152519 C627.891548,88.649065 627.555345,88.8269648 627.226258,88.7467345 Z M621.008002,91.7802187 C620.679176,91.8602341 620.343247,91.6828939 620.192567,91.3497442 L620.192567,87.2617487 C620.391666,86.9893073 620.691357,86.8309957 621.008002,86.8309957 C621.324646,86.8309957 621.624337,86.9893073 621.823436,87.2617487 L621.823436,91.3497442 C621.672756,91.6828939 621.336827,91.8602341 621.008002,91.7802187 Z M614.789745,91.7802187 C614.459516,91.8620226 614.121371,91.6845045 613.969755,91.3497442 L613.969755,87.2617487 C614.169222,86.9896151 614.468986,86.8315608 614.785645,86.8315608 C615.102305,86.8315608 615.402069,86.9896151 615.601535,87.2617487 L615.601535,91.3497442 C615.450986,91.6809113 615.117342,91.8578356 614.789745,91.7802187 Z M608.570577,94.9921431 C608.24149,95.0723734 607.905288,94.8944735 607.755143,94.5606604 L607.755143,87.2617487 C607.954242,86.9893073 608.253933,86.8309957 608.570577,86.8309957 C608.887222,86.8309957 609.186913,86.9893073 609.386012,87.2617487 L609.386012,94.5606604 C609.235625,94.8942017 608.899625,95.0719946 608.570577,94.9921431 Z M602.35141,91.7802187 C602.022624,91.8598572 601.686895,91.6826231 601.535976,91.3497442 L601.535976,87.2617487 C601.735075,86.9893073 602.034765,86.8309957 602.35141,86.8309957 C602.668054,86.8309957 602.967745,86.9893073 603.166844,87.2617487 L603.166844,91.3497442 C603.015893,91.6841873 602.678391,91.8617624 602.348677,91.7802187 L602.35141,91.7802187 Z M596.133153,94.9921431 C595.804066,95.0723734 595.467864,94.8944735 595.317719,94.5606604 L595.317719,87.2617487 C595.516818,86.9893073 595.816509,86.8309957 596.133153,86.8309957 C596.449798,86.8309957 596.749489,86.9893073 596.948588,87.2617487 L596.948588,94.5606604 C596.798443,94.8944735 596.46224,95.0723734 596.133153,94.9921431 Z M589.914897,98.3663775 C589.584668,98.4481814 589.246523,98.2706633 589.094907,97.935903 L589.094907,87.2617487 C589.294373,86.9896151 589.594138,86.8315608 589.910797,86.8315608 C590.227456,86.8315608 590.527221,86.9896151 590.726687,87.2617487 L590.726687,97.935903 C590.576138,98.2670702 590.242494,98.4439944 589.914897,98.3663775 Z M583.695729,94.9921431 C583.366682,95.0719946 583.030681,94.8942017 582.880295,94.5606604 L582.880295,87.2617487 C583.079394,86.9893073 583.379085,86.8309957 583.695729,86.8309957 C584.012374,86.8309957 584.312065,86.9893073 584.511164,87.2617487 L584.511164,94.5606604 C584.361019,94.8944735 584.024816,95.0723734 583.695729,94.9921431 Z M577.477473,91.7802187 C577.148648,91.8602341 576.812718,91.6828939 576.662039,91.3497442 L576.662039,87.2617487 C576.861138,86.9893073 577.160828,86.8309957 577.477473,86.8309957 C577.794117,86.8309957 578.093808,86.9893073 578.292907,87.2617487 L578.292907,91.3497442 C578.142046,91.6837555 577.805069,91.8612521 577.475651,91.7802187 L577.477473,91.7802187 Z M571.258305,94.9921431 C570.927738,95.0749315 570.588906,94.8966364 570.438315,94.5606604 L570.438315,87.2617487 C570.637415,86.9893073 570.937105,86.8309957 571.25375,86.8309957 C571.570394,86.8309957 571.870085,86.9893073 572.069184,87.2617487 L572.069184,94.5606604 C571.919496,94.8923279 571.585906,95.0698367 571.258305,94.9921431 Z M565.040049,105.092667 C564.711224,105.172683 564.375294,104.995343 564.224614,104.662193 L564.224614,87.2617487 C564.423714,86.9893073 564.723404,86.8309957 565.040049,86.8309957 C565.356693,86.8309957 565.656384,86.9893073 565.855483,87.2617487 L565.855483,104.662193 C565.704564,104.995072 565.368835,105.172306 565.040049,105.092667 Z M558.820881,98.1697908 C558.492095,98.2494293 558.156366,98.0721952 558.005447,97.7393163 L558.005447,87.2617487 C558.204546,86.9893073 558.504237,86.8309957 558.820881,86.8309957 C559.137526,86.8309957 559.437216,86.9893073 559.636316,87.2617487 L559.636316,97.7393163 C559.485636,98.0724661 559.149706,98.2498062 558.820881,98.1697908 Z M552.602625,91.7802187 C552.272319,91.8627856 551.933765,91.6850529 551.782635,91.3497442 L551.782635,87.2617487 C551.981734,86.9893073 552.281425,86.8309957 552.598069,86.8309957 C552.914714,86.8309957 553.214405,86.9893073 553.413504,87.2617487 L553.413504,91.3497442 C553.263285,91.6807521 552.929964,91.8577039 552.602625,91.7802187 Z M546.384368,102.057167 C546.053878,102.139188 545.715458,101.96111 545.564378,101.625684 L545.564378,87.2617487 C545.763845,86.9896151 546.063609,86.8315608 546.380268,86.8315608 C546.696928,86.8315608 546.996692,86.9896151 547.196158,87.2617487 L547.196158,101.625684 C547.046139,101.957511 546.712227,102.134992 546.384368,102.057167 Z M540.165201,111.241295 C539.836376,111.32131 539.500446,111.14397 539.349766,110.81082 L539.349766,87.2617487 C539.548866,86.9893073 539.848556,86.8309957 540.165201,86.8309957 C540.481845,86.8309957 540.781536,86.9893073 540.980635,87.2617487 L540.980635,110.81082 C540.829956,111.14397 540.494026,111.32131 540.165201,111.241295 Z M533.946033,101.260739 C533.616986,101.34059 533.280985,101.162797 533.130599,100.829256 L533.130599,87.2617487 C533.329698,86.9893073 533.629389,86.8309957 533.946033,86.8309957 C534.262678,86.8309957 534.562368,86.9893073 534.761468,87.2617487 L534.761468,100.828248 C534.611323,101.162061 534.27512,101.339961 533.946033,101.259731 L533.946033,101.260739 Z M527.727777,94.9931512 C527.39869,95.0733815 527.062487,94.8954817 526.912342,94.5616686 L526.912342,87.2627569 C527.111441,86.9903154 527.411132,86.8320038 527.727777,86.8320038 C528.044421,86.8320038 528.344112,86.9903154 528.543211,87.2627569 L528.543211,94.5616686 C528.392955,94.8942298 528.05787,95.07152 527.729599,94.9921431 L527.727777,94.9931512 Z M521.50952,108.426576 C521.179291,108.50838 520.841146,108.330862 520.68953,107.996102 L520.68953,87.2617487 C520.888997,86.9896151 521.188761,86.8315608 521.50542,86.8315608 C521.82208,86.8315608 522.121844,86.9896151 522.32131,87.2617487 L522.32131,107.995094 C522.170761,108.326261 521.837117,108.503185 521.50952,108.425568 L521.50952,108.426576 Z M515.290353,121.33073 C514.961305,121.410581 514.625305,121.232788 514.474918,120.899247 L514.474918,87.2617487 C514.674017,86.9893073 514.973708,86.8309957 515.290353,86.8309957 C515.606997,86.8309957 515.906688,86.9893073 516.105787,87.2617487 L516.105787,120.901263 C515.955642,121.235076 515.61944,121.412976 515.290353,121.332746 L515.290353,121.33073 Z M509.072096,111.598175 C508.743271,111.678191 508.407341,111.500851 508.256662,111.167701 L508.256662,87.2617487 C508.455761,86.9893073 508.755452,86.8309957 509.072096,86.8309957 C509.388741,86.8309957 509.688431,86.9893073 509.887531,87.2617487 L509.887531,111.169717 C509.736851,111.502867 509.400921,111.680207 509.072096,111.600192 L509.072096,111.598175 Z M502.85384,98.694022 C502.523611,98.7758259 502.185465,98.5983078 502.03385,98.2635475 L502.03385,87.2617487 C502.233316,86.9896151 502.53308,86.8315608 502.84974,86.8315608 C503.166399,86.8315608 503.466163,86.9896151 503.66563,87.2617487 L503.66563,98.2655638 C503.515363,98.5954543 503.183276,98.7721479 502.856573,98.6960383 L502.85384,98.694022 Z M496.634672,95.1272334 C496.305847,95.2072488 495.969917,95.0299087 495.819238,94.6967589 L495.819238,87.2597325 C496.018337,86.987291 496.318028,86.8289794 496.634672,86.8289794 C496.951317,86.8289794 497.251007,86.987291 497.450107,87.2597325 L497.450107,94.6967589 C497.299772,95.0304209 496.963903,95.2085599 496.634672,95.1292497 L496.634672,95.1272334 Z M490.415505,101.584351 C490.085237,101.666535 489.746888,101.48891 489.595515,101.153876 L489.595515,87.2617487 C489.794614,86.9893073 490.094305,86.8309957 490.410949,86.8309957 C490.727594,86.8309957 491.027284,86.9893073 491.226383,87.2617487 L491.226383,101.155893 C491.076165,101.4869 490.742844,101.663852 490.415505,101.586367 L490.415505,101.584351 Z M484.197248,111.464093 C483.868161,111.544323 483.531958,111.366424 483.381814,111.03261 L483.381814,87.2617487 C483.580913,86.9893073 483.880604,86.8309957 484.197248,86.8309957 C484.513893,86.8309957 484.813583,86.9893073 485.012682,87.2617487 L485.012682,111.035635 C484.862538,111.369448 484.526335,111.547348 484.197248,111.467117 L484.197248,111.464093 Z M477.978992,105.003951 C477.649905,105.084182 477.313702,104.906282 477.163557,104.572469 L477.163557,87.2617487 C477.362656,86.9893073 477.662347,86.8309957 477.978992,86.8309957 C478.295636,86.8309957 478.595327,86.9893073 478.794426,87.2617487 L478.794426,104.575493 C478.644499,104.906893 478.311108,105.084296 477.983547,105.006976 L477.978992,105.003951 Z M471.759824,94.9891186 C471.429295,95.0715229 471.090669,94.8933363 470.939834,94.557636 L470.939834,87.2587243 C471.138933,86.9862829 471.438624,86.8279713 471.755269,86.8279713 C472.071913,86.8279713 472.371604,86.9862829 472.570703,87.2587243 L472.570703,94.557636 C472.421894,94.890479 472.088092,95.0693455 471.759824,94.9921431 L471.759824,94.9891186 Z M465.541568,104.834584 C465.212481,104.914815 464.876278,104.736915 464.726133,104.403102 L464.726133,87.2617487 C464.925232,86.9893073 465.224923,86.8309957 465.541568,86.8309957 C465.858212,86.8309957 466.157903,86.9893073 466.357002,87.2617487 L466.357002,104.406126 C466.206857,104.739939 465.870655,104.917839 465.541568,104.837609 L465.541568,104.834584 Z M459.3224,121.333754 C458.993575,121.413769 458.657645,121.236429 458.506966,120.90328 L458.506966,87.2617487 C458.706065,86.9893073 459.005756,86.8309957 459.3224,86.8309957 C459.639044,86.8309957 459.938735,86.9893073 460.137834,87.2617487 L460.137834,120.906304 C459.987155,121.239454 459.651225,121.416794 459.3224,121.336778 L459.3224,121.333754 Z M453.104144,111.597167 C452.773838,111.679734 452.435284,111.502001 452.284154,111.166693 L452.284154,87.2617487 C452.483253,86.9893073 452.782944,86.8309957 453.099588,86.8309957 C453.416233,86.8309957 453.715923,86.9893073 453.915022,87.2617487 L453.915022,111.169717 C453.764567,111.500458 453.431442,111.677305 453.104144,111.600192 L453.104144,111.597167 Z M446.884976,101.670042 C446.55619,101.749681 446.220461,101.572447 446.069542,101.239568 L446.069542,87.2617487 C446.268641,86.9893073 446.568331,86.8309957 446.884976,86.8309957 C447.20162,86.8309957 447.501311,86.9893073 447.70041,87.2617487 L447.70041,101.242592 C447.549731,101.575742 447.213801,101.753082 446.884976,101.673067 L446.884976,101.670042 Z M440.666719,91.7771942 C440.337894,91.8572097 440.001965,91.6798695 439.851285,91.3467198 L439.851285,87.2587243 C440.050384,86.9862829 440.350075,86.8279713 440.666719,86.8279713 C440.983364,86.8279713 441.283055,86.9862829 441.482154,87.2587243 L441.482154,91.3467198 C441.332355,91.6810445 440.996213,91.8597436 440.666719,91.7802187 L440.666719,91.7771942 Z M434.448463,101.687181 C434.118157,101.769748 433.779603,101.592015 433.628473,101.256706 L433.628473,87.2617487 C433.827572,86.9893073 434.127263,86.8309957 434.443908,86.8309957 C434.760552,86.8309957 435.060243,86.9893073 435.259342,87.2617487 L435.259342,101.259731 C435.108887,101.590472 434.775762,101.767319 434.448463,101.690205 L434.448463,101.687181 Z M428.229295,118.346644 C427.90047,118.42666 427.564541,118.249319 427.413861,117.91617 L427.413861,87.2688057 C427.61296,86.9963642 427.912651,86.8380527 428.229295,86.8380527 C428.54594,86.8380527 428.845631,86.9963642 429.04473,87.2688057 L429.04473,117.91617 C428.89381,118.249049 428.558081,118.426283 428.229295,118.346644 Z M422.010128,134.407274 C421.681342,134.486913 421.345613,134.309679 421.194694,133.9768 L421.194694,87.2617487 C421.393793,86.9893073 421.693483,86.8309957 422.010128,86.8309957 C422.326772,86.8309957 422.626463,86.9893073 422.825562,87.2617487 L422.825562,133.972767 C422.675176,134.306309 422.339175,134.484101 422.010128,134.40425 L422.010128,134.407274 Z M415.791871,128.191102 C415.463046,128.271117 415.127117,128.093777 414.976437,127.760627 L414.976437,87.2617487 C415.175536,86.9893073 415.475227,86.8309957 415.791871,86.8309957 C416.108516,86.8309957 416.408207,86.9893073 416.607306,87.2617487 L416.607306,127.757603 C416.456626,128.090753 416.120696,128.268093 415.791871,128.188077 L415.791871,128.191102 Z M409.573615,114.966361 C409.24479,115.046376 408.90886,114.869036 408.758181,114.535886 L408.758181,87.2617487 C408.95728,86.9893073 409.25697,86.8309957 409.573615,86.8309957 C409.890259,86.8309957 410.18995,86.9893073 410.389049,87.2617487 L410.389049,114.532862 C410.23813,114.865741 409.902401,115.042975 409.573615,114.963337 L409.573615,114.966361 Z M403.354447,104.90213 C403.025439,104.981604 402.68964,104.803917 402.539013,104.470647 L402.539013,87.2617487 C402.738112,86.9893073 403.037803,86.8309957 403.354447,86.8309957 C403.671092,86.8309957 403.970783,86.9893073 404.169882,87.2617487 L404.169882,104.467622 C404.019495,104.801164 403.683495,104.978957 403.354447,104.899105 L403.354447,104.90213 Z M397.136191,94.9951675 C396.807104,95.0753978 396.470901,94.897498 396.320757,94.5636848 L396.320757,87.2647731 C396.519856,86.9923317 396.819546,86.8340201 397.136191,86.8340201 C397.452835,86.8340201 397.752526,86.9923317 397.951625,87.2647731 L397.951625,94.5636848 C397.800601,94.8963235 397.46461,95.0728648 397.136191,94.9921431 L397.136191,94.9951675 Z M390.917023,101.570237 C390.586456,101.653025 390.247624,101.47473 390.097033,101.138754 L390.097033,87.2617487 C390.296133,86.9893073 390.595823,86.8309957 390.912468,86.8309957 C391.229112,86.8309957 391.528803,86.9893073 391.727902,87.2617487 L391.727902,101.13573 C391.578214,101.467397 391.244624,101.644906 390.917023,101.567212 L390.917023,101.570237 Z M384.698767,118.166188 C384.369942,118.246203 384.034012,118.068863 383.883332,117.735713 L383.883332,87.2617487 C384.082432,86.9893073 384.382122,86.8309957 384.698767,86.8309957 C385.015411,86.8309957 385.315102,86.9893073 385.514201,87.2617487 L385.514201,117.732689 C385.363522,118.065839 385.027592,118.243179 384.698767,118.163163 L384.698767,118.166188 Z M378.479599,131.06026 C378.150813,131.139898 377.815084,130.962664 377.664165,130.629785 L377.664165,87.2617487 C377.863631,86.9896151 378.163395,86.8315608 378.480055,86.8315608 C378.796714,86.8315608 379.096478,86.9896151 379.295945,87.2617487 L379.295945,130.626761 C379.144694,130.959799 378.808643,131.137005 378.479599,131.057235 L378.479599,131.06026 Z M372.261343,144.659019 C371.932256,144.73925 371.596053,144.56135 371.445908,144.227537 L371.445908,87.2617487 C371.645008,86.9893073 371.944698,86.8309957 372.261343,86.8309957 C372.577987,86.8309957 372.877678,86.9893073 373.076777,87.2617487 L373.076777,144.227537 C372.926632,144.56135 372.59043,144.73925 372.261343,144.659019 Z M366.043086,144.648938 C365.714261,144.728953 365.378331,144.551613 365.227652,144.218463 L365.227652,87.2587243 C365.426751,86.9862829 365.726442,86.8279713 366.043086,86.8279713 C366.359731,86.8279713 366.659422,86.9862829 366.858521,87.2587243 L366.858521,144.218463 C366.707601,144.551342 366.371872,144.728576 366.043086,144.648938 Z M359.823919,134.686528 C359.495133,134.766167 359.159404,134.588933 359.008484,134.256054 L359.008484,87.2617487 C359.207951,86.9896151 359.507715,86.8315608 359.824374,86.8315608 C360.141034,86.8315608 360.440798,86.9896151 360.640264,87.2617487 L360.640264,134.256054 C360.489013,134.589092 360.152962,134.766298 359.823919,134.686528 Z M353.604751,121.512194 C353.275965,121.591833 352.940236,121.414599 352.789317,121.08172 L352.789317,87.2617487 C352.988783,86.9896151 353.288547,86.8315608 353.605207,86.8315608 C353.921866,86.8315608 354.22163,86.9896151 354.421097,87.2617487 L354.421097,121.08172 C354.269846,121.414758 353.933795,121.591964 353.604751,121.512194 Z M347.386495,108.649375 C347.05767,108.72939 346.72174,108.55205 346.57106,108.2189 L346.57106,87.2617487 C346.770159,86.9893073 347.06985,86.8309957 347.386495,86.8309957 C347.703139,86.8309957 348.00283,86.9893073 348.201929,87.2617487 L348.201929,108.2189 C348.05125,108.55205 347.71532,108.72939 347.386495,108.649375 Z M341.168238,98.3855321 C340.839413,98.4655475 340.503483,98.2882074 340.352804,97.9550576 L340.352804,87.2617487 C340.551903,86.9893073 340.851594,86.8309957 341.168238,86.8309957 C341.484883,86.8309957 341.784573,86.9893073 341.983673,87.2617487 L341.983673,97.9570739 C341.832408,98.289441 341.496619,98.4658765 341.168238,98.3855321 Z M334.949071,111.478207 C334.620063,111.557681 334.284263,111.379995 334.133636,111.046724 L334.133636,87.2617487 C334.333103,86.9896151 334.632867,86.8315608 334.949526,86.8315608 C335.266186,86.8315608 335.56595,86.9896151 335.765416,87.2617487 L335.765416,111.053781 C335.613,111.385255 335.277229,111.560655 334.949071,111.480223 L334.949071,111.478207 Z M328.730814,128.184045 C328.401989,128.26406 328.066059,128.08672 327.91538,127.75357 L327.91538,87.2617487 C328.114479,86.9893073 328.41417,86.8309957 328.730814,86.8309957 C329.047459,86.8309957 329.347149,86.9893073 329.546249,87.2617487 L329.546249,127.755587 C329.395569,128.088736 329.059639,128.266076 328.730814,128.186061 L328.730814,128.184045 Z M322.512558,118.405116 C322.183733,118.485132 321.847803,118.307791 321.697123,117.974642 L321.697123,87.2617487 C321.896222,86.9893073 322.195913,86.8309957 322.512558,86.8309957 C322.829202,86.8309957 323.128893,86.9893073 323.327992,87.2617487 L323.327992,117.976658 C323.177073,118.309537 322.841344,118.486771 322.512558,118.407132 L322.512558,118.405116 Z M316.29339,108.403389 C315.962861,108.485793 315.624236,108.307607 315.4734,107.971907 L315.4734,87.2617487 C315.672499,86.9893073 315.97219,86.8309957 316.288835,86.8309957 C316.605479,86.8309957 316.90517,86.9893073 317.104269,87.2617487 L317.104269,107.973923 C316.954342,108.305322 316.620951,108.482726 316.29339,108.405405 L316.29339,108.403389 Z M310.074223,101.514789 C309.745437,101.594428 309.409708,101.417194 309.258788,101.084315 L309.258788,87.2617487 C309.458255,86.9896151 309.758019,86.8315608 310.074678,86.8315608 C310.391338,86.8315608 310.691102,86.9896151 310.890568,87.2617487 L310.890568,101.086331 C310.739317,101.419369 310.403266,101.596575 310.074223,101.516806 L310.074223,101.514789 Z M303.855966,94.9901268 C303.525399,95.0729152 303.186567,94.8946201 303.035976,94.5586442 L303.035976,87.2597325 C303.235075,86.987291 303.534766,86.8289794 303.851411,86.8289794 C304.168055,86.8289794 304.467746,86.987291 304.666845,87.2597325 L304.666845,94.5586442 C304.517742,94.8910952 304.184012,95.0695088 303.855966,94.9921431 L303.855966,94.9901268 Z M297.63771,108.486056 C297.307404,108.568623 296.96885,108.390891 296.81772,108.055582 L296.81772,87.2617487 C297.016819,86.9893073 297.31651,86.8309957 297.633154,86.8309957 C297.949799,86.8309957 298.249489,86.9893073 298.448588,87.2617487 L298.448588,108.057598 C298.298133,108.388339 297.965009,108.565186 297.63771,108.488073 L297.63771,108.486056 Z M291.418542,118.09461 C291.089534,118.174084 290.753735,117.996398 290.603108,117.663127 L290.603108,87.2617487 C290.802574,86.9896151 291.102338,86.8315608 291.418998,86.8315608 C291.735657,86.8315608 292.035421,86.9896151 292.234888,87.2617487 L292.234888,117.665144 C292.083929,117.998573 291.747808,118.176231 291.418542,118.096626 L291.418542,118.09461 Z M285.200286,127.647716 C284.86998,127.730283 284.531426,127.55255 284.380296,127.217241 L284.380296,87.2617487 C284.579395,86.9893073 284.879086,86.8309957 285.19573,86.8309957 C285.512375,86.8309957 285.812065,86.9893073 286.011164,87.2617487 L286.011164,127.21825 C285.861238,127.549649 285.527846,127.727052 285.200286,127.649732 L285.200286,127.647716 Z M278.981118,137.803688 C278.652293,137.883703 278.316363,137.706363 278.165684,137.373213 L278.165684,87.2587243 C278.364783,86.9862829 278.664474,86.8279713 278.981118,86.8279713 C279.297762,86.8279713 279.597453,86.9862829 279.796552,87.2587243 L279.796552,137.373213 C279.645873,137.706363 279.309943,137.883703 278.981118,137.803688 Z M272.762862,124.340019 C272.434036,124.420034 272.098107,124.242694 271.947427,123.909544 L271.947427,87.2617487 C272.146526,86.9893073 272.446217,86.8309957 272.762862,86.8309957 C273.079506,86.8309957 273.379197,86.9893073 273.578296,87.2617487 L273.578296,123.912568 C273.427616,124.245718 273.091687,124.423058 272.762862,124.343043 L272.762862,124.340019 Z M266.543694,114.60948 C266.214686,114.688955 265.878887,114.511268 265.72826,114.177998 L265.72826,87.2607406 C265.927726,86.9886069 266.22749,86.8305526 266.54415,86.8305526 C266.860809,86.8305526 267.160573,86.9886069 267.360039,87.2607406 L267.360039,114.177998 C267.211139,114.51417 266.87452,114.695001 266.543694,114.616537 L266.543694,114.60948 Z M260.321793,108.366088 C259.992968,108.446104 259.657038,108.268763 259.506359,107.935614 L259.506359,87.2688057 C259.705458,86.9963642 260.005149,86.8380527 260.321793,86.8380527 C260.638438,86.8380527 260.938128,86.9963642 261.137227,87.2688057 L261.137227,107.935614 C260.986548,108.268763 260.650618,108.446104 260.321793,108.366088 Z M254.103537,98.4863458 C253.77445,98.5665761 253.438247,98.3886763 253.288102,98.0548632 L253.288102,87.2677976 C253.487201,86.9953561 253.786892,86.8370445 254.103537,86.8370445 C254.420181,86.8370445 254.719872,86.9953561 254.918971,87.2677976 L254.918971,98.0548632 C254.769191,98.3869584 254.43508,98.5645451 254.107181,98.4863458 L254.103537,98.4863458 Z M247.884369,91.7852593 C247.555544,91.8652748 247.219614,91.6879346 247.068935,91.3547849 L247.068935,87.2667894 C247.268034,86.994348 247.567725,86.8360364 247.884369,86.8360364 C248.201014,86.8360364 248.500704,86.994348 248.699803,87.2667894 L248.699803,91.3547849 C248.548039,91.684264 248.214545,91.8590381 247.888013,91.7802187 L247.884369,91.7852593 Z M241.665201,94.9971837 C241.334673,95.079588 240.996047,94.9014014 240.845212,94.5657011 L240.845212,87.2667894 C241.044678,86.9946557 241.344442,86.8366015 241.661102,86.8366015 C241.977761,86.8366015 242.277525,86.9946557 242.476991,87.2667894 L242.476991,94.5657011 C242.325664,94.8936028 241.994369,95.0684203 241.668846,94.9921431 L241.665201,94.9971837 Z M235.446945,101.467407 C235.11812,101.547422 234.78219,101.370082 234.631511,101.036932 L234.631511,87.2617487 C234.83061,86.9893073 235.130301,86.8309957 235.446945,86.8309957 C235.763589,86.8309957 236.06328,86.9893073 236.262379,87.2617487 L236.262379,101.031892 C236.111883,101.364183 235.776998,101.541367 235.448767,101.462366 L235.446945,101.467407 Z M229.228689,94.9971837 C228.899602,95.0774141 228.563399,94.8995142 228.413254,94.5657011 L228.413254,87.2667894 C228.612353,86.994348 228.912044,86.8360364 229.228689,86.8360364 C229.545333,86.8360364 229.845024,86.994348 230.044123,87.2667894 L230.044123,94.5657011 C229.892885,94.8958396 229.559123,95.071168 229.232333,94.9921431 L229.228689,94.9971837 Z M223.009521,91.7852593 C222.679254,91.8674441 222.340904,91.6898189 222.189531,91.3547849 L222.189531,87.2667894 C222.388997,86.9946557 222.688762,86.8366015 223.005421,86.8366015 C223.32208,86.8366015 223.621845,86.9946557 223.821311,87.2667894 L223.821311,91.3547849 C223.669464,91.682032 223.33843,91.8562991 223.013165,91.7802187 L223.009521,91.7852593 Z M216.791264,98.3562961 C216.462217,98.4361477 216.126216,98.2583548 215.97583,97.9248135 L215.97583,87.2617487 C216.174929,86.9893073 216.47462,86.8309957 216.791264,86.8309957 C217.107909,86.8309957 217.4076,86.9893073 217.606699,87.2617487 L217.606699,97.9197728 C217.456679,98.2515993 217.122767,98.4290802 216.794909,98.3512555 L216.791264,98.3562961 Z M210.575741,108.164461 C210.245436,108.247028 209.906881,108.069295 209.755751,107.733986 L209.755751,87.2617487 C209.954851,86.9893073 210.254541,86.8309957 210.571186,86.8309957 C210.88783,86.8309957 211.187521,86.9893073 211.38662,87.2617487 L211.38662,107.732978 C211.236693,108.064378 210.903302,108.241781 210.575741,108.164461 Z M204.357485,101.652904 C204.027179,101.735471 203.688625,101.557738 203.537495,101.22243 L203.537495,87.2617487 C203.736594,86.9893073 204.036285,86.8309957 204.352929,86.8309957 C204.669574,86.8309957 204.969265,86.9893073 205.168364,87.2617487 L205.168364,101.221421 C205.018145,101.552429 204.684824,101.729381 204.357485,101.651896 L204.357485,101.652904 Z M198.138317,94.9931512 C197.80927,95.0730027 197.473269,94.8952099 197.322883,94.5616686 L197.322883,87.2627569 C197.522349,86.9906232 197.822113,86.8325689 198.138773,86.8325689 C198.455432,86.8325689 198.755196,86.9906232 198.954663,87.2627569 L198.954663,94.5616686 C198.803652,94.8949772 198.4674,95.0722891 198.138317,94.9921431 L198.138317,94.9931512 Z M191.920061,91.7812268 C191.589755,91.8637938 191.251201,91.6860611 191.100071,91.3507523 L191.100071,87.2627569 C191.29917,86.9903154 191.598861,86.8320038 191.915505,86.8320038 C192.23215,86.8320038 192.53184,86.9903154 192.73094,87.2627569 L192.73094,91.3507523 C192.58043,91.6813689 192.247178,91.8578693 191.920061,91.7802187 L191.920061,91.7812268 Z M185.701804,94.9931512 C185.371237,95.0759396 185.032405,94.8976445 184.881814,94.5616686 L184.881814,87.2627569 C185.080914,86.9903154 185.380604,86.8320038 185.697249,86.8320038 C186.013893,86.8320038 186.313584,86.9903154 186.512683,87.2627569 L186.512683,94.5616686 C186.362796,94.8925174 186.029797,95.0694968 185.702715,94.9921431 L185.701804,94.9931512 Z M179.482637,98.6839407 C179.153589,98.7637922 178.817589,98.5859993 178.667202,98.252458 L178.667202,87.263765 C178.866669,86.9916313 179.166433,86.833577 179.483092,86.833577 C179.799752,86.833577 180.099516,86.9916313 180.298982,87.263765 L180.298982,98.252458 C180.14944,98.5877252 179.812833,98.7673026 179.482637,98.6879732 L179.482637,98.6839407 Z M173.263469,94.9931512 C172.934422,95.0730027 172.598421,94.8952099 172.448035,94.5616686 L172.448035,87.2627569 C172.647501,86.9906232 172.947265,86.8325689 173.263925,86.8325689 C173.580584,86.8325689 173.880348,86.9906232 174.079815,87.2627569 L174.079815,94.5616686 C173.928803,94.8949772 173.592552,95.0722891 173.263469,94.9921431 L173.263469,94.9931512 Z M167.045213,91.7812268 C166.716388,91.8612422 166.380458,91.6839021 166.229778,91.3507523 L166.229778,87.2627569 C166.428877,86.9903154 166.728568,86.8320038 167.045213,86.8320038 C167.361857,86.8320038 167.661548,86.9903154 167.860647,87.2627569 L167.860647,91.3507523 C167.709675,91.6835107 167.373816,91.8603984 167.045213,91.7802187 L167.045213,91.7812268 Z M160.826956,94.9931512 C160.497869,95.0733815 160.161667,94.8954817 160.011522,94.5616686 L160.011522,87.2627569 C160.210621,86.9903154 160.510312,86.8320038 160.826956,86.8320038 C161.143601,86.8320038 161.443291,86.9903154 161.642391,87.2627569 L161.642391,94.5616686 C161.492226,94.8938006 161.157663,95.0710129 160.82969,94.9921431 L160.826956,94.9931512 Z M154.6087,91.7812268 C154.278471,91.8630307 153.940325,91.6855126 153.78871,91.3507523 L153.78871,87.2627569 C153.988176,86.9906232 154.28794,86.8325689 154.6046,86.8325689 C154.921259,86.8325689 155.221023,86.9906232 155.42049,87.2627569 L155.42049,91.3507523 C155.26965,91.6815281 154.936075,91.8580012 154.6087,91.7802187 L154.6087,91.7812268 Z M148.389532,91.7812268 C148.060707,91.8612422 147.724777,91.6839021 147.574098,91.3507523 L147.574098,87.2627569 C147.773197,86.9903154 148.072888,86.8320038 148.389532,86.8320038 C148.706177,86.8320038 149.005867,86.9903154 149.204967,87.2627569 L149.204967,91.3507523 C149.053994,91.6835107 148.718135,91.8603984 148.389532,91.7802187 L148.389532,91.7812268 Z M142.171276,88.7477426 C141.842189,88.8279729 141.505986,88.6500731 141.355841,88.31626 L141.355841,87.2627569 C141.55494,86.9903154 141.854631,86.8320038 142.171276,86.8320038 C142.48792,86.8320038 142.787611,86.9903154 142.98671,87.2627569 L142.98671,88.31626 C142.836272,88.6496815 142.50014,88.8271282 142.171276,88.7467345 L142.171276,88.7477426 Z M135.952108,88.7477426 C135.623021,88.8279729 135.286818,88.6500731 135.136674,88.31626 L135.136674,87.2627569 C135.335773,86.9903154 135.635464,86.8320038 135.952108,86.8320038 C136.268753,86.8320038 136.568443,86.9903154 136.767542,87.2627569 L136.767542,88.31626 C136.617562,88.6475359 136.284043,88.8245927 135.956664,88.7467345 L135.952108,88.7477426 Z" id="Eq"></path>
                </g>
            </g>
        </g>
    </g>
</svg>