<svg width="24" height="24" fill="none" xmlns="http://www.w3.org/2000/svg"><g clip-path="url(#a)" fill-rule="evenodd" clip-rule="evenodd" fill="#000"><path d="M12 2a6 6 0 1 0 0 12 6 6 0 0 0 0-12ZM4 8a8 8 0 1 1 16 0A8 8 0 0 1 4 8Z"/><path d="M15.659 12.889a1 1 0 0 1 1.122.86l1.21 9.12a1 1 0 0 1-1.506.989L12 21.166l-4.485 2.692a1 1 0 0 1-1.506-.99l1.21-9.11a1 1 0 0 1 1.982.264l-.937 7.053 3.222-1.933a1 1 0 0 1 1.028 0l3.222 1.933-.937-7.063a1 1 0 0 1 .86-1.123Z"/></g><defs><clipPath id="a"><path fill="#fff" d="M0 0h24v24H0z"/></clipPath></defs></svg>