<svg width="24" height="24" fill="none" xmlns="http://www.w3.org/2000/svg"><path fill-rule="evenodd" clip-rule="evenodd" d="M12 0a9 9 0 0 0-9 9 8.993 8.993 0 0 0 5 8.059V20a3 3 0 0 0 3 3h2a3 3 0 0 0 3-3v-2.941A8.993 8.993 0 0 0 21 9a9 9 0 0 0-9-9Zm2 17v-.587a1 1 0 0 1 .625-.927A6.997 6.997 0 0 0 19 9 7 7 0 0 0 5 9a6.997 6.997 0 0 0 4.375 6.486 1 1 0 0 1 .625.927V17h4Zm-4 2v1a1 1 0 0 0 1 1h2a1 1 0 0 0 1-1v-1h-4Z" fill="#111"/><path fill-rule="evenodd" clip-rule="evenodd" d="M12 6a3 3 0 0 0-3 3 1 1 0 0 1-2 0 5 5 0 0 1 5-5 1 1 0 1 1 0 2Z" fill="#111"/></svg>