<svg width="1171" height="376" fill="none" xmlns="http://www.w3.org/2000/svg" preserveAspectRatio="none"><g clip-path="url(#a)"><path d="M0 0h1171v376H0V0Z" fill="#FF7A5A"/><path d="M370.848 310.451c95.701 36.627 95.434 85.778 196.528 124.468 63.347 24.244 108.958 10.799 172.761 37.169 72.719 30.054 93.854 87.889 141.031 105.945l136.822-371.646L29.3-172l-147.124 386.442c13.154 7.354 68.264 33.62 132.963 58.382 135.053 51.686 270.79 5.128 355.709 37.627Z" fill="url(#b)"/><circle cx="905.696" cy="-37.304" r="262.663" transform="rotate(75 905.696 -37.304)" fill="url(#c)"/></g><defs><linearGradient id="b" x1="920.797" y1="40.673" x2="175.339" y2="468.212" gradientUnits="userSpaceOnUse"><stop offset=".481" stop-color="#fff" stop-opacity="0"/><stop offset=".918" stop-color="#fff" stop-opacity=".25"/></linearGradient><linearGradient id="c" x1="1137" y1="190.076" x2="951.956" y2="41.103" gradientUnits="userSpaceOnUse"><stop stop-color="#fff" stop-opacity=".25"/><stop offset="1" stop-color="#fff" stop-opacity="0"/></linearGradient><clipPath id="a"><path fill="#fff" d="M0 0h1171v376H0z"/></clipPath></defs></svg>
