<svg width="1112" height="324" viewBox="0 0 1112 324" fill="none" xmlns="http://www.w3.org/2000/svg">
<path opacity="0.1" fill-rule="evenodd" clip-rule="evenodd" d="M-55.5401 0.0637111C153.917 -1.20614 300.798 92.7424 390.053 110.93C479.308 129.118 535.095 110.23 590.88 91.3445C646.664 72.4589 715.466 61.9658 821.458 112.329C927.45 162.693 1033.2 44.9565 1033.2 44.9565C1033.2 44.9565 1072.29 -1.42267 1176.54 0.0637111C1282.21 1.57002 1293.82 55.7935 1321.74 77.465C1349.66 99.1364 1375.18 153.283 1738.03 153.283C1934.99 153.283 2385 153.283 2385 153.283V166.988C2385 166.988 1733.24 172.526 1545.47 177.012C1401.17 180.463 1350.59 217.946 1331.98 239.625C1313.36 261.304 1270.55 324.767 1181.19 323.993C1091.84 323.219 1056.47 303.094 991.318 251.232C926.166 199.369 816.81 212.708 770.322 221.102C723.833 229.495 617.842 246.983 539.743 197.318C461.645 147.654 383.544 161.644 337.059 180.531C290.573 199.418 122.805 321.446 -55.5401 321.446C-346.866 320.004 -436 178.414 -436 143.85C-436 109.286 -314.13 -3.05616 -55.5401 0.0637111Z" fill="url(#paint0_linear)"/>
<defs>
<linearGradient id="paint0_linear" x1="2122.59" y1="301.983" x2="2123.95" y2="37.7432" gradientUnits="userSpaceOnUse">
<stop stop-color="#F89096"/>
<stop offset="1" stop-color="#B1B4E5"/>
</linearGradient>
</defs>
</svg>
