<svg width="1112" height="240" viewBox="0 0 1112 240" fill="none" xmlns="http://www.w3.org/2000/svg">
<path fill-rule="evenodd" clip-rule="evenodd" d="M-33.6476 98.7249C21.9831 97.9473 64.583 96.9803 87.097 95.7797C226.862 88.3268 244.166 72.2681 262.8 62.5206C281.433 52.773 349.321 2.88793 431.849 2.31157C514.376 1.73521 558.303 59.6532 622.195 74.5627C686.086 89.4723 726.019 73.9882 765.953 58.5059C805.887 43.0237 855.135 34.4216 931.009 75.7082C1006.88 116.995 1081.42 33.2761 1081.42 33.2761C1081.42 33.2761 1108.59 1.00316 1172.67 0.0169664C1236.74 -0.969228 1267.77 41.3036 1287.74 57.3586C1298.52 66.0264 1301.38 81.2666 1376 93.456L1375.66 128.727C1317.18 138.721 1305.81 164.521 1295.05 177.491C1281.72 193.546 1251.12 240.569 1187.23 239.995C1123.34 239.42 1098.06 224.513 1051.47 186.095C1004.88 147.678 927.679 157.998 894.402 164.878C861.125 171.758 785.253 186.095 729.349 145.379C673.445 104.664 617.538 116.135 584.257 131.617C550.977 147.099 531.022 172.906 460.466 180.359C389.909 187.811 348.654 159.716 307.39 144.807C268.076 130.602 190.097 111.712 -35.9099 111.944C-47.1176 111.955 -33.6476 98.7249 -33.6476 98.7249Z" fill="url(#paint0_linear)"/>
<defs>
<linearGradient id="paint0_linear" x1="947.466" y1="121.617" x2="500.943" y2="353.912" gradientUnits="userSpaceOnUse">
<stop stop-color="#88D1F1"/>
<stop offset="1" stop-color="#B1B5E5"/>
</linearGradient>
</defs>
</svg>
