<svg width="1112" height="273" viewBox="0 0 1112 273" fill="none" xmlns="http://www.w3.org/2000/svg">
<path opacity="0.4" fill-rule="evenodd" clip-rule="evenodd" d="M-1210.59 114.806C-1210.59 114.806 -390.484 111.57 -228.204 108.089C-65.3586 104.607 -16.395 89.062 9.27625 80.7378C52.2922 66.7974 99.8425 31.7377 175.192 33.6891C287.343 36.5934 273.56 80.6681 348.791 94.6781C451.724 113.846 594.599 49.372 685.236 98.744C740.568 128.882 823.326 89.1885 843.08 72.7433C862.834 56.2982 897.981 0 998.633 0C1099.28 0 1141.43 57.2309 1160.71 71.7337C1179.99 86.2366 1192.28 118.225 1517.1 120.915C1745.15 122.804 1869.15 124.849 1866.5 124.58L2360 114.806V130.072C2352.82 130.072 1967.46 133.904 1889.89 133.985C1889.89 133.985 1395.77 138.527 1277.47 147.24C1159.18 155.953 1149.19 195.742 1133.83 212.006C1118.47 228.269 1070.84 273.572 997.101 272.995C923.357 272.417 889.81 245.929 835.926 207.034C802.128 182.639 758.98 178.32 720.573 185.29C682.166 192.26 582.571 209.384 505.493 171.35C414.852 126.625 357.437 144.561 313.458 157.99C273.516 170.188 261.224 183.548 189.019 188.774C139.249 192.376 104.75 179.218 38.4652 154.509C-20.3229 114.608 -1211 124.58 -1211 124.58L-1210.59 114.806Z" fill="url(#paint0_linear)"/>
<defs>
<linearGradient id="paint0_linear" x1="-76.7713" y1="195.829" x2="298.446" y2="788.934" gradientUnits="userSpaceOnUse">
<stop stop-color="#F89096"/>
<stop offset="1" stop-color="#B1B4E5"/>
</linearGradient>
</defs>
</svg>
