<svg xmlns="http://www.w3.org/2000/svg" xmlns:xlink="http://www.w3.org/1999/xlink" width="115" height="115" viewBox="0 0 115 115">
    <defs>
        <filter id="a" width="108.1%" height="105%" x="-4.1%" y="-2.5%" filterUnits="objectBoundingBox">
            <feOffset dy="5" in="SourceAlpha" result="shadowOffsetOuter1"/>
            <feGaussianBlur in="shadowOffsetOuter1" result="shadowBlurOuter1" stdDeviation="5"/>
            <feColorMatrix in="shadowBlurOuter1" result="shadowMatrixOuter1" values="0 0 0 0 0 0 0 0 0 0 0 0 0 0 0 0 0 0 0.0948822464 0"/>
            <feMerge>
                <feMergeNode in="shadowMatrixOuter1"/>
                <feMergeNode in="SourceGraphic"/>
            </feMerge>
        </filter>
        <circle id="b" cx="47.5" cy="47.5" r="47.5"/>
    </defs>
    <g fill="none" fill-rule="evenodd" filter="url(#a)" transform="translate(10 5)">
        <mask id="c" fill="#fff">
            <use xlink:href="#b"/>
        </mask>
        <use fill="#F89096" xlink:href="#b"/>
        <g mask="url(#c)">
            <path fill="#FFF" stroke="#000" stroke-width="2.09" d="M67.402 31.521l-.721-12.841.361-.334c.493-.457.717-1.19.717-2.333 0-1.29-1.068-2.259-2.447-2.259-1.266 0-2.42 1.116-2.42 2.26 0 1.073.247 1.83.753 2.31l.346.326-.543 12.871h3.954zm-45.631 8.482c-4.878 0-8.851 4.154-8.851 9.3v7.748c0 5.147 3.973 9.3 8.85 9.3h51.46c4.877 0 8.85-4.153 8.85-9.3v-7.748c0-5.146-3.973-9.3-8.85-9.3H21.77z"/>
            <path fill="#F3F2F1" stroke="#000" stroke-width="2.09" d="M63.333 29.473H31.667c-8.157 0-14.789 6.933-14.789 15.508v12.96c0 9.173 6.343 16.983 14.966 18.465a92.398 92.398 0 0 0 31.312 0c8.623-1.482 14.966-9.292 14.966-18.466V44.981c0-8.575-6.632-15.508-14.789-15.508z"/>
            <path fill="#FFF" stroke="#000" stroke-width="2.09" d="M59.375 34.838h-23.75c-6.263 0-10.83 4.123-10.83 10.143v13.664c0 6.595 4.724 12.124 10.953 12.861 7.81.924 15.694.924 23.504 0 6.23-.737 10.953-6.266 10.953-12.861V44.98c0-6.02-4.567-10.143-10.83-10.143z"/>
            <path fill="#000007" d="M38.306 57.396h18.115s-.926 6.207-8.921 6.207c-7.584 0-9.194-6.207-9.194-6.207zm.582-15.166a1.65 1.65 0 0 0-.582 1.27c0 .894.689 1.619 1.538 1.619a1.53 1.53 0 0 0 1.356-.855c.385.691.605 1.496.605 2.355 0 2.578-1.985 4.669-4.433 4.669-2.449 0-4.434-2.09-4.434-4.67 0-2.578 1.985-4.668 4.434-4.668.532 0 1.043.099 1.516.28zm20.17-.058a1.712 1.712 0 0 0-.404 1.112c0 .92.71 1.667 1.584 1.667.531 0 1.001-.276 1.289-.699.388.694.61 1.503.61 2.367 0 2.578-1.984 4.669-4.433 4.669-2.448 0-4.433-2.09-4.433-4.67 0-2.578 1.985-4.668 4.433-4.668.472 0 .927.078 1.354.222z"/>
        </g>
    </g>
</svg>
