<svg xmlns="http://www.w3.org/2000/svg" xmlns:xlink="http://www.w3.org/1999/xlink" width="791" height="475" viewBox="0 0 791 475">
    <defs>
        <radialGradient id="a" cx="56.513%" cy="20.119%" r="126.139%" fx="56.513%" fy="20.119%" gradientTransform="matrix(.56217 -.02474 .00854 .6134 .246 .092)">
            <stop offset="0%" stop-color="#D1D1D1"/>
            <stop offset="100%" stop-color="#E7E7E7" stop-opacity="0"/>
        </radialGradient>
        <linearGradient id="b" x1="57.913%" x2="57.913%" y1="57.797%" y2="90.189%">
            <stop offset="0%" stop-color="#FFF"/>
            <stop offset="100%" stop-color="#FFF" stop-opacity="0"/>
        </linearGradient>
        <path id="c" d="M11 0C4.9 0 0 4.9 0 11s4.9 11 11 11 11-4.9 11-11S17.1 0 11 0zm0 20c-5 0-9-4-9-9s4-9 9-9 9 4 9 9-4 9-9 9zm3.7-6.7c.4.4.4 1 0 1.4-.2.2-.4.3-.7.3-.3 0-.5-.1-.7-.3l-3-3c-.2-.2-.3-.4-.3-.7V5c0-.6.4-1 1-1s1 .4 1 1v5.6l2.7 2.7z"/>
    </defs>
    <g fill="none" fill-rule="evenodd">
        <path fill="url(#a)" d="M188 152l32.5 27 4.753-2.778L249 196.5l-8.422-10.534L314 97.5l28 30 5.721-5.508 22.976 22.96L358 162l15.77-13.978 87.327-87.268L467.5 66 498 35l41 50.5 6.5-5L802 365c-108.684 80.667-233.35 121-374 121S144.684 445.667 0 365l188-213z" transform="translate(-11)"/>
        <path fill="url(#b)" d="M402 141.25L497.277 46 533 88.808 507.02 109l-18.673-14.538L441 141.25z" transform="translate(-11)"/>
        <path fill="#000" d="M486 0h1v46h-1z"/>
        <path fill="#59CBB7" d="M486 6h-26.91l1.092 6.545H430l10.364 8.728L434 30h30.545l-2.181-8.727H486z"/>
        <path stroke="#FFF" stroke-linecap="round" stroke-width="2.512" d="M415 180.493l9.43 8.507 44.251-42.611 12.332 8.584L516.848 120 564 162.534M253 215l36.365-36.842 4.216 2.631L308.338 165 331 186.579M154.5 209l16-15.5 8.5 7 13-11.5"/>
        <path fill="#979797" fill-rule="nonzero" d="M174.677 207.646a4.5 4.5 0 0 1 5.895 1.116l.444-.267a.5.5 0 1 1 .517.857l-.444.268a4.5 4.5 0 1 1-6.412-1.974zm5.28 1.983a3.5 3.5 0 1 0 .04.064l.036.063-.043-.058zm3.629-2.682a.5.5 0 1 1 .516.856l-.857.516a.5.5 0 1 1-.516-.856zm2.569-1.549a.5.5 0 1 1 .516.857l-.856.516a.5.5 0 1 1-.516-.857zm2.57-1.549a.5.5 0 1 1 .516.857l-.857.516a.5.5 0 0 1-.516-.856zm42 .277l.09.007.987.16a.5.5 0 1 1-.16.988l-.988-.161a.5.5 0 0 1 .161-.987zm4.02.053a.5.5 0 1 1 .077.997l-.997.077a.5.5 0 1 1-.077-.997zm-7.344-.567a.5.5 0 0 1 .654-.268l.923.385a.5.5 0 1 1-.386.923l-.922-.386a.5.5 0 0 1-.269-.654zm10.073-.2a.5.5 0 1 1 .303.952l-.952.304a.5.5 0 1 1-.304-.953zm-46.18-1.111a.5.5 0 0 1 .516.856l-.856.516a.5.5 0 1 1-.517-.856zm48.728-.318a.5.5 0 0 1 .522.853l-.854.522a.5.5 0 1 1-.521-.853zm-15.202.026a.5.5 0 0 1 .7-.105l.804.595a.5.5 0 1 1-.595.804l-.804-.595a.5.5 0 0 1-.105-.699zm-30.957-1.257a.5.5 0 1 1 .516.857l-.856.516a.5.5 0 1 1-.516-.857zm48.301-.758a.5.5 0 0 1 .708.707l-.707.707a.5.5 0 0 1-.708-.706zm-19.474-.108a.5.5 0 0 1 .706.03l.677.736a.5.5 0 0 1-.736.677l-.677-.736a.5.5 0 0 1 .03-.707zm-26.257-.683a.5.5 0 1 1 .516.857l-.857.516a.5.5 0 1 1-.516-.856zm23.96-1.303a.5.5 0 0 1 .702-.092l.792.61a.5.5 0 1 1-.609.793l-.793-.61a.5.5 0 0 1-.092-.7zm23.658-.191a.5.5 0 0 1 .762.647l-.647.762a.5.5 0 0 1-.763-.647zm-45.05-.054a.5.5 0 1 1 .517.856l-.856.516a.5.5 0 1 1-.517-.856zm2.574-1.546a.5.5 0 0 1 .513.858l-.859.513a.5.5 0 1 1-.512-.859zm16.223.233a.5.5 0 0 1 .675-.21l.886.464a.5.5 0 1 1-.465.885l-.885-.464a.5.5 0 0 1-.21-.675zm28.194-.92a.5.5 0 1 1 .762.647l-.647.762a.5.5 0 0 1-.762-.647zm-30.924-.144a.5.5 0 0 1 .631-.32l.95.312a.5.5 0 1 1-.311.95l-.95-.311a.5.5 0 0 1-.32-.631zm-10.646-.37a.5.5 0 1 1 .36.933l-.933.36a.5.5 0 1 1-.36-.932zm3.034-.702a.5.5 0 0 1 .195.98l-.98.196a.5.5 0 0 1-.196-.98zm5.096.03l.09.005.99.144a.5.5 0 1 1-.144.99l-.99-.144a.5.5 0 1 1 .144-.99zm-2.022-.205a.5.5 0 0 1 .027 1l-1 .027a.5.5 0 0 1-.026-1zm37.403-.896a.5.5 0 1 1 .763.647l-.647.762a.5.5 0 0 1-.763-.647zm1.942-2.288a.5.5 0 1 1 .762.648l-.647.762a.5.5 0 1 1-.762-.647zm1.941-2.287a.5.5 0 0 1 .763.647l-.648.763a.5.5 0 1 1-.762-.647zm1.942-2.287a.5.5 0 0 1 .762.647l-.647.763a.5.5 0 0 1-.763-.647zm1.941-2.287a.5.5 0 1 1 .762.647l-.647.763a.5.5 0 0 1-.762-.648zm1.941-2.287a.5.5 0 1 1 .763.647l-.647.762a.5.5 0 1 1-.763-.647zm1.942-2.287a.5.5 0 1 1 .762.647l-.647.762a.5.5 0 1 1-.762-.647zm102.56.517l.999.059a.5.5 0 0 1-.059.998l-.998-.059a.5.5 0 0 1 .058-.998zm3.958-.044a.5.5 0 0 1 .053.999l-.998.052a.5.5 0 0 1-.053-.998zm-6.91-.286l.09.007.986.166a.5.5 0 1 1-.165.986l-.987-.166a.5.5 0 0 1 .166-.986zm9.848-.147a.5.5 0 1 1 .164.987l-.987.163a.5.5 0 1 1-.164-.986zm-13.286-.161a.5.5 0 0 1 .618-.344l.962.275a.5.5 0 0 1-.275.962l-.962-.275a.5.5 0 0 1-.343-.618zm16.16-.6a.5.5 0 1 1 .274.962l-.961.274a.5.5 0 1 1-.274-.962zm-19.002-.448a.5.5 0 0 1 .653-.272l.924.38a.5.5 0 0 1-.38.926l-.925-.381a.5.5 0 0 1-.272-.653zm21.778-.634a.5.5 0 1 1 .38.924l-.924.381a.5.5 0 1 1-.38-.925zm-113.165-.484a.5.5 0 0 1 .763.647l-.648.762a.5.5 0 1 1-.762-.647zm88.692-.236a.5.5 0 0 1 .68-.197l.875.482a.5.5 0 0 1-.482.876l-.876-.482a.5.5 0 0 1-.197-.68zm27.114-.673a.5.5 0 0 1 .483.876l-.876.483a.5.5 0 1 1-.483-.876zm-29.62-.961a.5.5 0 0 1 .696-.12l.817.577a.5.5 0 1 1-.577.817l-.817-.577a.5.5 0 0 1-.12-.697zm-84.244-.417a.5.5 0 0 1 .762.647l-.647.762a.5.5 0 0 1-.763-.647zm116.301-.28a.5.5 0 1 1 .577.818l-.817.577a.5.5 0 1 1-.576-.817zm-34.386-1.224a.5.5 0 0 1 .706-.04l.747.664a.5.5 0 1 1-.665.747l-.747-.665a.5.5 0 0 1-.041-.706zm36.538-.606a.5.5 0 1 1 .66.751l-.751.66a.5.5 0 0 1-.66-.751zm-116.512-.178a.5.5 0 0 1 .762.648l-.647.762a.5.5 0 0 1-.762-.647zm77.885-1.373a.5.5 0 0 1 .706.038l.669.743a.5.5 0 1 1-.744.669l-.669-.743a.5.5 0 0 1 .038-.707zm40.737-.545a.5.5 0 1 1 .701.713l-.712.702a.5.5 0 1 1-.702-.713zm-116.68-.369a.5.5 0 1 1 .762.647l-.647.763a.5.5 0 1 1-.763-.647zm74.04-1.405a.5.5 0 0 1 .703.071l.633.775a.5.5 0 1 1-.775.632l-.632-.775a.5.5 0 0 1 .07-.703zm44.778-.33a.5.5 0 0 1 .702.713l-.713.702a.5.5 0 1 1-.701-.713zm-116.877-.552a.5.5 0 0 1 .762.647l-.647.763a.5.5 0 1 1-.762-.647zm70.202-1.442a.5.5 0 0 1 .703.071l.633.775a.5.5 0 1 1-.775.632l-.632-.775a.5.5 0 0 1 .07-.703zm48.814-.11a.5.5 0 0 1 .701.713l-.713.702a.5.5 0 0 1-.701-.713zm-117.075-.735a.5.5 0 0 1 .763.647l-.648.763a.5.5 0 1 1-.762-.648zm119.213-1.369a.5.5 0 1 1 .702.713l-.713.701a.5.5 0 0 1-.702-.712zm-52.85-.11a.5.5 0 0 1 .704.07l.633.776a.5.5 0 0 1-.775.632l-.632-.775a.5.5 0 0 1 .07-.703zm-64.421-.808a.5.5 0 0 1 .762.647l-.647.762a.5.5 0 0 1-.763-.647zm119.41-1.186a.5.5 0 1 1 .701.713l-.713.701a.5.5 0 1 1-.701-.712zm-56.885-.33a.5.5 0 0 1 .703.07l.633.775a.5.5 0 0 1-.775.633l-.632-.775a.5.5 0 0 1 .071-.704zm-60.584-.771a.5.5 0 1 1 .762.647l-.647.762a.5.5 0 0 1-.762-.647zm119.607-1.003a.5.5 0 0 1 .701.713l-.712.701a.5.5 0 0 1-.702-.713zm-60.92-.55a.5.5 0 0 1 .704.07l.632.775a.5.5 0 1 1-.775.633l-.632-.775a.5.5 0 0 1 .071-.704zm-56.746-.734a.5.5 0 1 1 .763.647l-.647.762a.5.5 0 1 1-.763-.647zm119.805-.82a.5.5 0 1 1 .7.713l-.712.701a.5.5 0 0 1-.701-.713zm-64.956-.77a.5.5 0 0 1 .704.07l.632.775a.5.5 0 0 1-.775.632l-.632-.774a.5.5 0 0 1 .071-.704zm-52.907-.697a.5.5 0 0 1 .762.647l-.647.762a.5.5 0 0 1-.762-.647zm120.001-.637a.5.5 0 1 1 .701.713l-.712.701a.5.5 0 1 1-.702-.713zm-68.99-.991a.5.5 0 0 1 .703.071l.632.775a.5.5 0 1 1-.775.632l-.632-.774a.5.5 0 0 1 .071-.704zm-49.07-.66a.5.5 0 0 1 .763.648l-.648.762a.5.5 0 0 1-.762-.647zm120.198-.453a.5.5 0 0 1 .702.713l-.713.701a.5.5 0 1 1-.701-.713zm-73.026-1.211a.5.5 0 0 1 .704.071l.632.775a.5.5 0 1 1-.775.632l-.632-.775a.5.5 0 0 1 .071-.703zm-45.23-.623a.5.5 0 1 1 .762.647l-.647.763a.5.5 0 0 1-.763-.647zm120.395-.27a.5.5 0 1 1 .701.713l-.713.701a.5.5 0 0 1-.701-.713zm-77.062-1.431a.5.5 0 0 1 .704.07l.632.776a.5.5 0 0 1-.775.632l-.632-.775a.5.5 0 0 1 .071-.703zm-41.392-.586a.5.5 0 1 1 .762.647l-.647.763a.5.5 0 0 1-.762-.647zm120.592-.087a.5.5 0 1 1 .702.713l-.713.7a.5.5 0 0 1-.702-.712zm-81.265-1.51a.5.5 0 0 1 .708-.007l.713.7a.5.5 0 1 1-.7.714l-.714-.7a.5.5 0 0 1-.007-.708zm83.404-.594a.5.5 0 0 1 .701.712l-.713.702a.5.5 0 1 1-.701-.713zm-120.627-.006a.5.5 0 0 1 .705.709l-.709.705a.5.5 0 0 1-.705-.709zm35.001-1.287a.5.5 0 0 1 .703-.082l.784.62a.5.5 0 0 1-.62.785l-.784-.62a.5.5 0 0 1-.083-.703zm-32.64-.666a.5.5 0 0 1 .622.783l-.783.622a.5.5 0 0 1-.622-.783zm120.404-.145a.5.5 0 1 1 .701.712l-.712.702a.5.5 0 0 1-.702-.713zm-90.204-.844a.5.5 0 0 1 .689-.158l.847.53a.5.5 0 0 1-.53.848l-.848-.531a.5.5 0 0 1-.158-.69zm-27.62-.696a.5.5 0 1 1 .53.848l-.847.53a.5.5 0 1 1-.53-.848zm119.963-.564a.5.5 0 1 1 .7.712l-.712.702a.5.5 0 1 1-.701-.713zm-95.036-.159a.5.5 0 0 1 .667-.234l.902.432a.5.5 0 0 1-.432.901l-.902-.432a.5.5 0 0 1-.235-.667zm-22.208-.646a.5.5 0 0 1 .432.902l-.901.432a.5.5 0 0 1-.433-.901zm19.38-.455a.5.5 0 0 1 .636-.309l.945.327a.5.5 0 0 1-.327.945l-.945-.327a.5.5 0 0 1-.31-.636zm100.002-.845a.5.5 0 0 1 .701.713l-.713.702a.5.5 0 1 1-.7-.713zm-116.497.232a.5.5 0 0 1 .329.944l-.945.33a.5.5 0 0 1-.329-.945zm14.071-.552l.09.012.976.219a.5.5 0 0 1-.22.976l-.975-.219a.5.5 0 1 1 .219-.976zm-11.072-.19a.5.5 0 1 1 .22.975l-.975.22a.5.5 0 1 1-.22-.974zm8.034-.303l.09.001.995.109a.5.5 0 0 1-.108.994l-.994-.108a.5.5 0 0 1 .108-.995zm-5.007-.098a.5.5 0 1 1 .113.994l-.994.112a.5.5 0 0 1-.112-.994zm3.029-.065a.5.5 0 1 1 .003 1l-1 .003a.5.5 0 1 1-.003-1zm109.58-1.128a.5.5 0 0 1 .702.713l-.713.702a.5.5 0 0 1-.701-.713zm2.139-2.104a.5.5 0 1 1 .701.713l-.713.701a.5.5 0 0 1-.701-.712zm2.138-2.104a.5.5 0 1 1 .702.713l-.713.701a.5.5 0 1 1-.702-.712zm2.139-2.104a.5.5 0 0 1 .701.713l-.713.701a.5.5 0 0 1-.701-.713zm2.138-2.104a.5.5 0 1 1 .701.713l-.712.701a.5.5 0 0 1-.702-.713zm2.139-2.104a.5.5 0 1 1 .7.713l-.712.701a.5.5 0 1 1-.701-.713zm2.138-2.104a.5.5 0 0 1 .701.713l-.713.701a.5.5 0 0 1-.7-.713zm2.138-2.104a.5.5 0 1 1 .702.713l-.713.701a.5.5 0 0 1-.701-.713zm2.139-2.104a.5.5 0 0 1 .701.713l-.713.7a.5.5 0 1 1-.701-.712zm2.138-2.104a.5.5 0 0 1 .702.712l-.713.702a.5.5 0 1 1-.702-.713zm2.139-2.104a.5.5 0 1 1 .701.712l-.713.702a.5.5 0 1 1-.701-.713zm2.138-2.104a.5.5 0 0 1 .701.712l-.712.702a.5.5 0 1 1-.702-.713zm2.138-2.105a.5.5 0 0 1 .702.713l-.713.702a.5.5 0 1 1-.701-.713zm2.139-2.104a.5.5 0 1 1 .701.713l-.713.702a.5.5 0 0 1-.7-.713zm2.138-2.104a.5.5 0 1 1 .702.713l-.713.701a.5.5 0 1 1-.701-.712zm2.139-2.104a.5.5 0 1 1 .701.713l-.713.701a.5.5 0 1 1-.701-.712zm2.138-2.104a.5.5 0 0 1 .702.713l-.713.701a.5.5 0 0 1-.702-.712zm2.139-2.104a.5.5 0 1 1 .701.713l-.713.701a.5.5 0 0 1-.701-.713zm2.138-2.104a.5.5 0 1 1 .701.713l-.712.701a.5.5 0 1 1-.702-.713zm2.138-2.104a.5.5 0 1 1 .702.713l-.713.701a.5.5 0 0 1-.701-.713zm2.139-2.104a.5.5 0 0 1 .701.713l-.713.701a.5.5 0 0 1-.7-.713zm2.138-2.104a.5.5 0 0 1 .702.713L461 96.3a.5.5 0 0 1-.701-.713zm2.139-2.104a.5.5 0 0 1 .701.713l-.713.7a.5.5 0 0 1-.701-.712zm2.138-2.104a.5.5 0 0 1 .702.712l-.713.702a.5.5 0 1 1-.702-.713zm2.139-2.104a.5.5 0 0 1 .701.712l-.713.702a.5.5 0 1 1-.701-.713zm2.138-2.105a.5.5 0 0 1 .701.713l-.712.702a.5.5 0 1 1-.702-.713zm2.138-2.104a.5.5 0 0 1 .702.713l-.713.702a.5.5 0 1 1-.701-.713zm2.139-2.104a.5.5 0 0 1 .701.713l-.713.702a.5.5 0 1 1-.7-.713zm2.138-2.104a.5.5 0 1 1 .702.713l-.713.701a.5.5 0 0 1-.701-.712zm2.139-2.104a.5.5 0 1 1 .701.713l-.713.701a.5.5 0 0 1-.701-.712zm2.138-2.104a.5.5 0 1 1 .702.713l-.713.701a.5.5 0 0 1-.702-.713zm2.587-8.157a4.5 4.5 0 1 1 .312 6.696v.001l-.059.069-.713.701a.5.5 0 0 1-.701-.713l.713-.701a.503.503 0 0 1 .071-.059 4.499 4.499 0 0 1 .377-5.994z"/>
        <g transform="translate(100 170)">
            <circle cx="77" cy="42" r="22" fill="#59CBB7" opacity=".2"/>
            <path stroke="#4A4A4A" stroke-linecap="round" stroke-width="1.512" d="M139.68 0l-17.337 12.108M12.06 16.648l18.09 6.055M154 31.027l-20.35 3.784M0 48.432h22.612m128.373 19.676l-15.074-6.054M18.843 84l14.321-8.324"/>
            <circle cx="77" cy="42" r="17" fill="#59CBB7"/>
            <g transform="translate(66 31)">
                <mask id="d" fill="#fff">
                    <use xlink:href="#c"/>
                </mask>
                <!-- <use fill="#000" fill-rule="nonzero" xlink:href="#c"/> -->
                <g fill="#FFF" mask="url(#d)">
                    <path d="M-1-1h24v24H-1z"/>
                </g>
            </g>
        </g>
    </g>
</svg>
