<svg id="Layer_1" data-name="Layer 1" xmlns="http://www.w3.org/2000/svg" viewBox="0 0 1600 533.33"><defs><style>.cls-1{fill:#e1251b;}.cls-2{fill:#fff;}</style></defs><title>lenovo</title><rect class="cls-1" width="1600" height="533.33"/><path class="cls-2" d="M697.05,179.75c-23.63,0-50.51,10.95-66.93,32.88V183.18H573.75V388.46h56.37V271.66c0-21,16.29-43.37,46.47-43.37,23.32,0,47.45,16.22,47.45,43.37v116.8h56.37V261.21c0-47.2-33.77-81.46-83.36-81.46" transform="translate(0)"/><polygon class="cls-2" points="1181.02 183.2 1130.06 323.03 1079.11 183.2 1014.72 183.2 1099.18 388.39 1160.94 388.39 1245.4 183.2 1181.02 183.2"/><path class="cls-2" d="M513.77,325.35c-23.72,17.55-37.28,21.75-58.91,21.75-19.47,0-34.71-6.05-45.46-16.65l144.1-59.78c-3.14-22.28-11.59-42.18-24.61-57.31-18.93-22-46.95-33.62-81.07-33.62-62,0-108.72,45.72-108.72,106.11C339.1,347.8,386,392,454,392c38.14,0,77.14-18.08,95.38-39.2ZM405.48,245c9.6-12.89,24.89-20.45,43.36-20.45,20.31,0,35.72,11.6,43.69,28.71l-98.48,40.85C391.36,273.2,396.72,256.8,405.48,245Z" transform="translate(0)"/><polygon class="cls-2" points="333.73 336.7 205.62 336.7 205.62 121.81 148.49 121.81 148.49 388.45 333.73 388.45 333.73 336.7"/><path class="cls-2" d="M1346.61,391.92c-61.65,0-109.94-45.93-109.94-106.09,0-59.49,48.63-106.09,110.7-106.09,61.64,0,109.93,45.92,109.93,106.09,0,59.48-48.62,106.09-110.69,106.09m0-163.88c-31.48,0-54.33,23.85-54.33,57.79,0,32.4,24.21,57.79,55.09,57.79,31.48,0,54.33-24.51,54.33-57.79,0-32.41-24.2-57.79-55.09-57.79" transform="translate(0)"/><path class="cls-2" d="M912.64,391.92C851,391.92,802.71,346,802.71,285.83c0-59.49,48.62-106.09,110.7-106.09,61.63,0,109.93,45.92,109.93,106.09,0,59.48-48.63,106.09-110.7,106.09m0-163.88c-31.48,0-54.32,23.85-54.32,57.79,0,32.4,24.2,57.79,55.09,57.79,31.48,0,54.33-24.51,54.33-57.79,0-32.41-24.21-57.79-55.1-57.79" transform="translate(0)"/><path class="cls-2" d="M1465,364.09h-9.11V358.9h23.89v5.19h-9.12v24.37H1465Zm21.11-5.19h6l8.93,14,8.92-14h5.86v29.56h-5.47v-21l-9.12,14.2h-.58l-9.11-14.2v21h-5.47Z" transform="translate(0)"/></svg>