<svg xmlns="http://www.w3.org/2000/svg" xmlns:xlink="http://www.w3.org/1999/xlink" viewBox="0 0 115 115">
    <defs>
        <filter id="a" width="108.8%" height="105.6%" x="-4.4%" y="-2.8%" filterUnits="objectBoundingBox">
            <feOffset dy="5" in="SourceAlpha" result="shadowOffsetOuter1"/>
            <feGaussianBlur in="shadowOffsetOuter1" result="shadowBlurOuter1" stdDeviation="5"/>
            <feColorMatrix in="shadowBlurOuter1" result="shadowMatrixOuter1" values="0 0 0 0 0 0 0 0 0 0 0 0 0 0 0 0 0 0 0.0948822464 0"/>
            <feMerge>
                <feMergeNode in="shadowMatrixOuter1"/>
                <feMergeNode in="SourceGraphic"/>
            </feMerge>
        </filter>
        <circle id="b" cx="47.5" cy="47.5" r="47.5"/>
        <linearGradient id="c" x1="13.204%" x2="103.39%" y1="49.665%" y2="40.485%">
            <stop offset="0%" stop-color="#E7E7E7"/>
            <stop offset="100%" stop-color="#FFF" stop-opacity="0"/>
        </linearGradient>
        <linearGradient id="e" x1="-8.114%" x2="74.832%" y1="49.309%" y2="49.637%">
            <stop offset="0%" stop-color="#FFF" stop-opacity="0"/>
            <stop offset="100%" stop-color="#E7E7E7"/>
        </linearGradient>
        <linearGradient id="f" x1="50%" x2="50%" y1="0%" y2="100%">
            <stop offset="0%" stop-color="#FFFD08"/>
            <stop offset="100%" stop-color="#FFE07F"/>
        </linearGradient>
        <linearGradient id="g" x1="50%" x2="50%" y1="0%" y2="100%">
            <stop offset="0%" stop-color="#FFFD08"/>
            <stop offset="100%" stop-color="#FFE07F"/>
        </linearGradient>
        <path id="i" d="M78.891 37.113c-.29-1.217-1.16-1.825-2.32-2.13l-18.554-2.738-8.408-17.648c-.87-2.13-4.349-2.13-5.218 0l-8.408 17.344-18.265 3.042c-1.16 0-2.03.913-2.61 2.13-.29 1.217 0 2.434.87 3.043l13.337 13.692-3.19 19.473c-.29 1.217.29 2.434 1.16 3.043.87.609 2.03.913 3.19.304L47 67.54l16.525 9.128h1.45c.58 0 1.16-.304 1.74-.608.87-.609 1.45-1.826 1.16-3.043l-3.19-19.473 13.337-13.692c.87-.609 1.16-1.826.87-2.739z"/>
        <filter id="h" width="303.1%" height="303.1%" x="-101.6%" y="-85.9%" filterUnits="objectBoundingBox">
            <feOffset dy="10" in="SourceAlpha" result="shadowOffsetOuter1"/>
            <feGaussianBlur in="shadowOffsetOuter1" result="shadowBlurOuter1" stdDeviation="20"/>
            <feColorMatrix in="shadowBlurOuter1" values="0 0 0 0 0 0 0 0 0 0 0 0 0 0 0 0 0 0 0.104223279 0"/>
        </filter>
    </defs>
    <g fill="none" fill-rule="evenodd" filter="url(#a)" transform="translate(10 5)">
        <mask id="d" fill="#fff">
            <use xlink:href="#b"/>
        </mask>
        <use fill="#629FF4" xlink:href="#b"/>
        <path fill="url(#c)" d="M-93.164 7.046c56.192-.599 95.595 43.727 119.54 52.308 23.945 8.581 38.91-.33 53.876-9.24 14.965-8.91 33.423-13.862 61.857 9.9 28.435 23.762 56.805-31.787 56.805-31.787S207.024 11.305 228 7.7V95h-351V7.75c12.567-.625 22.513-.859 29.836-.704z" mask="url(#d)" opacity=".5" style="mix-blend-mode:multiply"/>
        <path fill="url(#e)" d="M-143 99.034c31.316-.442 87.08 5.155 99.53-12.318 5.14-7.213 9.69-29.676 30.055-29.676 22.825 0 19.127 23.68 44.82 23.68 22.866 0 29.827-16.727 68.54 1.354 14.804 6.914 32.759-12.181 37.889-18.575C142.964 57.106 153.638 41 173.378 41c45.48 0-8.332 54.332 100.622 58.034-14.017.34-43.902 17.862-89.654 17.936-48.67.078-115.296.005-199.878-.219-25.817-.068-68.306-5.974-127.468-17.717z" mask="url(#d)" opacity=".5" style="mix-blend-mode:multiply"/>
        <path fill="url(#f)" d="M14.986 55.014c-.036-.152-.145-.228-.29-.266l-2.319-.342-1.05-2.206c-.11-.267-.544-.267-.653 0l-1.051 2.168-2.283.38c-.145 0-.254.114-.326.266-.037.152 0 .304.108.38l1.667 1.712-.398 2.434a.37.37 0 0 0 .145.38c.108.077.253.115.398.039L11 58.818l2.066 1.14h.18a.499.499 0 0 0 .218-.076.37.37 0 0 0 .145-.38l-.398-2.434 1.667-1.712c.108-.076.145-.228.108-.342z" mask="url(#d)" transform="matrix(-1 0 0 1 22 0)"/>
        <path fill="url(#f)" d="M29.992 22.884c-.023-.095-.091-.143-.182-.167l-1.45-.213-.656-1.38c-.068-.166-.34-.166-.408 0l-.657 1.356-1.427.237c-.09 0-.158.072-.204.167-.022.095 0 .19.068.238l1.042 1.07-.249 1.52a.231.231 0 0 0 .09.238c.069.048.16.072.25.024l1.291-.713 1.291.713h.113c.046 0 .09-.024.136-.047a.231.231 0 0 0 .09-.238l-.248-1.522 1.042-1.07a.197.197 0 0 0 .068-.213z" mask="url(#d)" transform="matrix(-1 0 0 1 55 0)"/>
        <path fill="url(#g)" d="M87.976 54.898c-.063-.247-.253-.37-.507-.433l-4.059-.556-1.84-3.585c-.19-.432-.95-.432-1.14 0l-1.84 3.523-3.995.618c-.254 0-.444.186-.571.433-.064.247 0 .494.19.618l2.917 2.781-.697 3.956a.58.58 0 0 0 .253.618c.19.123.444.185.698.062L81 61.078l3.615 1.855h.317c.127 0 .254-.062.38-.124a.58.58 0 0 0 .254-.618l-.697-3.956 2.917-2.78a.491.491 0 0 0 .19-.557z" mask="url(#d)" transform="matrix(-1 0 0 1 162 0)"/>
        <g mask="url(#d)">
            <use fill="#000" filter="url(#h)" xlink:href="#i"/>
            <use fill="#FFF" xlink:href="#i"/>
        </g>
        <path fill="url(#f)" d="M65.935 42.317c-.172-.722-.688-1.084-1.377-1.264l-11.017-1.626-4.992-10.479c-.516-1.264-2.582-1.264-3.098 0l-4.992 10.298-10.845 1.807c-.689 0-1.205.542-1.55 1.264-.172.723 0 1.446.517 1.807l7.918 8.13-1.893 11.562c-.172.722.172 1.445.688 1.806.517.362 1.205.542 1.894.181L47 60.383l9.812 5.42h.86c.345 0 .69-.18 1.034-.361.516-.362.86-1.084.688-1.807l-1.893-11.562 7.918-8.13c.516-.361.689-1.084.516-1.626z" mask="url(#d)"/>
    </g>
</svg>
