<svg xmlns="http://www.w3.org/2000/svg" xmlns:xlink="http://www.w3.org/1999/xlink" width="1440" height="434" viewBox="0 0 1440 434">
    <defs>
        <path id="a" d="M0 0v389.581c44.727-17.965 106.826-34.53 189.813-34.53 158.919 0 210.61 71.333 314.879 94.28 104.27 22.945 168.752 8.901 233.923-14.926 65.171-23.828 136.138-63.54 259.963 0 123.826 63.54 255.565-65.304 255.565-65.304s42.809-51.185 148.913-51.185c13.166 0 25.455.978 36.944 2.74l-2.126-225.816L0 0z"/>
        <linearGradient id="b" x1="13.204%" x2="103.39%" y1="49.787%" y2="43.955%">
            <stop offset="0%" stop-color="#E7E7E7"/>
            <stop offset="100%" stop-color="#FFF" stop-opacity="0"/>
        </linearGradient>
        <linearGradient id="d" x1="-8.114%" x2="74.832%" y1="49.302%" y2="49.634%">
            <stop offset="0%" stop-color="#FFF" stop-opacity="0"/>
            <stop offset="100%" stop-color="#E7E7E7"/>
        </linearGradient>
    </defs>
    <g fill="none" fill-rule="evenodd" transform="translate(0 -27)">
        <mask id="c" fill="#fff">
            <use xlink:href="#a"/>
        </mask>
        <path fill="url(#d)" d="M-804 488.781c212.005-3.003 589.516 35.067 673.798-83.793 34.79-49.064 65.602-201.872 203.466-201.872 154.517 0 129.483 161.079 303.419 161.079 154.802 0 201.924-113.782 464 9.216 100.219 47.035 221.771-82.865 256.5-126.358C1131.914 203.561 1204.175 94 1337.81 94c307.897 0-56.406 369.598 681.191 394.781-94.893 2.316-297.206 121.512-606.937 122.012-329.485.532-780.529.037-1353.13-1.486-174.776-.464-462.42-40.64-862.933-120.526z" mask="url(#c)" opacity=".5"/>
        <path fill="url(#b)" d="M-227.946.25c380.532-3.233 647.378 236.025 809.532 282.344 162.155 46.319 263.506-1.783 364.852-49.88 101.347-48.095 226.343-74.818 418.904 53.443 192.56 128.26 384.684-171.578 384.684-171.578S1804.948 23.235 1947 3.78V475H-430V4.045C-344.894.677-277.543-.588-227.946.251z" mask="url(#c)" opacity=".5" style="mix-blend-mode:multiply"/>
        
    </g>
</svg>
