<svg xmlns="http://www.w3.org/2000/svg" xmlns:xlink="http://www.w3.org/1999/xlink" width="443" height="138" viewBox="0 0 443 138">
    <defs>
        <path id="a" d="M.228 0v140H443l3.07-106.899z"/>
        <linearGradient id="b" x1="70.929%" x2="70.929%" y1="0%" y2="100%">
            <stop offset="0%" stop-color="#F89096"/>
            <stop offset="58.368%" stop-color="#B1B4E5"/>
            <stop offset="100%" stop-color="#B1B4E5" stop-opacity="0"/>
        </linearGradient>
        <linearGradient id="d" x1="57.087%" x2="66.38%" y1="49.776%" y2="52.099%">
            <stop offset="0%" stop-color="#F89096"/>
            <stop offset="58.368%" stop-color="#B1B4E5" stop-opacity=".497"/>
            <stop offset="100%" stop-color="#B1B4E5" stop-opacity="0"/>
        </linearGradient>
    </defs>
    <g fill="none" fill-rule="evenodd" transform="translate(0 -2)">
        <mask id="c" fill="#fff">
            <use xlink:href="#a"/>
        </mask>
        <path fill="url(#b)" d="M-34.177.088c118.82-1.13 202.142 82.444 252.774 98.623 50.632 16.18 82.279-.622 113.924-17.423 31.645-16.8 70.675-26.134 130.802 18.668 60.126 44.802 120.116-59.933 120.116-59.933S600.59 8.116 644.944 1.32v150.356H-97.268V1.413C-70.694.236-49.664-.205-34.178.088z" mask="url(#c)" opacity=".2"/>
        <path fill="url(#d)" d="M-213.432 170.993c66.184-1.049 184.038 12.249 210.35-29.268 10.86-17.137 20.48-70.511 63.519-70.511 48.238 0 40.422 56.263 94.723 56.263 48.327 0 63.037-39.743 144.854 3.219 31.286 16.429 69.233-28.944 80.075-44.135 10.842-15.192 33.401-53.46 75.12-53.46 96.121 0-17.61 129.096 212.658 137.892-29.624.809-92.783 42.443-189.477 42.617-102.86.186-243.67.013-422.427-.519-54.563-.162-144.361-14.195-269.395-42.098z" mask="url(#c)" opacity=".5"/>
    </g>
</svg>
