<svg width="1112" height="324" viewBox="0 0 1112 324" fill="none" xmlns="http://www.w3.org/2000/svg">
<path opacity="0.1" fill-rule="evenodd" clip-rule="evenodd" d="M-55.5401 0.0637111C153.917 -1.20614 300.798 92.7424 390.053 110.93C479.308 129.118 535.095 110.23 590.88 91.3445C646.664 72.4589 715.466 61.9658 821.458 112.329C927.45 162.693 1033.2 44.9565 1033.2 44.9565C1033.2 44.9565 1072.29 -1.42267 1176.54 0.0637111C1282.21 1.57002 1293.82 55.7935 1321.74 77.465C1349.66 99.1364 1375.18 153.283 1738.03 153.283C1934.99 153.283 2385 153.283 2385 153.283V166.988C2385 166.988 1733.24 172.526 1545.47 177.012C1401.17 180.463 1350.59 217.946 1331.98 239.625C1313.36 261.304 1270.55 324.767 1181.19 323.993C1091.84 323.219 1056.47 303.094 991.318 251.232C926.166 199.369 816.81 212.708 770.322 221.102C723.833 229.495 617.842 246.983 539.743 197.318C461.645 147.654 383.544 161.644 337.059 180.531C290.573 199.418 122.805 321.446 -55.5401 321.446C-346.866 320.004 -436 178.414 -436 143.85C-436 109.286 -314.13 -3.05616 -55.5401 0.0637111Z" fill="url(#paint0_linear)"/>
<path fill-rule="evenodd" clip-rule="evenodd" d="M-33.6476 130.725C21.9831 129.947 64.583 128.98 87.097 127.78C226.862 120.327 244.166 104.268 262.8 94.5206C281.433 84.773 349.321 34.8879 431.849 34.3116C514.376 33.7352 558.303 91.6532 622.195 106.563C686.086 121.472 726.019 105.988 765.953 90.5059C805.887 75.0237 855.135 66.4216 931.009 107.708C1006.88 148.995 1081.42 65.2761 1081.42 65.2761C1081.42 65.2761 1108.59 33.0032 1172.67 32.017C1236.74 31.0308 1267.77 73.3036 1287.74 89.3586C1298.52 98.0264 1301.38 113.267 1376 125.456L1375.66 160.727C1317.18 170.721 1305.81 196.521 1295.05 209.491C1281.72 225.546 1251.12 272.569 1187.23 271.995C1123.34 271.42 1098.06 256.513 1051.47 218.095C1004.88 179.678 927.679 189.998 894.402 196.878C861.125 203.758 785.253 218.095 729.349 177.379C673.445 136.664 617.538 148.135 584.257 163.617C550.977 179.099 531.022 204.906 460.466 212.359C389.909 219.811 348.654 191.716 307.39 176.807C268.076 162.602 190.097 143.712 -35.9099 143.944C-47.1176 143.955 -33.6476 130.725 -33.6476 130.725Z" fill="url(#paint1_linear)"/>
<path opacity="0.4" fill-rule="evenodd" clip-rule="evenodd" d="M-1210.59 146.806C-1210.59 146.806 -390.484 143.57 -228.204 140.089C-65.3586 136.607 -16.395 121.062 9.27625 112.738C52.2922 98.7974 99.8425 63.7377 175.192 65.6891C287.343 68.5934 273.56 112.668 348.791 126.678C451.724 145.846 594.599 81.372 685.236 130.744C740.568 160.882 823.326 121.188 843.08 104.743C862.834 88.2982 897.981 32 998.633 32C1099.28 32 1141.43 89.2309 1160.71 103.734C1179.99 118.237 1192.28 150.225 1517.1 152.915C1745.15 154.804 1869.15 156.849 1866.5 156.58L2360 146.806V162.072C2352.82 162.072 1967.46 165.904 1889.89 165.985C1889.89 165.985 1395.77 170.527 1277.47 179.24C1159.18 187.953 1149.19 227.742 1133.83 244.006C1118.47 260.269 1070.84 305.572 997.101 304.995C923.357 304.417 889.81 277.929 835.926 239.034C802.128 214.639 758.98 210.32 720.573 217.29C682.166 224.26 582.571 241.384 505.493 203.35C414.852 158.625 357.437 176.561 313.458 189.99C273.516 202.188 261.224 215.548 189.019 220.774C139.249 224.376 104.75 211.218 38.4652 186.509C-20.3229 146.608 -1211 156.58 -1211 156.58L-1210.59 146.806Z" fill="url(#paint2_linear)"/>
<defs>
<linearGradient id="paint0_linear" x1="2122.59" y1="301.983" x2="2123.95" y2="37.7432" gradientUnits="userSpaceOnUse">
<stop stop-color="#F89096"/>
<stop offset="1" stop-color="#B1B4E5"/>
</linearGradient>
<linearGradient id="paint1_linear" x1="947.466" y1="153.617" x2="500.943" y2="385.912" gradientUnits="userSpaceOnUse">
<stop stop-color="#88D1F1"/>
<stop offset="1" stop-color="#B1B5E5"/>
</linearGradient>
<linearGradient id="paint2_linear" x1="-76.7713" y1="227.829" x2="298.446" y2="820.934" gradientUnits="userSpaceOnUse">
<stop stop-color="#F89096"/>
<stop offset="1" stop-color="#B1B4E5"/>
</linearGradient>
</defs>
</svg>
