<svg xmlns="http://www.w3.org/2000/svg" xmlns:xlink="http://www.w3.org/1999/xlink" width="24" height="24" viewBox="0 0 24 24">
    <defs>
        <path id="a" d="M12 16c2.2 0 4-1.8 4-4V4c0-2.2-1.8-4-4-4S8 1.8 8 4v8c0 2.2 1.8 4 4 4zM10 4c0-1.1.9-2 2-2s2 .9 2 2v8c0 1.1-.9 2-2 2s-2-.9-2-2V4zm10 6v2c0 4.1-3.1 7.4-7 7.9V22h3c.6 0 1 .4 1 1s-.4 1-1 1H8c-.6 0-1-.4-1-1s.4-1 1-1h3v-2.1C7.1 19.4 4 16 4 12v-2c0-.6.4-1 1-1s1 .4 1 1v2c0 3.3 2.7 6 6 6s6-2.7 6-6v-2c0-.6.4-1 1-1s1 .4 1 1z"/>
    </defs>
    <g fill="none" fill-rule="evenodd">
        <mask id="b" fill="#fff">
            <use xlink:href="#a"/>
        </mask>
        <use fill="#000" fill-rule="nonzero" xlink:href="#a"/>
        <g fill="#4A4A4A" mask="url(#b)">
            <path d="M0 0h24v24H0z"/>
        </g>
    </g>
</svg>
