<?xml version="1.0" encoding="utf-8"?>
<!-- Generator: Adobe Illustrator 22.1.0, SVG Export Plug-In . SVG Version: 6.00 Build 0)  -->
<svg version="1.1" id="图层_1" xmlns="http://www.w3.org/2000/svg" xmlns:xlink="http://www.w3.org/1999/xlink" x="0px" y="0px"
	 viewBox="0 0 405 368" style="enable-background:new 0 0 405 368;" xml:space="preserve">
<style type="text/css">
	.st0{filter:url(#a);}
	.st1{fill:#FFFFFF;}
	.st2{fill:#959595;}
	.st3{fill:#949391;}
	.st4{fill:#959492;}
	.st5{fill:#949494;}
</style>
<filter  filterUnits="objectBoundingBox" height="144.5%" id="a" width="142.2%" x="-21.1%" y="-18.8%">
	<feOffset  dy="10" in="SourceAlpha" result="shadowOffsetOuter1"></feOffset>
	<feGaussianBlur  in="shadowOffsetOuter1" result="shadowBlurOuter1" stdDeviation="20"></feGaussianBlur>
	<feColorMatrix  in="shadowBlurOuter1" values="0 0 0 0 0 0 0 0 0 0 0 0 0 0 0 0 0 0 0.104223279 0"></feColorMatrix>
</filter>
<g>
	<g transform="translate(0 28)">
		<g class="st0">
			<path id="b_2_" d="M60.3,110c1.4-5.6,5.6-8.3,11.2-9.7l89.3-12.5l40.4-80.5c4.2-9.7,20.9-9.7,25.1,0l40.4,79.1l87.9,13.9
				c5.6,0,9.8,4.2,12.6,9.7c1.4,5.6,0,11.1-4.2,13.9l-64.2,62.4l15.3,88.8c1.4,5.6-1.4,11.1-5.6,13.9c-4.2,2.8-9.8,4.2-15.3,1.4
				l-79.5-41.6l-79.5,41.6h-7c-2.8,0-5.6-1.4-8.4-2.8c-4.2-2.8-7-8.3-5.6-13.9l15.3-88.8l-64.2-62.4C60.3,119.7,58.9,114.1,60.3,110
				L60.3,110z"/>
		</g>
		<g>
			<path id="b_1_" class="st1" d="M60.3,110c1.4-5.6,5.6-8.3,11.2-9.7l89.3-12.5l40.4-80.5c4.2-9.7,20.9-9.7,25.1,0l40.4,79.1
				l87.9,13.9c5.6,0,9.8,4.2,12.6,9.7c1.4,5.6,0,11.1-4.2,13.9l-64.2,62.4l15.3,88.8c1.4,5.6-1.4,11.1-5.6,13.9
				c-4.2,2.8-9.8,4.2-15.3,1.4l-79.5-41.6l-79.5,41.6h-7c-2.8,0-5.6-1.4-8.4-2.8c-4.2-2.8-7-8.3-5.6-13.9l15.3-88.8l-64.2-62.4
				C60.3,119.7,58.9,114.1,60.3,110L60.3,110z"/>
		</g>
	</g>
	<path class="st2" d="M134.7,155.4c0.7-2.9,2.9-4.3,5.7-5l46-6.4l20.8-41.5c2.2-5,10.8-5,12.9,0l20.8,40.8l45.3,7.2
		c2.9,0,5,2.1,6.5,5c0.7,2.9,0,5.7-2.2,7.2l-33.1,32.2l7.9,45.8c0.7,2.9-0.7,5.7-2.9,7.2c-2.2,1.4-5,2.1-7.9,0.7l-41-21.5l-41,21.5
		h-3.6c-1.4,0-2.9-0.7-4.3-1.4c-2.2-1.4-3.6-4.3-2.9-7.2l7.9-45.8l-33.1-32.2C134.7,160.4,133.9,157.5,134.7,155.4L134.7,155.4z"/>
	<path class="st3" d="M0,172c0.1-0.4,0.4-0.5,0.7-0.6l5.8-0.8l2.6-5.2c0.3-0.6,1.4-0.6,1.6,0l2.6,5.1l5.7,0.9c0.4,0,0.6,0.3,0.8,0.6
		c0.1,0.4,0,0.7-0.3,0.9l-4.2,4.1l1,5.8c0.1,0.4-0.1,0.7-0.4,0.9c-0.3,0.2-0.6,0.3-1,0.1L10,181l-5.2,2.7H4.4
		c-0.2,0-0.4-0.1-0.5-0.2c-0.3-0.2-0.4-0.6-0.4-0.9l1-5.8l-4.2-4.1C0,172.6-0.1,172.2,0,172L0,172z"/>
	<path class="st4" d="M62,223.5c0.1-0.2,0.2-0.4,0.5-0.4l3.8-0.5l1.7-3.4c0.2-0.4,0.9-0.4,1.1,0l1.7,3.3l3.7,0.6
		c0.2,0,0.4,0.2,0.5,0.4c0.1,0.2,0,0.5-0.2,0.6l-2.7,2.6l0.6,3.8c0.1,0.2,0,0.5-0.2,0.6c-0.2,0.1-0.4,0.2-0.6,0.1l-3.4-1.8l-3.4,1.8
		h-0.3c-0.1,0-0.2-0.1-0.4-0.1c-0.2-0.1-0.3-0.4-0.2-0.6l0.6-3.8l-2.7-2.6C62,223.9,62,223.6,62,223.5z"/>
	<path class="st5" d="M350.3,219.2c0.2-0.6,0.6-0.9,1.3-1.1l10.1-1.4l4.6-9.1c0.5-1.1,2.4-1.1,2.9,0l4.6,8.9l10,1.6
		c0.6,0,1.1,0.5,1.4,1.1c0.2,0.6,0,1.3-0.5,1.6l-7.3,7.1l1.7,10c0.2,0.6-0.2,1.3-0.6,1.6c-0.5,0.3-1.1,0.5-1.7,0.2l-9-4.7l-9,4.7
		h-0.8c-0.3,0-0.6-0.2-1-0.3c-0.5-0.3-0.8-0.9-0.6-1.6l1.7-10l-7.3-7.1C350.3,220.3,350.1,219.7,350.3,219.2L350.3,219.2z"/>
</g>
</svg>
