<svg xmlns="http://www.w3.org/2000/svg" width="175" height="50" fill="none"><path fill="#000" d="M0 0h175v50H0V0Z"/><path fill="#fff" fill-rule="evenodd" d="m123.146 39.73 9.455-33.365h-6.175l-9.454 33.365h6.174Zm22.189-33.365-9.454 33.365h-6.175l9.455-33.365h6.174Zm20.934 29.652c.29 0 .579-.048.917-.144l.144 3.327c-1.205.626-2.604 1.012-3.955 1.012-2.942 0-4.534-1.736-4.823-4.388-1.255 2.267-3.522 4.388-7.043 4.388-3.183 0-6.753-1.687-6.753-6.268 0-5.4 5.161-6.654 10.178-6.654 1.206 0 2.46.049 3.569.193v-.723c0-2.266-.048-4.918-3.569-4.918-1.303 0-2.315.096-3.328.627l-.724 2.459-5.017-.53.869-5.015c3.81-1.543 5.788-1.977 9.358-1.977 4.678 0 8.682 2.41 8.682 7.425v9.499c0 1.253.482 1.687 1.495 1.687Zm-15.098-2.796c0 1.398.676 2.507 2.557 2.507 2.219 0 4.582-1.591 4.775-5.207-1.013-.145-2.122-.29-3.135-.29-2.267 0-4.197.627-4.197 2.99ZM106.312 17.84h6.56v7.86h-6.56v-7.86Zm6.56 14.03h-6.56v7.86h6.56v-7.86Zm-16.11-.289 4.968.483-1.351 7.666h-19.15l-.627-3.279 12.06-13.838h-6.85l-.965 3.375-4.534-.482.772-7.666h19.246l.482 3.279-12.155 13.838h7.09l1.013-3.376Zm-43.124-2.459c0-6.412 3.907-11.716 11.77-11.716 7.862 0 11.673 5.304 11.721 11.379 0 6.991-5.065 11.427-12.059 11.427-6.753 0-11.432-4.098-11.432-11.09Zm11.625 6.269c-3.376 0-5.161-2.893-5.161-6.702 0-4.147 1.978-6.51 5.21-6.51 2.942 0 5.354 1.977 5.354 6.413-.049 4.195-2.171 6.799-5.403 6.799Zm-14.374-.434h-2.894v-10.03c0-5.207-3.57-7.57-7.525-7.57-3.473 0-5.933 1.833-7.139 4.726-1.061-3.23-4.004-4.725-7.139-4.725-3.087 0-5.354 1.398-6.656 3.712v-3.278H10.37v4.773h2.894v12.392H10.37v4.773h13.313v-4.773h-4.197v-7.619c0-3.085 1.255-5.207 4.245-5.207 2.508 0 3.762 1.447 3.762 5.256V39.73h9.165v-4.773h-2.894v-7.619c0-3.085 1.254-5.207 4.245-5.207 2.46 0 3.714 1.447 3.714 5.256V39.73h9.165v-4.773Z" clip-rule="evenodd"/></svg>