<svg xmlns="http://www.w3.org/2000/svg" width="400" height="474" viewBox="0 0 400 474">
    <defs>
        <linearGradient id="a" x1="50%" x2="45.278%" y1="50%" y2="59.905%">
            <stop offset="0%" stop-color="#F2F2F2"/>
            <stop offset="100%" stop-color="#E2E2E2"/>
            <stop offset="100%" stop-color="#D9D9D9"/>
        </linearGradient>
        <linearGradient id="b" x1="46.838%" x2="55.025%" y1="42.135%" y2="55.964%">
            <stop offset="0%" stop-color="#F2F2F2"/>
            <stop offset="100%" stop-color="#E2E2E2"/>
            <stop offset="100%" stop-color="#D9D9D9"/>
        </linearGradient>
        <linearGradient id="c" x1="39.511%" x2="41.409%" y1="53.514%" y2="45.054%">
            <stop offset="0%" stop-color="#FF656E"/>
            <stop offset="100%" stop-color="#C5C9FF"/>
        </linearGradient>
        <linearGradient id="d" x1="39.511%" x2="41.409%" y1="57.155%" y2="39.929%">
            <stop offset="0%" stop-color="#FF656E"/>
            <stop offset="100%" stop-color="#C5C9FF"/>
        </linearGradient>
        <radialGradient id="e" cx="51.411%" cy="37.949%" r="110.323%" fx="51.411%" fy="37.949%" gradientTransform="matrix(0 .52722 -1 0 .894 .108)">
            <stop offset="0%" stop-color="#FFF"/>
            <stop offset="76.599%" stop-color="#FAFCFF"/>
            <stop offset="100%" stop-color="#F2F2F2"/>
        </radialGradient>
        <linearGradient id="f" x1="39.511%" x2="41.409%" y1="60.621%" y2="35.05%">
            <stop offset="0%" stop-color="#FF656E"/>
            <stop offset="100%" stop-color="#C5C9FF"/>
        </linearGradient>
        <linearGradient id="g" x1="39.511%" x2="41.409%" y1="57.423%" y2="39.552%">
            <stop offset="0%" stop-color="#FF656E"/>
            <stop offset="100%" stop-color="#C5C9FF"/>
        </linearGradient>
        <linearGradient id="h" x1="39.511%" x2="41.409%" y1="54.358%" y2="43.866%">
            <stop offset="0%" stop-color="#FF656E"/>
            <stop offset="100%" stop-color="#C5C9FF"/>
        </linearGradient>
        <radialGradient id="i" cx="50.001%" cy="43.962%" r="75.052%" fx="50.001%" fy="43.962%" gradientTransform="matrix(-.73144 0 0 -1 .866 .88)">
            <stop offset="0%" stop-color="#FFF"/>
            <stop offset="76.599%" stop-color="#FAFCFF"/>
            <stop offset="100%" stop-color="#E0E0E0"/>
        </radialGradient>
    </defs>
    <g fill="none" fill-rule="evenodd">
        <g fill-rule="nonzero">
            <path fill="#E5E5E5" d="M79.848 333.533l-.178-.1a9.067 9.067 0 0 1-7.775 5.013 9.07 9.07 0 0 1-8.131-4.413 9.04 9.04 0 0 1-.015-9.24l-.093-.05 31.493-70.062 19.703 6.36-35.004 72.492z"/>
            <path fill="url(#a)" d="M17.409 78.933l-.178-.1a9.067 9.067 0 0 1-7.775 5.013 9.07 9.07 0 0 1-8.13-4.413 9.04 9.04 0 0 1-.016-9.24l-.093-.05L32.71.08l19.703 6.36-35.004 72.492z" transform="translate(62.439 254.6)"/>
            <path fill="#E5E5E5" d="M360.969 304.022l.058-.195a9.068 9.068 0 0 0 9.081-1.79 9.072 9.072 0 0 0 2.785-8.83 9.04 9.04 0 0 0-6.416-6.657l.032-.1-71.326-28.526-9.753 18.258 75.539 27.84z"/>
            <path fill="url(#b)" d="M35.12 78.86l.176-.1a9.068 9.068 0 0 0 7.777 5.02 9.072 9.072 0 0 0 8.136-4.416 9.04 9.04 0 0 0 .01-9.247l.092-.05L19.82 0 .12 6.359l35 72.5z" transform="rotate(-44 476.693 -211.812)"/>
            <path fill="#000" d="M61.72 325.4l32.613-72.553 22.612 7.3-36.441 75.468-.297-.166a10.568 10.568 0 0 1-8.255 4.49 10.567 10.567 0 0 1-9.474-5.141 10.533 10.533 0 0 1-.71-9.372l-.048-.025zm51.038-63.464l-16.793-5.42-30.373 67.57.239.128-.794 1.34a7.548 7.548 0 0 0 .013 7.715 7.573 7.573 0 0 0 6.789 3.684 7.57 7.57 0 0 0 6.491-4.185l.701-1.406.16.09 33.567-69.516zm258.396 41.233a10.577 10.577 0 0 1-9.066 2.492l-.097.325-78.732-29.027 11.185-20.929 73.947 29.579-.016.05a10.553 10.553 0 0 1 6.018 7.235c.886 3.759-.357 7.7-3.239 10.275zm-83.638-27.826l72.515 26.734.052-.176 1.488.529a7.58 7.58 0 0 0 7.587-1.488 7.551 7.551 0 0 0 2.321-7.364 7.565 7.565 0 0 0-5.366-5.559l-1.505-.412.083-.26-68.869-27.546-8.306 15.542z"/>
            <g>
                <path fill="#FFF" d="M78.9 324.562l-.16.127a9.054 9.054 0 0 1 1.81 9.113 9.086 9.086 0 0 1-15.795 2.426l-54.359-60.15 15.46-11.226 53.044 59.71zm277.376-30.453l15.595-78.857 19.594 6.795-16.943 74.805s.316 2.377-2.706 5.388a9.1 9.1 0 0 1-10.654 1.58 9.07 9.07 0 0 1-4.685-9.684l-.201-.027z"/>
                <path fill="#000" d="M8.717 276.4l17.903-13 54.99 61.899-.242.193a10.546 10.546 0 0 1 1.138 9.364 10.584 10.584 0 1 1-18.358 2.88L8.717 276.399zm17.466-8.988l-13.016 9.451 53.245 58.916.083.1a7.588 7.588 0 0 0 13.191-2.026 7.562 7.562 0 0 0-1.511-7.61l-1.063-1.178.17-.135-51.099-57.518zm334.314 38.37a10.568 10.568 0 0 1-5.629-9.718l-.334-.045 16.235-82.1 22.485 7.798-17.19 75.895c.01.359-.031.82-.156 1.366-.365 1.59-1.313 3.28-3.002 4.964a10.6 10.6 0 0 1-12.409 1.84zm-2.41-12.3l.185.024-.288 1.545a7.577 7.577 0 0 0 3.913 8.089 7.601 7.601 0 0 0 8.897-1.317c1.291-1.286 1.958-2.475 2.196-3.511.082-.362.09-.578.084-.622l-.036-.266 16.706-73.76-16.705-5.794-14.952 75.611z"/>
            </g>
            <g>
                <path fill="#E5E5E5" d="M18.857 279.405c-6.92 1.854-14.03-2.243-15.88-9.152-1.852-6.908 2.257-14.012 9.176-15.866 6.92-1.854 14.03 2.244 15.88 9.152 1.852 6.909-2.257 14.012-9.176 15.866zm366.968-56.358c-7.007 1.49-13.892-2.974-15.379-9.97-1.486-6.996 2.989-13.875 9.996-15.365 7.007-1.49 13.892 2.974 15.378 9.97 1.487 6.996-2.988 13.875-9.995 15.365z"/>
                <path fill="#000" d="M19.243 280.849c-7.717 2.068-15.648-2.503-17.713-10.208-2.064-7.706 2.519-15.63 10.236-17.697 7.718-2.068 15.649 2.502 17.713 10.208 2.065 7.705-2.518 15.629-10.236 17.697zm-.773-2.887c6.121-1.64 9.756-7.924 8.118-14.035-1.638-6.112-7.927-9.737-14.048-8.096-6.121 1.64-9.756 7.924-8.118 14.035 1.637 6.111 7.927 9.736 14.048 8.096zm367.665-53.453c-7.815 1.662-15.495-3.317-17.153-11.12-1.658-7.804 3.334-15.477 11.15-17.139 7.815-1.662 15.494 3.317 17.152 11.12 1.658 7.804-3.333 15.477-11.149 17.139zm-.62-2.924c6.197-1.318 10.156-7.403 8.841-13.592-1.315-6.189-7.405-10.137-13.604-8.82-6.198 1.319-10.157 7.404-8.842 13.593 1.315 6.189 7.406 10.137 13.604 8.82z"/>
            </g>
        </g>
        <g fill-rule="nonzero">
            <path fill="url(#c)" d="M67.456 132.088s-15.212 4.4-29.383 65.012c-24.66-.916-34.224-14.278-37.312-19.713a5.05 5.05 0 0 1-.05-5.25 66.384 66.384 0 0 1 5.29-8.394c25.132-33.709 61.455-31.655 61.455-31.655zm111.928-.324s37.455.65 59.09 32.611a66.29 66.29 0 0 1 5.28 8.394 5.054 5.054 0 0 1-.05 5.251c-3.088 5.434-11.243 17.77-35.871 18.685-9.33-57.585-28.447-64.941-28.447-64.941h-.002z" transform="translate(80.82 92.72)"/>
            <path fill="url(#d)" d="M215.712 82.783c6.184-.11 14.367 4.944 14.367-41.334 0-46.279-8.183-41.225-14.367-41.335M27.891 82.783c-6.184-.11-15.188 0-15.188-41.334C12.703.114 21.707.224 27.89.114" transform="translate(80.82 92.72)"/>
        </g>
        <g transform="translate(78.18 -1)">
            <path fill="url(#e)" fill-rule="nonzero" d="M222.827 152.502c0 9.9-1.587 18.106-4.197 24.909-7.958 20.744-25.43 28.44-36.436 31.295-7.32 1.79-23.107 7.028-58.875 7.028-35.767 0-53.123-5.6-59.112-7.028-10.415-2.415-26.668-9.039-34.904-28.124-1.216-2.817-2.257-5.905-3.078-9.292-1.324-5.454-2.078-11.68-2.078-18.79v-33.84c0-5.547.476-10.562 1.336-15.096.71-3.74 1.681-7.153 2.863-10.268C40.68 60.791 75.936 60.77 75.936 60.77h95.1s30.52.018 44.702 26.2c4.293 7.924 7.09 18.245 7.09 31.69v33.842zM209.918 324.93s.218-3.878 4.52-53.123c4.336-49.654-38.06-46.545-38.06-46.545l-54.371-1.239-49.296 1.239s-41.255-4.2-38.054 46.545c3.108 49.336 3.615 53.123 3.615 53.123s1.339 14.403 1.376 18.95c.122 14.914 4.482 65.922 27.891 80.03 29.964 18.059 83.39 18.493 112.664 0 23.111-14.599 27.766-65.116 27.891-80.03.033-4.547 1.824-18.95 1.824-18.95z"/>
            <g fill-rule="nonzero">
                <path fill="#000" stroke="#E5E5E5" stroke-width=".928" d="M167.993 329.97a4.976 4.976 0 0 1-4.698 4.484 397.084 397.084 0 0 1-79.84.034 5.382 5.382 0 0 1-4.69-4.458c-2.458-12.367-2.472-31.177-.196-44.704a5.2 5.2 0 0 1 5.153-4.592 609.5 609.5 0 0 1 79.269.72 5.22 5.22 0 0 1 5.16 4.578c2.018 13.085 1.88 27.441-.158 43.938z"/>
                <path fill="url(#f)" d="M.083 19.751c-.626-3.089 2.286-4.633 8.734-4.633 9.672 0 5.96 10.451 28.017 10.451s14.814 9.018 28.67 9.018c13.857 0 8.292-21.46 29.903-21.46l-2.52 41.342-43.946 2.988-44.446-2.49L.083 19.75z" opacity=".45" transform="translate(75.097 279.656)"/>
                <path fill="url(#g)" d="M.5 32.553c-.202-3.49 3.415-5.236 10.85-5.236 11.154 0 12.672 8.685 23.367 8.685s13.02-14.905 25.352-14.905 11.229 9.105 19.483 9.105c8.253 0 9.466-6.065 14.966-6.065l.866 6.922-2.996 23.908-43.447 2.988-44.446-2.988L.499 32.553z" opacity=".7" transform="translate(75.097 279.656)"/>
                <path fill="url(#h)" d="M0 29.564c6.376 11.823 12.206 18.137 17.488 18.94 7.925 1.207 11.005-6.612 18.988-6.612 7.984 0 10.677 6.613 20.492 6.613 9.814 0 13.635-13.919 26.18-13.919 8.363 0 12.442 2.145 12.236 6.434l-2.996 13.947-42.948 2.988-44.945-2.988L0 29.564z" transform="translate(75.097 279.656)"/>
            </g>
            <path fill="url(#i)" fill-rule="nonzero" d="M45.492 1.494S1.498 1.521 1.498 53.022V63.25c0 36.885 25.952 48.132 33.647 50.346 8.296 2.39 15.063 5.939 46.901 5.939 16.888 0 80.845 2.08 80.845-56.284V53.022c0-51.502-43.995-51.528-43.995-51.528H45.492z" transform="translate(41.95 76.622)"/>
            <path fill="#000" fill-rule="nonzero" d="M85.424 76.729a47.82 47.82 0 0 0-5.146.73c-5.311 1.039-10.624 2.908-15.593 5.82-14.207 8.324-22.736 23.305-22.736 46.365v10.227c0 16.873 5.265 29.815 14.358 39.212 6.314 6.525 13.867 10.698 20.372 12.57.438.125.892.26 1.397.415-.192-.059 3.652 1.14 4.837 1.487 9.509 2.779 20.468 4.095 41.082 4.095.458 0 .74 0 1.833.004 14.935.052 25.209-.678 36.94-3.694 27.265-7.011 43.57-23.966 43.57-54.088v-10.228c0-23.06-8.528-38.041-22.736-46.366-4.97-2.911-10.282-4.78-15.594-5.82a47.82 47.82 0 0 0-5.146-.73 26.108 26.108 0 0 0-2.015-.106H87.44c-.385 0-1.071.027-2.017.107zm75.422 2.881c.065 0 .212.003.434.012.381.015.826.042 1.33.084a44.83 44.83 0 0 1 4.821.685c5 .978 9.998 2.737 14.653 5.464 13.289 7.786 21.258 21.785 21.258 43.789v10.228c0 28.613-15.275 44.496-41.322 51.194-11.416 2.936-21.486 3.651-36.182 3.6-1.097-.004-1.38-.005-1.843-.005-20.347 0-31.03-1.282-40.239-3.974a475.18 475.18 0 0 1-4.802-1.477c-.52-.158-.989-.298-1.444-.43-6.032-1.734-13.127-5.654-19.047-11.772-8.555-8.841-13.517-21.04-13.517-37.137v-10.227c0-22.004 7.969-36.003 21.257-43.789 4.655-2.727 9.653-4.486 14.652-5.464a44.829 44.829 0 0 1 4.822-.685c.503-.042.948-.07 1.33-.084.221-.01.368-.012.435-.012h73.404z"/>
            <path fill="#000007" fill-rule="nonzero" d="M92.217 152.82h62.058s.102 20.31-31.234 20.31c-29.724 0-30.824-20.31-30.824-20.31z"/>
            <path fill="#000007" d="M92.95 152.82c1.834 5.807 8.198 16.824 30.091 16.824 23.08 0 29.105-11.017 30.678-16.823h.556s.102 20.31-31.234 20.31c-29.724 0-30.824-20.31-30.824-20.31h.732z"/>
            <path fill="#000" fill-rule="nonzero" d="M92.95 152.82c1.834 5.807 8.198 16.824 30.091 16.824 23.08 0 29.105-11.017 30.678-16.823h.556s.102 20.31-31.234 20.31c-29.724 0-30.824-20.31-30.824-20.31h.732z"/>
            <g fill-rule="nonzero">
                <path fill="#FFF" d="M88.05 133.224c-7.43 0-13.453-6.007-13.453-13.417s6.023-13.418 13.453-13.418 13.453 6.007 13.453 13.418c0 7.41-6.023 13.417-13.453 13.417zm66.919 0c-7.43 0-13.453-6.007-13.453-13.417s6.023-13.418 13.453-13.418 13.452 6.007 13.452 13.418c0 7.41-6.023 13.417-13.452 13.417z"/>
                <path fill="#000" d="M89.993 110.168a3.464 3.464 0 0 0-.508 1.81 3.491 3.491 0 0 0 3.496 3.486c1.255 0 2.355-.659 2.972-1.65a9.902 9.902 0 0 1 2.116 6.133c0 5.502-4.472 9.962-9.988 9.962-5.516 0-9.988-4.46-9.988-9.962s4.472-9.962 9.988-9.962c.654 0 1.293.063 1.912.183zm67.23-.433a3.467 3.467 0 0 0-.819 2.243 3.491 3.491 0 0 0 3.496 3.486c1.372 0 2.56-.789 3.132-1.937a9.9 9.9 0 0 1 1.956 5.922c0 5.502-4.472 9.962-9.988 9.962-5.516 0-9.988-4.46-9.988-9.962s4.472-9.962 9.988-9.962c.764 0 1.508.086 2.223.248z"/>
                <path fill="#CDCDCD" d="M88.05 136.213c-9.084 0-16.449-7.346-16.449-16.406 0-9.061 7.365-16.406 16.45-16.406 9.084 0 16.448 7.345 16.448 16.406 0 9.06-7.364 16.406-16.449 16.406zm0-2.989c7.43 0 13.453-6.007 13.453-13.417s-6.023-13.418-13.453-13.418-13.453 6.007-13.453 13.418c0 7.41 6.023 13.417 13.453 13.417zm66.919 2.989c-9.085 0-16.45-7.346-16.45-16.406 0-9.061 7.365-16.406 16.45-16.406 9.084 0 16.449 7.345 16.449 16.406 0 9.06-7.365 16.406-16.45 16.406zm0-2.989c7.43 0 13.452-6.007 13.452-13.417s-6.023-13.418-13.452-13.418c-7.43 0-13.453 6.007-13.453 13.418 0 7.41 6.023 13.417 13.453 13.417z"/>
            </g>
            <ellipse cx="122.04" cy="462.631" fill="#000" fill-rule="nonzero" opacity=".1" rx="101.876" ry="12.452" style="mix-blend-mode:multiply"/>
            <path fill="#000" fill-rule="nonzero" d="M186.131 376.616a1.488 1.488 0 0 1-.268 1.426c-3.313 17.304-7.991 28.834-14.749 34.55-16.442 13.908-78.607 13.237-96.336.058-9.176-6.822-14.627-30.002-17.927-66.363-.794-8.753-1.434-17.975-2.002-28.265-.218-3.956-.418-7.919-.64-12.608-.085-1.781-.423-9.046-.506-10.786-1.025-21.356 5.109-34.301 16.048-40.432 5.456-3.058 11.103-3.937 15.749-3.645.194.012.347.025.458.035h75.423c.072-.005.169-.01.29-.016 1.555-.07 3.57.023 5.88.4 3.45.565 6.857 1.67 10.052 3.445 11.233 6.244 17.414 19.145 16.01 40.24a2748.26 2748.26 0 0 0-.802 12.601l-.196 3.165-.198 3.176c-.15 2.4-.277 4.428-.402 6.368-1.666 25.902-3.231 42.109-5.831 56.364l-.053.287zm-122.267.827c3.139 17.44 7.318 28.806 12.704 32.81 16.65 12.378 77.272 13.032 92.608.06 5.91-4.999 10.285-15.514 13.458-31.372a298.853 298.853 0 0 1-47.84 3.705 1.496 1.496 0 0 1-1.494-1.499 1.496 1.496 0 0 1 1.503-1.49c16.222.05 32.42-1.234 48.428-3.839l.005-.024c2.573-14.108 4.13-30.229 5.789-56.02a3259.79 3259.79 0 0 0 .6-9.537l.195-3.165c.346-5.568.566-9.04.804-12.614 1.33-19.998-4.316-31.783-14.48-37.432-2.871-1.596-5.952-2.595-9.078-3.106-2.091-.342-3.901-.425-5.26-.364-.128.006-.21.01-.242.014l-.126.005h-75.56l-.173-.01a8.636 8.636 0 0 0-.394-.032c-1.44-.09-3.27-.031-5.342.291-3.018.47-5.983 1.426-8.75 2.977-9.88 5.537-15.497 17.393-14.523 37.684.083 1.743.42 9.009.505 10.787.222 4.683.422 8.638.64 12.586.566 10.257 1.204 19.445 1.995 28.16.961 10.597 2.12 20.078 3.49 28.32a455.948 455.948 0 0 0 46.921 4.726c.827.04 1.464.741 1.424 1.565a1.497 1.497 0 0 1-1.57 1.42 458.95 458.95 0 0 1-46.237-4.606zm.961-153.416a39.318 39.318 0 0 1 7.375-.3c.242.014.43.027.562.039l49.28-1.236 54.304 1.236.353-.017a37.715 37.715 0 0 1 4.665.134l.002-.252h.28l.26.1c.15.058.342.144.57.262-.37-.042-.734-.077-1.089-.108l.005-.254c.164.003.465.014.893.038.701.04 1.512.104 2.423.196 2.591.264 5.473.707 8.575 1.372 1.793.385 3.587.827 5.376 1.329.33-.065.685-.02 1.004.154.178.096.355.194.533.292 6.52 1.96 12.957 4.733 19.077 8.457 8.845 5.384 16.494 12.46 22.546 21.38a67.259 67.259 0 0 1 5.376 8.518c1.254 2.101 1.229 4.725-.035 6.753-2.588 4.541-5.577 8.185-10.324 11.52-5.797 4.073-13.23 6.736-22.588 7.637a8088.396 8088.396 0 0 0-2.19 25.682c-.26 3.114-.436 5.297-.545 6.71-.065.84-.093 1.237-.1 1.345l-.008.1-.078.635a533.026 533.026 0 0 0-1.07 9.486c-.411 4.021-.653 7.06-.665 8.657-.09 10.807-1.917 26.632-5.37 40.482-4.88 19.574-12.458 34.002-23.217 40.8-29.529 18.652-83.552 18.51-114.24.016-10.908-6.574-18.515-20.955-23.36-40.637C40 370.717 38.24 354.93 38.15 343.891c-.013-1.613-.198-4.66-.509-8.693a751.344 751.344 0 0 0-.803-9.488l-.051-.582c-.02-.149-.062-.567-.136-1.434-.12-1.415-.29-3.599-.515-6.717-.425-5.869-.992-14.214-1.718-25.41-9.024-1.032-16.444-3.84-22.421-8.046-5.07-3.568-8.552-7.679-11.003-11.983-1.295-2.078-1.32-4.703-.101-6.74a67.848 67.848 0 0 1 4.678-7.559c.062-.116.14-.224.23-.321.172-.237.344-.472.518-.707 5.686-7.605 12.208-13.799 19.406-18.7 8.909-6.067 18.442-9.91 28.057-11.96a74.918 74.918 0 0 1 9.964-1.45c.372-.029.732-.053 1.08-.074zm-30.604 64.507c-.323-5.007-.675-10.541-1.06-16.633-1.174-18.629 3.374-31.402 12.109-39.2-6.397 3.2-12.39 8.298-17.778 14.779-5.337 6.418-9.759 13.937-11.648 19.039a1.5 1.5 0 0 1-1.814.92c-2.121-.6-4.028-2.196-5.775-4.46a24.91 24.91 0 0 1-1.498-2.182 66.006 66.006 0 0 0-3.253 5.466c-.683 1.142-.67 2.568.065 3.748 2.278 3.998 5.48 7.777 10.155 11.068 5.448 3.834 12.217 6.434 20.497 7.455zm169.47-55.907c9.212 7.806 13.872 20.613 12.239 39.31-.52 5.96-.993 11.388-1.42 16.31 8.586-.899 15.349-3.36 20.6-7.05 4.335-3.046 7.057-6.363 9.475-10.604.703-1.13.717-2.555-.002-3.763a64.788 64.788 0 0 0-3.838-6.332c-.725 1.782-1.652 3.41-2.656 4.723-.616.805-1.23 1.448-1.78 1.85-1.09.8-2.4 1.035-3.049-.485-5.736-13.446-17.334-25.897-29.569-33.96zM36.4 234.724a75.549 75.549 0 0 0-8.985 5.254c-6.927 4.718-13.209 10.682-18.69 18.015l-.073.098a23.867 23.867 0 0 0 1.978 3.065c.981 1.273 1.993 2.252 2.987 2.855 2.234-5.308 6.503-12.348 11.568-18.44 3.496-4.203 7.247-7.862 11.215-10.847zm202.224 22.768c-5.713-8.092-12.781-14.523-20.912-19.472-2-1.217-4.037-2.33-6.102-3.342 9.808 7.788 18.608 18.088 23.723 29.195.12-.142.246-.297.373-.464 1.174-1.535 2.251-3.636 2.908-5.885a1.52 1.52 0 0 1 .01-.032zM161.476 62.265H75.913l-.097.001a37.649 37.649 0 0 0-1.984.108c-1.72.138-3.64.387-5.712.774-5.918 1.105-11.835 3.092-17.346 6.173-9.49 5.307-16.776 13.301-21.027 24.504-.088.232-.175.466-.26.701l.008.444-.099.002h-.07a60.199 60.199 0 0 0-2.37 8.87c-.866 4.56-1.311 9.495-1.311 14.817V152.5c0 6.775.695 12.911 2.036 18.438a60.06 60.06 0 0 0 1.02 3.695c.217.006.448.011.695.016l.099.001-.04 2.237c.38 1.062.79 2.097 1.224 3.105 6.674 15.466 18.94 23.797 33.877 27.261.634.151 4.253 1.092 5.47 1.393 2.882.714 5.723 1.343 8.892 1.942 12.202 2.306 26.625 3.652 44.401 3.652 18.669 0 33.088-1.38 45.143-3.78a154.596 154.596 0 0 0 7.914-1.797c.95-.24 4.645-1.208 5.44-1.403 15.906-4.126 28.965-13.572 35.415-30.383.188-.49.37-.987.546-1.488l-.013-.739.267-.002c2.164-6.471 3.298-13.834 3.298-22.146V118.66c0-12.423-2.414-22.682-6.909-30.98-4.373-8.072-10.6-14.097-18.22-18.358-5.512-3.081-11.428-5.068-17.347-6.173a55.498 55.498 0 0 0-5.712-.774 37.65 37.65 0 0 0-1.91-.106l.005.163h-9.765l.005-.166zm.097-2.989l1.525-46.866a6.658 6.658 0 0 1-1.338-10.458A6.693 6.693 0 0 1 166.487 0c3.69 0 6.68 2.985 6.68 6.665 0 2.42-1.295 4.54-3.231 5.707l1.218 46.905a40.635 40.635 0 0 1 2.228.118c1.82.147 3.845.409 6.022.815 6.22 1.162 12.442 3.25 18.26 6.504 8.097 4.527 14.738 10.952 19.392 19.545a53.226 53.226 0 0 1 2.642 5.655c.895-.048 1.37-.06 1.958-.036 8.475.334 12.038 10.526 12.038 42.932 0 32.406-3.563 42.598-12.038 42.932-.49.02-.902.015-1.543-.015l-.083.218c-6.844 17.838-20.7 27.86-37.48 32.213-.786.192-4.465 1.156-5.437 1.402-2.708.685-5.254 1.27-8.065 1.83-12.25 2.44-26.866 3.839-45.729 3.839-17.962 0-32.573-1.364-44.959-3.705a162.351 162.351 0 0 1-9.057-1.978c-1.244-.308-4.846-1.244-5.435-1.384-15.775-3.659-28.84-12.533-35.941-28.989a56.059 56.059 0 0 1-1.44-3.693c-.806-.1-1.492-.262-2.267-.53-7.654-2.644-11.478-14.375-11.478-42.14s3.824-39.496 11.478-42.14c.998-.345 1.847-.514 2.996-.602 4.547-11.524 12.21-19.827 22.093-25.354 5.819-3.253 12.04-5.342 18.26-6.504a58.486 58.486 0 0 1 6.022-.815 40.633 40.633 0 0 1 2.17-.117l.124-.002h85.688zm6.583 0l-1.193-45.964a6.796 6.796 0 0 1-.897.004l-1.495 45.96h3.585zm52.987 115.489c.134 0 .262-.004.395-.009 2.704-.106 4.394-1.452 5.931-5.85 2.103-6.015 3.229-16.915 3.229-34.096 0-17.18-1.126-28.081-3.229-34.096-1.537-4.398-3.227-5.743-5.931-5.85-.248-.01-.479-.012-.76-.005 2.33 6.93 3.548 14.846 3.548 23.8v33.843c0 8.276-1.09 15.683-3.183 22.263zM26.07 95.245a7.966 7.966 0 0 0-.868.249c-5.982 2.066-9.463 12.743-9.463 39.316 0 26.574 3.48 37.25 9.463 39.316.083.029.165.056.246.081a63.96 63.96 0 0 1-.679-2.566c-1.398-5.763-2.12-12.135-2.12-19.14v-33.842c0-5.505.462-10.625 1.363-15.373a64.034 64.034 0 0 1 2.058-8.04zM164.23 9.538c1.356-1.093 3.143-1.093 4.512-.052l.054.041a3.665 3.665 0 0 0 1.374-2.862 3.68 3.68 0 0 0-3.684-3.676 3.69 3.69 0 0 0-2.607 1.076 3.67 3.67 0 0 0 .33 5.49l.021-.017zm44.296 313.902c.11-1.42.286-3.608.546-6.728.74-8.909 1.99-23.488 3.873-45.035 1.923-22.015-5.116-34.964-18.031-41.166-3.618-1.737-7.5-2.824-11.44-3.38-2.64-.373-4.93-.463-6.658-.395-.168.006-.279.012-.327.016l-.144.004-54.3-1.239-49.297 1.239-.19-.008a12.879 12.879 0 0 0-.523-.037c-1.828-.1-4.143-.036-6.758.316-3.803.513-7.54 1.558-11.025 3.254-12.509 6.085-19.508 19.11-18.1 41.432 1.36 21.58 2.329 36.162 2.972 45.049.225 3.106.393 5.278.513 6.679.07.822.108 1.203.126 1.351a379.201 379.201 0 0 1 .216 2.388 754.265 754.265 0 0 1 .65 7.79c.316 4.102.503 7.191.517 8.897.088 10.818 1.823 26.378 5.17 39.974 4.67 18.98 11.946 32.733 21.998 38.791 29.73 17.916 82.532 18.055 111.087.017 9.944-6.282 17.203-20.102 21.914-38.996 3.393-13.61 5.193-29.204 5.281-39.785.013-1.723.259-4.82.68-8.936a552.921 552.921 0 0 1 1.149-10.139c.011-.175.041-.586.1-1.353zm-48.782 30.919c-2.05 0-3.714-1.651-3.714-3.689 0-2.038 1.663-3.689 3.714-3.689 2.05 0 3.714 1.651 3.714 3.69 0 2.037-1.663 3.688-3.714 3.688zm0-.996c1.5 0 2.716-1.206 2.716-2.693 0-1.486-1.216-2.693-2.716-2.693-1.5 0-2.716 1.207-2.716 2.693 0 1.487 1.216 2.693 2.716 2.693zm-11.533.498a3.195 3.195 0 0 1-3.2-3.19 3.195 3.195 0 0 1 3.2-3.192c1.767 0 3.2 1.429 3.2 3.191a3.195 3.195 0 0 1-3.2 3.19zm22.639-68.243c2.058 13.35 1.919 27.94-.144 44.654a7.707 7.707 0 0 1-7.202 6.897 399.904 399.904 0 0 1-80.366.023c-3.596-.42-6.479-3.164-7.05-6.632-2.521-12.685-2.54-31.784-.22-45.632.5-3.916 3.818-6.867 7.774-6.916a612.237 612.237 0 0 1 79.466.72c3.963.072 7.277 3.044 7.742 6.886zm-3.122 44.323c1.893-15.321 2.297-30.007.16-43.869a4.955 4.955 0 0 0-4.908-4.352c-26.37-1.96-52.84-2.2-79.243-.72a4.938 4.938 0 0 0-4.904 4.357c-2.192 13.036-2.338 31.883.194 44.622a5.119 5.119 0 0 0 4.46 4.245 396.808 396.808 0 0 0 79.78-.035 4.714 4.714 0 0 0 4.461-4.248z"/>
            <g fill-rule="nonzero">
                <path fill="#E5E5E5" d="M122.64 221.297c19.766 0 31.982-.262 31.982 7.798 0 8.707-12.216 7.798-31.983 7.798-19.767 0-31.984-.064-31.984-7.798.001-7.683 12.218-7.798 31.984-7.798z"/>
                <path fill="#000" d="M122.64 219.803l1.787-.001c13.26-.005 17.854.144 22.391.992 6.12 1.144 9.302 3.696 9.302 8.301 0 4.617-2.866 7.23-8.396 8.379-4.079.847-8.115.978-20.144.927-2.306-.01-3.512-.014-4.94-.014-13.744 0-18.851-.165-23.669-1.022-6.455-1.148-9.814-3.674-9.814-8.27 0-4.574 3.362-7.096 9.813-8.251 4.835-.865 10.111-1.041 23.67-1.041zm0 2.988c-24.236 0-30.486 1.119-30.487 6.304 0 2.79 2.145 4.403 7.344 5.328 4.568.813 9.615.976 23.142.976 1.435 0 2.643.004 4.954.013 11.761.05 15.74-.078 19.52-.864 4.28-.89 6.011-2.467 6.011-5.453 0-2.859-1.988-4.453-6.858-5.364-4.272-.798-8.813-.946-21.838-.94h-1.789z"/>
            </g>
        </g>
    </g>
</svg>
