<svg xmlns="http://www.w3.org/2000/svg" xmlns:xlink="http://www.w3.org/1999/xlink" width="774" height="218" viewBox="0 0 774 218">
    <defs>
        <path id="a" d="M0 0h1444v390H0z"/>
        <path id="c" d="M0 0v235.777c44.808-10.873 107.02-20.897 190.156-20.897 159.206 0 210.99 43.17 315.448 57.057 104.458 13.887 169.057 5.388 234.347-9.033 65.289-14.42 136.383-38.455 260.433 0 124.05 38.455 256.026-39.522 256.026-39.522s42.887-30.978 149.182-30.978c13.19 0 25.502.593 37.011 1.659l-2.13-136.665L0 0z"/>
        <linearGradient id="d" x1="70.929%" x2="70.929%" y1="0%" y2="100%">
            <stop offset="0%" stop-color="#F89096"/>
            <stop offset="58.368%" stop-color="#B1B4E5"/>
            <stop offset="100%" stop-color="#B1B4E5" stop-opacity="0"/>
        </linearGradient>
        <linearGradient id="f" x1="57.087%" x2="66.38%" y1="49.936%" y2="50.604%">
            <stop offset="0%" stop-color="#F89096"/>
            <stop offset="58.368%" stop-color="#B1B4E5" stop-opacity=".497"/>
            <stop offset="100%" stop-color="#B1B4E5" stop-opacity="0"/>
        </linearGradient>
    </defs>
    <g fill="none" fill-rule="evenodd" transform="translate(-335 -55)">
        <mask id="b" fill="#fff">
            <use xlink:href="#a"/>
        </mask>
        <g mask="url(#b)">
            <g transform="translate(0 -6)">
                <mask id="e" fill="#fff">
                    <use xlink:href="#c"/>
                </mask>
                <path fill="url(#d)" d="M-109.68.152c383.913-1.959 653.13 142.955 816.725 171.01 163.595 28.054 265.847-1.08 368.094-30.21 102.247-29.132 228.354-45.317 422.625 32.368s388.102-103.922 388.102-103.922 55.41-55.325 198.724-67.11V263H-313.528V2.45C-227.666.41-159.717-.356-109.68.152z" mask="url(#e)" opacity=".2"/>
                <path fill="url(#f)" d="M-690.509 296.007c213.874-1.818 594.712 21.23 679.737-50.73 35.097-29.704 66.18-122.217 205.26-122.217 155.878 0 130.624 97.52 306.093 97.52 156.166 0 203.704-68.885 468.09 5.58 101.102 28.476 223.726-50.168 258.761-76.5C1262.468 123.33 1335.366 57 1470.178 57c310.611 0-56.903 223.76 687.195 239.007-95.73 1.402-299.825 73.565-612.286 73.868-332.39.322-787.409.022-1365.057-.9-176.316-.281-466.495-24.604-870.539-72.968z" mask="url(#e)" opacity=".6"/>
            </g>
        </g>
    </g>
</svg>
