<svg xmlns:xlink="http://www.w3.org/1999/xlink"
  xmlns="http://www.w3.org/2000/svg" data-name="Layer 1" width="571.13" height="480.21">
  <defs fill="#000000">
    <linearGradient id="f" x1="-959.29" y1="-1435.2" x2="-958.6" y2="-1435.2" gradientTransform="matrix(748.11 0 0 -232 717793.59 -332590.01)" gradientUnits="userSpaceOnUse" fill="#000000">
      <stop offset="0" stop-color="#cecece" stop-opacity="0" fill="#000000"/>
      <stop offset=".29" stop-color="#cecece" fill="#000000"/>
      <stop offset=".86" stop-color="#cecece" fill="#000000"/>
      <stop offset="1" stop-color="#cecece" stop-opacity="0" fill="#000000"/>
    </linearGradient>
    <linearGradient id="g" x1="-959.33" y1="-1450.38" x2="-958.68" y2="-1450.38" gradientTransform="matrix(799.88 0 0 -102 767534.19 -147559.22)" gradientUnits="userSpaceOnUse" fill="#000000">
      <stop offset="0" stop-color="#b7b9fa" stop-opacity="0" fill="#000000"/>
      <stop offset=".34" stop-color="#b7b9fa" fill="#000000"/>
      <stop offset=".7" stop-color="#b7b9fa" fill="#000000"/>
      <stop offset="1" stop-color="#b7b9fa" stop-opacity="0" fill="#000000"/>
    </linearGradient>
    <linearGradient id="h" x1="-959.21" y1="-1439.6" x2="-958.57" y2="-1439.6" gradientTransform="matrix(757.27 0 0 -169.45 726552.12 -243557.05)" gradientUnits="userSpaceOnUse" fill="#000000">
      <stop offset="0" stop-color="#fff" stop-opacity="0" fill="#000000"/>
      <stop offset=".16" stop-color="#fff" fill="#000000"/>
      <stop offset=".69" stop-color="#fff" fill="#000000"/>
      <stop offset="1" stop-color="#fff" stop-opacity="0" fill="#000000"/>
    </linearGradient>
    <linearGradient id="i" x1="-959.26" y1="-1439.35" x2="-958.75" y2="-1439.35" gradientTransform="matrix(860.41 0 0 -172 825543.61 -247181.86)" gradientUnits="userSpaceOnUse" fill="#000000">
      <stop offset="0" stop-color="#459aa8" stop-opacity="0" fill="#000000"/>
      <stop offset=".29" stop-color="#459aa8" fill="#000000"/>
      <stop offset=".86" stop-color="#459aa8" fill="#000000"/>
      <stop offset="1" stop-color="#459aa8" stop-opacity="0" fill="#000000"/>
    </linearGradient>
    <linearGradient id="j" x1="589.42" y1="81.08" x2="689.85" y2="181.51" gradientUnits="userSpaceOnUse" gradientTransform="translate(-144.06 -77.4)" fill="#000000">
      <stop offset="0" stop-color="#cecece" fill="#000000"/>
      <stop offset=".19" stop-color="#cecece" fill="#000000"/>
      <stop offset=".73" stop-color="#459aa8" fill="#000000"/>
      <stop offset="1" stop-color="#459aa8" fill="#000000"/>
    </linearGradient>
    <linearGradient id="k" x1="407.45" y1="306.42" x2="504.1" y2="473.83" gradientUnits="userSpaceOnUse" gradientTransform="translate(-144.06 -77.4)" fill="#000000">
      <stop offset="0" stop-color="#f0f2f6" fill="#000000"/>
      <stop offset=".68" stop-color="#dcdce1" fill="#000000"/>
      <stop offset=".82" stop-color="#d7d7dc" fill="#000000"/>
      <stop offset="1" stop-color="#c7c9ce" fill="#000000"/>
    </linearGradient>
    <linearGradient id="a" x1="402.08" y1="297.13" x2="507.78" y2="480.21" gradientUnits="userSpaceOnUse" fill="#000000">
      <stop offset="0" stop-color="#fff" fill="#000000"/>
      <stop offset="1" stop-color="#c7c9ce" fill="#000000"/>
    </linearGradient>
    <linearGradient id="b" x1="481.18" y1="137.72" x2="489.32" y2="137.72" gradientUnits="userSpaceOnUse" fill="#000000">
      <stop offset="0" stop-color="#f0f2f6" fill="#000000"/>
      <stop offset=".66" stop-color="#dcdce1" fill="#000000"/>
      <stop offset=".8" stop-color="#d7d7dc" fill="#000000"/>
    </linearGradient>
    <linearGradient id="m" x1="446.14" y1="264.35" x2="446.14" y2="195.18" gradientUnits="userSpaceOnUse" gradientTransform="translate(-144.06 -77.4)" fill="#000000">
      <stop offset="0" stop-color="#024e28" fill="#000000"/>
      <stop offset=".05" stop-color="#024e28" fill="#000000"/>
      <stop offset=".64" stop-color="#193d58" fill="#000000"/>
      <stop offset=".96" stop-color="#459aa8" fill="#000000"/>
    </linearGradient>
    <linearGradient id="n" x1="377.74" y1="177.03" x2="516.22" y2="283.41" xlink:href="#b" gradientTransform="translate(-144.06 -77.4)" fill="#000000"/>
    <linearGradient id="o" x1="415.22" y1="175.5" x2="478.76" y2="285.56" gradientUnits="userSpaceOnUse" gradientTransform="translate(-144.06 -77.4)" fill="#000000">
      <stop offset="0" stop-color="#d9dbe0" fill="#000000"/>
      <stop offset=".39" stop-color="#e9eaed" fill="#000000"/>
      <stop offset="1" stop-color="#fff" fill="#000000"/>
    </linearGradient>
    <linearGradient id="p" x1="446.7" y1="391.62" x2="446.7" y2="329.85" gradientUnits="userSpaceOnUse" gradientTransform="translate(-144.06 -77.4)" fill="#000000">
      <stop offset="0" stop-color="#37393e" fill="#000000"/>
      <stop offset="1" fill="#000000"/>
    </linearGradient>
    <linearGradient id="c" x1="447.67" y1="-4291.31" x2="447.67" y2="-4343.53" gradientTransform="matrix(1 0 0 -1 0 -3925.59)" gradientUnits="userSpaceOnUse" fill="#000000">
      <stop offset="0" stop-color="#459aa8" fill="#000000"/>
      <stop offset="1" stop-color="#cbe1ff" fill="#000000"/>
    </linearGradient>
    <linearGradient id="r" x1="446.67" y1="-4295.78" x2="446.67" y2="-4339.26" xlink:href="#c" gradientTransform="translate(-144.06 -77.4)" fill="#000000"/>
    <linearGradient id="s" x1="446.63" y1="-4300.33" x2="446.63" y2="-4334.7" gradientTransform="matrix(1 0 0 -1 -144.06 -4002.99)" gradientUnits="userSpaceOnUse" fill="#000000">
      <stop offset="0" stop-color="#459aa8" fill="#000000"/>
      <stop offset="1" stop-color="#cbe1ff" fill="#000000"/>
    </linearGradient>
    <linearGradient id="t" x1="422.98" y1="319.11" x2="470.48" y2="401.39" gradientUnits="userSpaceOnUse" gradientTransform="translate(-144.06 -77.4)" fill="#000000">
      <stop offset="0" stop-color="#c7c9ce" fill="#000000"/>
      <stop offset=".56" stop-color="#e9eaec" fill="#000000"/>
      <stop offset="1" stop-color="#fff" fill="#000000"/>
    </linearGradient>
    <linearGradient id="u" x1="485.14" y1="125.43" x2="485.14" y2="109.88" gradientUnits="userSpaceOnUse" gradientTransform="translate(-144.06 -77.4)" fill="#000000">
      <stop offset="0" stop-color="#024e28" fill="#000000"/>
      <stop offset=".05" stop-color="#024e28" fill="#000000"/>
      <stop offset=".66" stop-color="#193d58" fill="#000000"/>
      <stop offset="1" stop-color="#459aa8" fill="#000000"/>
    </linearGradient>
    <linearGradient id="x" x1="446.37" y1="-3148.49" x2="446.37" y2="-3166.84" gradientTransform="matrix(1 0 0 -1 -144.06 -2979.48)" gradientUnits="userSpaceOnUse" fill="#000000">
      <stop offset="0" fill="#000000"/>
      <stop offset=".24" stop-color="#080809" fill="#000000"/>
      <stop offset=".63" stop-color="#1d1e21" fill="#000000"/>
      <stop offset="1" stop-color="#37393e" fill="#000000"/>
    </linearGradient>
    <linearGradient id="y" x1="402.03" y1="-3204.08" x2="432.25" y2="-3204.08" gradientTransform="matrix(1 0 0 -1 -144.06 -3051.35)" gradientUnits="userSpaceOnUse" fill="#000000">
      <stop offset="0" fill="#000000"/>
      <stop offset=".11" stop-color="#090909" fill="#000000"/>
      <stop offset=".29" stop-color="#212121" fill="#000000"/>
      <stop offset=".52" stop-color="#494949" fill="#000000"/>
      <stop offset=".78" stop-color="gray" fill="#000000"/>
      <stop offset="1" stop-color="#b3b3b3" fill="#000000"/>
    </linearGradient>
    <linearGradient id="z" x1="460.87" y1="-3204.08" x2="491.09" y2="-3204.08" gradientTransform="matrix(1 0 0 -1 -144.06 -3051.35)" gradientUnits="userSpaceOnUse" fill="#000000">
      <stop offset="0" stop-color="#b3b3b3" fill="#000000"/>
      <stop offset=".22" stop-color="gray" fill="#000000"/>
      <stop offset=".48" stop-color="#494949" fill="#000000"/>
      <stop offset=".71" stop-color="#212121" fill="#000000"/>
      <stop offset=".89" stop-color="#090909" fill="#000000"/>
      <stop offset="1" fill="#000000"/>
    </linearGradient>
    <linearGradient id="d" x1="556.34" y1="200.2" x2="569.61" y2="217.18" gradientUnits="userSpaceOnUse" fill="#000000">
      <stop offset="0" stop-color="#f0f2f6" fill="#000000"/>
      <stop offset=".9" stop-color="#d7d7dc" fill="#000000"/>
    </linearGradient>
    <linearGradient id="e" x1="538.18" y1="216.09" x2="545.28" y2="223.81" gradientUnits="userSpaceOnUse" fill="#000000">
      <stop offset="0" stop-color="#f0f2f6" fill="#000000"/>
      <stop offset=".44" stop-color="#e8e9ee" fill="#000000"/>
      <stop offset="1" stop-color="#d7d7dc" fill="#000000"/>
    </linearGradient>
    <linearGradient id="D" x1="329.32" y1="200.89" x2="342.17" y2="209.45" xlink:href="#d" gradientTransform="translate(-144.06 -77.4)" fill="#000000"/>
    <linearGradient id="F" x1="590.37" y1="1554.76" x2="597.88" y2="1559.6" gradientTransform="rotate(24.14 3710.66 -63.33)" xlink:href="#e" fill="#000000"/>
    <linearGradient xlink:href="#b" id="l" gradientUnits="userSpaceOnUse" x1="481.18" y1="137.72" x2="489.32" y2="137.72" gradientTransform="translate(-144.06 -77.4)" fill="#000000"/>
    <linearGradient xlink:href="#c" id="q" gradientUnits="userSpaceOnUse" gradientTransform="matrix(1 0 0 -1 -144.06 -4002.99)" x1="447.67" y1="-4291.31" x2="447.67" y2="-4343.53" fill="#000000"/>
    <linearGradient xlink:href="#d" id="A" gradientUnits="userSpaceOnUse" x1="556.34" y1="200.2" x2="569.61" y2="217.18" gradientTransform="translate(-144.06 -77.4)" fill="#000000"/>
    <linearGradient xlink:href="#e" id="C" gradientUnits="userSpaceOnUse" x1="538.18" y1="216.09" x2="545.28" y2="223.81" gradientTransform="translate(-144.06 -77.4)" fill="#000000"/>
    <radialGradient id="v" cx="446.47" cy="545.2" r="15.33" gradientTransform="matrix(.01 .89 -3.17 .02 2027.46 -182.13)" gradientUnits="userSpaceOnUse" fill="#000000">
      <stop offset="0" stop-color="#024e28" fill="#000000"/>
      <stop offset="1" stop-color="#459aa8" fill="#000000"/>
    </radialGradient>
    <radialGradient id="w" cx="447.67" cy="-82.94" r="96.72" gradientTransform="matrix(1 0 0 .14 -144.06 478.1)" gradientUnits="userSpaceOnUse" fill="#000000">
      <stop offset="0" stop-color="#37393e" stop-opacity=".3" fill="#000000"/>
      <stop offset="1" stop-color="#c7c9ce" stop-opacity="0" fill="#000000"/>
    </radialGradient>
    <radialGradient id="B" cx="6301.08" cy="-936.46" r="70.82" gradientTransform="matrix(.27 -.96 -.55 -.15 -1814.41 6121.24)" gradientUnits="userSpaceOnUse" fill="#000000">
      <stop offset="0" stop-color="#f7f8fa" fill="#000000"/>
      <stop offset=".42" stop-color="#f4f5f8" fill="#000000"/>
      <stop offset=".71" stop-color="#ebecf0" fill="#000000"/>
      <stop offset=".97" stop-color="#dbdde2" fill="#000000"/>
      <stop offset="1" stop-color="#d9dbe0" fill="#000000"/>
    </radialGradient>
    <radialGradient id="E" cx="615.91" cy="1610.37" r="60.42" gradientTransform="matrix(0 -1 .58 0 -728.08 817.33)" gradientUnits="userSpaceOnUse" fill="#000000">
      <stop offset=".17" stop-color="#d9dbe0" fill="#000000"/>
      <stop offset=".39" stop-color="#e2e3e7" fill="#000000"/>
      <stop offset="1" stop-color="#f7f8fa" fill="#000000"/>
    </radialGradient>
  </defs>
  <g data-name="t-shirt black">
    <g data-name="wavesmars front">
      <path data-name="1" d="M201.31 352.3c52.87 3.32 49-79.52 120-77.69 71 1.83 108 91.8 202.21 87.95 14.74-.6 31.2-65.64 73.51-64.55 42.31 1.09 100.7 60.58 100.7 60.58l-6.2 76.71s-100.79 39.9-134.94 39.52c-44.53-.5-44-51.34-104.38-47-24.38 1.76-39 52.42-82.62 51.29-35.7-.92-60.45-70.61-88.23-70-43.64.92-58.64 27.75-75.73 28.66-19.4 1.04-39.93-16-61.57-51.1 2.92-25.11 22-36.57 57.25-34.37z" style="fill:url(#f);opacity:.5;isolation:isolate;fill-rule:evenodd" transform="translate(-144.06 -77.4)"/>
      <path data-name="2" d="M152.87 381.67c34.17-27.94 68-42.02 101.46-42.24 50.21-.34 77.63 25.71 117.5 23.63 39.87-2.08 37.17-18.74 84.82-20.86 47.65-2.12 68.35 27.48 106.49 29.16 38.14 1.68 152.05-37 152.05-37l-.65 88.63s-72.9-32.85-125.84-31.15c-52.94 1.7-99 25.3-142.09 25.06-43.09-.24-68.79-19.3-97.86-20.21-29.07-.91-50.12 28.07-96.3 27.59-30.79-.35-63.98-14.55-99.58-42.61z" style="fill:url(#g);opacity:.45;isolation:isolate;fill-rule:evenodd" transform="translate(-144.06 -77.4)"/>
      <path d="M696.74 378.11a.94.94 0 0 1-1.06-.54v-22.14a1.3 1.3 0 0 1 2.12 0v22.14a.94.94 0 0 1-1.06.54zm-8.46 0a.92.92 0 0 1-1.06-.56V363.9c.5-.75 1.61-.75 2.12 0v13.65a.92.92 0 0 1-1.06.56zm-8.46 0a.93.93 0 0 1-1.07-.55v-5.22a1.3 1.3 0 0 1 2.12 0v5.22a.93.93 0 0 1-1 .55zm-8.47 0a.92.92 0 0 1-1.06-.56V359a1.3 1.3 0 0 1 2.12 0v18.59a.94.94 0 0 1-1.06.56zm-8.47 0a.91.91 0 0 1-1-.56V347c.23-.33.6-.53 1-.55.42 0 .81.2 1.06.55v30.57a.91.91 0 0 1-1.06.56zm-8.46 0a.94.94 0 0 1-1.06-.54v-17.21a1.3 1.3 0 0 1 2.12 0v17.21a.94.94 0 0 1-1.06.54zm-8.47 0a.91.91 0 0 1-1.05-.55v-9.44a1.29 1.29 0 0 1 2.11 0v9.44a.92.92 0 0 1-1 .55zm-8.46 0a.93.93 0 0 1-1.06-.55V351.2a1.3 1.3 0 0 1 2.12 0v26.36a.93.93 0 0 1-1.06.55zm-8.47 0a.91.91 0 0 1-1-.55V334.3c.23-.34.6-.54 1-.56.42 0 .82.21 1.06.56v43.26a.92.92 0 0 1-1.06.55zm-8.46 0a.92.92 0 0 1-1.06-.55V347a1.3 1.3 0 0 1 2.12 0v30.58a.92.92 0 0 1-1.06.55zm-8.46 0a.91.91 0 0 1-1.06-.56v-14.36c.5-.75 1.6-.75 2.11 0v14.36a.92.92 0 0 1-1 .56zm-8.47 0a.94.94 0 0 1-1.06-.54v-9.46c.52-.72 1.6-.72 2.12 0v9.46a.94.94 0 0 1-1.06.54zm-7.93 0a.92.92 0 0 1-1.06-.55v-17.9a1.29 1.29 0 0 1 2.11 0v17.9a.93.93 0 0 1-1 .55zm-8.47 0a.92.92 0 0 1-1.06-.55V347a1.3 1.3 0 0 1 2.12 0v30.58a.92.92 0 0 1-1.06.55zm-8.47 0a.91.91 0 0 1-1-.55v-22.13c.23-.33.6-.53 1-.55.42 0 .82.2 1.06.55v22.13a.91.91 0 0 1-1.05.55zm-8.45 0a.93.93 0 0 1-1.07-.55v-9.44a1.3 1.3 0 0 1 2.12 0v9.44a.94.94 0 0 1-1.05.55zm-8.47 0a.92.92 0 0 1-1.06-.55v-22.12c.5-.75 1.6-.75 2.11 0v22.12a.91.91 0 0 1-1 .55zm-8.47 0a.92.92 0 0 1-1.06-.55v-43.27a1.3 1.3 0 0 1 2.12 0v43.27a.92.92 0 0 1-1.06.55zm-8.46 0a.92.92 0 0 1-1.06-.55V347c.24-.34.64-.55 1.06-.55.43-.01.84.2 1.09.55v30.58a.93.93 0 0 1-1.05.55zm-8.47 0a.93.93 0 0 1-1.06-.55v-17.9a1.3 1.3 0 0 1 2.12 0v17.9a.92.92 0 0 1-1.06.55zm-8.46 0a.93.93 0 0 1-1.06-.55v-5.22c.25-.34.64-.54 1.06-.55.4.02.77.22 1 .55v5.22a.92.92 0 0 1-1 .55zm-8.46 0a.93.93 0 0 1-1.07-.55v-17.9a1.3 1.3 0 0 1 2.12 0v17.9a.94.94 0 0 1-1.05.55zm-8.47 0a.93.93 0 0 1-1.06-.55v-39a1.29 1.29 0 0 1 2.11 0v39a.92.92 0 0 1-1.05.55zm-8.47 0a.93.93 0 0 1-1.06-.55v-60.18a1.3 1.3 0 0 1 2.12 0v60.18a.92.92 0 0 1-1.06.55zm-8.46 0a.93.93 0 0 1-1.06-.55v-51.73a1.3 1.3 0 0 1 2.12 0v51.73a.94.94 0 0 1-1.06.55zm-7.94 0a.93.93 0 0 1-1.06-.55v-34.81a1.3 1.3 0 0 1 2.12 0v34.81a.93.93 0 0 1-1.06.55zm-8.46 0a.92.92 0 0 1-1.06-.55v-22.12c.24-.34.64-.55 1.06-.56.4.02.77.23 1 .56v22.12a.91.91 0 0 1-1 .55zm-8.47 0a.93.93 0 0 1-1.06-.55v-9.44a1.3 1.3 0 0 1 2.12 0v9.44a.92.92 0 0 1-1.06.55zm-8.46 0a.92.92 0 0 1-1.06-.55v-17.89c.5-.75 1.61-.75 2.12 0v17.89a.94.94 0 0 1-1.06.55zm-8.47 0a.93.93 0 0 1-1.06-.55v-39a1.3 1.3 0 0 1 2.12 0v39a.92.92 0 0 1-1.06.55zm-8.46 0a.92.92 0 0 1-1.06-.55v-55.95a1.3 1.3 0 0 1 2.12 0v55.95a.93.93 0 0 1-1.06.55zm-8.47 0a.93.93 0 0 1-1.06-.55v-72.87a1.3 1.3 0 0 1 2.12 0v72.87a.92.92 0 0 1-1.06.55zm-8.46 0a.92.92 0 0 1-1.06-.55v-72.87a1.3 1.3 0 0 1 2.12 0v72.87a.94.94 0 0 1-1.06.55zm-8.47 0a.92.92 0 0 1-1-.55v-60.18c.23-.33.6-.53 1-.55.42 0 .81.2 1.06.55v60.18a.93.93 0 0 1-1.06.55zm-8.46 0a.93.93 0 0 1-1.06-.55v-43.27a1.3 1.3 0 0 1 2.12 0v43.27a.94.94 0 0 1-1.06.55zm-8.47 0a.91.91 0 0 1-1-.55v-27.05c.23-.34.6-.54 1-.56.42 0 .82.21 1.06.56v27.05a.92.92 0 0 1-1.06.55zm-8.46 0a.92.92 0 0 1-1.06-.55v-13.67a1.3 1.3 0 0 1 2.12 0v13.67a.92.92 0 0 1-1.06.55zm-7.94 0a.92.92 0 0 1-1.05-.55V347a1.29 1.29 0 0 1 2.11 0v30.59a.93.93 0 0 1-1.06.54zm-8.46 0a.93.93 0 0 1-1.06-.55v-51.73a1.3 1.3 0 0 1 2.12 0v51.73a.93.93 0 0 1-1.06.55zm-8.47 0a.91.91 0 0 1-1.05-.55v-39.74a1.3 1.3 0 0 1 1.05-.56c.42 0 .82.22 1.06.56v39.74a.92.92 0 0 1-1.06.55zm-8.46 0a.93.93 0 0 1-1.06-.55V351.2a1.3 1.3 0 0 1 2.12 0v26.36a.94.94 0 0 1-1.06.55zm-8.47 0a.91.91 0 0 1-1-.55v-17.89c.23-.33.6-.54 1-.56.42 0 .82.21 1.06.56v17.89a.92.92 0 0 1-1.06.55zm-8.45 0a.93.93 0 0 1-1.07-.56v-9.43a1.3 1.3 0 0 1 2.12 0v9.43a.93.93 0 0 1-1.05.56zm-8.47 0a.91.91 0 0 1-1.06-.56v-27c.23-.34.6-.54 1-.56.42 0 .82.21 1.06.56v27a.92.92 0 0 1-1 .56zm-8.47 0a.92.92 0 0 1-1.06-.55v-39a1.3 1.3 0 0 1 2.12 0v39a.92.92 0 0 1-1.06.55zm-8.46 0a.92.92 0 0 1-1.06-.55v-51c.51-.73 1.6-.73 2.11 0v51a.91.91 0 0 1-1.05.55zm-8.47 0a.92.92 0 0 1-1.06-.55v-64.41a1.3 1.3 0 0 1 2.12 0v64.41a.92.92 0 0 1-1.06.55zm-8.46 0a.93.93 0 0 1-1.06-.55v-46.79a1.29 1.29 0 0 1 2.11 0v46.79a.92.92 0 0 1-1.05.55zm-8.47 0a.92.92 0 0 1-1.06-.55v-34.8c.5-.75 1.61-.75 2.12 0v34.8a.92.92 0 0 1-1.06.55zm-8.46 0a.93.93 0 0 1-1.06-.55V351.2c.25-.34.64-.54 1.06-.55.42 0 .8.21 1.05.55v26.36a.92.92 0 0 1-1.06.55zm-7.94 0a.94.94 0 0 1-1.06-.54v-13.68a1.3 1.3 0 0 1 2.12 0v13.68a.94.94 0 0 1-1.06.54zm-8.46 0a.93.93 0 0 1-1.06-.55v-5.22c.25-.34.64-.54 1.06-.55.4.02.77.22 1 .55v5.22a.92.92 0 0 1-1 .55zm-8.46 0a.93.93 0 0 1-1.07-.55v-9.44a1.3 1.3 0 0 1 2.12 0v9.44a.94.94 0 0 1-1.05.55zm-8.47 0a.91.91 0 0 1-1.06-.56v-17.88c.24-.34.64-.55 1.06-.56.42 0 .81.21 1.05.56v17.88a.91.91 0 0 1-1.06.56zm-8.47 0a.92.92 0 0 1-1.06-.55v-9.44a1.3 1.3 0 0 1 2.12 0v9.44a.92.92 0 0 1-1.06.55zm-8.46 0a.92.92 0 0 1-1.06-.55v-5.22c.25-.34.64-.54 1.06-.55.4.02.77.22 1 .55v5.22a.93.93 0 0 1-1 .55zm-8.47 0a.93.93 0 0 1-1.06-.55v-13.67a1.3 1.3 0 0 1 2.12 0v13.67a.92.92 0 0 1-1.06.55zm-8.46 0a.92.92 0 0 1-1.06-.55v-26.35c.5-.75 1.61-.75 2.12 0v26.35a.94.94 0 0 1-1.06.55zm-8.46 0a.93.93 0 0 1-1.07-.55v-17.9a1.3 1.3 0 0 1 2.12 0v17.9a.93.93 0 0 1-1.05.55zm-8.47 0a.92.92 0 0 1-1.06-.55v-9.44a1.3 1.3 0 0 1 2.12 0v9.44a.93.93 0 0 1-1.06.55zm-8.46 0a.93.93 0 0 1-1.07-.55v-5.22a1.3 1.3 0 0 1 2.12 0v5.22a.93.93 0 0 1-1.05.55zm-8.47 0a.92.92 0 0 1-1.06-.56v-9.43a1.3 1.3 0 0 1 2.12 0v9.43a.94.94 0 0 1-1.06.56zm-8.47 0a.92.92 0 0 1-1-.56V363.2c.22-.34.6-.55 1-.57.42 0 .82.22 1.06.57v14.35a.91.91 0 0 1-1.06.56zm-7.93 0a.92.92 0 0 1-1.06-.55v-9.44a1.3 1.3 0 0 1 2.12 0v9.44a.93.93 0 0 1-1.06.55zm-8.47 0a.94.94 0 0 1-1.06-.55v-5.22a1.3 1.3 0 0 1 2.12 0v5.22a.93.93 0 0 1-1.06.55zm539.1 24.67a1 1 0 0 1-1.06-.55v-22.14c.52-.72 1.6-.72 2.12 0v22.14a.94.94 0 0 1-1.06.55zm-8.46-8.46a.94.94 0 0 1-1.06-.56v-13.65c.5-.75 1.61-.75 2.12 0v13.65a.94.94 0 0 1-1.06.56zm-8.46-8.46a.93.93 0 0 1-1.07-.55v-5.21a1.3 1.3 0 0 1 2.12 0v5.21a.92.92 0 0 1-1 .55zm-8.47 13.39a.92.92 0 0 1-1.06-.56V380.1a1.3 1.3 0 0 1 2.12 0v18.59a.94.94 0 0 1-1.06.56zm-8.47 12a.91.91 0 0 1-1-.56v-30.58c.23-.34.6-.54 1-.56.42 0 .82.21 1.06.56v30.56a.91.91 0 0 1-1.06.56zm-8.46-13.39a.93.93 0 0 1-1.06-.54v-17.23c.52-.72 1.6-.72 2.12 0v17.21a.93.93 0 0 1-1.06.54zm-8.42-7.77a.91.91 0 0 1-1.05-.56v-9.43a1.29 1.29 0 0 1 2.11 0v9.43a.93.93 0 0 1-1 .56zM637.49 407a.93.93 0 0 1-1.06-.54v-26.37c.52-.72 1.6-.72 2.12 0v26.37a.94.94 0 0 1-1.06.54zM629 423.92a.93.93 0 0 1-1-.56V380.1c.23-.33.6-.53 1-.55.42 0 .82.2 1.06.55v43.26a.93.93 0 0 1-1.06.56zm-8.46-12.69a.93.93 0 0 1-1.06-.55V380.1a1.3 1.3 0 0 1 2.12 0v30.58a.92.92 0 0 1-1.06.55zM612.1 395a.91.91 0 0 1-1.06-.56v-14.33c.5-.75 1.6-.75 2.11 0v14.36a.92.92 0 0 1-1 .56zm-8.47-4.93a.93.93 0 0 1-1.06-.55v-9.45c.52-.72 1.6-.72 2.12 0v9.45a.93.93 0 0 1-1.06.55zm-7.93 8.46a.93.93 0 0 1-1.06-.56V380.1a1.29 1.29 0 0 1 2.11 0V398a.93.93 0 0 1-1 .55zm-8.47 12.68a.94.94 0 0 1-1.06-.56V380.1a1.3 1.3 0 0 1 2.12 0v30.58a.92.92 0 0 1-1.06.55zm-8.47-8.46a.91.91 0 0 1-1-.55v-22.1c.23-.33.6-.53 1-.55.42 0 .82.2 1.06.55v22.13a.93.93 0 0 1-1.05.55zm-8.45-12.68a.93.93 0 0 1-1.07-.56v-9.41a1.3 1.3 0 0 1 2.12 0v9.43a.93.93 0 0 1-1.05.56zm-8.47 12.68a.92.92 0 0 1-1.06-.55v-22.1c.51-.73 1.6-.73 2.11 0v22.12a.93.93 0 0 1-1 .56zm-8.47 21.14a.92.92 0 0 1-1.06-.55V380.1a1.3 1.3 0 0 1 2.12 0v43.26a.94.94 0 0 1-1.06.56zm-8.46-12.68a.92.92 0 0 1-1.06-.55V380.1a1.29 1.29 0 0 1 2.11 0v30.58a.93.93 0 0 1-1.05.56zm-8.47-12.68a.94.94 0 0 1-1.06-.56V380.1a1.3 1.3 0 0 1 2.12 0V398a.94.94 0 0 1-1.06.55zM528 385.86a.93.93 0 0 1-1.06-.55v-5.21c.25-.34.64-.55 1.06-.55.4.02.77.22 1 .55v5.21a.91.91 0 0 1-1 .55zm-8.46 12.69a1 1 0 0 1-1.07-.55v-17.9a1.3 1.3 0 0 1 2.12 0V398a.94.94 0 0 1-1.05.55zm-8.47 21.14a.93.93 0 0 1-1.06-.55v-39a1.29 1.29 0 0 1 2.11 0v39a.92.92 0 0 1-1.07.55zm-8.47 21.14a.94.94 0 0 1-1.06-.55V380.1a1.3 1.3 0 0 1 2.12 0v60.17a.94.94 0 0 1-1.06.56zm-8.46-8.46a.92.92 0 0 1-1.06-.55V380.1a1.3 1.3 0 0 1 2.12 0v51.72a.94.94 0 0 1-1.06.55zm-7.94-16.91a.93.93 0 0 1-1.06-.55V380.1a1.3 1.3 0 0 1 2.12 0v34.81a.94.94 0 0 1-1.06.55zm-8.46-12.68a.93.93 0 0 1-1.06-.56V380.1c.25-.34.64-.55 1.06-.55.4.02.77.22 1 .55v22.12a.91.91 0 0 1-1 .55zm-8.47-12.69a.92.92 0 0 1-1.06-.56v-9.43a1.3 1.3 0 0 1 2.12 0v9.43a.94.94 0 0 1-1.06.56zm-8.46 8.46a.93.93 0 0 1-1.06-.56V380.1a1.3 1.3 0 0 1 2.12 0V398a.94.94 0 0 1-1.06.55zm-8.47 21.14a.94.94 0 0 1-1.06-.55v-39a1.3 1.3 0 0 1 2.12 0v39a.94.94 0 0 1-1.06.56zm-8.46 16.91a.92.92 0 0 1-1.06-.55V380.1a1.3 1.3 0 0 1 2.12 0V436a.94.94 0 0 1-1.06.56zm-8.47 16.92a.94.94 0 0 1-1.06-.56V380.1a1.3 1.3 0 0 1 2.12 0V453a.93.93 0 0 1-1.08.52zm-8.46 0a.94.94 0 0 1-1.06-.55V380.1a1.3 1.3 0 0 1 2.12 0V453a1 1 0 0 1-1.06.55zm-8.47-12.69a.92.92 0 0 1-1-.55V380.1c.23-.33.6-.53 1-.55.42 0 .81.2 1.06.55v60.18a.93.93 0 0 1-1.06.55zM410 423.92a.94.94 0 0 1-1.06-.55V380.1a1.3 1.3 0 0 1 2.12 0v43.27a1 1 0 0 1-1.06.55zm-8.47-16.21a.93.93 0 0 1-1-.56v-27c.23-.33.6-.53 1-.55.42 0 .81.2 1.06.55v27a.93.93 0 0 1-1.06.56zm-8.46-13.39a.93.93 0 0 1-1.06-.55V380.1a1.3 1.3 0 0 1 2.12 0v13.67a.93.93 0 0 1-1.06.55zm-7.94 16.91a.93.93 0 0 1-1.05-.55V380.1a1.29 1.29 0 0 1 2.11 0v30.58a.92.92 0 0 1-1.06.55zm-8.46 21.14a.93.93 0 0 1-1.06-.55V380.1a1.3 1.3 0 0 1 2.12 0v51.72a.92.92 0 0 1-1.06.55zm-8.47-12a.91.91 0 0 1-1.05-.55V380.1a1.29 1.29 0 0 1 2.11 0v39.74a.92.92 0 0 1-1.06.55zM359.74 407a.93.93 0 0 1-1.06-.54v-26.37c.52-.72 1.6-.72 2.12 0v26.37a.94.94 0 0 1-1.06.55zm-8.47-8.45a.93.93 0 0 1-1-.56V380.1c.23-.33.6-.53 1-.55.42 0 .81.2 1.06.55V398a.93.93 0 0 1-1.06.56zm-8.45-8.46a.93.93 0 0 1-1.07-.56v-9.43a1.3 1.3 0 0 1 2.12 0v9.43a.93.93 0 0 1-1.05.56zm-8.47 17.62a.92.92 0 0 1-1.06-.56v-27c.23-.34.6-.54 1-.56.42 0 .82.21 1.06.56v27a.92.92 0 0 1-1 .56zm-8.47 12a.94.94 0 0 1-1.06-.56v-39a1.3 1.3 0 0 1 2.12 0v39a.94.94 0 0 1-1.06.55zm-8.46 12a.93.93 0 0 1-1.06-.55v-51c.51-.73 1.6-.73 2.11 0v51a.93.93 0 0 1-1.05.55zM309 445.06a.94.94 0 0 1-1.06-.55V380.1a1.3 1.3 0 0 1 2.12 0v64.41a.94.94 0 0 1-1.06.55zm-8.46-17.62a.94.94 0 0 1-1.06-.55V380.1a1.29 1.29 0 0 1 2.11 0v46.79a.92.92 0 0 1-1.05.55zm-8.47-12a.92.92 0 0 1-1.06-.55V380.1a1.3 1.3 0 0 1 2.12 0v34.8a.93.93 0 0 1-1.06.56zm-8.51-8.44a.94.94 0 0 1-1.06-.55V380.1a1.29 1.29 0 0 1 2.11 0v26.36a.93.93 0 0 1-1.05.55zm-7.94-12.69a.93.93 0 0 1-1.06-.55v-13.67c.52-.72 1.6-.72 2.12 0v13.68a.94.94 0 0 1-1.05.55zm-8.46-8.46a.92.92 0 0 1-1.06-.55v-5.2c.24-.34.64-.55 1.06-.55.4.02.77.22 1 .55v5.21a.92.92 0 0 1-1 .55zm-8.46 4.23a.93.93 0 0 1-1.07-.56v-9.42a1.3 1.3 0 0 1 2.12 0v9.43a.93.93 0 0 1-1.05.55zm-8.47 8.46a.93.93 0 0 1-1.06-.56v-17.87a1.27 1.27 0 0 1 2.11 0V398a.93.93 0 0 1-1.05.56zm-8.47-8.46a.92.92 0 0 1-1.06-.56v-9.42a1.3 1.3 0 0 1 2.12 0v9.43a.93.93 0 0 1-1 .56zm-8.46-4.23a.92.92 0 0 1-1.06-.55v-5.2c.25-.34.64-.55 1.06-.55.4.02.77.22 1 .55v5.21a.93.93 0 0 1-1 .55zm-8.47 8.46a.93.93 0 0 1-1.06-.55V380.1a1.3 1.3 0 0 1 2.12 0v13.66a.92.92 0 0 1-1 .55zM216.37 407a.92.92 0 0 1-1.06-.55V380.1a1.3 1.3 0 0 1 2.12 0v26.35a.93.93 0 0 1-1.06.55zm-8.46-8.45a.94.94 0 0 1-1.07-.55v-17.9a1.3 1.3 0 0 1 2.12 0V398a.93.93 0 0 1-1.05.56zm-8.47-8.46a.91.91 0 0 1-1.06-.56v-9.43a1.3 1.3 0 0 1 2.12 0v9.43a.93.93 0 0 1-1.06.56zm-8.44-4.23a.93.93 0 0 1-1.07-.55v-5.21a1.3 1.3 0 0 1 2.12 0v5.21a.92.92 0 0 1-1.05.55zm-8.47 4.23a.92.92 0 0 1-1.06-.56v-9.43a1.3 1.3 0 0 1 2.12 0v9.43a.94.94 0 0 1-1.06.56zM174 395a.93.93 0 0 1-1-.56v-14.33c.23-.34.6-.54 1-.56.42 0 .82.21 1.06.56v14.35a.94.94 0 0 1-1.06.54zm-7.93-4.93a.91.91 0 0 1-1.06-.56v-9.41a1.3 1.3 0 0 1 2.12 0v9.43a.93.93 0 0 1-1.06.56zm-8.47-4.23a.93.93 0 0 1-1.06-.55v-5.19a1.3 1.3 0 0 1 2.12 0v5.21a.92.92 0 0 1-1.06.55z" style="fill:url(#h);fill-rule:evenodd" transform="translate(-144.06 -77.4)"/>
      <path data-name="3" d="M152.18 310.39s98.38 47.49 169.57 45.85c59.92-1.38 49.6-43 118.82-40.48 42.41 1.51 69.49 37.85 113.13 38.67 43.64.82 124.51-41.27 124.51-41.27l-8.78 146.63s-76.72-37.24-130.48-38.72c-53.76-1.48-57 42.12-120.59 40.92-65.23-1.7-82.82-59-125.13-59.78-42.31-.78-143.23 40.53-143.23 40.53Z" style="fill:url(#i);opacity:.25;isolation:isolate;fill-rule:evenodd" transform="translate(-144.06 -77.4)"/>
    </g>
  </g>
  <path d="M556.02 16v71.28a16 16 0 0 1-16 16h-46.23l-24.05 24a4 4 0 0 1-6.8-2.78v-21.22h-7.3a16 16 0 0 1-16-16V16a16 16 0 0 1 16-16h84.38a16 16 0 0 1 16 16z" style="fill:url(#j);fill-rule:evenodd"/>
  <path d="m8.97-32.85-6.17-.57 1.14-10.11c6.1-3.33 13.58-4.94 20.3-2.67 3.42 1.2 6.85 3.78 7.29 7.62.5 3.12-.59 6.51-3.17 8.45-2.92 2.68-6.85 3.88-9.84 6.44-1.35 1.17-1.52 3.97.5 4.52 1.43-.03 1.98.4 1.7 1.79v3.32c-3.34.27-7.24.45-9.92-1.95-2.15-2.27-2.08-6.1-.45-8.64 2.85-3.75 7.85-4.58 11.23-7.68 2-1.95 1.93-6.06-.88-7.24-3.08-1.22-6.67-.86-9.7.4-1.26.18-1.14 1.38-1.34 2.33l-.7 4zM11.26 0v-9.1h9.18V0h-9.18z" transform="translate(482.05 74.43)" aria-label="?" style="font-weight:600;font-size:71.72px;font-family:ZillaSlab-SemiBold,'Zilla Slab';fill:#fff"/>
  <path d="M384.64 274.47c0 8.39-1.28 16.81-2.3 25.25a393.14 393.14 0 0 1-10 52.95c-4.26 16.21-9 33.91-18 48.21-10.89 17.29-31.29 25.1-51.2 24.67h-.45c-19.91.42-40.31-7.38-51.2-24.67-9-14.3-13.7-32-18-48.21a393.14 393.14 0 0 1-10-52.95c-1-8.44-2.3-16.86-2.3-25.25 0-35.35-.66-35.35 19.29-40.83 19.31-5.31 58.93-6.81 62.42-6.78 3.49.03 43.12 1.47 62.41 6.78 19.99 5.48 19.33 5.48 19.33 40.83z" style="fill:url(#k);stroke:url(#linearGradient2260);stroke-width:1.5px"/>
  <path d="M340.39 42.25a1.27 1.27 0 0 1 1.65 0l.29.22 1.14 44.13h-4.78l1.43-44.1zm.8-8.18a4.06 4.06 0 1 1-2.88 1.19 4.07 4.07 0 0 1 2.88-1.19z" style="fill:url(#l);stroke:url(#linear-gradient-9);stroke-width:1.5px"/>
  <path d="M385.42 186.95c5.59-.09 14-12.64 14-34.59 0-23.39-8.39-34.49-14-34.58zm-166.69-69.17c-5.59.09-14 11.19-14 34.58 0 22 8.39 34.5 14 34.59z" style="fill:url(#m)"/>
  <path d="M388.85 166.87a60.59 60.59 0 0 1-3.66 21.81c-7 18.16-22.2 24.89-31.81 27.39-6.39 1.57-20.18 6.15-51.41 6.15-31.23 0-46.38-4.9-51.61-6.15-9.09-2.11-23.28-7.91-30.47-24.62a51 51 0 0 1-2.69-8.13 70.07 70.07 0 0 1-1.81-16.45v-29.62a70.28 70.28 0 0 1 1.17-13.22 53.44 53.44 0 0 1 2.49-9c10.77-28.43 41.56-28.43 41.56-28.43h83s26.65 0 39 22.94c3.75 6.93 6.19 16 6.19 27.74z" style="fill:url(#n);stroke:url(#linear-gradient-12);stroke-width:1.5px"/>
  <path d="M276.57 104.6s-42.5-2-42.5 42.19v10.57c0 47.19 40.2 47.18 68.66 47.18 27.46 0 68.92 0 68.92-47.18V146.8c0-44.2-42.5-42.19-42.5-42.19z" style="stroke:url(#o);stroke-width:3px;fill:#e9ebef"/>
  <path d="M341.76 254.1a599 599 0 0 0-78-.71 7.9 7.9 0 0 0-5.28 2.07 8.11 8.11 0 0 0-2.63 5.05c-2.27 13.55-2.25 32.42.22 44.9a8.12 8.12 0 0 0 2.46 4.6 8.31 8.31 0 0 0 4.77 2.23 391.68 391.68 0 0 0 78.89 0 7.74 7.74 0 0 0 4.95-2.17 7.93 7.93 0 0 0 2.38-4.88c2-16.49 2.16-30.86.15-44a8.11 8.11 0 0 0-7.9-7.08z" style="fill:url(#p);stroke:#e5e5e5;stroke-width:3px;fill-rule:evenodd"/>
  <path d="M255.5 274.75q-.93-4.56 8.56-4.55c9.49 0 5.85 10.27 27.48 10.27 21.63 0 14.53 8.87 28.12 8.87 13.59 0 8.14-21.1 29.33-21.1q2.81 0 2.81 14.08l-2.81 28.21-44.33 5.28-45.09-4-3.72-5.63z" style="fill:url(#q);opacity:.45;isolation:isolate"/>
  <path d="M253.46 288.16q2.14-6 13.09-6c10.94 0 12.43 8.54 22.92 8.54 10.49 0 12.77-14.65 24.86-14.65s11 8.95 19.11 8.95 9.29-6 14.68-6c3.6 0 4.53 1 2.81 3.12l-2.81 28.21-44.33 5.28-45.09-4z" style="fill:url(#r);opacity:.7;isolation:isolate"/>
  <path d="M254.56 284.13q10.25 17.72 18 18.9c7.77 1.18 10.79-6.5 18.62-6.5 7.83 0 10.47 6.5 20.1 6.5s13.37-13.69 25.68-13.69q12.3 0 13.61 7.19l-2 14.81-44.33 4.1-45.09-3.11-4-9.58z" style="fill:url(#s)"/>
  <path d="M341.76 254.1a599 599 0 0 0-78-.71 7.9 7.9 0 0 0-5.28 2.07 8.11 8.11 0 0 0-2.63 5.05c-2.27 13.55-2.25 32.42.22 44.9a8.12 8.12 0 0 0 2.46 4.6 8.31 8.31 0 0 0 4.77 2.23 391.68 391.68 0 0 0 78.89 0 7.74 7.74 0 0 0 4.95-2.17 7.93 7.93 0 0 0 2.38-4.88c2-16.49 2.16-30.86.15-44a8.11 8.11 0 0 0-7.9-7.08z" style="stroke:url(#t);fill:none;stroke-width:3px"/>
  <path d="M341.08 32.48a7.75 7.75 0 1 1-5.5 2.27 7.77 7.77 0 0 1 5.5-2.27z" style="fill:url(#u)"/>
  <path d="M334.18 231.74c0 7.36-17.51 7.6-30.65 7.6h-1.73c-13.68 0-30.08-1.13-30.08-7.6s0-5.72 30.65-5.72c31.81 0 31.81-.55 31.81 5.72z" style="fill:url(#v)"/>
  <ellipse cx="303.61" cy="466.4" rx="97.03" ry="13.81" style="fill:url(#w)"/>
  <path d="M284.16 187.36a6.43 6.43 0 0 1-4.57-11c3.93-3.92 10.7-7.39 22.35-7.39 12.29 0 19.22 3.48 23.12 7.41a6.43 6.43 0 0 1-4.59 10.94z" style="fill:url(#x)"/>
  <path d="M287.44 147.49c0 5.78-6.43 10.47-14.36 10.47s-14.36-4.69-14.36-10.47" style="stroke:url(#y);stroke-linecap:round;stroke-miterlimit:10;fill:none;stroke-width:1.5px"/>
  <path d="M346.28 147.49c0 5.78-6.43 10.47-14.36 10.47s-14.36-4.69-14.36-10.47" style="stroke:url(#z);stroke-linecap:round;stroke-miterlimit:10;fill:none;stroke-width:1.5px"/>
  <path d="M408.94 141.01c3.23 2.34 14.07.22 14.69-4.14.69-4.8-.59-29.26-5.84-28.33-5.25.93-2.66 3.56-6.13 5.82a11.51 11.51 0 0 0-5 7.73c-.91 4.73-2 15.32 2.1 18.79z" style="fill:url(#A);stroke:url(#linear-gradient-24);stroke-width:1.5px"/>
  <path d="M413.94 144.32s16.19-5.46 22.38 14.56c6.19 20.02 5.62 39.28-2.38 57.57s-19.19 34.18-31 45c-11.81 10.82-13 .26-12.82-1.6.18-1.86.88-7.33 6.68-16.08 5.8-8.75 16.46-38.5 14.23-52.77-2.23-14.27-9.28-23.8-9.92-33.63-.64-9.83 12.83-13.05 12.83-13.05z" style="fill:url(#B);stroke:url(#linear-gradient-25);stroke-width:1.5px"/>
  <path d="M396.15 150.81s3 4.76 8.77 0 2.72-7.13 2.13-8c-.59-.87-9.29-11-13.63-7.92-4.34 3.08 2.73 15.92 2.73 15.92z" style="fill:url(#C);stroke:url(#linear-gradient-27);stroke-width:1.5px"/>
  <path d="M195.64 140.6c-3.24 2.34-14.07.22-14.69-4.14-.69-4.8.59-29.26 5.84-28.33 5.25.93 2.66 3.56 6.13 5.82a11.5 11.5 0 0 1 5 7.73c.92 4.73 2 15.32-2.09 18.79z" style="fill:url(#D);stroke:url(#linear-gradient-29);stroke-width:1.5px"/>
  <path d="M190.64 143.87s-16.19-5.46-22.39 14.56c-6.2 20.02-5.7 39.28 2.37 57.57s19.18 34.18 31 45 13 .26 12.81-1.6c-.19-1.86-.87-7.33-6.67-16.08-5.8-8.75-16.46-38.5-14.23-52.77 2.23-14.27 9.28-23.8 9.91-33.63.63-9.83-12.8-13.05-12.8-13.05z" style="fill:url(#E);stroke:url(#linear-gradient-30);stroke-width:1.5px"/>
  <path d="M208.38 150.36s-3 4.76-8.78 0c-5.78-4.76-2.72-7.13-2.12-8 .6-.87 9.29-11 13.63-7.92 4.34 3.08-2.73 15.92-2.73 15.92z" style="fill:url(#F);stroke:url(#linear-gradient-32);stroke-width:1.5px"/>
</svg>