<svg xmlns="http://www.w3.org/2000/svg" xmlns:xlink="http://www.w3.org/1999/xlink" width="508" height="169" viewBox="0 0 508 169">
    <defs>
        <linearGradient id="b" x1="100%" x2="-.763%" y1="49.735%" y2="49.273%">
            <stop offset="0%" stop-color="#FFF" stop-opacity="0"/>
            <stop offset="53.678%" stop-color="#FFF"/>
            <stop offset="100%" stop-color="#FFF" stop-opacity="0"/>
        </linearGradient>
        <path id="a" d="M0 0h500v161.275H0z"/>
        <linearGradient id="c" x1="50%" x2="53.623%" y1="51.472%" y2="48.578%">
            <stop offset="0%" stop-color="#F89096"/>
            <stop offset="100%" stop-color="#B1B4E5"/>
        </linearGradient>
        <linearGradient id="e" x1="71.508%" x2="31.776%" y1="50.288%" y2="50.337%">
            <stop offset="0%" stop-color="#88D1F1"/>
            <stop offset="100%" stop-color="#B1B5E5"/>
        </linearGradient>
        <linearGradient id="f" x1="33.951%" x2="70.183%" y1="50.057%" y2="50.126%">
            <stop offset="0%" stop-color="#F89096"/>
            <stop offset="100%" stop-color="#B1B4E5"/>
        </linearGradient>
        <linearGradient id="h" x1="100%" x2="1.677%" y1="47.449%" y2="47.449%">
            <stop offset="0%" stop-color="#FFF"/>
            <stop offset="25.513%" stop-color="#FFF" stop-opacity=".089"/>
            <stop offset="72.728%" stop-color="#FFF" stop-opacity="0"/>
            <stop offset="100%" stop-color="#FFF"/>
        </linearGradient>
        <path id="g" d="M0-3.261h509.406v170.847H0z"/>
    </defs>
    <g fill="none" fill-rule="evenodd">
        <path fill="#FFF" d="M-407-234h1440V982H-407z"/>
        <g transform="translate(-1 6)">
            <mask id="d" fill="#fff">
                <use xlink:href="#a"/>
            </mask>
            <use fill="url(#b)" xlink:href="#a"/>
            <path fill="url(#c)" d="M24.93-7.615c67.272-.67 114.445 48.87 143.111 58.46 28.666 9.591 46.584-.369 64.5-10.327 17.916-9.959 40.013-15.492 74.055 11.065C340.636 78.14 374.6 16.057 374.6 16.057s12.555-24.456 46.036-23.672c33.939.794 37.666 29.386 46.634 40.814 8.968 11.427 17.162 39.98 133.701 39.98h207.786v7.226s-209.326 2.92-269.633 5.286c-46.343 1.82-62.588 21.585-68.566 33.016-5.978 11.431-19.73 44.896-48.427 44.488-28.698-.408-40.058-11.02-60.983-38.368-20.925-27.347-56.046-20.313-70.977-15.887-14.93 4.426-48.972 13.647-74.055-12.541-25.082-26.189-50.166-18.812-65.096-8.853-14.93 9.96-68.812 74.306-126.09 74.306-93.566-.76-122.193-75.422-122.193-93.648S-58.12-9.26 24.93-7.616z" mask="url(#d)" opacity=".1"/>
            <path fill="url(#e)" d="M-268.075 63.503s293.456.815 338.337-3.11c44.881-3.924 50.438-12.38 56.421-17.513 5.984-5.132 27.784-31.4 54.285-31.703 26.502-.303 40.607 30.194 61.124 38.044 20.517 7.851 33.34-.302 46.164-8.454 12.823-8.153 28.638-12.682 53.002 9.057 24.365 21.74 48.3-22.342 48.3-22.342s8.726-16.994 29.301-17.513c20.576-.52 30.54 21.74 36.953 30.193 6.411 8.454 4.096 28.781 155.663 28.781h187.638v6.66s-252.687-.774-298.901 0c-33.197.555-37.775 19.362-42.053 27.816-4.28 8.453-14.105 33.213-34.623 32.911-20.518-.303-28.634-8.152-43.595-28.381-14.961-20.229-39.752-14.795-50.438-11.172-10.686 3.623-35.05 11.172-53.002-10.267-17.952-21.439-35.904-15.399-46.591-7.247-10.687 8.153-17.095 21.741-39.752 25.665-22.657 3.925-35.905-10.869-49.156-18.72-13.25-7.85-40.179-18.418-121.392-17.21-81.213 1.208-287.47.603-287.47.603l-.215-6.098z" mask="url(#d)"/>
            <path fill="url(#f)" d="M-345.782 70.416s263.34-1.704 315.448-3.537c52.29-1.834 68.013-10.02 76.256-14.404C59.735 45.134 75.004 26.671 99.2 27.698c36.012 1.53 31.586 24.74 55.743 32.118 33.052 10.094 78.93-23.859 108.034 2.141 17.767 15.872 44.341-5.032 50.685-13.692 6.343-8.66 17.628-38.308 49.948-38.308s45.852 30.139 52.044 37.776c6.192 7.638 10.136 24.484 114.44 25.9 73.228.995 113.042 2.072 112.193 1.93l158.464-5.147v8.04c-2.305 0-126.047 2.017-150.954 2.06-105.777 1.595-171.327 3.922-196.65 6.98-37.985 4.589-41.191 25.542-46.124 34.107-4.933 8.565-20.225 32.422-43.905 32.118-23.679-.304-34.451-14.253-51.754-34.736-10.852-12.847-24.707-15.121-37.04-11.45-12.333 3.67-44.313 12.687-69.063-7.342-29.105-23.553-47.542-14.107-61.663-7.035-12.826 6.423-16.773 13.459-39.958 16.21-15.982 1.898-27.06-5.031-48.344-18.044-18.877-21.012-401.209-15.76-401.209-15.76l.132-5.148z" mask="url(#d)" opacity=".4"/>
            <path fill="#0A1B56" d="M494.871 70.264c-.308.078-.622-.096-.763-.424v-1.038a.936.936 0 0 1 .763-.424c.296 0 .577.155.763.424v1.038c-.14.328-.455.502-.763.424zm-5.82 0c-.308.078-.622-.096-.764-.424v-4.025a.936.936 0 0 1 .764-.424c.296 0 .577.156.763.424v4.025c-.141.328-.455.502-.763.424zm-5.82 0c-.31.08-.626-.095-.768-.424v-4.025a.937.937 0 0 1 .764-.423c.296 0 .577.155.763.423v4.025c-.14.326-.453.5-.76.424zm-5.822 0c-.307.078-.622-.096-.763-.424v-7.187a.936.936 0 0 1 .763-.424c.297 0 .577.156.764.424v7.187c-.142.328-.456.502-.764.424zm-5.82 0c-.308.078-.623-.096-.764-.424v-4.025a.936.936 0 0 1 .763-.424c.297 0 .577.156.764.424v4.025c-.142.33-.458.504-.766.424h.002zm-5.82 0c-.309.078-.623-.096-.764-.424v-7.187a.936.936 0 0 1 .763-.424c.296 0 .577.156.763.424v7.187c-.14.328-.455.502-.763.424zm-5.821 0c-.31.08-.626-.095-.768-.424V59.33a.937.937 0 0 1 .764-.423c.296 0 .577.156.764.424V69.84c-.141.326-.454.5-.76.424zm-5.821 0c-.308.078-.622-.096-.763-.424v-7.187a.936.936 0 0 1 .763-.424c.296 0 .577.156.763.424v7.187c-.141.328-.455.502-.763.424zm-5.82 0c-.308.078-.623-.096-.764-.424v-4.025a.936.936 0 0 1 .764-.424c.296 0 .576.156.763.424v4.025c-.141.329-.457.503-.765.424h.002zm-5.822 0c-.309.081-.626-.094-.767-.424v-7.187a.936.936 0 0 1 .763-.424c.297 0 .577.156.763.424v7.187c-.14.326-.452.5-.759.424zm-5.82 0c-.308.078-.622-.096-.763-.424V52.708a.936.936 0 0 1 .763-.424c.297 0 .577.156.763.424V69.84c-.14.328-.455.502-.763.424zm-5.82 0c-.309.078-.623-.096-.764-.424V59.524a.935.935 0 0 1 .763-.424c.297 0 .577.156.763.424V69.84c-.14.328-.455.502-.763.424zm-5.821 0c-.31.081-.626-.094-.768-.424v-4.025a.936.936 0 0 1 .764-.424c.296 0 .576.156.763.424v4.025c-.14.326-.453.5-.76.424zm-5.82 0c-.31.08-.626-.095-.768-.424V55.698a.936.936 0 0 1 .764-.425c.296 0 .577.156.763.425V69.84c-.14.326-.453.5-.76.424zm-5.821 0c-.308.078-.623-.096-.764-.424V46.655a.936.936 0 0 1 .764-.424c.296 0 .576.156.763.424V69.84c-.141.328-.456.502-.763.424zm-5.822 0c-.307.078-.622-.096-.763-.424V56.482a.936.936 0 0 1 .763-.424c.297 0 .577.156.764.424V69.84c-.141.328-.456.502-.764.424zm-5.82 0c-.308.078-.622-.096-.763-.424v-7.187a.936.936 0 0 1 .763-.424c.297 0 .577.156.763.424v7.187c-.14.327-.454.501-.761.424h-.002zm-5.82 0c-.31.08-.626-.095-.768-.424V49.427a.937.937 0 0 1 .764-.423c.297 0 .577.155.764.423V69.84c-.141.326-.453.5-.76.424zm-5.821 0c-.308.078-.622-.096-.763-.424V36.72a.935.935 0 0 1 .763-.424c.296 0 .577.156.763.424v33.12c-.14.328-.455.502-.763.424zm-5.82 0c-.308.078-.623-.096-.764-.424V46.302a.936.936 0 0 1 .764-.425c.296 0 .577.156.763.425V69.84c-.141.328-.456.502-.763.424zm-5.82 0c-.31.08-.626-.095-.768-.424V59.006a.937.937 0 0 1 .764-.423c.296 0 .577.155.763.423V69.84c-.14.325-.451.499-.757.424h-.003zm-5.822 0c-.307.078-.622-.096-.763-.424v-7.322a.936.936 0 0 1 .763-.424c.297 0 .577.156.764.424v7.322c-.142.328-.456.502-.764.424zm-5.82 0c-.31.08-.627-.094-.768-.424V56.16a.936.936 0 0 1 .763-.424c.296 0 .577.156.763.425V69.84c-.14.326-.452.5-.759.424zm-5.821 0c-.308.078-.622-.096-.763-.424V46.433a.936.936 0 0 1 .763-.425c.296 0 .577.156.763.425V69.84c-.14.328-.455.502-.763.424zm-5.82 0c-.308.078-.622-.096-.763-.424V52.794a.935.935 0 0 1 .763-.425c.296 0 .577.156.763.425V69.84c-.14.325-.453.5-.759.424h-.004zm-5.821 0c-.31.08-.626-.094-.768-.424v-7.187a.936.936 0 0 1 .763-.424c.297 0 .577.156.764.424v7.187c-.141.326-.453.5-.76.424zm-5.82 0c-.308.078-.623-.096-.764-.424V52.96a.936.936 0 0 1 .763-.425c.297 0 .577.156.764.425v16.88c-.141.328-.456.502-.764.424zm-5.822 0c-.307.078-.622-.096-.763-.424V36.715a.936.936 0 0 1 .763-.424c.297 0 .577.156.764.424V69.84c-.141.328-.456.502-.764.424zm-5.82 0c-.31.081-.626-.094-.767-.424V46.302a.936.936 0 0 1 .763-.425c.296 0 .577.156.763.425V69.84c-.14.325-.453.5-.759.424zm-5.821 0c-.308.078-.622-.096-.763-.424V56.075a.936.936 0 0 1 .763-.424c.296 0 .577.156.763.424V69.84c-.14.328-.455.502-.763.424zm-5.82 0c-.308.078-.622-.096-.763-.424v-4.025a.936.936 0 0 1 .763-.424c.296 0 .577.156.763.424v4.025c-.141.328-.455.502-.763.424zm-5.82 0c-.31.081-.627-.094-.768-.424V56.058a.936.936 0 0 1 .763-.424c.297 0 .577.156.764.424V69.84c-.141.325-.453.5-.76.424zm-5.822 0c-.307.078-.622-.096-.763-.424V39.666a.935.935 0 0 1 .763-.424c.297 0 .578.156.764.424V69.84c-.142.328-.456.502-.764.424zm-5.82 0c-.308.078-.623-.096-.764-.424V23.85a.936.936 0 0 1 .763-.424c.297 0 .577.156.764.424v45.99c-.142.327-.456.502-.764.423zm-5.82 0c-.309.078-.623-.096-.764-.424V29.97a.936.936 0 0 1 .763-.424c.296 0 .577.156.763.424v39.87c-.14.328-.455.502-.763.424zm-5.821 0c-.308.078-.622-.096-.763-.424V42.99a.936.936 0 0 1 .763-.424c.296 0 .577.156.763.424v26.85c-.141.328-.455.502-.763.424zm-5.821 0c-.308.078-.622-.096-.763-.424V52.9a.935.935 0 0 1 .763-.425c.296 0 .577.156.763.425v16.94c-.141.328-.455.502-.763.424zm-5.82 0c-.308.078-.623-.096-.764-.424v-7.187a.936.936 0 0 1 .764-.424c.296 0 .576.156.763.424v7.187c-.141.328-.456.502-.763.424zm-5.822 0c-.309.081-.626-.094-.767-.424V56.18a.935.935 0 0 1 .763-.424c.297 0 .577.156.763.424v13.66c-.14.326-.452.5-.759.424zm-5.82 0c-.308.078-.622-.096-.763-.424v-30a.936.936 0 0 1 .763-.424c.297 0 .577.156.763.424v30c-.14.328-.455.502-.763.424zm-5.82 0c-.309.078-.623-.096-.764-.424V27.145a.937.937 0 0 1 .764-.424c.296 0 .577.156.763.424V69.84c-.141.328-.456.502-.764.424zm-5.821 0c-.308.078-.622-.096-.763-.424V13.755a.936.936 0 0 1 .763-.424c.296 0 .577.156.763.424V69.84c-.14.328-.455.502-.763.424zm-5.82 0c-.308.078-.623-.096-.764-.424V13.76a.936.936 0 0 1 .764-.423c.296 0 .577.156.763.424V69.84c-.141.328-.456.502-.763.424zm-5.821 0c-.308.078-.622-.096-.764-.424V23.572a.937.937 0 0 1 .764-.424c.296 0 .577.156.764.424V69.84c-.142.328-.456.502-.764.424zm-5.822 0c-.307.078-.621-.096-.763-.424V36.543a.937.937 0 0 1 .764-.424c.296 0 .577.156.764.424V69.84c-.142.328-.457.502-.765.424zm-5.82 0c-.308.078-.622-.096-.763-.424V49.207a.935.935 0 0 1 .763-.425c.297 0 .577.156.763.425V69.84c-.14.328-.455.502-.763.424zm-5.82 0c-.308.078-.622-.096-.763-.424V59.31a.936.936 0 0 1 .763-.424c.296 0 .577.156.763.424v10.53c-.14.328-.455.502-.763.424zm-5.821 0c-.308.078-.622-.096-.763-.424V46.42a.936.936 0 0 1 .763-.424c.297 0 .578.156.764.425v23.424c-.143.326-.457.498-.764.419zm-5.82 0c-.308.078-.623-.096-.764-.424V29.972a.936.936 0 0 1 .764-.424c.296 0 .577.156.763.424V69.84c-.141.328-.456.502-.763.424zm-5.82 0c-.308.078-.623-.096-.764-.424V39.6a.936.936 0 0 1 .763-.424c.297 0 .577.156.764.424v30.24c-.142.328-.456.502-.764.424zm-5.822 0c-.309.081-.626-.094-.767-.424V49.448a.935.935 0 0 1 .763-.425c.297 0 .577.156.763.425V69.84c-.14.326-.452.5-.759.424zm-5.82 0c-.308.078-.623-.096-.764-.424V56.229a.936.936 0 0 1 .764-.425c.296 0 .577.156.763.425v13.61c-.141.329-.456.503-.764.425zm-5.821 0c-.31.081-.626-.094-.767-.424v-7.187a.936.936 0 0 1 .763-.424c.296 0 .577.156.763.424v7.187c-.14.326-.453.5-.759.424zm-5.82 0c-.31.081-.626-.094-.768-.424V49.366a.936.936 0 0 1 .764-.425c.296 0 .576.156.763.425V69.84c-.141.325-.453.5-.76.424zm-5.821 0c-.308.078-.622-.096-.764-.424V39.907a.936.936 0 0 1 .764-.425c.297 0 .577.156.764.425V69.84c-.142.328-.456.502-.764.424zm-5.82 0c-.31.081-.627-.094-.768-.424V30.5a.936.936 0 0 1 .763-.424c.297 0 .577.156.763.424v39.34c-.14.325-.452.5-.759.423zm-5.822 0c-.307.078-.622-.096-.763-.424V20.5a.936.936 0 0 1 .763-.424c.297 0 .577.156.764.424v49.34c-.141.328-.456.502-.764.424zm-5.82 0c-.308.078-.622-.096-.763-.424V33.756a.936.936 0 0 1 .763-.424c.297 0 .577.155.763.424V69.84c-.14.328-.455.502-.763.424zm-5.821 0c-.308.078-.622-.096-.763-.424V43.339a.936.936 0 0 1 .763-.425c.297 0 .578.156.764.425v26.5c-.141.329-.456.503-.764.425zm-5.82 0c-.308.078-.622-.096-.763-.424V49.493a.936.936 0 0 1 .763-.425c.296 0 .577.156.763.425V69.84c-.141.33-.458.504-.767.424h.004zm-5.82 0c-.308.078-.623-.096-.764-.424V59.22a.935.935 0 0 1 .764-.425c.296 0 .577.156.763.425v10.62c-.141.328-.456.502-.763.424zm-5.822 0c-.307.078-.622-.096-.763-.424v-4.025a.936.936 0 0 1 .763-.424c.297 0 .577.156.764.424v4.025c-.141.328-.456.502-.764.424zm-5.82 0c-.31.08-.626-.094-.768-.424v-7.187a.937.937 0 0 1 .764-.424c.296 0 .577.156.763.424v7.187c-.14.326-.453.5-.76.424zm-5.82 0c-.309.078-.623-.096-.764-.424V56.283a.936.936 0 0 1 .763-.424c.297 0 .577.155.763.424V69.84c-.14.329-.456.503-.765.424h.002zm-5.821 0c-.308.078-.622-.096-.763-.424v-7.187a.936.936 0 0 1 .763-.424c.296 0 .577.156.763.424v7.187c-.14.328-.455.502-.763.424zm-5.821 0c-.31.08-.626-.094-.768-.424v-4.025a.937.937 0 0 1 .764-.423c.296 0 .577.155.764.423v4.025c-.141.326-.454.5-.76.424zm-5.82 0c-.308.078-.623-.096-.764-.424V59.347a.935.935 0 0 1 .764-.425c.296 0 .577.156.763.425V69.84c-.141.328-.456.502-.763.424zm-5.821 0c-.31.081-.627-.094-.768-.424V49.685a.936.936 0 0 1 .763-.424c.297 0 .577.156.763.424V69.84c-.14.326-.452.5-.758.424zm-5.82 0c-.31.081-.627-.094-.768-.424V56.096a.936.936 0 0 1 .763-.424c.296 0 .577.156.763.424V69.84c-.14.326-.452.5-.759.424zm-5.822 0c-.308.078-.622-.096-.763-.424v-7.187a.937.937 0 0 1 .764-.424c.296 0 .577.156.763.424v7.187c-.141.328-.456.502-.764.424zm-5.82 0c-.31.081-.626-.094-.768-.424v-4.025a.936.936 0 0 1 .764-.424c.296 0 .577.156.763.424v4.025c-.14.326-.453.5-.76.424zm-5.82 0c-.31.081-.626-.094-.768-.424v-7.187a.936.936 0 0 1 .763-.424c.297 0 .577.156.764.424v7.187c-.14.325-.452.5-.758.424h-.001zm-5.821 0c-.308.078-.622-.096-.764-.424V59.02a.936.936 0 0 1 .764-.425c.297 0 .577.156.764.425V69.84c-.142.328-.456.502-.764.424zm-5.821 0c-.308.078-.622-.096-.764-.424v-7.187a.937.937 0 0 1 .764-.424c.296 0 .577.156.764.424v7.187c-.142.328-.456.502-.764.424zm-5.82 0c-.308.078-.623-.096-.764-.424v-4.025a.936.936 0 0 1 .763-.424c.297 0 .577.156.764.424v4.025c-.142.328-.456.502-.764.424zm-5.821 0c-.308.078-.622-.096-.763-.424v-7.187a.936.936 0 0 1 .763-.424c.296 0 .577.156.763.424v7.187c-.14.327-.453.501-.76.424h-.003zm-5.82 0c-.31.08-.626-.095-.768-.424v-4.025a.937.937 0 0 1 .764-.423c.296 0 .577.155.764.423v4.025c-.141.326-.454.5-.76.424zm-5.821 0c-.308.078-.622-.096-.764-.424v-4.025a.936.936 0 0 1 .764-.424c.296 0 .577.156.763.424v4.025c-.141.328-.455.502-.763.424zm-5.82 0c-.308.078-.623-.096-.764-.424v-1.038a.936.936 0 0 1 .763-.424c.297 0 .577.155.764.424v1.038c-.141.328-.456.502-.764.424zm-5.822 0c-.307.078-.622-.096-.763-.424v-1.038a.936.936 0 0 1 .763-.424c.297 0 .577.155.764.424v1.038c-.141.326-.453.5-.76.424h-.004zm459.829 3.154c-.308.079-.623-.096-.763-.425v-1.037a.936.936 0 0 1 .763-.424c.296 0 .577.156.763.424v1.037c-.14.329-.455.504-.763.425zm-5.82 2.987c-.308.078-.622-.096-.764-.424v-4.025a.936.936 0 0 1 .764-.424c.296 0 .577.156.763.424v4.025c-.141.328-.455.502-.763.424zm-5.82 0c-.31.08-.626-.095-.768-.424v-4.025a.937.937 0 0 1 .764-.424c.296 0 .577.156.763.424v4.025c-.14.326-.453.5-.76.424zm-5.822 3.162c-.308.079-.622-.096-.763-.425v-7.186a.936.936 0 0 1 .763-.424c.297 0 .577.156.764.424v7.186c-.141.328-.456.503-.764.425zm-5.82-3.162c-.308.078-.623-.097-.764-.424v-4.025a.936.936 0 0 1 .763-.424c.297 0 .577.156.764.424v4.025c-.142.329-.458.504-.766.424h.002zm-5.82 3.162c-.309.079-.624-.096-.764-.425v-7.186a.936.936 0 0 1 .763-.424c.296 0 .577.156.763.424v7.186c-.14.329-.455.504-.763.425zm-5.821 3.322c-.31.08-.626-.094-.768-.424V71.956a.937.937 0 0 1 .764-.424c.296 0 .577.156.764.424v10.51c-.141.325-.454.5-.76.423zm-5.821-3.322c-.308.078-.623-.097-.763-.425v-7.186a.936.936 0 0 1 .763-.424c.296 0 .577.156.763.424v7.186c-.14.329-.455.504-.763.425zm-5.82-3.162c-.308.078-.623-.096-.764-.424v-4.025a.936.936 0 0 1 .764-.424c.296 0 .576.156.763.424v4.025c-.141.329-.457.503-.765.424h.002zm-5.822 3.162c-.309.081-.626-.094-.767-.425v-7.186a.936.936 0 0 1 .763-.424c.297 0 .577.156.763.424v7.186c-.14.327-.452.501-.759.425zm-5.82 9.944c-.308.079-.622-.096-.763-.424V71.956a.936.936 0 0 1 .763-.424c.297 0 .577.156.763.424v17.131c-.14.328-.455.503-.763.424zm-5.82-6.816c-.309.079-.623-.096-.764-.423V71.956a.936.936 0 0 1 .763-.424c.296 0 .577.156.763.424v10.316c-.14.328-.455.502-.763.423zm-5.821-6.29c-.31.08-.626-.094-.768-.424v-4.025a.936.936 0 0 1 .764-.424c.296 0 .576.156.763.424v4.025c-.14.326-.453.5-.76.424zm-5.82 10.118c-.31.08-.626-.095-.768-.425V71.956a.937.937 0 0 1 .764-.424c.296 0 .577.156.763.424v14.142c-.14.327-.453.501-.76.425zm-5.821 9.042c-.308.079-.623-.096-.764-.424V71.956a.936.936 0 0 1 .764-.424c.296 0 .576.156.763.424v23.185c-.141.328-.456.503-.763.424zm-5.822-9.826c-.308.078-.622-.097-.763-.425V71.956a.936.936 0 0 1 .763-.424c.297 0 .577.156.764.424v13.357c-.14.328-.456.504-.764.425zm-5.82-6.171c-.308.079-.623-.096-.763-.425v-7.186a.936.936 0 0 1 .763-.424c.297 0 .577.156.763.424v7.186c-.14.327-.454.502-.761.424h-.002zm-5.82 13.226c-.31.08-.626-.095-.768-.424V71.956a.937.937 0 0 1 .764-.424c.297 0 .577.156.764.424v20.413c-.141.326-.453.5-.76.424zm-5.821 12.704c-.308.079-.623-.096-.763-.425V71.956a.936.936 0 0 1 .763-.424c.296 0 .577.156.763.424v33.12c-.14.328-.455.503-.763.424v-.002zm-5.82-9.582c-.308.079-.623-.096-.764-.424V71.956a.936.936 0 0 1 .764-.424c.296 0 .577.156.763.424v23.538c-.141.328-.456.503-.763.424v-.002zm-5.82-12.705c-.31.081-.626-.094-.768-.423V71.956a.937.937 0 0 1 .764-.424c.296 0 .577.156.763.424V82.79c-.14.324-.451.498-.757.423l-.003-.002zm-5.822-3.511c-.307.079-.622-.096-.763-.424v-7.322a.936.936 0 0 1 .763-.424c.297 0 .577.156.764.424v7.322c-.141.329-.456.504-.764.426V79.7zm-5.82 6.357c-.31.081-.627-.094-.768-.424V71.956a.936.936 0 0 1 .763-.424c.296 0 .577.156.763.424v13.68c-.14.325-.452.5-.759.423v-.002zm-5.821 9.727c-.308.08-.623-.096-.763-.425V71.956a.936.936 0 0 1 .763-.424c.296 0 .577.156.763.424v23.406c-.14.329-.455.504-.763.425v-.003zm-5.82-6.36c-.308.079-.623-.096-.763-.425V71.956a.936.936 0 0 1 .763-.424c.296 0 .577.156.763.424v17.046c-.14.326-.452.501-.759.425l-.004-.003zm-5.821-9.86c-.31.081-.627-.094-.768-.425v-7.186a.936.936 0 0 1 .763-.424c.297 0 .577.156.764.424v7.186c-.14.328-.452.504-.76.428v-.003zm-5.82 9.693c-.309.08-.623-.096-.764-.425V71.956a.936.936 0 0 1 .763-.424c.297 0 .577.156.764.424v16.88c-.14.328-.456.503-.764.424v-.003zm-5.822 16.244c-.307.079-.622-.096-.763-.424V71.956a.936.936 0 0 1 .763-.424c.297 0 .577.156.764.424v33.124c-.141.328-.456.503-.764.424v-.003zm-5.82-9.586c-.31.081-.626-.094-.767-.424V71.956a.936.936 0 0 1 .763-.424c.296 0 .577.156.763.424v23.538c-.14.326-.453.5-.759.424v-.003zm-5.821-9.774c-.308.079-.622-.096-.763-.423V71.956a.936.936 0 0 1 .763-.424c.296 0 .577.156.763.424v13.765c-.14.328-.455.502-.763.423v-.003zm-5.82-9.74c-.308.08-.622-.095-.763-.423v-4.025a.936.936 0 0 1 .763-.424c.296 0 .577.156.763.424v4.025c-.14.329-.455.505-.763.427v-.003zm-5.82 9.757c-.31.082-.627-.093-.768-.423V71.956a.936.936 0 0 1 .763-.424c.297 0 .577.156.764.424v13.782c-.141.325-.453.5-.76.423v-.003zm-5.822 16.402c-.307.079-.622-.096-.763-.424V71.963a.936.936 0 0 1 .763-.424c.297 0 .577.156.764.424v30.173c-.142.328-.456.503-.764.424zm-5.82 15.813c-.308.078-.623-.097-.764-.424V71.956a.936.936 0 0 1 .763-.424c.297 0 .577.156.764.424v45.989c-.141.328-.456.503-.764.425v.003zm-5.82-6.12c-.309.078-.623-.096-.764-.424V71.956a.936.936 0 0 1 .763-.424c.296 0 .577.156.763.424v39.87c-.14.328-.455.502-.763.424v.003zm-5.821-13.02c-.308.078-.622-.097-.763-.425V71.956a.936.936 0 0 1 .763-.424c.296 0 .577.156.763.424v26.85c-.141.327-.455.502-.763.423v.003zm-5.821-9.91c-.308.079-.622-.096-.763-.424V71.956a.936.936 0 0 1 .763-.424c.296 0 .577.156.763.424v16.94c-.14.328-.455.503-.763.425v.003zm-5.82-9.753c-.308.079-.623-.096-.764-.425v-7.186a.936.936 0 0 1 .764-.424c.296 0 .576.156.763.424v7.186c-.142.328-.456.501-.763.422v.003zm-5.822 6.473c-.309.082-.626-.094-.767-.425V71.956a.936.936 0 0 1 .763-.424c.297 0 .577.156.763.424v13.66c-.14.326-.452.5-.759.424v.003zm-5.82 16.34c-.308.078-.622-.096-.763-.424V71.956a.936.936 0 0 1 .763-.424c.297 0 .577.156.763.424v30c-.14.328-.455.502-.763.424v.003zm-5.82 12.694c-.309.079-.623-.096-.764-.424V71.956a.937.937 0 0 1 .764-.424c.296 0 .577.156.763.424v42.695c-.141.327-.456.502-.764.423v.003zm-5.821 13.389c-.308.079-.623-.096-.763-.425V71.956a.936.936 0 0 1 .763-.424c.296 0 .577.156.763.424v56.085c-.14.329-.455.504-.763.425zm-5.82-.01c-.308.079-.623-.096-.764-.424V71.953a.936.936 0 0 1 .764-.424c.296 0 .577.156.763.424v56.08c-.141.327-.456.501-.763.423zm-5.821-9.808c-.308.078-.622-.097-.764-.424V71.956a.937.937 0 0 1 .764-.424c.296 0 .577.156.764.424v46.268c-.142.328-.456.502-.764.424zm-5.822-12.971c-.307.078-.621-.096-.763-.424V71.956a.937.937 0 0 1 .764-.424c.296 0 .577.156.764.424v33.297c-.142.328-.457.502-.765.424zm-5.82-12.664c-.308.079-.622-.096-.763-.424V71.956a.936.936 0 0 1 .763-.424c.297 0 .577.156.763.424v20.633c-.14.328-.455.503-.763.424zm-5.82-10.105c-.308.079-.622-.096-.763-.424V71.956a.936.936 0 0 1 .763-.424c.296 0 .577.156.763.424v10.53c-.141.327-.456.5-.763.422zm-5.821 12.89c-.308.078-.622-.097-.763-.425V71.956a.937.937 0 0 1 .763-.424c.297 0 .577.156.764.424V95.38c-.143.326-.457.5-.764.42v-.002zm-5.82 16.448c-.308.078-.623-.096-.764-.424V71.956a.936.936 0 0 1 .764-.424c.296 0 .577.156.763.424v39.868c-.141.328-.456.502-.763.424v-.002zm-5.82-9.628c-.308.079-.623-.096-.764-.424V71.956a.936.936 0 0 1 .763-.424c.297 0 .577.156.764.424v30.24c-.142.328-.456.502-.764.424v-.002zm-5.822-9.847c-.309.08-.626-.095-.767-.425v-20.39a.936.936 0 0 1 .763-.424c.296 0 .577.156.763.424v20.392c-.14.326-.452.5-.759.425v-.002zm-5.82-6.782c-.308.078-.623-.096-.764-.424V71.956a.937.937 0 0 1 .764-.424c.296 0 .577.156.763.424v13.61c-.141.329-.456.503-.764.425v-.002zm-5.821-6.424c-.31.081-.627-.094-.767-.425v-7.186a.936.936 0 0 1 .763-.424c.296 0 .577.156.763.424v7.186c-.14.327-.452.503-.759.427v-.002zm-5.82 13.287c-.31.081-.626-.094-.768-.424V71.956a.936.936 0 0 1 .764-.424c.296 0 .576.156.763.424V92.43c-.141.326-.453.5-.76.424v-.002zm-5.821 9.46c-.308.078-.623-.097-.764-.425V71.956a.937.937 0 0 1 .764-.424c.297 0 .577.156.764.424v29.933c-.142.329-.456.503-.764.425v-.002zm-5.82 9.406c-.31.08-.627-.094-.768-.424V71.956a.936.936 0 0 1 .763-.424c.297 0 .577.156.763.424v39.339c-.14.326-.452.5-.759.425v-.002zm-5.822 9.998c-.307.08-.622-.095-.763-.423v-49.34a.936.936 0 0 1 .763-.424c.297 0 .577.156.764.424v49.34c-.141.328-.456.502-.764.423zm-5.82-13.255c-.308.079-.622-.096-.763-.424V71.956a.936.936 0 0 1 .763-.424c.297 0 .577.156.763.424v36.084c-.14.328-.455.503-.763.424v-.003zm-5.821-9.58c-.308.078-.622-.097-.763-.425V71.955a.937.937 0 0 1 .763-.424c.297 0 .577.156.764.424v26.501c-.14.331-.454.51-.764.432v-.007zm-5.824-6.147c-.307.079-.622-.096-.763-.424V71.963a.936.936 0 0 1 .763-.424c.297 0 .577.156.764.424V92.31c-.141.328-.456.503-.764.424zm-5.82-9.727c-.308.079-.623-.096-.763-.425v-10.62a.936.936 0 0 1 .763-.424c.297 0 .577.156.763.424v10.62c-.14.327-.453.502-.76.425h-.003zm-5.82-6.597c-.309.078-.623-.096-.764-.424V71.96a.936.936 0 0 1 .763-.424c.296 0 .577.156.763.424v4.025c-.142.324-.454.496-.76.419l-.003.005zm-5.822 3.162c-.31.08-.626-.094-.768-.425v-7.186a.937.937 0 0 1 .764-.424c.297 0 .577.156.764.424v7.186c-.142.323-.452.495-.757.42l-.003.005zm-5.82 6.37c-.308.079-.622-.096-.763-.424V71.956a.936.936 0 0 1 .763-.424c.296 0 .577.156.763.424v13.557c-.14.327-.454.502-.762.424l-.001.005zm-5.82-6.37c-.309.079-.623-.096-.764-.425v-7.186a.936.936 0 0 1 .764-.424c.296 0 .576.156.763.424v7.186c-.142.325-.454.498-.76.42l-.003.005zm-5.822-3.162c-.309.08-.625-.094-.767-.424V71.96a.937.937 0 0 1 .764-.424c.296 0 .577.156.763.424v4.025c-.142.322-.452.493-.756.419l-.004.005zm-5.82 6.469c-.308.079-.622-.096-.763-.425V71.956a.936.936 0 0 1 .763-.424c.297 0 .577.156.763.424v10.493c-.14.327-.453.502-.76.425l-.003.005zm-5.817 9.657c-.31.08-.627-.094-.768-.424V71.956a.936.936 0 0 1 .763-.424c.297 0 .577.156.763.424v20.155c-.14.326-.452.5-.758.425zm-5.82-6.411c-.31.08-.627-.094-.768-.424V71.956a.936.936 0 0 1 .763-.424c.296 0 .577.156.763.424V85.7c-.14.326-.452.5-.759.424zm-5.822-6.557c-.308.078-.622-.097-.763-.425v-7.186a.937.937 0 0 1 .764-.424c.296 0 .577.156.763.424v7.186c-.141.328-.456.503-.764.424zm-5.82-3.162c-.31.08-.626-.094-.768-.424v-4.025a.936.936 0 0 1 .764-.424c.296 0 .577.156.763.424v4.025c-.141.325-.453.499-.76.423zm-5.82 3.162c-.31.081-.627-.094-.768-.425v-7.186a.936.936 0 0 1 .763-.424c.297 0 .577.156.764.424v7.186c-.14.326-.452.5-.758.424h-.001zm-5.821 3.634c-.308.078-.623-.097-.764-.425V71.958a.937.937 0 0 1 .764-.424c.296 0 .577.156.764.424v10.819c-.14.33-.455.507-.764.429v-.004zm-5.821-3.634c-.308.078-.623-.097-.764-.425v-7.186a.937.937 0 0 1 .764-.424c.296 0 .577.156.764.424v7.186c-.142.328-.456.503-.764.424zm-5.82-3.162c-.308.078-.623-.096-.764-.424v-4.025a.936.936 0 0 1 .763-.424c.297 0 .577.156.764.424v4.025c-.142.327-.456.502-.764.423zm-5.821 3.162c-.308.079-.623-.096-.763-.425v-7.186a.936.936 0 0 1 .763-.424c.296 0 .577.156.763.424v7.186c-.14.327-.453.501-.76.424h-.003zm-5.82-3.162c-.31.08-.626-.095-.768-.424v-4.025a.937.937 0 0 1 .764-.424c.296 0 .577.156.764.424v4.025c-.142.325-.454.5-.76.423zm-5.821 0c-.308.078-.622-.096-.764-.424v-4.025a.936.936 0 0 1 .764-.424c.296 0 .577.156.763.424v4.025c-.141.327-.456.502-.763.423zm-5.82-2.987c-.309.079-.623-.096-.764-.425v-1.037a.936.936 0 0 1 .763-.424c.297 0 .577.156.764.424v1.037c-.141.328-.456.503-.764.424v.001zm-5.822 0c-.308.079-.622-.096-.763-.425v-1.037a.936.936 0 0 1 .763-.424c.297 0 .577.156.764.424v1.037c-.14.326-.453.5-.76.424l-.004.001z" mask="url(#d)"/>
            <use fill="url(#h)" xlink:href="#g"/>
        </g>
    </g>
</svg>
