<svg width="732" height="178" viewBox="0 0 732 178" xmlns="http://www.w3.org/2000/svg">
  <defs>
    <linearGradient x1="50%" y1="91.4%" x2="53.6%" y2="10%" id="a">
      <stop stop-color="#F89096" offset="0%"/>
      <stop stop-color="#B1B4E5" offset="100%"/>
    </linearGradient>
  </defs>
  <path d="M104 2c71-1 121 51 152 61 30 10 49 0 68-10 19-11 42-17 78 11 37 28 73-37 73-37s13-26 48-25c36 1 40 31 50 43 9 12 18 42 142 42h164v7l-230 6c-49 2-66 20-73 32-6 12-21 47-51 46-30 0-42-11-65-40-22-29-59-18-75-14-16 5-52 15-78-13-27-27-54-20-70-9-15 10-73 78-133 78-149-1-142-74-142-93S-52-1 104 2Z" transform="translate(0 -1)" fill="url(#a)" fill-rule="evenodd" opacity=".1"/>
</svg>
