<svg width="732" height="134" viewBox="0 0 732 134" xmlns="http://www.w3.org/2000/svg">
  <defs>
    <linearGradient x1="65.5%" y1="-7.7%" x2="63.3%" y2="96%" id="a">
      <stop stop-color="#88D1F1" offset="0%"/>
      <stop stop-color="#B1B5E5" offset="100%"/>
    </linearGradient>
  </defs>
  <path d="M-150 77c-1 13 283 7 326 2 43-4 49-13 55-18 5-5 26-33 52-33 25-1 39 31 59 40 20 8 32-7 44-15 13-9 28-14 52 9 23 23 46-23 46-23s9-18 28-19c20 0 30 23 36 32s4 30 150 30h181v7l-289 4c-32 1-36 17-40 26s-13 35-33 34c-20 0-28-8-42-30-15-21-38-15-49-11-10 3-34 11-51-11-17-23-35-10-45-2-10 9-16 25-38 29s-35-11-48-19c-12-9-38-20-117-19-78 2-277-1-277-1V77Z" transform="translate(0 -20)" fill="url(#a)" fill-rule="evenodd"/>
</svg>
