<svg width="494" height="118" viewBox="0 0 494 118" xmlns="http://www.w3.org/2000/svg">
  <path d="M492.2 61.7c-.3.1-.6 0-.8-.4v-1c.2-.3.5-.5.8-.5.3 0 .6.2.8.4v1c-.1.4-.4.6-.8.5zm-6.2 3c-.3.1-.7 0-.8-.4v-4c.2-.3.5-.5.8-.5.3 0 .6.2.8.4v4.1c-.1.4-.5.5-.8.5zm-6.2 0c-.3.1-.7 0-.8-.4v-4c.2-.3.5-.5.8-.5.3 0 .6.2.8.4v4.1c-.1.4-.5.5-.8.5zm-6.2 3.3c-.4 0-.7-.1-.8-.5v-7.3c.2-.2.5-.4.8-.4.3 0 .6.2.8.4v7.3c-.2.4-.5.5-.8.5zm-6.2-3.2c-.4 0-.7-.1-.9-.5v-4c.2-.3.5-.5.9-.5.3 0 .6.2.8.4v4.1c-.2.4-.5.5-.9.5zM461 68c-.3 0-.6-.1-.8-.5v-7.3c.2-.2.5-.4.8-.4.3 0 .6.2.8.4v7.3c-.1.4-.4.5-.8.5zm-6.2 3.3c-.3.1-.7 0-.8-.4V60.2c.2-.2.5-.4.8-.4.3 0 .6.2.8.4V71c-.1.3-.5.5-.8.4zm-6.2-3.3c-.3 0-.7-.1-.8-.5v-7.3c.2-.2.5-.4.8-.4.3 0 .6.2.8.4v7.3c-.1.4-.5.5-.8.5zm-6.2-3.2c-.4 0-.7-.1-.8-.5v-4c.2-.3.5-.5.8-.5.3 0 .6.2.8.4v4.1c-.2.4-.5.5-.8.5zm-6.2 3.2c-.4 0-.7-.1-.9-.5v-7.3c.2-.2.5-.4.9-.4.3 0 .6.2.8.4v7.3c-.2.4-.5.5-.8.5zM430 78c-.3.1-.6 0-.8-.4V60.2c.2-.2.5-.4.8-.4.4 0 .7.2.9.4v17.4c-.2.4-.5.5-.9.5zm-6.2-6.9c-.3.1-.6 0-.8-.4V60.2c.2-.2.5-.4.8-.4.3 0 .6.2.8.4v10.5c-.1.3-.5.5-.8.4zm-6.2-6.3c-.3 0-.7-.1-.8-.5v-4c.2-.3.5-.5.8-.5.3 0 .6.2.8.4v4.1c-.1.4-.5.5-.8.5zM411.4 75c-.3.1-.7 0-.8-.4V60.2c.2-.2.5-.4.8-.4.3 0 .6.2.8.4v14.4c-.2.3-.5.5-.8.4zm-6.2 9.2c-.4.1-.7 0-.9-.4V60.2c.2-.2.5-.4.9-.4.3 0 .6.2.8.4v23.6c-.2.3-.5.5-.8.4zm-6.3-10c-.3.1-.6 0-.8-.4V60.2c.2-.2.5-.4.8-.4.4 0 .7.2.9.4v13.6c-.2.3-.5.5-.9.4zm-6.2-6.2c-.3 0-.6-.1-.8-.5v-7.3c.2-.2.5-.4.8-.4.3 0 .6.2.8.4v7.3c-.1.4-.4.6-.8.5zm-6.2 13.4c-.3 0-.7 0-.8-.4V60.2c.2-.2.5-.4.8-.4.3 0 .6.2.8.4V81c-.1.3-.5.5-.8.4zm-6.2 13c-.3 0-.7-.2-.8-.5V60.2c.2-.2.5-.4.8-.4.3 0 .6.2.8.4V94c-.1.3-.5.5-.8.4zm-6.2-9.8c-.4 0-.7-.1-.8-.5V60.2c.2-.2.5-.4.8-.4.3 0 .6.2.8.4v24c-.2.3-.5.5-.8.4zm-6.2-13c-.4.2-.7 0-.9-.4v-11c.2-.2.5-.4.8-.4.4 0 .7.2.9.4v11c-.2.4-.5.5-.8.5zm-6.3-3.5c-.3 0-.6 0-.8-.4v-7.5c.2-.2.5-.4.8-.4.4 0 .7.2.8.4v7.5c-.1.3-.4.5-.8.4zm-6.2 6.5a.7.7 0 0 1-.8-.5V60.2c.2-.2.5-.4.8-.4.3 0 .6.2.8.4v14c-.1.3-.5.4-.8.4zm-6.2 9.8c-.3.1-.7 0-.8-.4V60.2c.2-.2.5-.4.8-.4.3 0 .6.2.8.4V84c-.1.3-.5.5-.8.4zM343 78c-.4 0-.7-.1-.8-.5V60.2c.2-.2.5-.4.8-.4.3 0 .6.2.8.4v17.4c-.2.3-.5.5-.8.4zm-6.2-10c-.4 0-.7-.1-.9-.5v-7.3c.2-.2.5-.4.9-.4.3 0 .6.2.8.4v7.3c-.2.4-.5.5-.8.5zm-6.3 9.8c-.3 0-.6 0-.8-.4V60.2c.2-.2.5-.4.8-.4.4 0 .7.2.9.4v17.2c-.2.3-.5.5-.9.4zm-6.2 16.5c-.3 0-.6 0-.8-.4V60.2c.2-.2.5-.4.8-.4.3 0 .6.2.8.4V94c-.1.3-.4.5-.8.4Zm-6.2-9.7c-.3 0-.7-.1-.8-.5V60.2c.2-.2.5-.4.8-.4.3 0 .6.2.8.4v24c-.1.3-.5.5-.8.4zm-6.2-10c-.3.1-.7 0-.8-.4v-14c.2-.2.5-.4.8-.4.3 0 .6.2.8.4v14c-.2.4-.5.5-.8.4zm-6.2-9.8c-.4 0-.7-.1-.8-.5v-4c.2-.3.5-.5.8-.5.3 0 .6.2.8.4v4.1c-.2.4-.5.5-.8.5zm-6.3 9.9c-.3 0-.6-.1-.8-.5v-14c.2-.2.5-.4.8-.4.4 0 .7.2.9.4v14c-.2.4-.5.5-.9.5zm-6.2 16.6c-.3.1-.6 0-.8-.4V60.2c.2-.2.5-.4.8-.4.3 0 .6.2.8.4V91c-.1.3-.4.5-.8.4zm-6.2 16c-.3.2-.7 0-.8-.3V60.2c.2-.2.5-.4.8-.4.3 0 .6.2.8.4V107c-.1.4-.5.6-.8.5zm-6.2-6.1c-.3 0-.7-.1-.8-.5V60.2c.2-.2.5-.4.8-.4.3 0 .6.2.8.4v40.5c-.1.4-.5.5-.8.5zm-6.2-13.3c-.4.1-.7 0-.8-.4V60.2c.2-.2.5-.4.8-.4.3 0 .6.2.8.4v27.3c-.2.3-.5.5-.8.4zm-6.2-10c-.4 0-.7-.1-.9-.5V60.2c.2-.2.5-.4.9-.4.3 0 .6.2.8.4v17.2c-.2.4-.5.6-.8.5zm-6.3-10c-.3.2-.6 0-.8-.4v-7.3c.2-.2.5-.4.8-.4.4 0 .7.2.9.4v7.3c-.2.4-.5.5-.9.5zm-6.2 6.6c-.3.1-.7 0-.8-.4V60.2c.2-.2.5-.4.8-.4.3 0 .6.2.8.4v14c-.1.2-.5.4-.8.3zm-6.2 16.6c-.3.1-.7 0-.8-.4V60.2c.2-.2.5-.4.8-.4.3 0 .6.2.8.4v30.5c-.1.3-.5.5-.8.4zm-6.2 13c-.3 0-.7-.2-.8-.5V60.2c.2-.2.5-.4.8-.4.3 0 .6.2.8.4v43.4c-.2.3-.5.5-.8.4zm-6.2 13.5c-.4.1-.7 0-.9-.4v-57c.2-.2.5-.4.9-.4.3 0 .6.2.8.4v57c-.2.3-.5.5-.8.4zm-6.3 0c-.3.1-.6 0-.8-.4v-57c.2-.2.5-.4.8-.4.4 0 .7.2.9.4v57c-.2.3-.5.5-.9.4zm-6.2-10c-.3.1-.6 0-.8-.4v-47c.2-.2.5-.4.8-.4.3 0 .6.2.8.4v47c-.1.4-.4.5-.8.5zm-6.2-13.1c-.3 0-.7-.1-.8-.4V60.2c.2-.2.5-.4.8-.4.3 0 .6.2.8.4v33.9c-.1.3-.5.5-.8.4zm-6.2-12.9c-.3.1-.7 0-.8-.4v-21c.2-.2.5-.4.8-.4.3 0 .6.2.8.4v21c-.1.3-.5.5-.8.4zm-6.2-10.2c-.4 0-.7-.1-.8-.5V60.2c.2-.2.5-.4.8-.4.3 0 .6.2.8.4V71c-.2.4-.5.5-.8.5zm-6.3 13c-.3.1-.6 0-.8-.4V60.2c.2-.2.5-.4.8-.4.4 0 .7.2.9.4V84c-.2.4-.5.5-.9.5zm-6.2 16.8c-.3 0-.6-.1-.8-.5V60.2c.2-.2.5-.4.8-.4.3 0 .6.2.8.4v40.5c-.1.4-.4.5-.8.5zm-6.2-9.8c-.3 0-.7-.1-.8-.4V60.2c.2-.2.5-.4.8-.4.3 0 .6.2.8.4V91c-.1.3-.5.5-.8.4zm-6.2-10c-.3 0-.7-.1-.8-.5V60.2c.2-.2.5-.4.8-.4.3 0 .6.2.8.4V81c-.1.3-.5.5-.8.4Zm-6.2-7c-.4.2-.7 0-.8-.3V60.2c.2-.2.5-.4.8-.4.3 0 .6.2.8.4v13.9c-.2.3-.5.5-.8.4zm-6.2-6.4c-.4 0-.7-.1-.9-.5v-7.3c.2-.2.5-.4.9-.4.3 0 .6.2.8.4v7.3c-.2.4-.5.5-.8.5zm-6.3 13.5a.7.7 0 0 1-.8-.5V60.2c.2-.2.5-.4.8-.4.3 0 .6.2.8.4V81c-.1.4-.4.5-.8.5zm-6.2 9.6c-.3 0-.6-.1-.8-.5V60.2c.2-.2.5-.4.8-.4.3 0 .6.2.8.4v30.4c-.1.4-.5.6-.8.5zm-6.2 9.5c-.3.1-.7 0-.8-.4v-40c.2-.2.5-.4.8-.4.3 0 .6.2.8.4v40c-.1.3-.5.5-.8.4zm-6.2 10.2c-.3 0-.7-.1-.8-.4V60.2c.2-.2.5-.4.8-.4.3 0 .6.2.8.4v50.1c-.2.4-.5.6-.8.5zm-6.2-13.5c-.4.1-.7 0-.9-.4V60.2c.2-.2.5-.4.9-.4.3 0 .6.2.8.4V97c-.2.3-.5.5-.8.4zm-6.3-9.7c-.3 0-.6-.1-.8-.4v-27c.2-.2.5-.4.8-.4.4 0 .7.2.9.4v27c-.2.3-.5.5-.9.4zm-6.2-6.3c-.3.1-.6 0-.8-.4V60.2c.2-.2.5-.4.8-.4.3 0 .6.2.8.4V81c-.1.3-.4.5-.8.4zm-6.2-9.8c-.3 0-.7-.1-.8-.5V60.2c.2-.2.5-.4.8-.4.3 0 .6.2.8.4V71c-.1.4-.5.5-.8.5zm-6.2-6.7c-.3 0-.7-.1-.8-.5v-4c.2-.3.5-.5.8-.5.3 0 .6.2.8.4v4.1c-.2.4-.5.5-.8.5zm-6.2 3.2c-.4 0-.7-.1-.9-.5v-7.3c.2-.2.5-.4.9-.4.3 0 .6.2.8.4v7.3c-.2.4-.5.5-.8.5zm-6.3 6.4c-.3.1-.6 0-.8-.4V60.2c.2-.2.5-.4.8-.4.4 0 .7.2.9.4V74c-.2.3-.5.5-.9.4zM94.2 68c-.3 0-.6-.1-.8-.5v-7.3c.2-.2.5-.4.8-.4.3 0 .6.2.8.4v7.3c-.1.4-.4.5-.8.5zM88 64.8c-.3 0-.7-.1-.8-.5v-4c.2-.3.5-.5.8-.5.3 0 .6.2.8.4v4.1c-.1.4-.5.5-.8.5zm-6.2 6.5c-.3.1-.7 0-.8-.4V60.2c.2-.2.5-.4.8-.4.3 0 .6.2.8.4V71c-.1.3-.5.5-.8.4zm-6.2 9.8c-.4.1-.7 0-.8-.4V60.2c.2-.2.5-.4.8-.4.3 0 .6.2.8.4v20.5c-.2.3-.5.5-.8.4zm-6.2-6.5c-.4.1-.7 0-.9-.4v-14c.2-.2.5-.4.9-.4.3 0 .6.2.8.4v14c-.2.3-.5.5-.8.4zM63 68c-.3 0-.6-.1-.8-.5v-7.3c.2-.2.5-.4.8-.4.4 0 .7.2.9.4v7.3c-.2.4-.5.6-.9.5zM57 64.8c-.3 0-.6-.1-.8-.5v-4c.2-.3.5-.5.8-.5.3 0 .6.2.8.4v4.1c-.1.4-.5.5-.8.5zM50.7 68c-.3 0-.7-.1-.8-.5v-7.3c.2-.2.5-.4.8-.4.3 0 .6.2.8.4v7.3c-.1.4-.5.5-.8.5zm-6.2 3.7c-.3 0-.7-.1-.8-.5v-11c.2-.2.5-.4.8-.4.3 0 .6.2.8.4v11c-.2.4-.5.5-.8.5zM38.3 68c-.4 0-.7-.1-.9-.5v-7.3c.2-.2.5-.4.9-.4.3 0 .6.2.8.4v7.3c-.2.4-.5.6-.8.5zM32 64.8c-.3 0-.6-.1-.8-.5v-4c.2-.3.5-.5.8-.5.4 0 .7.2.9.4v4.1c-.2.4-.5.5-.9.5zM25.8 68c-.3 0-.6-.1-.8-.5v-7.3c.2-.2.5-.4.8-.4.3 0 .6.2.8.4v7.3c-.1.4-.4.5-.8.5zm-6.2-3.2c-.3 0-.7-.1-.8-.5v-4c.2-.3.5-.5.8-.5.3 0 .6.2.8.4v4.1c-.1.4-.5.5-.8.5zm-6.2 0c-.3 0-.7-.1-.8-.5v-4c.2-.3.5-.5.8-.5.3 0 .6.2.8.4v4.1c-.1.4-.5.5-.8.5zm-6.2-3c-.4 0-.7-.2-.8-.5v-1c.2-.3.5-.5.8-.5.3 0 .6.2.8.4v1c-.2.4-.5.6-.8.5zm-6.2 0c-.4 0-.7-.2-.9-.5v-1c.2-.3.5-.5.9-.5.3 0 .6.2.8.4v1c-.2.4-.5.6-.8.5z" fill="#0a1b56" fill-rule="evenodd"/>
</svg>
