<svg xmlns="http://www.w3.org/2000/svg" xmlns:xlink="http://www.w3.org/1999/xlink" width="213" height="101" viewBox="0 0 213 101">
    <defs>
        <path id="a" d="M17.067 8.928l-2.419 2.408c-.16.16-.322.321-.564.482-.887.642-1.854.963-2.903.963a4.816 4.816 0 0 1-3.87-1.927c-.242-.32-.161-.883.162-1.124.322-.24.886-.16 1.128.161 1.048 1.445 3.064 1.686 4.515.642a.628.628 0 0 0 .323-.32l2.419-2.41c1.21-1.284 1.21-3.29-.08-4.494a3.273 3.273 0 0 0-4.516 0l-1.37 1.364a.782.782 0 0 1-1.13 0 .774.774 0 0 1 0-1.124l1.371-1.364a4.735 4.735 0 0 1 6.692 0c2.016 1.766 2.097 4.896.242 6.743zm-7.901 5.539L7.795 15.83a3.273 3.273 0 0 1-4.515 0c-1.29-1.204-1.29-3.291-.08-4.495l2.418-2.408.323-.321c.725-.482 1.532-.723 2.418-.643.887.161 1.613.562 2.097 1.285.242.32.806.401 1.129.16.322-.24.403-.802.16-1.123C10.94 7.242 9.812 6.6 8.602 6.439c-1.21-.24-2.5.08-3.547.883l-.484.482-2.419 2.408c-1.854 1.927-1.774 4.977.08 6.823.968.883 2.178 1.365 3.387 1.365 1.21 0 2.419-.482 3.386-1.365l1.371-1.364a.774.774 0 0 0 0-1.124c-.322-.321-.887-.402-1.21-.08z"/>
    </defs>
    <g fill="none" fill-rule="evenodd" transform="translate(1 1)">
        <path fill="#E7E5E2" d="M153.792 80.352L65.664 92.448 51.84 31.968l98.496-18.144 10.368 66.528z"/>
        <path stroke="#4A4A4A" stroke-linecap="round" stroke-width="1.728" d="M194.4 0l-19.872 13.824M13.824 19.008L34.56 25.92m176.256 9.504l-23.328 4.32M0 55.296h25.92M207.36 77.76l-17.28-6.912M21.6 95.904L38.016 86.4m17.28-44.928l50.976 19.872 41.472-37.152m-27.648 30.24l27.648 11.232M69.984 82.08L86.4 59.616"/>
        <circle cx="157.248" cy="77.76" r="20.608" fill="#59CBB7" stroke="#FFF" stroke-width="3.2"/>
        <g transform="translate(148 68)">
            <mask id="b" fill="#fff">
                <use xlink:href="#a"/>
            </mask>
            <use fill="#000" fill-rule="nonzero" xlink:href="#a"/>
            <g fill="#FFF" mask="url(#b)">
                <path d="M0 0h18.869v18.869H0z"/>
            </g>
        </g>
    </g>
</svg>
