<svg width="14" height="13" viewBox="0 0 14 13" fill="none" xmlns="http://www.w3.org/2000/svg">
<path d="M1.80969 12.6864C1.51803 12.6864 1.22636 12.6281 0.934695 12.4531C0.118028 11.9864 -0.173638 10.8781 0.293028 10.0614L5.25136 1.77809C5.42636 1.54476 5.60136 1.31143 5.83469 1.19476C6.24303 0.961426 6.70969 0.903092 7.17636 1.01976C7.64303 1.13643 7.99303 1.42809 8.28469 1.83643L13.1847 10.0614C13.3597 10.3531 13.418 10.6448 13.418 10.9364C13.418 11.4031 13.243 11.8698 12.893 12.1614C12.6014 12.5114 12.193 12.6864 11.7264 12.6864H1.80969ZM6.24303 2.41976L1.34303 10.6448C1.16803 10.9364 1.28469 11.2864 1.57636 11.4614C1.63469 11.5198 1.75136 11.5198 1.80969 11.5198H11.668C11.843 11.5198 11.9597 11.4614 12.0764 11.3448C12.193 11.2281 12.2514 11.1114 12.2514 10.9364C12.2514 10.8198 12.2514 10.7614 12.193 10.6448L7.29303 2.41976C7.11803 2.12809 6.76803 2.06976 6.47636 2.18643C6.35969 2.24476 6.30136 2.30309 6.24303 2.41976Z" fill="#FF4F5E"/>
<path d="M6.76803 8.01976C6.41803 8.01976 6.18469 7.78643 6.18469 7.43643V5.10309C6.18469 4.75309 6.41803 4.51976 6.76803 4.51976C7.11803 4.51976 7.35136 4.75309 7.35136 5.10309V7.43643C7.35136 7.78643 7.11803 8.01976 6.76803 8.01976Z" fill="#FF4F5E"/>
<path d="M6.76803 10.3531C6.59303 10.3531 6.47636 10.2948 6.35969 10.1781C6.24303 10.0614 6.18469 9.94476 6.18469 9.76976C6.18469 9.71143 6.18469 9.59476 6.24303 9.53643C6.30136 9.47809 6.30136 9.41976 6.35969 9.36143C6.41803 9.30309 6.47636 9.24476 6.53469 9.24476C6.65136 9.18643 6.76803 9.18643 6.88469 9.18643C6.94303 9.18643 6.94303 9.18643 7.00136 9.24476C7.05969 9.24476 7.05969 9.24476 7.11803 9.30309C7.11803 9.30309 7.17636 9.36143 7.23469 9.36143C7.29303 9.41976 7.35136 9.47809 7.35136 9.53643C7.35136 9.59476 7.40969 9.71143 7.40969 9.76976C7.40969 9.94476 7.35136 10.0614 7.23469 10.1781C7.05969 10.2948 6.94303 10.3531 6.76803 10.3531Z" fill="#FF4F5E"/>
</svg>
