<svg width="17" height="17" viewBox="0 0 17 17" fill="none" xmlns="http://www.w3.org/2000/svg">
<path fill-rule="evenodd" clip-rule="evenodd" d="M12.9711 4.02864C13.2314 4.28899 13.2314 4.7111 12.9711 4.97145L4.97108 12.9714C4.71073 13.2318 4.28862 13.2318 4.02827 12.9714C3.76792 12.7111 3.76792 12.289 4.02827 12.0286L12.0283 4.02864C12.2886 3.76829 12.7107 3.76829 12.9711 4.02864Z" fill="#959595"/>
<path fill-rule="evenodd" clip-rule="evenodd" d="M4.02827 4.02864C4.28862 3.76829 4.71073 3.76829 4.97108 4.02864L12.9711 12.0286C13.2314 12.289 13.2314 12.7111 12.9711 12.9714C12.7107 13.2318 12.2886 13.2318 12.0283 12.9714L4.02827 4.97145C3.76792 4.7111 3.76792 4.28899 4.02827 4.02864Z" fill="#959595"/>
</svg>
