<?xml version="1.0" encoding="UTF-8"?>
<svg width="29px" height="29px" viewBox="0 0 29 29" version="1.1" xmlns="http://www.w3.org/2000/svg" xmlns:xlink="http://www.w3.org/1999/xlink">
    <!-- Generator: Sketch 47.1 (45422) - http://www.bohemiancoding.com/sketch -->
    <title>icon / contact</title>
    <desc>Created with Sketch.</desc>
    <defs></defs>
    <g id="Symbols" stroke="none" stroke-width="1" fill="none" fill-rule="evenodd">
        <g id="icon-/-contact" fill="#000000">
            <path d="M27.4804688,0.75 L27.6171875,0.75 C28.0546897,0.841146289 28.1367201,1.21484047 27.8632813,1.87109375 L16.6796875,27.9570312 C16.4791657,28.4492212 16.1966164,28.6953125 15.8320313,28.6953125 C15.6861972,28.6953125 15.5403653,28.6451828 15.3945313,28.5449219 C15.2486972,28.444661 15.1119798,28.2942718 14.984375,28.09375 L10.5546875,20.8476562 C10.3906242,20.5559881 10.1627619,20.2460954 9.87109375,19.9179688 C9.57942563,19.5898421 9.26953289,19.2799494 8.94140625,18.9882812 C8.61327961,18.6966131 8.30338688,18.4596363 8.01171875,18.2773438 L0.62890625,13.6835938 C0.355467383,13.5013012 0.173177539,13.3007823 0.08203125,13.0820312 C-0.00911503906,12.8632802 0.00455669922,12.6582041 0.123046875,12.4667969 C0.241537051,12.2753897 0.455727617,12.1067716 0.765625,11.9609375 L26.8789063,0.88671875 C27.1158866,0.795572461 27.3164054,0.75 27.4804688,0.75 Z M8.94140625,16.71875 C9.28776215,16.9375011 9.67057082,17.2382793 10.0898438,17.6210938 L23.0234375,4.46875 L2.953125,13 L8.94140625,16.71875 Z M15.6953125,25.7695312 L24.28125,5.671875 L11.3203125,18.8515625 C11.429688,18.9791673 11.5299475,19.1022129 11.6210938,19.2207031 C11.71224,19.3391933 11.803385,19.4622389 11.8945313,19.5898438 C11.9856775,19.7174486 12.0585935,19.835937 12.1132813,19.9453125 L15.6953125,25.7695312 Z"></path>
        </g>
    </g>
</svg>