<svg xmlns="http://www.w3.org/2000/svg" xmlns:xlink="http://www.w3.org/1999/xlink" width="30" height="30" viewBox="0 0 24 24" fill="none">
	<path fill-rule="evenodd" clip-rule="evenodd" d="M20 11.5C20 6.06975 14.0662 2.30981 9.15088 4.79256L9.14709 4.79447L9.14709 4.79447C5.52862 6.60292 3.95647 11.2139 5.79263 14.8491C5.91284 15.0871 5.93303 15.3632 5.84871 15.6162L4.58117 19.4188L8.3838 18.1513C8.63674 18.067 8.91289 18.0872 9.15088 18.2074C14.0075 20.6604 20.0139 16.8409 20 11.5026L20 11.5ZM22 11.4988C21.9992 4.61375 14.5263 -0.161513 8.25106 3.00641C3.78432 5.24011 1.77608 10.7956 3.82401 15.3657L2.05134 20.6837C1.93157 21.0431 2.02509 21.4392 2.29292 21.7071C2.56075 21.9749 2.95692 22.0684 3.31625 21.9486L8.63399 20.1761C14.7713 22.9322 22.0163 18.1596 22 11.4988Z" fill="#000"/>
</svg>
