<svg width="86" height="86" viewBox="0 0 86 86" fill="none" xmlns="http://www.w3.org/2000/svg">
<g opacity="0.5" filter="url(#filter0_f)">
<rect x="14.5" y="14.5" width="57" height="57" rx="28.5" fill="url(#paint0_linear)"/>
</g>
<rect x="14.5" y="10.5" width="57" height="57" rx="28.5" fill="url(#paint1_radial)"/>
<path d="M60.9379 32.025C60.1201 30.0578 58.4637 27.9341 57.163 27.2628C58.2216 29.3381 58.8343 31.4199 59.0684 32.9736C59.0684 32.9766 59.0696 32.9842 59.0721 33.0049C56.9443 27.7015 53.3364 25.5631 50.3903 20.9068C50.2415 20.6714 50.0924 20.4353 49.9471 20.1865C49.8731 20.0594 49.804 19.9296 49.7399 19.7972C49.6175 19.5609 49.5231 19.3111 49.4586 19.0529C49.459 19.0407 49.4549 19.0287 49.447 19.0194C49.4391 19.0101 49.4279 19.004 49.4158 19.0025C49.4043 18.9992 49.392 18.9992 49.3805 19.0025C49.3778 19.0034 49.3739 19.0065 49.3711 19.0076C49.367 19.0092 49.3617 19.013 49.3573 19.0154C49.3594 19.0126 49.3638 19.0062 49.3652 19.0048C44.6383 21.7731 43.0348 26.8941 42.8874 29.4563C40.9998 29.586 39.1952 30.2815 37.7086 31.4519C37.553 31.3205 37.3903 31.1976 37.2212 31.0839C36.7923 29.5834 36.7741 27.9953 37.1684 26.4853C35.2354 27.3655 33.7319 28.7568 32.6389 29.9853H32.6302C31.8843 29.0404 31.9369 25.9237 31.9794 25.273C31.9705 25.2327 31.4229 25.5572 31.3512 25.6061C30.693 26.076 30.0776 26.6032 29.5123 27.1815C28.869 27.8338 28.2813 28.5387 27.7551 29.2887C27.7551 29.2897 27.7546 29.2908 27.7543 29.2917C27.7543 29.2907 27.7548 29.2897 27.7551 29.2887C26.5452 31.0034 25.687 32.9409 25.2303 34.9892C25.2213 35.03 25.2137 35.0723 25.2049 35.1134C25.1695 35.2791 25.042 36.1078 25.0197 36.2879C25.018 36.3017 25.0172 36.315 25.0156 36.3289C24.8508 37.1857 24.7487 38.0534 24.7102 38.925C24.7102 38.9571 24.7083 38.9889 24.7083 39.0211C24.7086 49.4123 33.1334 57.8357 43.5255 57.8357C52.8323 57.8357 60.56 51.0795 62.0728 42.2051C62.1047 41.9642 62.1302 41.7221 62.1583 41.4792C62.5324 38.2525 62.1168 34.861 60.9379 32.025ZM39.2498 46.7524C39.3378 46.7944 39.4204 46.8404 39.5108 46.8807C39.5146 46.8833 39.5197 46.8862 39.5236 46.8885C39.4316 46.8446 39.3403 46.7992 39.2498 46.7524ZM59.0736 33.0095L59.0711 32.9913C59.072 32.9979 59.0732 33.0049 59.0742 33.0116L59.0736 33.0095Z" fill="url(#paint2_linear)"/>
<path d="M60.9378 32.025C60.1199 30.0578 58.4635 27.9341 57.1629 27.2628C58.2214 29.3381 58.8341 31.4199 59.0682 32.9736C59.0682 32.969 59.0691 32.9773 59.0711 32.9913C59.072 32.9979 59.0732 33.0049 59.0742 33.0115C60.8496 37.8245 59.8824 42.7188 58.4886 45.7095C56.3323 50.3369 51.1117 55.0794 42.9405 54.8482C34.112 54.5981 26.3343 48.0475 24.8825 39.4678C24.6179 38.1148 24.8825 37.4278 25.0156 36.3293C24.8534 37.1761 24.7916 37.4207 24.7102 38.9254C24.7102 38.9575 24.7083 38.9893 24.7083 39.0215C24.7084 49.4122 33.1333 57.8357 43.5253 57.8357C52.8322 57.8357 60.5598 51.0795 62.0727 42.2051C62.1046 41.9642 62.1301 41.7221 62.1582 41.4792C62.5322 38.2525 62.1167 34.861 60.9378 32.025Z" fill="url(#paint3_radial)"/>
<path d="M60.9378 32.025C60.1199 30.0578 58.4635 27.9341 57.1629 27.2628C58.2214 29.3381 58.8341 31.4199 59.0682 32.9736C59.0682 32.969 59.0691 32.9773 59.0711 32.9913C59.072 32.9979 59.0732 33.0049 59.0742 33.0115C60.8496 37.8245 59.8824 42.7188 58.4886 45.7095C56.3323 50.3369 51.1117 55.0794 42.9405 54.8482C34.112 54.5981 26.3343 48.0475 24.8825 39.4678C24.6179 38.1148 24.8825 37.4278 25.0156 36.3293C24.8534 37.1761 24.7916 37.4207 24.7102 38.9254C24.7102 38.9575 24.7083 38.9893 24.7083 39.0215C24.7084 49.4122 33.1333 57.8357 43.5253 57.8357C52.8322 57.8357 60.5598 51.0795 62.0727 42.2051C62.1046 41.9642 62.1301 41.7221 62.1582 41.4792C62.5322 38.2525 62.1167 34.861 60.9378 32.025Z" fill="url(#paint4_radial)"/>
<path d="M51.7935 34.2369C51.8345 34.2657 51.8718 34.2944 51.9104 34.323C51.4382 33.4849 50.8501 32.7175 50.1636 32.0436C44.3144 26.1951 48.6298 19.3623 49.3576 19.0153C49.3597 19.0125 49.3641 19.0061 49.3654 19.0046C44.6386 21.7729 43.0351 26.894 42.8877 29.4562C43.1069 29.441 43.3255 29.4226 43.5487 29.4226C47.0761 29.4226 50.1483 31.362 51.7935 34.2369Z" fill="url(#paint5_radial)"/>
<path d="M43.5605 35.4044C43.5298 35.8724 41.876 37.4865 41.2977 37.4865C35.9469 37.4865 35.0784 40.723 35.0784 40.723C35.3154 43.4485 37.2129 45.6929 39.5109 46.8806C39.6157 46.9347 39.7218 46.9837 39.828 47.0321C40.01 47.1127 40.1943 47.188 40.3807 47.258C41.1687 47.537 41.994 47.6962 42.8292 47.7302C52.2077 48.1701 54.0247 36.5185 47.2565 33.1349C48.9898 32.8334 50.7889 33.5305 51.7937 34.2363C50.1485 31.3617 47.0762 29.4222 43.5489 29.4222C43.3257 29.4222 43.1072 29.4406 42.8879 29.4558C41.0003 29.5856 39.1956 30.281 37.7091 31.4515C37.996 31.6942 38.3198 32.0187 39.0021 32.6908C40.2785 33.9488 43.5536 35.2515 43.5605 35.4044Z" fill="url(#paint6_radial)"/>
<path d="M43.5605 35.4044C43.5298 35.8724 41.876 37.4865 41.2977 37.4865C35.9469 37.4865 35.0784 40.723 35.0784 40.723C35.3154 43.4485 37.2129 45.6929 39.5109 46.8806C39.6157 46.9347 39.7218 46.9837 39.828 47.0321C40.01 47.1127 40.1943 47.188 40.3807 47.258C41.1687 47.537 41.994 47.6962 42.8292 47.7302C52.2077 48.1701 54.0247 36.5185 47.2565 33.1349C48.9898 32.8334 50.7889 33.5305 51.7937 34.2363C50.1485 31.3617 47.0762 29.4222 43.5489 29.4222C43.3257 29.4222 43.1072 29.4406 42.8879 29.4558C41.0003 29.5856 39.1956 30.281 37.7091 31.4515C37.996 31.6942 38.3198 32.0187 39.0021 32.6908C40.2785 33.9488 43.5536 35.2515 43.5605 35.4044Z" fill="url(#paint7_radial)"/>
<path d="M36.8312 30.8258C36.9623 30.9104 37.0923 30.9965 37.2212 31.0842C36.7923 29.5837 36.7741 27.9956 37.1685 26.4856C35.2354 27.3657 33.732 28.757 32.6389 29.9855C32.7294 29.9829 35.4587 29.9338 36.8312 30.8258Z" fill="url(#paint8_radial)"/>
<path d="M24.8826 39.468C26.3344 48.0478 34.1121 54.5984 42.9406 54.8484C51.1118 55.0797 56.3324 50.3369 58.4887 45.7098C59.8824 42.7188 60.8497 37.8252 59.0743 33.0118L59.0737 33.0098L59.0711 32.9915C59.0692 32.9776 59.068 32.9693 59.0683 32.9738C59.0683 32.9769 59.0695 32.9845 59.072 33.0051C59.7394 37.3633 57.5225 41.5854 54.0569 44.4401L54.0465 44.4646C47.2937 49.9629 40.8319 47.7819 39.5235 46.8892C39.4315 46.8449 39.3402 46.7994 39.2495 46.7527C35.3125 44.8713 33.6861 41.2845 34.0348 38.2085C30.7105 38.2085 29.577 35.4047 29.577 35.4047C29.577 35.4047 32.5616 33.2767 36.4952 35.1275C40.1385 36.8417 43.5599 35.4049 43.5603 35.4047C43.5533 35.2519 40.2783 33.9492 39.0016 32.6912C38.3194 32.0191 37.9954 31.6951 37.7086 31.4519C37.5529 31.3205 37.3902 31.1976 37.2212 31.0839C37.0921 30.9964 36.9621 30.9103 36.8311 30.8256C35.4587 29.9336 32.7293 29.9827 32.6388 29.985H32.6301C31.8842 29.0402 31.9368 25.9235 31.9793 25.2727C31.9704 25.2324 31.4229 25.557 31.3511 25.6059C30.6929 26.0757 30.0775 26.6029 29.5122 27.1813C28.8689 27.8338 28.2812 28.5388 27.7551 29.289C27.7551 29.2899 27.7545 29.291 27.7542 29.2919C27.7542 29.2909 27.7548 29.2899 27.7551 29.289C26.5451 31.0036 25.6869 32.9411 25.2302 34.9895C25.2212 35.0302 24.5529 37.9524 24.8826 39.468Z" fill="url(#paint9_radial)"/>
<path d="M50.1636 32.0433C50.8501 32.7173 51.4382 33.4846 51.9104 34.3227C52.014 34.4006 52.1108 34.4782 52.1929 34.5539C56.4588 38.4844 54.2237 44.0436 54.057 44.4398C57.5225 41.585 59.7394 37.363 59.072 33.0048C56.9443 27.7015 53.3364 25.5631 50.3903 20.9068C50.2415 20.6714 50.0924 20.4353 49.947 20.1865C49.873 20.0594 49.8039 19.9296 49.7399 19.7972C49.6175 19.5609 49.523 19.3111 49.4585 19.0529C49.459 19.0407 49.4549 19.0287 49.4469 19.0194C49.439 19.0101 49.4279 19.004 49.4158 19.0025C49.4042 18.9992 49.392 18.9992 49.3805 19.0025C49.3778 19.0034 49.3739 19.0065 49.3711 19.0076C49.3669 19.0092 49.3617 19.013 49.3573 19.0154C48.6298 19.3621 44.3144 26.1949 50.1636 32.0433Z" fill="url(#paint10_radial)"/>
<path d="M52.1929 34.5539C52.1108 34.4782 52.014 34.4006 51.9104 34.3228C51.8721 34.294 51.8346 34.2653 51.7935 34.2366C50.7888 33.5309 48.9897 32.8338 47.2564 33.1352C54.0245 36.5188 52.2076 48.1705 42.829 47.7306C41.9938 47.6965 41.1685 47.5373 40.3806 47.2584C40.1942 47.1883 40.0099 47.1129 39.8278 47.0324C39.7217 46.984 39.6156 46.9351 39.5107 46.8809C39.5145 46.8835 39.5197 46.8864 39.5235 46.8887C40.8319 47.7813 47.2937 49.9625 54.0465 44.4642L54.057 44.4397C54.2237 44.0439 56.4588 38.4845 52.1929 34.5539Z" fill="url(#paint11_radial)"/>
<path d="M35.0783 40.7231C35.0783 40.7231 35.9469 37.4867 41.2977 37.4867C41.8761 37.4867 43.5299 35.8725 43.5605 35.4045C43.5911 34.9364 40.1389 36.8414 36.4954 35.1272C32.5618 33.2764 29.5771 35.4045 29.5771 35.4045C29.5771 35.4045 30.7107 38.2083 34.035 38.2083C33.6863 41.2843 35.3127 44.8714 39.2496 46.7524C39.3376 46.7945 39.4203 46.8405 39.5107 46.8808C37.2128 45.6931 35.3153 43.4487 35.0783 40.7231Z" fill="url(#paint12_radial)"/>
<path d="M60.9378 32.025C60.12 30.0578 58.4636 27.9341 57.1629 27.2628C58.2215 29.3381 58.8342 31.4199 59.0683 32.9736C59.0683 32.9766 59.0695 32.9842 59.072 33.0049C56.9443 27.7015 53.3364 25.5631 50.3902 20.9068C50.2415 20.6714 50.0923 20.4353 49.947 20.1865C49.873 20.0594 49.8039 19.9296 49.7398 19.7972C49.6174 19.5609 49.523 19.3111 49.4585 19.0529C49.4589 19.0407 49.4548 19.0287 49.4469 19.0194C49.439 19.0101 49.4279 19.004 49.4157 19.0025C49.4042 18.9992 49.392 18.9992 49.3804 19.0025C49.3778 19.0034 49.3739 19.0065 49.371 19.0076C49.3669 19.0092 49.3616 19.013 49.3573 19.0154C49.3594 19.0126 49.3638 19.0062 49.3651 19.0048C44.6382 21.7731 43.0347 26.8941 42.8873 29.4563C43.1066 29.4411 43.3252 29.4227 43.5483 29.4227C47.0759 29.4227 50.1481 31.3621 51.7931 34.2368C50.7884 33.531 48.9893 32.8339 47.256 33.1354C54.0241 36.5189 52.2071 48.1706 42.8286 47.7307C41.9934 47.6966 41.1681 47.5375 40.3802 47.2585C40.1938 47.1884 40.0095 47.1131 39.8274 47.0325C39.7213 46.9842 39.6152 46.9352 39.5103 46.881C39.5141 46.8836 39.5193 46.8865 39.5231 46.8889C39.4311 46.8446 39.3398 46.7991 39.2491 46.7524C39.3371 46.7944 39.4198 46.8404 39.5101 46.8807C37.2121 45.6931 35.3146 43.4487 35.0776 40.7231C35.0776 40.7231 35.9461 37.4867 41.2969 37.4867C41.8754 37.4867 43.5291 35.8726 43.5598 35.4045C43.5528 35.2517 40.2777 33.9489 39.001 32.691C38.3188 32.0189 37.9949 31.6948 37.708 31.4517C37.5524 31.3202 37.3897 31.1974 37.2206 31.0837C36.7917 29.5832 36.7735 27.9951 37.1678 26.4851C35.2348 27.3653 33.7313 28.7565 32.6383 29.985H32.6296C31.8836 29.0402 31.9363 25.9235 31.9788 25.2727C31.9699 25.2324 31.4223 25.557 31.3506 25.6059C30.6924 26.0757 30.077 26.6029 29.5117 27.1813C28.8686 27.8337 28.281 28.5386 27.7551 29.2887C27.7551 29.2897 27.7545 29.2908 27.7542 29.2917C27.7542 29.2907 27.7548 29.2897 27.7551 29.2887C26.5451 31.0034 25.6869 32.9409 25.2302 34.9892C25.2212 35.03 25.2136 35.0723 25.2048 35.1134C25.1694 35.2791 25.0102 36.1198 24.9879 36.3001C24.9862 36.3139 24.9896 36.2863 24.9879 36.3001C24.8427 37.1688 24.75 38.0455 24.7105 38.9254C24.7105 38.9575 24.7085 38.9893 24.7085 39.0215C24.7085 49.4123 33.1334 57.8357 43.5254 57.8357C52.8323 57.8357 60.5599 51.0795 62.0728 42.2051C62.1046 41.9642 62.1302 41.7221 62.1583 41.4792C62.5323 38.2525 62.1168 34.861 60.9378 32.025ZM59.0711 32.9913C59.0721 32.9979 59.0732 33.0049 59.0743 33.0116L59.0736 33.0095L59.0711 32.9913Z" fill="url(#paint13_linear)"/>
<defs>
<filter id="filter0_f" x="0.5" y="0.5" width="85" height="85" filterUnits="userSpaceOnUse" color-interpolation-filters="sRGB">
<feFlood flood-opacity="0" result="BackgroundImageFix"/>
<feBlend mode="normal" in="SourceGraphic" in2="BackgroundImageFix" result="shape"/>
<feGaussianBlur stdDeviation="7" result="effect1_foregroundBlur"/>
</filter>
<linearGradient id="paint0_linear" x1="30.5" y1="62" x2="66" y2="20" gradientUnits="userSpaceOnUse">
<stop stop-color="#D11352"/>
<stop offset="0.556093" stop-color="#FF7026"/>
<stop offset="1" stop-color="#FFE242"/>
</linearGradient>
<radialGradient id="paint1_radial" cx="0" cy="0" r="1" gradientUnits="userSpaceOnUse" gradientTransform="translate(43 39) rotate(90) scale(28.5)">
<stop stop-color="#E7E5E2"/>
<stop offset="1" stop-color="white"/>
</radialGradient>
<linearGradient id="paint2_linear" x1="57.4997" y1="25.0195" x2="27.2855" y2="54.1655" gradientUnits="userSpaceOnUse">
<stop offset="0.05" stop-color="#FFF44F"/>
<stop offset="0.37" stop-color="#FF980E"/>
<stop offset="0.53" stop-color="#FF3647"/>
<stop offset="0.7" stop-color="#E31587"/>
</linearGradient>
<radialGradient id="paint3_radial" cx="0" cy="0" r="1" gradientUnits="userSpaceOnUse" gradientTransform="translate(50.7498 23.329) scale(38.4852 39.1333)">
<stop offset="0.13" stop-color="#FFBD4F"/>
<stop offset="0.28" stop-color="#FF980E"/>
<stop offset="0.47" stop-color="#FF3750"/>
<stop offset="0.78" stop-color="#EB0878"/>
<stop offset="0.86" stop-color="#E50080"/>
</radialGradient>
<radialGradient id="paint4_radial" cx="0" cy="0" r="1" gradientUnits="userSpaceOnUse" gradientTransform="translate(39.5906 39.492) scale(39.4473 39.1333)">
<stop offset="0.3" stop-color="#960E18"/>
<stop offset="0.35" stop-color="#B11927" stop-opacity="0.74"/>
<stop offset="0.43" stop-color="#DB293D" stop-opacity="0.34"/>
<stop offset="0.5" stop-color="#F5334B" stop-opacity="0.09"/>
<stop offset="0.53" stop-color="#FF3750" stop-opacity="0"/>
</radialGradient>
<radialGradient id="paint5_radial" cx="0" cy="0" r="1" gradientUnits="userSpaceOnUse" gradientTransform="translate(47.2186 17.1664) scale(12.6318 21.4457)">
<stop offset="0.13" stop-color="#FFF44F"/>
<stop offset="0.53" stop-color="#FF980E"/>
</radialGradient>
<radialGradient id="paint6_radial" cx="0" cy="0" r="1" gradientUnits="userSpaceOnUse" gradientTransform="translate(38.8828 49.5945) scale(16.7153 18.3201)">
<stop offset="0.35" stop-color="#3A8EE6"/>
<stop offset="0.67" stop-color="#9059FF"/>
<stop offset="1" stop-color="#C139E6"/>
</radialGradient>
<radialGradient id="paint7_radial" cx="0" cy="0" r="1" gradientUnits="userSpaceOnUse" gradientTransform="translate(41.7389 35.4679) scale(8.87582 10.8089)">
<stop offset="0.21" stop-color="#9059FF" stop-opacity="0"/>
<stop offset="0.97" stop-color="#6E008B" stop-opacity="0.6"/>
</radialGradient>
<radialGradient id="paint8_radial" cx="0" cy="0" r="1" gradientUnits="userSpaceOnUse" gradientTransform="translate(42.2618 21.887) scale(13.2887 13.336)">
<stop offset="0.1" stop-color="#FFE226"/>
<stop offset="0.79" stop-color="#FF7139"/>
</radialGradient>
<radialGradient id="paint9_radial" cx="0" cy="0" r="1" gradientUnits="userSpaceOnUse" gradientTransform="translate(54.3981 13.1385) scale(63.4432 53.2571)">
<stop offset="0.11" stop-color="#FFF44F"/>
<stop offset="0.46" stop-color="#FF980E"/>
<stop offset="0.72" stop-color="#FF3647"/>
<stop offset="0.9" stop-color="#E31587"/>
</radialGradient>
<radialGradient id="paint10_radial" cx="0" cy="0" r="1" gradientUnits="userSpaceOnUse" gradientTransform="translate(30.8367 30.7258) rotate(77.3946) scale(20.1283 87.0719)">
<stop stop-color="#FFF44F"/>
<stop offset="0.3" stop-color="#FF980E"/>
<stop offset="0.57" stop-color="#FF3647"/>
<stop offset="0.74" stop-color="#E31587"/>
</radialGradient>
<radialGradient id="paint11_radial" cx="0" cy="0" r="1" gradientUnits="userSpaceOnUse" gradientTransform="translate(42.3985 26.6835) scale(36.4257 35.7858)">
<stop offset="0.14" stop-color="#FFF44F"/>
<stop offset="0.48" stop-color="#FF980E"/>
<stop offset="0.66" stop-color="#FF3647"/>
<stop offset="0.9" stop-color="#E31587"/>
</radialGradient>
<radialGradient id="paint12_radial" cx="0" cy="0" r="1" gradientUnits="userSpaceOnUse" gradientTransform="translate(51.8529 28.7764) scale(43.7825 39.1686)">
<stop offset="0.09" stop-color="#FFF44F"/>
<stop offset="0.63" stop-color="#FF980E"/>
</radialGradient>
<linearGradient id="paint13_linear" x1="54.7749" y1="24.437" x2="30.6141" y2="50.8355" gradientUnits="userSpaceOnUse">
<stop offset="0.17" stop-color="#FFF44F" stop-opacity="0.8"/>
<stop offset="0.6" stop-color="#FFF44F" stop-opacity="0"/>
</linearGradient>
</defs>
</svg>
