<svg width="15" height="14" fill="none" xmlns="http://www.w3.org/2000/svg"><path fill-rule="evenodd" clip-rule="evenodd" d="M3.292 2.333a.583.583 0 0 0-.584.583v8.167c0 .322.261.583.583.583h8.167a.583.583 0 0 0 .583-.583V2.916a.583.583 0 0 0-.583-.583H3.292Zm-1.75.583c0-.966.783-1.75 1.75-1.75h8.166c.967 0 1.75.784 1.75 1.75v8.167a1.75 1.75 0 0 1-1.75 1.75H3.292a1.75 1.75 0 0 1-1.75-1.75V2.916Z" fill="#4A4A4A"/><path fill-rule="evenodd" clip-rule="evenodd" d="M1.542 5.25c0-.323.26-.584.583-.584h10.5a.583.583 0 1 1 0 1.167h-10.5a.583.583 0 0 1-.583-.584Z" fill="#4A4A4A"/><path fill-rule="evenodd" clip-rule="evenodd" d="M5.625 4.666c.322 0 .583.261.583.583v7a.583.583 0 1 1-1.167 0v-7c0-.322.262-.583.584-.583Z" fill="#4A4A4A"/></svg>