<svg width="18" height="18" fill="none" xmlns="http://www.w3.org/2000/svg"><mask id="a" fill="#fff"><path fill-rule="evenodd" clip-rule="evenodd" d="M14.116 2.271c.207-.192.266-.471.266-.783 0-.495-.412-.835-.882-.835-.47 0-.876.404-.876.835 0 .307.071.584.273.775l-.121 2.879-.022.528h1.554l-.03-.528-.162-2.871Zm-.367 2.87-.16-2.84a.528.528 0 0 1 .169-.418c.042-.039.096-.13.096-.395a.274.274 0 0 0-.092-.212.39.39 0 0 0-.262-.095c-.195 0-.348.185-.348.307 0 .24.057.343.108.392a.528.528 0 0 1 .165.406l-.12 2.856h.444ZM15.5 7.813h-13c-1.067 0-1.972.912-1.972 2.086v1.957c0 1.175.905 2.086 1.972 2.086h13c1.067 0 1.972-.911 1.972-2.086V9.898c0-1.174-.905-2.086-1.972-2.086Zm0-.528h-13c-1.38 0-2.5 1.17-2.5 2.614v1.957C0 13.3 1.12 14.47 2.5 14.47h13c1.38 0 2.5-1.17 2.5-2.614V9.898c0-1.443-1.12-2.614-2.5-2.614Z"/></mask><path fill-rule="evenodd" clip-rule="evenodd" d="M14.116 2.271c.207-.192.266-.471.266-.783 0-.495-.412-.835-.882-.835-.47 0-.876.404-.876.835 0 .307.071.584.273.775l-.121 2.879-.022.528h1.554l-.03-.528-.162-2.871Zm-.367 2.87-.16-2.84a.528.528 0 0 1 .169-.418c.042-.039.096-.13.096-.395a.274.274 0 0 0-.092-.212.39.39 0 0 0-.262-.095c-.195 0-.348.185-.348.307 0 .24.057.343.108.392a.528.528 0 0 1 .165.406l-.12 2.856h.444ZM15.5 7.813h-13c-1.067 0-1.972.912-1.972 2.086v1.957c0 1.175.905 2.086 1.972 2.086h13c1.067 0 1.972-.911 1.972-2.086V9.898c0-1.174-.905-2.086-1.972-2.086Zm0-.528h-13c-1.38 0-2.5 1.17-2.5 2.614v1.957C0 13.3 1.12 14.47 2.5 14.47h13c1.38 0 2.5-1.17 2.5-2.614V9.898c0-1.443-1.12-2.614-2.5-2.614Z" fill="#fff"/><path d="m14.116 2.271-.358-.388a.528.528 0 0 0-.169.418l.527-.03Zm-1.219-.008.528.023a.528.528 0 0 0-.165-.406l-.363.383Zm-.121 2.879-.528-.022.528.022Zm-.022.528-.528-.022a.528.528 0 0 0 .528.55V5.67Zm1.553 0v.528a.528.528 0 0 0 .527-.558l-.527.03Zm-.03-.528-.527.03.527-.03ZM13.59 2.3l.527-.03-.527.03Zm.16 2.84v.529a.528.528 0 0 0 .527-.558l-.527.03Zm.009-3.258-.36-.387.36.387Zm.004-.607-.355.391.355-.39Zm-.502.604-.363.383.363-.383Zm.165.406.527.022-.527-.022Zm-.12 2.856-.528-.022a.528.528 0 0 0 .527.55v-.528Zm.549-3.654c0 .265-.054.356-.096.395l.717.775c.371-.343.435-.812.435-1.17h-1.056Zm-.354-.307a.39.39 0 0 1 .262.095c.057.051.092.12.092.212h1.056c0-.833-.698-1.363-1.41-1.363v1.056Zm-.348.307c0-.122.153-.307.348-.307V.125c-.744 0-1.404.624-1.404 1.363h1.056Zm.108.392c-.051-.05-.108-.153-.108-.392h-1.056c0 .376.086.825.438 1.159l.726-.767Zm.043 3.284.122-2.878-1.055-.045-.122 2.879 1.055.044Zm-.022.528.022-.528-1.055-.044-.022.528 1.055.044Zm.001-.55h-.528v1.056h.528V5.142Zm.496 0h-.496v1.056h.496V5.142Zm.53 0h-.53v1.056h.53V5.142Zm-.558.03.03.527 1.054-.059-.03-.528-1.054.06ZM13.59 2.3l.16 2.87 1.055-.059-.162-2.87-1.054.059Zm-.528.03.16 2.84 1.054-.059-.16-2.841-1.054.06Zm.337-.835c-.231.214-.355.52-.337.834l1.054-.06v.001l-.717-.775Zm-.073-.008a.872.872 0 0 1-.005.103l-.004.024a.338.338 0 0 1 .082-.119l.717.775c.206-.19.266-.468.266-.783h-1.056Zm.081.18a.253.253 0 0 1-.081-.18h1.056a.801.801 0 0 0-.265-.603l-.71.782Zm.093.041a.141.141 0 0 1-.093-.042l.71-.782A.918.918 0 0 0 13.5.653V1.71Zm.18-.221c0 .073-.02.12-.029.137a.146.146 0 0 1-.028.04.173.173 0 0 1-.123.044V.653a.885.885 0 0 0-.617.259.828.828 0 0 0-.259.576h1.056Zm-.057.008a.29.29 0 0 1 .065.093c.002.006-.008-.02-.008-.101h-1.056c0 .31.073.586.273.775l.726-.767Zm.33.812a1.056 1.056 0 0 0-.33-.812l-.726.767 1.055.045Zm-.121 2.856.12-2.856-1.055-.045-.12 2.857 1.055.044Zm-.083-.55h-.445V5.67h.445V4.614ZM2.5 8.34h13V7.284h-13V8.34ZM1.056 9.898c0-.903.689-1.558 1.444-1.558V7.284C1.121 7.284 0 8.453 0 9.898h1.056Zm0 1.957V9.898H0v1.957h1.056ZM2.5 13.413c-.755 0-1.444-.654-1.444-1.558H0c0 1.446 1.121 2.614 2.5 2.614v-1.056Zm13 0h-13v1.056h13v-1.056Zm1.444-1.558c0 .904-.688 1.558-1.444 1.558v1.056c1.379 0 2.5-1.168 2.5-2.614h-1.056Zm0-1.957v1.957H18V9.898h-1.056ZM15.5 8.34c.756 0 1.444.655 1.444 1.558H18c0-1.445-1.121-2.614-2.5-2.614V8.34Zm-13-.528h13V6.756h-13v1.056ZM.528 9.898c0-1.174.905-2.086 1.972-2.086V6.756c-1.694 0-3.028 1.43-3.028 3.142H.528Zm0 1.957V9.898H-.528v1.957H.528ZM2.5 13.941c-1.067 0-1.972-.911-1.972-2.086H-.528c0 1.713 1.334 3.142 3.028 3.142v-1.056Zm13 0h-13v1.056h13v-1.056Zm1.972-2.086c0 1.175-.905 2.086-1.972 2.086v1.056c1.694 0 3.028-1.429 3.028-3.142h-1.056Zm0-1.957v1.957h1.056V9.898h-1.056ZM15.5 7.812c1.067 0 1.972.912 1.972 2.086h1.056c0-1.713-1.334-3.142-3.028-3.142v1.056Z" fill="#000" mask="url(#a)"/><path d="M13 4.889c2.052 0 3.736 1.742 3.736 3.917v3.274c0 2.324-1.609 4.292-3.78 4.665-2.62.45-5.292.45-7.911 0-2.172-.373-3.781-2.34-3.781-4.665V8.806C1.264 6.631 2.948 4.89 5 4.89h8Z" fill="#F3F2F1" stroke="#000" stroke-width=".528"/><path d="M12 6.244c1.537 0 2.736 1 2.736 2.562v3.452c0 1.674-1.2 3.064-2.767 3.25a25.266 25.266 0 0 1-5.938 0c-1.567-.186-2.767-1.576-2.767-3.25V8.806c0-1.561 1.199-2.562 2.736-2.562h6Z" fill="#fff" stroke="#000" stroke-width=".528"/><path fill-rule="evenodd" clip-rule="evenodd" d="M6.677 11.943h4.577S11.02 13.51 9 13.51c-1.916 0-2.323-1.568-2.323-1.568Zm.147-3.832a.417.417 0 0 0-.147.32.4.4 0 0 0 .389.41.386.386 0 0 0 .343-.216c.097.175.152.378.152.595 0 .651-.501 1.18-1.12 1.18-.618 0-1.12-.529-1.12-1.18 0-.651.502-1.18 1.12-1.18.135 0 .264.026.383.071Zm5.096-.014a.432.432 0 0 0-.102.28c0 .233.179.422.4.422.134 0 .253-.07.326-.177.098.175.154.38.154.598 0 .651-.502 1.18-1.12 1.18-.619 0-1.12-.529-1.12-1.18 0-.651.501-1.18 1.12-1.18.12 0 .234.02.342.057Z" fill="#000"/></svg>