<svg width="22" height="23" viewBox="0 0 22 23" fill="none" xmlns="http://www.w3.org/2000/svg">
<path fill-rule="evenodd" clip-rule="evenodd" d="M11 2.75C6.02944 2.75 2 6.77944 2 11.75C2 16.7206 6.02944 20.75 11 20.75C15.9706 20.75 20 16.7206 20 11.75C20 6.77944 15.9706 2.75 11 2.75ZM0 11.75C0 5.67487 4.92487 0.75 11 0.75C17.0751 0.75 22 5.67487 22 11.75C22 17.8251 17.0751 22.75 11 22.75C4.92487 22.75 0 17.8251 0 11.75Z" fill="#1570EF"/>
<path fill-rule="evenodd" clip-rule="evenodd" d="M11.2581 7.77432C10.7926 7.69447 10.3138 7.78195 9.90664 8.02127C9.49944 8.26058 9.19007 8.63629 9.03333 9.08184C8.85006 9.60283 8.27915 9.87661 7.75816 9.69333C7.23717 9.51006 6.96339 8.93915 7.14667 8.41816C7.46014 7.52705 8.07887 6.77563 8.89327 6.297C9.70767 5.81837 10.6652 5.64341 11.5962 5.80311C12.5273 5.9628 13.3718 6.44686 13.9801 7.16953C14.5883 7.89205 14.9213 8.80648 14.92 9.75091C14.9197 10.8211 14.3569 11.639 13.7751 12.1964C13.1931 12.754 12.5031 13.1409 12.0159 13.3743C11.977 13.3929 11.9487 13.4196 11.933 13.4426C11.9257 13.4533 11.9225 13.4613 11.9211 13.4654C11.92 13.469 11.92 13.4705 11.92 13.4707V13.75C11.92 14.3023 11.4723 14.75 10.92 14.75C10.3677 14.75 9.92 14.3023 9.92 13.75V13.4708C9.92 12.6009 10.4686 11.8979 11.1518 11.5706C11.5483 11.3807 12.0263 11.1022 12.3915 10.7523C12.7567 10.4023 12.92 10.071 12.92 9.75L12.92 9.74851C12.9207 9.27619 12.7542 8.81886 12.4501 8.45753C12.1459 8.09619 11.7236 7.85417 11.2581 7.77432Z" fill="#1570EF"/>
<path d="M12 16.75C12 17.3023 11.5523 17.75 11 17.75C10.4477 17.75 10 17.3023 10 16.75C10 16.1977 10.4477 15.75 11 15.75C11.5523 15.75 12 16.1977 12 16.75Z" fill="#1570EF"/>
</svg>
