<svg width="86" height="85" viewBox="0 0 86 85" fill="none" xmlns="http://www.w3.org/2000/svg">
<g opacity="0.5" filter="url(#filter0_f)">
<rect x="14.5" y="14" width="57" height="57" rx="28.5" fill="url(#paint0_linear)"/>
</g>
<rect x="14.5" y="10" width="57" height="57" rx="28.5" fill="url(#paint1_radial)"/>
<path d="M62.2917 39C62.2917 41.4678 61.8056 43.9114 60.8613 46.1913C59.9169 48.4712 58.5327 50.5428 56.7878 52.2878C55.0428 54.0327 52.9712 55.4169 50.6913 56.3613C48.4114 57.3057 45.9678 57.7917 43.5 57.7917C38.5162 57.7917 33.7364 55.8119 30.2123 52.2878C26.6882 48.7636 24.7084 43.9839 24.7084 39C24.7084 34.0162 26.6882 29.2365 30.2123 25.7123C33.7364 22.1882 38.5162 20.2084 43.5 20.2084C45.9678 20.2084 48.4114 20.6944 50.6913 21.6388C52.9712 22.5832 55.0428 23.9674 56.7878 25.7123C58.5327 27.4573 59.9169 29.5289 60.8613 31.8088C61.8056 34.0887 62.2917 36.5323 62.2917 39Z" fill="url(#paint2_linear)" stroke="#CDCDCD" stroke-width="0.0557972" stroke-linecap="round" stroke-linejoin="round"/>
<path d="M60.8191 38.9998C60.8191 43.5932 58.9944 47.9984 55.7465 51.2463C52.4985 54.4943 48.0933 56.319 43.5 56.319C38.9066 56.319 34.5014 54.4943 31.2535 51.2463C28.0055 47.9984 26.1808 43.5932 26.1808 38.9998C26.1808 34.4065 28.0055 30.0013 31.2535 26.7533C34.5014 23.5054 38.9066 21.6807 43.5 21.6807C48.0933 21.6807 52.4985 23.5054 55.7465 26.7533C58.9944 30.0013 60.8191 34.4065 60.8191 38.9998Z" fill="url(#paint3_radial)"/>
<path d="M43.5 22.5841C43.3601 22.5841 43.2475 22.6967 43.2475 22.8366V25.7492C43.2475 25.8891 43.3601 26.0017 43.5 26.0017C43.6399 26.0017 43.7525 25.8891 43.7525 25.7492V22.8366C43.7525 22.6967 43.6399 22.5841 43.5 22.5841ZM41.8481 22.6885C41.8313 22.6867 41.8141 22.6867 41.7967 22.6887C41.6576 22.7032 41.5573 22.8269 41.5718 22.9661L41.6991 24.1846C41.7136 24.3237 41.8373 24.424 41.9764 24.4095C42.1156 24.395 42.2159 24.2713 42.2014 24.1321L42.0742 22.9137C42.0615 22.7919 41.9651 22.6999 41.8481 22.6885H41.8481ZM45.1634 22.6897C45.0463 22.701 44.95 22.793 44.9372 22.9147L44.809 24.1331C44.7944 24.2723 44.8947 24.3961 45.0339 24.4107C45.173 24.4253 45.2967 24.3251 45.3113 24.186L45.4395 22.9675C45.4541 22.8284 45.3538 22.7047 45.2146 22.69C45.1972 22.6882 45.1802 22.6882 45.1634 22.6897V22.6897ZM40.1512 22.9346C40.1344 22.9347 40.1173 22.9364 40.1002 22.94C39.9633 22.969 39.8764 23.1025 39.9054 23.2393L40.5086 26.0887C40.5376 26.2256 40.6711 26.3124 40.808 26.2835C40.9448 26.2545 41.0317 26.1211 41.0027 25.9842L40.3995 23.1347C40.3742 23.015 40.2688 22.9335 40.1512 22.9344L40.1512 22.9346ZM46.8602 22.937C46.7426 22.9358 46.6372 23.0173 46.6118 23.1371L46.0065 25.9861C45.9774 26.1229 46.0642 26.2565 46.201 26.2856C46.3379 26.3147 46.4714 26.2279 46.5005 26.091L47.1058 23.242C47.1348 23.1052 47.048 22.9716 46.9112 22.9425C46.8941 22.9389 46.877 22.9371 46.8602 22.9371L46.8602 22.937ZM38.5317 23.3912C38.499 23.3882 38.4653 23.3918 38.432 23.4028C38.299 23.4461 38.2266 23.5879 38.2699 23.7209L38.6485 24.8862C38.6917 25.0192 38.8336 25.0915 38.9667 25.0483C39.0997 25.0051 39.172 24.8631 39.1287 24.7301L38.7501 23.5649C38.7177 23.4651 38.6298 23.3995 38.5317 23.3912V23.3912ZM48.4705 23.3918C48.3724 23.4001 48.2845 23.4657 48.2521 23.5655L47.8733 24.7306C47.83 24.8636 47.9023 25.0056 48.0353 25.0488C48.1684 25.0921 48.3103 25.0198 48.3536 24.8868L48.7324 23.7216C48.7756 23.5885 48.7033 23.4466 48.5703 23.4034C48.5371 23.3926 48.5032 23.389 48.4705 23.3918V23.3918ZM36.9303 23.9772C36.8975 23.9778 36.8643 23.985 36.8323 23.9993C36.7046 24.0561 36.6473 24.2047 36.7042 24.3325L37.8871 26.994C37.9439 27.1218 38.0925 27.179 38.2204 27.1221C38.3481 27.0653 38.4055 26.9167 38.3487 26.7889L37.1656 24.1274C37.123 24.0315 37.0287 23.9753 36.9303 23.9772ZM50.09 23.9862C49.9916 23.9844 49.8973 24.0402 49.8545 24.136L48.668 26.7959C48.611 26.9236 48.6679 27.0723 48.7957 27.1293C48.9234 27.1863 49.0722 27.1294 49.1292 27.0016L50.3157 24.3418C50.3727 24.214 50.3158 24.0653 50.188 24.0083C50.1561 23.9941 50.1228 23.9869 50.09 23.9862V23.9862ZM35.4438 24.7637C35.3953 24.7601 35.3454 24.7709 35.3 24.7972C35.1788 24.8672 35.1376 25.021 35.2075 25.1421L35.8201 26.2032C35.8901 26.3243 36.0439 26.3655 36.165 26.2956C36.2862 26.2256 36.3274 26.0718 36.2575 25.9506L35.6449 24.8896C35.6012 24.8139 35.5246 24.7694 35.4438 24.7638V24.7637ZM51.5561 24.7637C51.4753 24.7691 51.3989 24.8139 51.3552 24.8896L50.7425 25.9506C50.6725 26.0718 50.7139 26.2256 50.835 26.2955C50.9562 26.3655 51.11 26.3243 51.1799 26.2031L51.7925 25.1421C51.8625 25.021 51.8212 24.8671 51.7001 24.7972C51.6547 24.771 51.6046 24.7604 51.5561 24.7637V24.7637ZM34.0004 25.664C33.9518 25.6658 33.9031 25.6814 33.8607 25.7122C33.7475 25.7943 33.7224 25.9516 33.8046 26.0648L35.5148 28.4224C35.5969 28.5356 35.7543 28.5606 35.8676 28.4785C35.9808 28.3964 36.0058 28.2391 35.9236 28.1259L34.2133 25.7683C34.162 25.6976 34.0813 25.6613 34.0004 25.664V25.664ZM53.0176 25.6769C52.9367 25.6739 52.856 25.7101 52.8046 25.7808L51.0911 28.1361C51.0088 28.2492 51.0337 28.4065 51.1468 28.4888C51.2599 28.5711 51.4173 28.5464 51.4996 28.4333L53.2129 26.078C53.2952 25.9649 53.2703 25.8076 53.1573 25.7253C53.1148 25.6944 53.0662 25.6786 53.0176 25.6769ZM32.7102 26.746C32.6457 26.7424 32.58 26.764 32.528 26.8108C32.424 26.9044 32.4157 27.0634 32.5093 27.1674L33.329 28.078C33.4226 28.182 33.5816 28.1903 33.6856 28.0967C33.7895 28.0031 33.7979 27.844 33.7043 27.74L32.8847 26.8295C32.8379 26.7775 32.7746 26.7494 32.7102 26.746V26.746ZM54.2916 26.7478C54.2271 26.7514 54.1639 26.7793 54.1171 26.8313L53.2974 27.7417C53.2038 27.8457 53.2121 28.0048 53.316 28.0984C53.42 28.192 53.579 28.1836 53.6726 28.0797L54.4925 27.1693C54.5861 27.0653 54.5777 26.9062 54.4738 26.8126C54.4217 26.7658 54.3561 26.7445 54.2917 26.7479L54.2916 26.7478ZM31.4736 27.9339C31.4091 27.9375 31.346 27.9653 31.2992 28.0173C31.2056 28.1213 31.214 28.2803 31.318 28.3739L33.4826 30.3226C33.5866 30.4162 33.7456 30.4078 33.8392 30.3038C33.9328 30.1999 33.9245 30.0409 33.8205 29.9473L31.6558 27.9986C31.6038 27.9518 31.538 27.9305 31.4736 27.9339L31.4736 27.9339ZM55.5342 27.9424C55.4697 27.9388 55.4039 27.9602 55.3519 28.007L53.1859 29.9541C53.0819 30.0476 53.0733 30.2067 53.1668 30.3107C53.2603 30.4147 53.4195 30.4232 53.5235 30.3297L55.6896 28.3825C55.7936 28.289 55.8021 28.13 55.7085 28.026C55.6617 27.9739 55.5986 27.9458 55.5342 27.9424H55.5342ZM30.4453 29.2561C30.3643 29.2531 30.2836 29.2896 30.2322 29.3603C30.15 29.4735 30.1749 29.6307 30.2881 29.713L31.2793 30.4331C31.3925 30.5153 31.5497 30.4905 31.6319 30.3773C31.7142 30.2641 31.6893 30.1068 31.5762 30.0245L30.585 29.3044C30.5426 29.2736 30.4939 29.2578 30.4453 29.2561L30.4453 29.2561ZM56.5615 29.2653C56.5129 29.2671 56.4643 29.2826 56.4218 29.3135L55.4302 30.033C55.317 30.1151 55.2919 30.2725 55.3741 30.3857C55.4562 30.4989 55.6135 30.5239 55.7267 30.4417L56.7184 29.7223C56.8317 29.6401 56.8566 29.4828 56.7745 29.3696C56.7231 29.2988 56.6425 29.2625 56.5615 29.2653V29.2653ZM29.4843 30.6665C29.4035 30.6719 29.3271 30.7167 29.2834 30.7924C29.2134 30.9136 29.2546 31.0674 29.3758 31.1373L31.8981 32.5936C32.0192 32.6636 32.1731 32.6224 32.243 32.5012C32.313 32.3801 32.2717 32.2262 32.1506 32.1563L29.6283 30.7C29.5828 30.6738 29.5328 30.6632 29.4843 30.6665V30.6665ZM57.5156 30.6665C57.4672 30.6629 57.4171 30.6737 57.3717 30.7L54.8494 32.1563C54.7282 32.2263 54.687 32.3801 54.757 32.5012C54.8269 32.6224 54.9807 32.6636 55.1019 32.5936L57.6243 31.1374C57.7454 31.0674 57.7866 30.9136 57.7167 30.7924C57.673 30.7167 57.5964 30.6722 57.5156 30.6666V30.6665ZM28.7577 32.1699C28.6593 32.1675 28.565 32.2238 28.5222 32.3196C28.4652 32.4474 28.5222 32.5961 28.65 32.6531L29.769 33.1522C29.8967 33.2092 30.0455 33.1523 30.1024 33.0245C30.1594 32.8968 30.1024 32.748 29.9746 32.691L28.8557 32.1919C28.8238 32.1776 28.7905 32.1706 28.7577 32.1699ZM58.2471 32.1803C58.2143 32.1809 58.181 32.1881 58.149 32.2023L57.0298 32.7006C56.902 32.7575 56.8449 32.9061 56.9017 33.0339C56.9587 33.1617 57.1074 33.2189 57.2352 33.162L58.3544 32.6636C58.4822 32.6067 58.5393 32.458 58.4824 32.3302C58.4397 32.2344 58.3455 32.1783 58.2471 32.1803ZM28.1102 33.7412C28.0121 33.7494 27.9242 33.8149 27.8917 33.9147C27.8484 34.0477 27.9205 34.1897 28.0535 34.233L30.8228 35.1354C30.9558 35.1787 31.0978 35.1065 31.1411 34.9735C31.1844 34.8405 31.1123 34.6985 30.9793 34.6552L28.21 33.7528C28.1768 33.742 28.1429 33.7385 28.1102 33.7412V33.7412ZM58.8935 33.752C58.8608 33.749 58.827 33.7526 58.7937 33.7636L56.0238 34.664C55.8908 34.7073 55.8185 34.8492 55.8618 34.9822C55.905 35.1153 56.0469 35.1875 56.18 35.1443L58.9498 34.2439C59.0828 34.2007 59.1552 34.0587 59.112 33.9257C59.0795 33.8259 58.9915 33.7603 58.8935 33.752V33.752ZM27.7068 35.3906C27.5891 35.3894 27.4836 35.4711 27.4582 35.5908C27.4291 35.7276 27.5159 35.8612 27.6527 35.8903L28.8511 36.145C28.988 36.1741 29.1215 36.0872 29.1506 35.9504C29.1797 35.8136 29.0929 35.68 28.9561 35.6509L27.7578 35.3963C27.7407 35.3927 27.7236 35.3909 27.7068 35.3909V35.3906ZM59.2937 35.393C59.2769 35.3931 59.26 35.3954 59.2429 35.3984L58.0444 35.653C57.9076 35.6821 57.8208 35.8155 57.8499 35.9523C57.879 36.0892 58.0125 36.176 58.1494 36.147L59.3477 35.8924C59.4845 35.8633 59.5714 35.7298 59.5423 35.5929C59.5169 35.4732 59.4114 35.3917 59.2938 35.3927L59.2937 35.393ZM27.4014 37.0497C27.2843 37.0609 27.1879 37.1528 27.175 37.2745C27.1603 37.4136 27.2604 37.5375 27.3995 37.5522L30.296 37.8584C30.4351 37.8731 30.559 37.7729 30.5737 37.6338C30.5884 37.4947 30.4882 37.3708 30.3491 37.3562L27.4526 37.0499C27.4352 37.0481 27.4181 37.0481 27.4014 37.0497V37.0497ZM59.6013 37.0715C59.5845 37.0697 59.5673 37.0697 59.5499 37.0717L56.6532 37.374C56.514 37.3885 56.4137 37.5122 56.4282 37.6513C56.4427 37.7905 56.5664 37.8908 56.7056 37.8763L59.6023 37.574C59.7415 37.5595 59.8418 37.4358 59.8273 37.2966C59.8146 37.1749 59.7183 37.0829 59.6013 37.0715L59.6013 37.0715ZM27.3523 38.748C27.2125 38.748 27.0999 38.8606 27.0999 39.0005C27.0999 39.1404 27.2125 39.253 27.3523 39.253H28.5775C28.7174 39.253 28.8301 39.1404 28.8301 39.0005C28.8301 38.8606 28.7174 38.748 28.5775 38.748H27.3523ZM58.4225 38.748C58.2826 38.748 58.1699 38.8606 58.1699 39.0005C58.1699 39.1404 58.2826 39.253 58.4225 39.253H59.6476C59.7875 39.253 59.9001 39.1404 59.9001 39.0005C59.9001 38.8606 59.7875 38.748 59.6476 38.748H58.4225ZM30.3457 40.1245C30.3289 40.1227 30.3118 40.1227 30.2944 40.1247L27.3976 40.427C27.2584 40.4416 27.1581 40.5653 27.1726 40.7044C27.1872 40.8435 27.3108 40.9439 27.45 40.9293L30.3469 40.627C30.486 40.6125 30.5863 40.4888 30.5718 40.3497C30.5591 40.2279 30.4628 40.1359 30.3457 40.1245H30.3457ZM56.6527 40.1424C56.5356 40.1536 56.4392 40.2455 56.4264 40.3672C56.4117 40.5063 56.5118 40.6302 56.6509 40.6449L59.5473 40.9511C59.6865 40.9658 59.8103 40.8656 59.825 40.7265C59.8397 40.5874 59.7395 40.4635 59.6004 40.4489L56.7041 40.1426C56.6867 40.1408 56.6695 40.1408 56.6527 40.1424L56.6527 40.1424ZM28.9017 41.8482C28.8849 41.8484 28.8678 41.85 28.8507 41.8536L27.6523 42.1082C27.5154 42.1373 27.4287 42.2709 27.4577 42.4077C27.4868 42.5445 27.6204 42.6313 27.7572 42.6022L28.9557 42.3478C29.0925 42.3187 29.1793 42.1851 29.1502 42.0483C29.1248 41.9285 29.0194 41.8471 28.9017 41.8481L28.9017 41.8482ZM58.0979 41.8506C57.9803 41.8494 57.8749 41.931 57.8494 42.0507C57.8203 42.1876 57.907 42.3211 58.0439 42.3502L59.2423 42.6049C59.3791 42.634 59.5127 42.5473 59.5418 42.4105C59.5709 42.2736 59.4841 42.14 59.3472 42.1109L58.1489 41.8562C58.1318 41.8526 58.1147 41.8508 58.0979 41.8508L58.0979 41.8506ZM30.9198 42.8452C30.8871 42.8422 30.8533 42.8458 30.8201 42.8568L28.0501 43.7572C27.9171 43.8005 27.8448 43.9424 27.8881 44.0754C27.9313 44.2085 28.0733 44.2807 28.2063 44.2375L30.9761 43.3371C31.1092 43.2938 31.1815 43.1519 31.1383 43.0189C31.1058 42.9191 31.0178 42.8535 30.9198 42.8452V42.8452ZM56.0774 42.8541C55.9794 42.8623 55.8914 42.9279 55.8589 43.0276C55.8156 43.1606 55.8877 43.3026 56.0208 43.346L58.79 44.2483C58.9231 44.2916 59.065 44.2194 59.1084 44.0865C59.1517 43.9535 59.0796 43.8115 58.9465 43.7681L56.1773 42.8658C56.144 42.8549 56.1101 42.8514 56.0774 42.8541V42.8541ZM29.8628 44.8173C29.83 44.8179 29.7968 44.825 29.7648 44.8392L28.6455 45.3375C28.5177 45.3944 28.4607 45.5431 28.5175 45.6709C28.5745 45.7987 28.7231 45.8557 28.8509 45.7988L29.9702 45.3006C30.098 45.2437 30.1551 45.095 30.0982 44.9672C30.0555 44.8714 29.9612 44.8153 29.8628 44.8173V44.8173ZM57.1331 44.8269C57.0347 44.8245 56.9404 44.8808 56.8976 44.9766C56.8406 45.1044 56.8976 45.2531 57.0253 45.3101L58.1442 45.8092C58.272 45.8662 58.4207 45.8092 58.4777 45.6815C58.5347 45.5537 58.4777 45.405 58.35 45.348L57.2311 44.8489C57.1992 44.8346 57.1659 44.8275 57.1331 44.8269V44.8269ZM32.042 45.3741C31.9936 45.3705 31.9435 45.3813 31.8981 45.4075L29.3758 46.8638C29.2546 46.9338 29.2134 47.0876 29.2834 47.2087C29.3533 47.3299 29.5071 47.3711 29.6283 47.3011L32.1506 45.845C32.2717 45.775 32.3129 45.6211 32.243 45.4999C32.1993 45.4242 32.1228 45.3797 32.042 45.3741V45.3741ZM54.958 45.3741C54.8772 45.3795 54.8007 45.4242 54.757 45.4999C54.687 45.6211 54.7282 45.775 54.8494 45.8449L57.3717 47.3011C57.4928 47.3711 57.6467 47.3299 57.7167 47.2087C57.7866 47.0876 57.7454 46.9337 57.6243 46.8638L55.1019 45.4075C55.0564 45.3813 55.0065 45.3707 54.958 45.374V45.3741ZM31.4129 47.5111C31.3643 47.5129 31.3157 47.5286 31.2732 47.5594L30.2816 48.2789C30.1684 48.361 30.1433 48.5183 30.2254 48.6316C30.3076 48.7448 30.4649 48.7698 30.5781 48.6876L31.5698 47.9682C31.6831 47.886 31.7081 47.7287 31.626 47.6155C31.5746 47.5447 31.4938 47.5083 31.4129 47.5111V47.5111ZM55.5811 47.5196C55.5001 47.5166 55.4194 47.5531 55.368 47.6238C55.2858 47.737 55.3107 47.8944 55.4239 47.9766L56.4151 48.6967C56.5282 48.779 56.6855 48.754 56.7677 48.6408C56.8499 48.5276 56.8251 48.3704 56.7119 48.2882L55.7208 47.568C55.6784 47.5372 55.6296 47.5213 55.5811 47.5196L55.5811 47.5196ZM33.6587 47.6068C33.5943 47.6032 33.5285 47.6247 33.4765 47.6714L31.3105 49.6186C31.2064 49.7121 31.198 49.8711 31.2915 49.9752C31.385 50.0792 31.5441 50.0876 31.6481 49.9941L33.8141 48.047C33.9182 47.9535 33.9266 47.7944 33.8331 47.6904C33.7864 47.6384 33.7232 47.6103 33.6587 47.6068ZM53.3352 47.6138C53.2707 47.6174 53.2075 47.6453 53.1607 47.6973C53.0671 47.8012 53.0755 47.9602 53.1795 48.0538L55.3441 50.0025C55.4481 50.0961 55.6072 50.0877 55.7008 49.9838C55.7944 49.8798 55.786 49.7208 55.6821 49.6272L53.5173 47.6785C53.4653 47.6318 53.3997 47.6104 53.3352 47.6138V47.6138ZM35.7136 49.4636C35.6327 49.4606 35.5519 49.4968 35.5005 49.5676L33.7871 51.9228C33.7048 52.0359 33.7296 52.1933 33.8427 52.2756C33.9558 52.3579 34.1131 52.3331 34.1954 52.22L35.9088 49.8647C35.9911 49.7516 35.9663 49.5942 35.8533 49.5119C35.8108 49.4811 35.7622 49.4653 35.7136 49.4636ZM51.2722 49.4741C51.2236 49.4759 51.175 49.4915 51.1325 49.5223C51.0193 49.6045 50.9943 49.7617 51.0764 49.875L52.7866 52.2325C52.8687 52.3458 53.026 52.3708 53.1392 52.2887C53.2525 52.2065 53.2775 52.0493 53.1954 51.936L51.4852 49.5785C51.4338 49.5077 51.3532 49.4714 51.2722 49.4742V49.4741ZM33.5018 49.8379C33.4373 49.8415 33.3741 49.8694 33.3273 49.9214L32.5076 50.8318C32.414 50.9358 32.4223 51.0949 32.5263 51.1885C32.6302 51.2821 32.7892 51.2737 32.8828 51.1697L33.7027 50.2593C33.7963 50.1554 33.7879 49.9962 33.684 49.9026C33.632 49.8558 33.5663 49.8345 33.5018 49.8379L33.5018 49.8379ZM53.4966 49.8391C53.4322 49.8355 53.3665 49.8571 53.3145 49.9039C53.2105 49.9974 53.2022 50.1565 53.2957 50.2604L54.1154 51.1711C54.209 51.275 54.368 51.2834 54.4719 51.1898C54.5759 51.0962 54.5843 50.9371 54.4907 50.8331L53.671 49.9226C53.6242 49.8706 53.561 49.8425 53.4966 49.8391L53.4966 49.8391ZM38.1063 50.8491C38.0079 50.8467 37.9136 50.9031 37.8709 50.9989L36.6842 53.6587C36.6272 53.7865 36.6842 53.9352 36.8119 53.9922C36.9397 54.0492 37.0884 53.9922 37.1454 53.8645L38.3321 51.2046C38.3891 51.0769 38.3321 50.9281 38.2044 50.8712C38.1724 50.8569 38.1391 50.8498 38.1063 50.8491ZM48.8777 50.8565C48.8448 50.8571 48.8115 50.8641 48.7796 50.8783C48.6518 50.9352 48.5946 51.0838 48.6514 51.2116L49.8344 53.8731C49.8912 54.0009 50.0399 54.0581 50.1677 54.0013C50.2955 53.9444 50.3527 53.7958 50.2959 53.668L49.1129 51.0065C49.0703 50.9107 48.9761 50.8546 48.8777 50.8565ZM36.0211 51.6715C35.9403 51.6769 35.8638 51.7217 35.8201 51.7974L35.2075 52.8584C35.1376 52.9795 35.1788 53.1334 35.3 53.2033C35.4211 53.2733 35.5749 53.232 35.6449 53.1109L36.2575 52.0499C36.3274 51.9287 36.2862 51.7749 36.165 51.705C36.1196 51.6787 36.0696 51.6681 36.0211 51.6715V51.6715ZM50.9789 51.6715C50.9304 51.6679 50.8804 51.6788 50.835 51.705C50.7139 51.7749 50.6727 51.9287 50.7426 52.0499L51.3552 53.1109C51.4251 53.2321 51.5789 53.2733 51.7001 53.2033C51.8212 53.1334 51.8625 52.9796 51.7925 52.8584L51.1799 51.7974C51.1362 51.7217 51.0597 51.6772 50.9789 51.6715V51.6715ZM40.748 51.7095C40.6304 51.7083 40.525 51.7899 40.4996 51.9096L39.8943 54.7587C39.8652 54.8955 39.952 55.0291 40.0888 55.0581C40.2257 55.0872 40.3592 55.0004 40.3883 54.8636L40.9936 52.0146C41.0227 51.8777 40.9359 51.7442 40.799 51.7151C40.7819 51.7115 40.7648 51.7097 40.748 51.7097L40.748 51.7095ZM46.243 51.7113C46.2262 51.7115 46.2092 51.7131 46.1921 51.7167C46.0552 51.7457 45.9684 51.8791 45.9973 52.016L46.6005 54.8655C46.6295 55.0023 46.763 55.0892 46.8999 55.0602C47.0368 55.0312 47.1236 54.8977 47.0947 54.7609L46.4913 51.9116C46.466 51.7918 46.3606 51.7104 46.243 51.7113L46.243 51.7113ZM43.5 51.9987C43.3601 51.9987 43.2475 52.1113 43.2475 52.2512V55.1638C43.2475 55.3037 43.3601 55.4163 43.5 55.4163C43.6399 55.4163 43.7525 55.3037 43.7525 55.1638V52.2512C43.7525 52.1113 43.6399 51.9987 43.5 51.9987ZM38.8649 52.9399C38.7668 52.9482 38.6788 53.0138 38.6464 53.1136L38.2677 54.2788C38.2244 54.4118 38.2967 54.5537 38.4297 54.597C38.5628 54.6402 38.7047 54.5678 38.748 54.4348L39.1267 53.2697C39.1699 53.1367 39.0976 52.9948 38.9646 52.9515C38.9314 52.9407 38.8976 52.9371 38.8649 52.9399V52.9399ZM48.1331 52.9405C48.1004 52.9375 48.0667 52.9411 48.0334 52.952C47.9004 52.9953 47.828 53.1372 47.8712 53.2703L48.2498 54.4355C48.2931 54.5685 48.435 54.6407 48.568 54.5975C48.7011 54.5543 48.7734 54.4124 48.7302 54.2794L48.3515 53.1142C48.319 53.0144 48.2312 52.9488 48.1331 52.9405V52.9405ZM41.915 53.5894C41.7979 53.6007 41.7014 53.6926 41.6886 53.8144L41.5606 55.0329C41.5459 55.172 41.6462 55.2957 41.7853 55.3103C41.9244 55.325 42.0482 55.2247 42.0629 55.0856L42.1909 53.8672C42.2055 53.7281 42.1053 53.6043 41.9662 53.5896C41.9488 53.5878 41.9317 53.5878 41.915 53.5894L41.915 53.5894ZM45.0748 53.5906C45.0581 53.5888 45.0409 53.5888 45.0235 53.5908C44.8843 53.6054 44.784 53.7291 44.7985 53.8682L44.9258 55.0868C44.9403 55.2259 45.064 55.3261 45.2032 55.3116C45.3423 55.2971 45.4426 55.1734 45.4281 55.0343L45.3009 53.8158C45.2882 53.694 45.1919 53.602 45.0748 53.5906L45.0748 53.5906Z" fill="#F4F2F3"/>
<g opacity="0.409" filter="url(#filter1_f)">
<path d="M55.3352 28.8999L41.5201 36.9265L32.7852 50.6777L45.5636 41.2129L55.3352 28.8999Z" fill="black"/>
</g>
<path d="M45.4799 41.0734L41.5201 36.9266L55.5671 27.4771L45.4799 41.0734Z" fill="#FF5150"/>
<path d="M45.4799 41.0739L41.52 36.927L31.4328 50.5233L45.4799 41.0739Z" fill="#F1F1F1"/>
<path opacity="0.243" d="M31.4329 50.523L45.4799 41.0735L55.5672 27.4772L31.4329 50.523Z" fill="black"/>
<defs>
<filter id="filter0_f" x="0.5" y="0" width="85" height="85" filterUnits="userSpaceOnUse" color-interpolation-filters="sRGB">
<feFlood flood-opacity="0" result="BackgroundImageFix"/>
<feBlend mode="normal" in="SourceGraphic" in2="BackgroundImageFix" result="shape"/>
<feGaussianBlur stdDeviation="7" result="effect1_foregroundBlur"/>
</filter>
<filter id="filter1_f" x="31.6362" y="27.7509" width="24.848" height="24.0758" filterUnits="userSpaceOnUse" color-interpolation-filters="sRGB">
<feFlood flood-opacity="0" result="BackgroundImageFix"/>
<feBlend mode="normal" in="SourceGraphic" in2="BackgroundImageFix" result="shape"/>
<feGaussianBlur stdDeviation="0.574499" result="effect1_foregroundBlur"/>
</filter>
<linearGradient id="paint0_linear" x1="30.5" y1="61.5" x2="66" y2="19.5" gradientUnits="userSpaceOnUse">
<stop stop-color="#117EDE"/>
<stop offset="1" stop-color="#0CBBEB"/>
</linearGradient>
<radialGradient id="paint1_radial" cx="0" cy="0" r="1" gradientUnits="userSpaceOnUse" gradientTransform="translate(43 38.5) rotate(90) scale(28.5)">
<stop stop-color="#E7E5E2"/>
<stop offset="1" stop-color="white"/>
</radialGradient>
<linearGradient id="paint2_linear" x1="43.5" y1="57.7917" x2="43.5" y2="20.2084" gradientUnits="userSpaceOnUse">
<stop stop-color="#BDBDBD"/>
<stop offset="1" stop-color="white"/>
</linearGradient>
<radialGradient id="paint3_radial" cx="0" cy="0" r="1" gradientUnits="userSpaceOnUse" gradientTransform="translate(43.5788 36.4747) scale(18.7918)">
<stop stop-color="#06C2E7"/>
<stop offset="0.25" stop-color="#0DB8EC"/>
<stop offset="0.5" stop-color="#12AEF1"/>
<stop offset="0.75" stop-color="#1F86F9"/>
<stop offset="1" stop-color="#107DDD"/>
</radialGradient>
</defs>
</svg>
