<svg xmlns="http://www.w3.org/2000/svg" xmlns:xlink="http://www.w3.org/1999/xlink" width="24" height="24" viewBox="0 0 24 24">
    <defs>
        <path id="a" d="M22.963 8.912c-.1-.4-.399-.599-.798-.699l-6.378-.898-2.89-5.79c-.299-.7-1.495-.7-1.794 0l-2.89 5.69-6.279.998c-.398 0-.697.3-.897.7-.1.399 0 .798.3.998l4.584 4.492-1.097 6.39c-.1.4.1.799.4.998.298.2.697.3 1.095.1L12 18.896l5.68 2.995h.499c.2 0 .399-.1.598-.2.299-.2.498-.599.399-.998l-1.097-6.39 4.585-4.492c.299-.2.398-.6.299-.899zm-6.678 4.393c-.199.3-.299.6-.299.899l.798 4.892-4.385-2.297c-.3-.2-.598-.2-.897 0l-4.385 2.297.897-4.892c0-.3-.1-.6-.3-.899L4.128 9.911l4.883-.7c.3 0 .598-.299.797-.498L12 4.22l2.193 4.393c.1.3.398.499.797.499l4.883.699-3.588 3.494z"/>
    </defs>
    <g fill="none" fill-rule="evenodd">
        <mask id="b" fill="#fff">
            <use xlink:href="#a"/>
        </mask>
        <use fill="#000" fill-rule="nonzero" xlink:href="#a"/>
        <g fill="#4A4A4A" mask="url(#b)">
            <path d="M0 0h24v24H0z"/>
        </g>
    </g>
</svg>
