<?xml version="1.0" encoding="UTF-8"?>
<svg width="40px" height="41px" viewBox="0 0 40 41" version="1.1" xmlns="http://www.w3.org/2000/svg" xmlns:xlink="http://www.w3.org/1999/xlink">
    <!-- Generator: Sketch 47.1 (45422) - http://www.bohemiancoding.com/sketch -->
    <title>icon / success</title>
    <desc>Created with Sketch.</desc>
    <defs></defs>
    <g id="Symbols" stroke="none" stroke-width="1" fill="none" fill-rule="evenodd">
        <g id="icon-/-success" fill="#B7D43F">
            <path d="M30.0390625,3.1953125 C33.1119945,4.96615469 35.5403557,7.38800547 37.3242188,10.4609375 C39.1080818,13.5338695 40,16.8801902 40,20.5 C40,24.1198098 39.1080818,27.4661305 37.3242188,30.5390625 C35.5403557,33.6119945 33.1119945,36.0403557 30.0390625,37.8242188 C26.9661305,39.6080818 23.6198098,40.5 20,40.5 C16.3801902,40.5 13.0338695,39.6080818 9.9609375,37.8242188 C6.88800547,36.0403557 4.45964434,33.6119945 2.67578125,30.5390625 C0.891918164,27.4661305 0,24.1198098 0,20.5 C0,16.8801902 0.891918164,13.5338695 2.67578125,10.4609375 C4.45964434,7.38800547 6.88800547,4.95964434 9.9609375,3.17578125 C13.0338695,1.39191816 16.3801902,0.5 20,0.5 C23.6198098,0.5 26.9661305,1.39842852 30.0390625,3.1953125 Z M20,38.0390625 C22.3698035,38.0390625 24.6354059,37.5768275 26.796875,36.6523438 C28.9583441,35.72786 30.8203047,34.4778725 32.3828125,32.9023438 C33.9453203,31.326815 35.1887975,29.4583441 36.1132812,27.296875 C37.037765,25.1354059 37.5,22.8698035 37.5,20.5 C37.5,18.1301965 37.037765,15.8645941 36.1132812,13.703125 C35.1887975,11.5416559 33.9453203,9.67969531 32.3828125,8.1171875 C30.8203047,6.55467969 28.9583441,5.31120254 26.796875,4.38671875 C24.6354059,3.46223496 22.3698035,3 20,3 C17.6301965,3 15.3645941,3.46223496 13.203125,4.38671875 C11.0416559,5.31120254 9.17969531,6.55467969 7.6171875,8.1171875 C6.05467969,9.67969531 4.81120254,11.5416559 3.88671875,13.703125 C2.96223496,15.8645941 2.5,18.1301965 2.5,20.5 C2.5,22.4010512 2.79296582,24.2434807 3.37890625,26.0273438 C3.96484668,27.8112068 4.79817168,29.4192637 5.87890625,30.8515625 C6.95964082,32.2838613 8.21613867,33.5468695 9.6484375,34.640625 C11.0807363,35.7343805 12.6887932,36.5742158 14.4726562,37.1601562 C16.2565193,37.7460967 18.0989488,38.0390625 20,38.0390625 Z M27.96875,13.1953125 C28.0468754,13.1171871 28.1380203,13.0520836 28.2421875,13 C28.7890652,12.6614566 29.2968727,12.7265602 29.765625,13.1953125 C30.0000012,13.4296887 30.1171875,13.7226545 30.1171875,14.0742188 C30.1171875,14.425783 30.0000012,14.7187488 29.765625,14.953125 L17.3046875,27.4921875 L17.1484375,27.6484375 C16.9140613,27.9088555 16.6210955,28.0390625 16.2695312,28.0390625 C15.917967,28.0390625 15.6250012,27.9088555 15.390625,27.6484375 L9.1796875,21.4765625 L9.0234375,21.2421875 C8.97135391,21.1640621 8.9322918,21.0794275 8.90625,20.9882812 C8.8802082,20.897135 8.86067715,20.80599 8.84765625,20.7148438 C8.83463535,20.6236975 8.83463535,20.5325525 8.84765625,20.4414062 C8.86067715,20.35026 8.8802082,20.2656254 8.90625,20.1875 C8.9322918,20.1093746 8.97135391,20.02474 9.0234375,19.9335938 C9.07552109,19.8424475 9.12760391,19.7708336 9.1796875,19.71875 C9.44010547,19.458332 9.73958164,19.328125 10.078125,19.328125 C10.4166684,19.328125 10.7161445,19.458332 10.9765625,19.71875 L16.25,24.9921875 L27.96875,13.1953125 Z"></path>
        </g>
    </g>
</svg>