<svg width="25" height="24" viewBox="0 0 25 24" fill="none" xmlns="http://www.w3.org/2000/svg">
<path fill-rule="evenodd" clip-rule="evenodd" d="M2.5 3C2.5 2.44772 2.94772 2 3.5 2H10.5C11.0523 2 11.5 2.44772 11.5 3V10C11.5 10.5523 11.0523 11 10.5 11H3.5C2.94772 11 2.5 10.5523 2.5 10V3ZM4.5 4V9H9.5V4H4.5Z" fill="black"/>
<path fill-rule="evenodd" clip-rule="evenodd" d="M13.5 3C13.5 2.44772 13.9477 2 14.5 2H21.5C22.0523 2 22.5 2.44772 22.5 3V10C22.5 10.5523 22.0523 11 21.5 11H14.5C13.9477 11 13.5 10.5523 13.5 10V3ZM15.5 4V9H20.5V4H15.5Z" fill="black"/>
<path fill-rule="evenodd" clip-rule="evenodd" d="M13.5 14C13.5 13.4477 13.9477 13 14.5 13H21.5C22.0523 13 22.5 13.4477 22.5 14V21C22.5 21.5523 22.0523 22 21.5 22H14.5C13.9477 22 13.5 21.5523 13.5 21V14ZM15.5 15V20H20.5V15H15.5Z" fill="black"/>
<path fill-rule="evenodd" clip-rule="evenodd" d="M2.5 14C2.5 13.4477 2.94772 13 3.5 13H10.5C11.0523 13 11.5 13.4477 11.5 14V21C11.5 21.5523 11.0523 22 10.5 22H3.5C2.94772 22 2.5 21.5523 2.5 21V14ZM4.5 15V20H9.5V15H4.5Z" fill="black"/>
</svg>
