<svg width="18" height="19" viewBox="0 0 18 19" fill="none" xmlns="http://www.w3.org/2000/svg">
<path fill-rule="evenodd" clip-rule="evenodd" d="M8.53955 1.40799C8.81038 1.19734 9.18962 1.19734 9.46045 1.40799L16.2105 6.65799C16.3931 6.80008 16.5 7.01856 16.5 7.25V15.5C16.5 16.0967 16.2629 16.669 15.841 17.091C15.419 17.5129 14.8467 17.75 14.25 17.75H3.75C3.15326 17.75 2.58097 17.5129 2.15901 17.091C1.73705 16.669 1.5 16.0967 1.5 15.5V7.25C1.5 7.01856 1.60685 6.80008 1.78954 6.65799L8.53955 1.40799ZM3 7.61681V15.5C3 15.6989 3.07902 15.8897 3.21967 16.0303C3.36032 16.171 3.55109 16.25 3.75 16.25H14.25C14.4489 16.25 14.6397 16.171 14.7803 16.0303C14.921 15.8897 15 15.6989 15 15.5V7.61681L9 2.95015L3 7.61681Z" fill="black"/>
<path fill-rule="evenodd" clip-rule="evenodd" d="M6 9.5C6 9.08579 6.33579 8.75 6.75 8.75H11.25C11.6642 8.75 12 9.08579 12 9.5V17C12 17.4142 11.6642 17.75 11.25 17.75C10.8358 17.75 10.5 17.4142 10.5 17V10.25H7.5V17C7.5 17.4142 7.16421 17.75 6.75 17.75C6.33579 17.75 6 17.4142 6 17V9.5Z" fill="black"/>
</svg>
