<svg width="719" height="215" viewBox="0 0 719 215" fill="none" xmlns="http://www.w3.org/2000/svg">
<mask id="mask0" mask-type="alpha" maskUnits="userSpaceOnUse" x="0" y="0" width="719" height="215">
<path fill-rule="evenodd" clip-rule="evenodd" d="M0.647949 0H718.15V214.738H0.647949V0Z" fill="white"/>
</mask>
<g mask="url(#mask0)">
<path opacity="0.1" fill-rule="evenodd" clip-rule="evenodd" d="M-139.262 45.8273C8.04868 44.4132 111.35 149.03 174.123 169.284C236.895 189.537 276.13 168.504 315.363 147.474C354.596 126.444 402.985 114.759 477.529 170.842C552.072 226.925 626.447 95.8181 626.447 95.8181C626.447 95.8181 653.939 44.1721 727.257 45.8273C801.575 47.5047 809.737 107.886 829.375 132.018C849.014 156.151 866.957 216.446 1122.15 216.446C1260.67 216.446 1462.03 216.446 1462.03 216.446V231.707C1462.03 231.707 1118.78 237.875 986.721 242.869C885.239 246.712 849.667 282.423 836.576 306.564C823.485 330.704 793.372 401.374 730.53 400.513C667.687 399.651 642.812 377.241 596.991 319.489C551.169 261.737 474.26 282.619 441.564 291.966C408.869 301.313 334.326 320.786 279.399 265.482C224.473 210.177 169.545 225.756 136.852 246.788C104.158 267.82 -13.8327 403.705 -139.262 403.705C-446.84 401.294 -431.162 254.935 -431.162 216.446C-431.162 177.956 -460.312 39.6943 -139.262 45.8273Z" fill="url(#paint0_linear)"/>
<path opacity="0.8" fill-rule="evenodd" clip-rule="evenodd" d="M-964.278 195.8C-964.835 221.919 -379.748 209.574 -290.35 201.289C-200.952 193.003 -189.884 175.15 -177.965 164.313C-166.046 153.477 -122.623 98.0176 -69.8356 97.3768C-17.0481 96.736 11.0492 161.126 51.916 177.701C92.7828 194.276 118.326 165.007 143.869 147.795C169.412 130.583 200.912 121.019 249.444 166.919C297.975 212.819 345.652 119.746 345.652 119.746C345.652 119.746 362.431 82.7706 404.016 82.7706C445.602 82.7706 464.85 128.67 477.621 146.519C490.392 164.368 485.78 207.285 787.684 207.285H1161.44V221.346C1161.44 221.346 655.239 227.442 563.187 229.075C497.063 230.248 490.819 262.226 482.296 280.075C473.773 297.924 454.2 350.201 413.332 349.562C372.463 348.924 356.296 332.35 326.495 289.64C296.694 246.93 247.314 258.404 226.029 266.053C204.744 273.702 156.214 289.64 120.456 244.375C84.6974 199.11 48.9372 223.918 27.6501 241.13C6.36316 258.343 -6.40082 291.051 -51.5311 299.336C-96.6613 307.622 -123.049 276.387 -149.443 259.812C-175.837 243.237 -229.475 220.924 -391.243 223.475C-553.01 226.026 -963.852 220.73 -963.852 220.73L-964.278 195.8Z" fill="url(#paint1_linear)"/>
<path opacity="0.4" fill-rule="evenodd" clip-rule="evenodd" d="M-787.339 204.799C-787.339 204.799 -262.801 201.202 -159.007 197.332C-54.8514 193.461 -23.5345 176.179 -7.11517 166.925C20.3978 151.428 50.8109 112.451 99.0045 114.621C170.736 117.849 161.92 166.848 210.038 182.423C275.874 203.732 367.256 115.984 425.228 170.872C460.617 204.376 513.549 160.249 526.184 141.966C538.819 123.684 561.299 61.0971 625.675 61.0971C690.052 61.0971 717.006 124.721 729.339 140.844C741.673 156.967 749.53 192.529 957.289 195.52C1103.15 197.62 1182.45 199.893 1180.76 199.594H1496.4V221.77C1491.81 221.77 1245.33 226.031 1195.72 226.12C1195.72 226.12 879.682 231.17 804.021 240.856C728.359 250.542 721.974 294.776 712.148 312.857C702.323 330.937 671.862 387.327 624.696 386.685C577.529 386.044 556.073 350.57 521.608 307.33C499.991 280.209 472.394 275.408 447.829 283.157C423.264 290.906 359.563 309.942 310.264 267.659C252.291 217.938 215.568 253.949 187.439 268.879C161.892 282.439 154.03 297.291 107.848 303.101C76.0153 307.105 53.9495 292.478 11.5541 265.008C-26.0467 220.65 -787.602 231.736 -787.602 231.736L-787.339 204.799Z" fill="url(#paint2_linear)"/>
</g>
<defs>
<linearGradient id="paint0_linear" x1="600.228" y1="212.754" x2="600.228" y2="127.97" gradientUnits="userSpaceOnUse">
<stop stop-color="#629FF4"/>
<stop offset="1" stop-color="#59CBB7"/>
</linearGradient>
<linearGradient id="paint1_linear" x1="632.959" y1="247.601" x2="637.273" y2="109.709" gradientUnits="userSpaceOnUse">
<stop stop-color="#629FF4"/>
<stop offset="1" stop-color="#59CBB7"/>
</linearGradient>
<linearGradient id="paint2_linear" x1="1870.23" y1="451.578" x2="1870.23" y2="78.3058" gradientUnits="userSpaceOnUse">
<stop stop-color="#629FF4"/>
<stop offset="1" stop-color="#59CBB7"/>
</linearGradient>
</defs>
</svg>
