<svg width="60" height="57" viewBox="0 0 60 57" fill="none" xmlns="http://www.w3.org/2000/svg">
<mask id="path-1-inside-1" fill="white">
<path fill-rule="evenodd" clip-rule="evenodd" d="M47.0542 6.09437C47.7439 5.45591 47.9399 4.52326 47.9399 3.48445C47.9399 1.83587 46.5662 0.702271 45 0.702271C43.4337 0.702271 42.0813 2.0486 42.0813 3.48445C42.0813 4.50947 42.3171 5.43113 42.991 6.06878L42.5543 16.4238L42.5121 17.4238H43.513H46.6891H47.6906L47.6345 16.4238L47.0542 6.09437ZM46.6329 16.4238L46.0558 6.15045C46.0391 5.85274 46.1561 5.56309 46.3749 5.36053C46.7533 5.01027 46.9399 4.43476 46.9399 3.48445C46.9399 2.47701 46.1072 1.70227 45 1.70227C43.9537 1.70227 43.0813 2.63262 43.0813 3.48445C43.0813 4.38002 43.2895 4.97451 43.6783 5.34245C43.8886 5.54142 44.0023 5.82172 43.9901 6.11092L43.5551 16.4238H46.6329ZM51.6667 23.806H8.33333C4.32467 23.806 1 27.2165 1 31.5181V38.0427C1 42.3444 4.32467 45.7548 8.33333 45.7548H51.6667C55.6753 45.7548 59 42.3444 59 38.0427V31.5181C59 27.2165 55.6753 23.806 51.6667 23.806ZM51.6667 22.806H8.33333C3.73096 22.806 0 26.7065 0 31.5181V38.0427C0 42.8543 3.73096 46.7548 8.33333 46.7548H51.6667C56.269 46.7548 60 42.8543 60 38.0427V31.5181C60 26.7065 56.269 22.806 51.6667 22.806Z"/>
</mask>
<path fill-rule="evenodd" clip-rule="evenodd" d="M47.0542 6.09437C47.7439 5.45591 47.9399 4.52326 47.9399 3.48445C47.9399 1.83587 46.5662 0.702271 45 0.702271C43.4337 0.702271 42.0813 2.0486 42.0813 3.48445C42.0813 4.50947 42.3171 5.43113 42.991 6.06878L42.5543 16.4238L42.5121 17.4238H43.513H46.6891H47.6906L47.6345 16.4238L47.0542 6.09437ZM46.6329 16.4238L46.0558 6.15045C46.0391 5.85274 46.1561 5.56309 46.3749 5.36053C46.7533 5.01027 46.9399 4.43476 46.9399 3.48445C46.9399 2.47701 46.1072 1.70227 45 1.70227C43.9537 1.70227 43.0813 2.63262 43.0813 3.48445C43.0813 4.38002 43.2895 4.97451 43.6783 5.34245C43.8886 5.54142 44.0023 5.82172 43.9901 6.11092L43.5551 16.4238H46.6329ZM51.6667 23.806H8.33333C4.32467 23.806 1 27.2165 1 31.5181V38.0427C1 42.3444 4.32467 45.7548 8.33333 45.7548H51.6667C55.6753 45.7548 59 42.3444 59 38.0427V31.5181C59 27.2165 55.6753 23.806 51.6667 23.806ZM51.6667 22.806H8.33333C3.73096 22.806 0 26.7065 0 31.5181V38.0427C0 42.8543 3.73096 46.7548 8.33333 46.7548H51.6667C56.269 46.7548 60 42.8543 60 38.0427V31.5181C60 26.7065 56.269 22.806 51.6667 22.806Z" fill="white"/>
<path d="M47.0542 6.09437L46.6956 5.7069C46.58 5.81385 46.5182 5.96679 46.5271 6.12398L47.0542 6.09437ZM42.991 6.06878L43.5185 6.09103C43.5249 5.93833 43.4649 5.79033 43.3539 5.68528L42.991 6.06878ZM42.5543 16.4238L43.0818 16.4461L42.5543 16.4238ZM42.5121 17.4238L41.9845 17.4016C41.9785 17.5454 42.0314 17.6854 42.1309 17.7892C42.2305 17.8931 42.3682 17.9518 42.5121 17.9518V17.4238ZM47.6906 17.4238V17.9518C47.8358 17.9518 47.9746 17.8921 48.0743 17.7866C48.1741 17.6811 48.226 17.5392 48.2178 17.3942L47.6906 17.4238ZM47.6345 16.4238L47.1073 16.4535L47.6345 16.4238ZM46.0558 6.15045L45.5286 6.18006L46.0558 6.15045ZM46.6329 16.4238V16.9518C46.7781 16.9518 46.9168 16.8921 47.0166 16.7866C47.1163 16.6811 47.1682 16.5392 47.1601 16.3942L46.6329 16.4238ZM46.3749 5.36053L46.0162 4.97307L46.3749 5.36053ZM43.6783 5.34245L44.0412 4.95895L43.6783 5.34245ZM43.9901 6.11092L43.4625 6.08867L43.9901 6.11092ZM43.5551 16.4238L43.0276 16.4016C43.0215 16.5454 43.0744 16.6854 43.174 16.7892C43.2736 16.8931 43.4112 16.9518 43.5551 16.9518V16.4238ZM47.4119 3.48445C47.4119 4.47654 47.2209 5.22061 46.6956 5.7069L47.4129 6.48183C48.267 5.69121 48.4679 4.56999 48.4679 3.48445H47.4119ZM45 1.23027C46.3239 1.23027 47.4119 2.17439 47.4119 3.48445H48.4679C48.4679 1.49735 46.8086 0.174271 45 0.174271V1.23027ZM42.6093 3.48445C42.6093 2.35696 43.7083 1.23027 45 1.23027V0.174271C43.1592 0.174271 41.5533 1.74023 41.5533 3.48445H42.6093ZM43.3539 5.68528C42.8305 5.19003 42.6093 4.44112 42.6093 3.48445H41.5533C41.5533 4.57782 41.8037 5.67222 42.628 6.45228L43.3539 5.68528ZM43.0818 16.4461L43.5185 6.09103L42.4634 6.04654L42.0267 16.4016L43.0818 16.4461ZM43.0396 17.4461L43.0818 16.4461L42.0267 16.4016L41.9845 17.4016L43.0396 17.4461ZM43.513 16.8958H42.5121V17.9518H43.513V16.8958ZM46.6891 16.8958H43.513V17.9518H46.6891V16.8958ZM47.6906 16.8958H46.6891V17.9518H47.6906V16.8958ZM47.1073 16.4535L47.1635 17.4535L48.2178 17.3942L48.1616 16.3942L47.1073 16.4535ZM46.5271 6.12398L47.1073 16.4535L48.1616 16.3942L47.5814 6.06475L46.5271 6.12398ZM45.5286 6.18006L46.1057 16.4535L47.1601 16.3942L46.583 6.12084L45.5286 6.18006ZM46.0162 4.97307C45.6819 5.28258 45.5031 5.72516 45.5286 6.18006L46.583 6.12084C46.5751 5.98032 46.6303 5.84361 46.7336 5.748L46.0162 4.97307ZM46.4119 3.48445C46.4119 4.38692 46.2307 4.77454 46.0162 4.97307L46.7336 5.748C47.2759 5.24601 47.4679 4.4826 47.4679 3.48445H46.4119ZM45 2.23027C45.8567 2.23027 46.4119 2.80807 46.4119 3.48445H47.4679C47.4679 2.14595 46.3577 1.17427 45 1.17427V2.23027ZM43.6093 3.48445C43.6093 3.23227 43.745 2.91619 44.0163 2.65257C44.2825 2.39381 44.635 2.23027 45 2.23027V1.17427C44.3187 1.17427 43.7118 1.47591 43.2803 1.89528C42.8538 2.30978 42.5533 2.8848 42.5533 3.48445H43.6093ZM44.0412 4.95895C43.8023 4.73282 43.6093 4.31034 43.6093 3.48445H42.5533C42.5533 4.44969 42.7767 5.2162 43.3154 5.72596L44.0412 4.95895ZM44.5176 6.13317C44.5362 5.69126 44.3625 5.26296 44.0412 4.95895L43.3154 5.72596C43.4146 5.81987 43.4683 5.95217 43.4625 6.08867L44.5176 6.13317ZM44.0827 16.4461L44.5176 6.13317L43.4625 6.08867L43.0276 16.4016L44.0827 16.4461ZM46.6329 15.8958H43.5551V16.9518H46.6329V15.8958ZM8.33333 24.334H51.6667V23.278H8.33333V24.334ZM1.528 31.5181C1.528 27.4866 4.63728 24.334 8.33333 24.334V23.278C4.01206 23.278 0.472 26.9463 0.472 31.5181H1.528ZM1.528 38.0427V31.5181H0.472V38.0427H1.528ZM8.33333 45.2268C4.63728 45.2268 1.528 42.0742 1.528 38.0427H0.472C0.472 42.6145 4.01206 46.2828 8.33333 46.2828V45.2268ZM51.6667 45.2268H8.33333V46.2828H51.6667V45.2268ZM58.472 38.0427C58.472 42.0742 55.3627 45.2268 51.6667 45.2268V46.2828C55.9879 46.2828 59.528 42.6145 59.528 38.0427H58.472ZM58.472 31.5181V38.0427H59.528V31.5181H58.472ZM51.6667 24.334C55.3627 24.334 58.472 27.4866 58.472 31.5181H59.528C59.528 26.9463 55.9879 23.278 51.6667 23.278V24.334ZM8.33333 23.334H51.6667V22.278H8.33333V23.334ZM0.528 31.5181C0.528 26.9758 4.04444 23.334 8.33333 23.334V22.278C3.41748 22.278 -0.528 26.4373 -0.528 31.5181H0.528ZM0.528 38.0427V31.5181H-0.528V38.0427H0.528ZM8.33333 46.2268C4.04444 46.2268 0.528 42.585 0.528 38.0427H-0.528C-0.528 43.1235 3.41748 47.2828 8.33333 47.2828V46.2268ZM51.6667 46.2268H8.33333V47.2828H51.6667V46.2268ZM59.472 38.0427C59.472 42.585 55.9556 46.2268 51.6667 46.2268V47.2828C56.5825 47.2828 60.528 43.1235 60.528 38.0427H59.472ZM59.472 31.5181V38.0427H60.528V31.5181H59.472ZM51.6667 23.334C55.9556 23.334 59.472 26.9758 59.472 31.5181H60.528C60.528 26.4373 56.5825 22.278 51.6667 22.278V23.334Z" fill="black" mask="url(#path-1-inside-1)"/>
<path d="M43.3335 14.4388C50.4004 14.4388 56.1668 20.4347 56.1668 27.8782V38.7911C56.1668 46.711 50.6833 53.4383 43.2488 54.7157C34.4752 56.2232 25.5251 56.2232 16.7515 54.7157C9.31703 53.4383 3.8335 46.711 3.8335 38.7911V27.8782C3.8335 20.4347 9.59989 14.4388 16.6668 14.4388H43.3335Z" fill="#F3F2F1" stroke="black"/>
<path d="M40 18.957C45.2961 18.957 49.5 22.4274 49.5 27.8782V39.3846C49.5 45.1417 45.3685 49.9504 39.9413 50.5925C33.3348 51.3741 26.6652 51.3741 20.0587 50.5925C14.6315 49.9504 10.5 45.1417 10.5 39.3846V27.8782C10.5 22.4274 14.7039 18.957 20 18.957H40Z" fill="white" stroke="black"/>
<path fill-rule="evenodd" clip-rule="evenodd" d="M22.2581 38.3332H37.5124C37.5124 38.3332 36.7329 43.5605 30.0003 43.5605C23.6139 43.5605 22.2581 38.3332 22.2581 38.3332ZM22.7481 25.5622C22.4495 25.8121 22.2581 26.1978 22.2581 26.6307C22.2581 27.384 22.838 27.9947 23.5533 27.9947C24.0475 27.9947 24.477 27.7032 24.6954 27.2746C25.019 27.8568 25.2045 28.5345 25.2045 29.2578C25.2045 31.4292 23.533 33.1894 21.4711 33.1894C19.4093 33.1894 17.7378 31.4292 17.7378 29.2578C17.7378 27.0864 19.4093 25.3262 21.4711 25.3262C21.9197 25.3262 22.3497 25.4095 22.7481 25.5622ZM39.7335 25.5128C39.522 25.7613 39.3935 26.0896 39.3935 26.4495C39.3935 27.225 39.9904 27.8536 40.7268 27.8536C41.1744 27.8536 41.5706 27.6213 41.8124 27.265C42.1393 27.8493 42.3268 28.5305 42.3268 29.2578C42.3268 31.4292 40.6553 33.1894 38.5935 33.1894C36.5316 33.1894 34.8601 31.4292 34.8601 29.2578C34.8601 27.0864 36.5316 25.3262 38.5935 25.3262C38.991 25.3262 39.3741 25.3916 39.7335 25.5128Z" fill="#000007"/>
</svg>
