<svg width="720" height="214" viewBox="0 0 720 214" fill="none" xmlns="http://www.w3.org/2000/svg">
<mask id="mask0" mask-type="alpha" maskUnits="userSpaceOnUse" x="0" y="0" width="720" height="214">
<path fill-rule="evenodd" clip-rule="evenodd" d="M0.647949 0H719.149V213.739H0.647949V0Z" fill="white"/>
</mask>
<g mask="url(#mask0)">
<path opacity="0.1" fill-rule="evenodd" clip-rule="evenodd" d="M96.2311 45.6141C237.822 44.2066 337.111 148.337 397.446 168.496C457.781 188.655 495.493 167.72 533.202 146.788C570.912 125.855 617.421 114.225 689.07 170.047C760.719 225.869 832.206 95.3724 832.206 95.3724C832.206 95.3724 858.63 43.9666 929.101 45.6141C1000.53 47.2837 1008.38 107.384 1027.25 131.404C1046.13 155.424 1063.38 215.439 1308.66 215.439C1441.8 215.439 1635.34 215.439 1635.34 215.439V230.629C1635.34 230.629 1305.42 236.768 1178.49 241.74C1080.95 245.565 1046.76 281.109 1034.17 305.138C1021.59 329.166 992.648 399.507 932.246 398.65C871.844 397.792 847.935 375.486 803.893 318.003C759.851 260.519 685.928 281.304 654.503 290.608C623.077 299.911 551.428 319.294 498.635 264.247C445.841 209.2 393.046 224.706 361.623 245.64C330.199 266.574 216.79 401.827 96.2311 401.827C-199.403 399.428 -184.333 253.749 -184.333 215.439C-184.333 177.129 -212.352 39.5096 96.2311 45.6141Z" fill="url(#paint0_linear)"/>
<path opacity="0.8" fill-rule="evenodd" clip-rule="evenodd" d="M-928.802 194.889C-929.338 220.887 -366.972 208.6 -281.045 200.352C-195.118 192.105 -184.48 174.335 -173.024 163.549C-161.568 152.763 -119.832 97.5617 -69.0941 96.9239C-18.3564 96.2861 8.64972 160.376 47.9296 176.875C87.2094 193.373 111.76 164.24 136.311 147.107C160.862 129.975 191.14 120.457 237.786 166.143C284.433 211.829 330.259 119.189 330.259 119.189C330.259 119.189 346.386 82.3857 386.357 82.3857C426.328 82.3857 444.828 128.072 457.103 145.838C469.379 163.604 464.945 206.321 755.125 206.321H1114.36V220.316C1114.36 220.316 627.824 226.384 539.346 228.01C475.79 229.177 469.788 261.006 461.596 278.772C453.404 296.538 434.592 348.572 395.31 347.937C356.029 347.301 340.489 330.805 311.846 288.293C283.202 245.782 235.739 257.202 215.281 264.815C194.822 272.429 148.177 288.293 113.807 243.239C79.4378 198.184 45.0664 222.877 24.606 240.009C4.14563 257.141 -8.12262 289.697 -51.5004 297.944C-94.8781 306.191 -120.241 275.102 -145.61 258.604C-170.979 242.105 -222.534 219.897 -378.02 222.436C-533.506 224.975 -928.393 219.704 -928.393 219.704L-928.802 194.889Z" fill="url(#paint1_linear)"/>
<path opacity="0.4" fill-rule="evenodd" clip-rule="evenodd" d="M-758.735 203.847C-758.735 203.847 -254.567 200.266 -154.803 196.414C-54.6921 192.561 -24.5912 175.36 -8.80957 166.149C17.6349 150.723 46.8671 111.928 93.1892 114.088C162.135 117.301 153.662 166.072 199.911 181.574C263.19 202.784 351.024 115.445 406.744 170.077C440.76 203.426 491.636 159.503 503.78 141.306C515.924 123.109 537.531 60.8129 599.408 60.8129C661.285 60.8129 687.192 124.141 699.046 140.189C710.901 156.237 718.453 191.634 918.144 194.61C1058.34 196.7 1134.56 198.963 1132.94 198.665H1436.32V220.739C1431.91 220.739 1195 224.979 1147.32 225.068C1147.32 225.068 843.55 230.095 770.827 239.736C698.104 249.377 691.967 293.405 682.523 311.401C673.079 329.398 643.801 385.525 598.466 384.887C553.132 384.248 532.508 348.939 499.382 305.901C478.604 278.906 452.079 274.127 428.468 281.84C404.856 289.553 343.63 308.5 296.245 266.414C240.523 216.924 205.226 252.768 178.19 267.628C153.635 281.125 146.078 295.908 101.689 301.691C71.0928 305.677 49.8838 291.117 9.1347 263.776C-27.0059 219.624 -758.987 230.658 -758.987 230.658L-758.735 203.847Z" fill="url(#paint2_linear)"/>
</g>
<defs>
<linearGradient id="paint0_linear" x1="1635.34" y1="45.4172" x2="-184.995" y2="45.4172" gradientUnits="userSpaceOnUse">
<stop stop-color="#F89096"/>
<stop offset="1" stop-color="#B1B4E5"/>
</linearGradient>
<linearGradient id="paint1_linear" x1="-152.399" y1="83.5492" x2="-152.097" y2="226.621" gradientUnits="userSpaceOnUse">
<stop stop-color="#FF4F5E"/>
<stop offset="1" stop-color="#B1B4E5"/>
</linearGradient>
<linearGradient id="paint2_linear" x1="54.1679" y1="68.9067" x2="54.1679" y2="232.079" gradientUnits="userSpaceOnUse">
<stop stop-color="#F89096"/>
<stop offset="1" stop-color="#B1B4E5"/>
</linearGradient>
</defs>
</svg>
