<svg width="18" height="19" viewBox="0 0 18 19" fill="none" xmlns="http://www.w3.org/2000/svg">
<path fill-rule="evenodd" clip-rule="evenodd" d="M2.25 11C2.66421 11 3 11.3358 3 11.75V14.75C3 14.9489 3.07902 15.1397 3.21967 15.2803C3.36032 15.421 3.55109 15.5 3.75 15.5H14.25C14.4489 15.5 14.6397 15.421 14.7803 15.2803C14.921 15.1397 15 14.9489 15 14.75V11.75C15 11.3358 15.3358 11 15.75 11C16.1642 11 16.5 11.3358 16.5 11.75V14.75C16.5 15.3467 16.2629 15.919 15.841 16.341C15.419 16.7629 14.8467 17 14.25 17H3.75C3.15326 17 2.58097 16.7629 2.15901 16.341C1.73705 15.919 1.5 15.3467 1.5 14.75V11.75C1.5 11.3358 1.83579 11 2.25 11Z" fill="black"/>
<path fill-rule="evenodd" clip-rule="evenodd" d="M8.46967 2.21967C8.76256 1.92678 9.23744 1.92678 9.53033 2.21967L13.2803 5.96967C13.5732 6.26256 13.5732 6.73744 13.2803 7.03033C12.9874 7.32322 12.5126 7.32322 12.2197 7.03033L9 3.81066L5.78033 7.03033C5.48744 7.32322 5.01256 7.32322 4.71967 7.03033C4.42678 6.73744 4.42678 6.26256 4.71967 5.96967L8.46967 2.21967Z" fill="black"/>
<path fill-rule="evenodd" clip-rule="evenodd" d="M9 2C9.41421 2 9.75 2.33579 9.75 2.75V11.75C9.75 12.1642 9.41421 12.5 9 12.5C8.58579 12.5 8.25 12.1642 8.25 11.75V2.75C8.25 2.33579 8.58579 2 9 2Z" fill="black"/>
</svg>
