<svg width="510" height="179" viewBox="0 0 510 179" fill="none" xmlns="http://www.w3.org/2000/svg">
<mask id="mask0" mask-type="alpha" maskUnits="userSpaceOnUse" x="0" y="0" width="510" height="179">
<path d="M0 30C0 13.4314 13.4315 0 30 0H480C496.569 0 510 13.4315 510 30V178.65H0V30Z" fill="white"/>
</mask>
<g mask="url(#mask0)">
<g style="mix-blend-mode:multiply">
<path fill-rule="evenodd" clip-rule="evenodd" d="M-375.779 -23.3645C-210.676 -25.1482 -94.8974 106.817 -24.5425 132.365C45.8123 157.912 89.7863 131.381 133.758 104.853C177.73 78.3256 231.963 63.5864 315.51 134.33C399.058 205.073 482.416 39.6944 482.416 39.6944C482.416 39.6944 513.229 -25.4523 595.402 -23.3645C678.697 -21.2486 687.845 54.9165 709.855 85.3574C731.865 115.798 751.976 191.855 1038 191.855C1193.24 191.855 1547.96 191.855 1547.96 191.855V211.106C1547.96 211.106 1034.22 218.886 886.206 225.186C772.466 230.034 732.597 282.684 717.925 313.135C703.253 343.587 669.503 432.731 599.07 431.644C528.637 430.557 500.758 402.288 449.402 329.439C398.045 256.59 311.846 275.327 275.202 287.117C238.558 298.907 155.011 323.471 93.4501 253.71C31.8895 183.948 -29.6731 203.6 -66.3152 230.129C-102.957 256.659 -235.2 428.066 -375.779 428.066C-605.416 426.04 -675.675 227.156 -675.675 178.605C-675.675 130.054 -579.612 -27.7468 -375.779 -23.3645Z" fill="url(#paint0_linear)"/>
</g>
<g style="mix-blend-mode:multiply">
<path fill-rule="evenodd" clip-rule="evenodd" d="M-358.731 161.221C-314.892 160.128 -281.323 158.769 -263.581 157.082C-153.443 146.606 -139.807 124.034 -125.123 110.333C-110.44 96.6325 -56.9428 26.5151 8.091 25.705C73.1248 24.8949 107.74 106.303 158.088 127.26C208.436 148.216 239.904 126.452 271.373 104.691C302.842 82.929 341.65 70.8381 401.441 128.87C461.231 186.901 519.969 69.2281 519.969 69.2281C519.969 69.2281 541.382 23.866 591.873 22.4798C642.365 21.0936 666.819 80.5113 682.553 103.078C691.048 115.261 693.3 136.682 752.104 153.816L751.834 203.392C705.756 217.439 696.795 253.704 688.313 271.933C677.812 294.5 653.699 360.595 603.349 359.787C552.999 358.98 533.082 338.026 496.367 284.027C459.653 230.028 398.817 244.534 372.594 254.205C346.37 263.875 286.582 284.027 242.528 226.798C198.474 169.569 154.418 185.692 128.193 207.454C101.967 229.215 86.2422 265.488 30.642 275.964C-24.9581 286.439 -57.468 246.949 -89.9849 225.993C-120.965 206.026 -182.414 179.476 -360.513 179.801C-369.345 179.817 -358.731 161.221 -358.731 161.221Z" fill="url(#paint1_linear)"/>
</g>
<g style="mix-blend-mode:multiply">
<path fill-rule="evenodd" clip-rule="evenodd" d="M-1286.15 183.626C-1286.15 183.626 -639.789 179.083 -511.888 174.196C-383.541 169.308 -344.95 147.485 -324.718 135.799C-290.815 116.229 -253.338 67.0106 -193.951 69.7501C-105.559 73.8272 -116.422 135.701 -57.1288 155.369C23.9975 182.278 136.604 91.7664 208.04 161.077C251.649 203.386 316.875 147.662 332.444 124.576C348.014 101.49 375.715 22.4559 455.043 22.4559C534.372 22.4559 567.586 102.799 582.784 123.159C597.982 143.518 607.664 188.425 863.677 192.202C1043.41 194.854 1141.14 197.724 1139.05 197.346L1528 183.626V205.056C1522.35 205.056 1218.62 210.436 1157.49 210.549C1157.49 210.549 768.044 216.926 674.81 229.158C581.576 241.389 573.708 297.246 561.6 320.078C549.492 342.91 511.957 406.507 453.836 405.697C395.715 404.887 369.275 367.701 326.806 313.099C300.168 278.852 266.161 272.789 235.89 282.574C205.62 292.359 127.125 316.397 66.3755 263.004C-5.06305 200.217 -50.3151 225.397 -84.9766 244.249C-116.457 261.373 -126.145 280.128 -183.053 287.464C-222.279 292.521 -249.47 274.049 -301.712 239.362C-348.046 183.348 -1286.48 197.346 -1286.48 197.346L-1286.15 183.626Z" fill="url(#paint2_linear)"/>
</g>
</g>
<path fill-rule="evenodd" clip-rule="evenodd" d="M0 30C0 13.4314 13.4315 0 30 0H480C496.569 0 510 13.4315 510 30V178.65H0V30Z" fill="url(#paint3_linear)"/>
<mask id="mask1" mask-type="alpha" maskUnits="userSpaceOnUse" x="0" y="0" width="510" height="179">
<path fill-rule="evenodd" clip-rule="evenodd" d="M0 30C0 13.4314 13.4315 0 30 0H480C496.569 0 510 13.4315 510 30V178.65H0V30Z" fill="white"/>
</mask>
<g mask="url(#mask1)">
</g>
<defs>
<linearGradient id="paint0_linear" x1="2275.87" y1="-10.193" x2="1885.52" y2="-1016.73" gradientUnits="userSpaceOnUse">
<stop stop-color="white"/>
<stop offset="1" stop-color="#F3F2F1"/>
</linearGradient>
<linearGradient id="paint1_linear" x1="1117.63" y1="32.2853" x2="747.575" y2="-614.16" gradientUnits="userSpaceOnUse">
<stop stop-color="white"/>
<stop offset="1" stop-color="#F3F2F1"/>
</linearGradient>
<linearGradient id="paint2_linear" x1="2449.32" y1="33.623" x2="2213.43" y2="-880.6" gradientUnits="userSpaceOnUse">
<stop stop-color="white"/>
<stop offset="1" stop-color="#F3F2F1"/>
</linearGradient>
<linearGradient id="paint3_linear" x1="504.084" y1="-2.02325" x2="8.55366" y2="-2.02323" gradientUnits="userSpaceOnUse">
<stop stop-color="white"/>
<stop offset="0.256282" stop-color="white" stop-opacity="0.01"/>
<stop offset="0.727279" stop-color="white" stop-opacity="0.01"/>
<stop offset="1" stop-color="white"/>
</linearGradient>
</defs>
</svg>
