<svg xmlns="http://www.w3.org/2000/svg" width="24.916" height="24.916" viewBox="0 0 24.916 24.916">
  <g id="linkedin-01-stroke-rounded" transform="translate(1 1)">
    <path id="Path_38646" data-name="Path 38646" d="M7,10v8.443" transform="translate(-1.573 -0.954)" fill="none" stroke="#fff" stroke-linecap="round" stroke-linejoin="round" stroke-width="2"/>
    <path id="Path_38647" data-name="Path 38647" d="M11,13.618v4.824m0-4.824a3.618,3.618,0,0,1,7.237,0v4.824M11,13.618V10" transform="translate(-0.748 -0.954)" fill="none" stroke="#fff" stroke-linecap="round" stroke-linejoin="round" stroke-width="2"/>
    <path id="Path_38648" data-name="Path 38648" d="M7.01,7H7" transform="translate(-1.573 -1.572)" fill="none" stroke="#fff" stroke-linecap="round" stroke-linejoin="round" stroke-width="2"/>
    <path id="Path_38649" data-name="Path 38649" d="M2.5,13.958c0-5.4,0-8.1,1.678-9.78S8.557,2.5,13.958,2.5s8.1,0,9.78,1.678,1.678,4.379,1.678,9.78,0,8.1-1.678,9.78-4.379,1.678-9.78,1.678-8.1,0-9.78-1.678S2.5,19.359,2.5,13.958Z" transform="translate(-2.5 -2.5)" fill="none" stroke="#fff" stroke-linejoin="round" stroke-width="2"/>
  </g>
</svg>
