<svg xmlns="http://www.w3.org/2000/svg" width="24.916" height="24.916" viewBox="0 0 24.916 24.916">
  <g id="new-twitter-rectangle-stroke-rounded" transform="translate(1 1)">
    <path id="Path_38653" data-name="Path 38653" d="M2.5,13.958c0-5.4,0-8.1,1.678-9.78S8.557,2.5,13.958,2.5s8.1,0,9.78,1.678,1.678,4.379,1.678,9.78,0,8.1-1.678,9.78-4.379,1.678-9.78,1.678-8.1,0-9.78-1.678S2.5,19.359,2.5,13.958Z" transform="translate(-2.5 -2.5)" fill="none" stroke="#fff" stroke-linecap="round" stroke-linejoin="round" stroke-width="2"/>
    <path id="Path_38654" data-name="Path 38654" d="M7,19.061,12.058,14m7-7L14,12.058m0,0L10.35,7H7l5.058,7M14,12.058l5.058,7h-3.35L12.058,14" transform="translate(-1.572 -1.572)" fill="none" stroke="#fff" stroke-linecap="round" stroke-linejoin="round" stroke-width="1.5"/>
  </g>
</svg>
