<svg xmlns="http://www.w3.org/2000/svg" width="26.122" height="22.503" viewBox="0 0 26.122 22.503">
  <g id="youtube-stroke-rounded" transform="translate(1 1)">
    <path id="Path_38655" data-name="Path 38655" d="M14.061,24a31.222,31.222,0,0,0,6.215-.611c2.423-.494,3.634-.741,4.74-2.162s1.105-3.053,1.105-6.316V12.59c0-3.263,0-4.9-1.105-6.316S22.7,4.6,20.276,4.111a31.918,31.918,0,0,0-12.431,0c-2.423.494-3.634.741-4.74,2.162S2,9.326,2,12.59v2.324c0,3.263,0,4.9,1.105,6.316s2.317,1.668,4.74,2.162A31.223,31.223,0,0,0,14.061,24Z" transform="translate(-2 -3.5)" fill="none" stroke="#fff" stroke-width="2"/>
    <path id="Path_38656" data-name="Path 38656" d="M17.4,13.1c-.179.731-1.131,1.255-3.036,2.305-2.072,1.141-3.107,1.712-3.946,1.492a2.041,2.041,0,0,1-.766-.383C9,15.988,9,14.9,9,12.721s0-3.267.649-3.792a2.04,2.04,0,0,1,.766-.383c.839-.22,1.875.351,3.946,1.492,1.9,1.05,2.857,1.574,3.036,2.305A1.582,1.582,0,0,1,17.4,13.1Z" transform="translate(-0.558 -2.47)" fill="none" stroke="#fff" stroke-linejoin="round" stroke-width="2"/>
  </g>
</svg>
