<svg xmlns="http://www.w3.org/2000/svg" xmlns:xlink="http://www.w3.org/1999/xlink" width="1440" height="434" viewBox="0 0 1440 434">
    <defs>
        <path id="a" d="M0 0h1440v643H0z"/>
        <path id="c" d="M0 0v389.581c44.976-17.965 107.42-34.53 190.868-34.53 159.801 0 211.78 71.333 316.628 94.28 104.848 22.945 169.69 8.901 235.223-14.926 65.533-23.828 136.894-63.54 261.407 0 124.513 63.54 256.984-65.304 256.984-65.304s43.047-51.185 149.74-51.185c13.24 0 25.597.978 37.15 2.74l-2.138-225.816L0 0z"/>
        <linearGradient id="d" x1="13.204%" x2="103.39%" y1="49.79%" y2="44.014%">
            <stop offset="0%" stop-color="#E7E7E7"/>
            <stop offset="100%" stop-color="#FFF" stop-opacity="0"/>
        </linearGradient>
        <linearGradient id="f" x1="-8.114%" x2="74.832%" y1="49.31%" y2="49.638%">
            <stop offset="0%" stop-color="#FFF" stop-opacity="0"/>
            <stop offset="100%" stop-color="#E7E7E7"/>
        </linearGradient>
    </defs>
    <g fill="none" fill-rule="evenodd" transform="translate(0 -18)">
        <mask id="b" fill="#fff">
            <use xlink:href="#a"/>
        </mask>
        <g mask="url(#b)">
            <g transform="translate(0 -9)">
                <mask id="e" fill="#fff">
                    <use xlink:href="#c"/>
                </mask>
                <path fill="url(#d)" d="M-229.024.251c382.688-3.236 651.045 236.21 814.118 282.565 163.073 46.355 264.999-1.785 366.92-49.918 101.92-48.134 227.624-74.877 421.276 53.484 193.651 128.362 386.864-171.713 386.864-171.713s55.233-91.415 198.09-110.887v471.591H-432.224V4.048C-346.635.678-278.902-.588-229.024.251z" mask="url(#e)" opacity=".5" style="mix-blend-mode:multiply"/>
                <path fill="url(#f)" d="M-808 489.1c213.191-3.003 592.814 35.08 677.568-83.821 34.985-49.081 65.969-201.943 204.604-201.943 155.382 0 130.208 161.135 305.117 161.135 155.668 0 203.054-113.82 466.596 9.22 100.78 47.051 223.012-82.894 257.936-126.402 34.923-43.508 107.589-153.106 241.97-153.106 309.621 0-56.72 369.726 685.003 394.918-95.424 2.316-298.868 121.554-610.332 122.054-331.33.532-784.896.037-1360.701-1.486C-115.992 609.204-405.246 569.015-808 489.1z" mask="url(#e)" opacity=".5" style="mix-blend-mode:multiply"/>
            </g>
        </g>
    </g>
</svg>
