<svg xmlns="http://www.w3.org/2000/svg" xmlns:xlink="http://www.w3.org/1999/xlink" width="400" height="474" viewBox="0 -5 400 474">
    <defs>
        <linearGradient id="a" x1="37.495%" x2="50%" y1="69.54%" y2="54.312%">
            <stop offset="0%" stop-color="#F2F2F2"/>
            <stop offset="100%" stop-color="#E2E2E2"/>
            <stop offset="100%" stop-color="#D9D9D9"/>
        </linearGradient>
        <linearGradient id="b" x1="69.403%" x2="50%" y1="73.333%" y2="54.312%">
            <stop offset="0%" stop-color="#F2F2F2"/>
            <stop offset="100%" stop-color="#E2E2E2"/>
            <stop offset="100%" stop-color="#D9D9D9"/>
        </linearGradient>
        <linearGradient id="c" x1="50%" x2="50%" y1="-8.531%" y2="75.205%">
            <stop offset="0%" stop-color="#98FFF0"/>
            <stop offset="100%" stop-color="#59CBB7"/>
        </linearGradient>
        <radialGradient id="d" cx="51.412%" cy="37.949%" r="110.613%" fx="51.412%" fy="37.949%" gradientTransform="matrix(0 .52584 -.59494 0 .74 .11)">
            <stop offset="0%" stop-color="#FFF"/>
            <stop offset="76.599%" stop-color="#FAFCFF"/>
            <stop offset="100%" stop-color="#F2F2F2"/>
        </radialGradient>
        <path id="e" d="M.141.5h62.133s.102 20.388-31.271 20.388C1.242 20.888.14.5.14.5z"/>
        <filter id="f" width="106.4%" height="119.6%" x="-3.2%" y="-9.8%" filterUnits="objectBoundingBox">
            <feOffset dy="-4" in="SourceAlpha" result="shadowOffsetInner1"/>
            <feComposite in="shadowOffsetInner1" in2="SourceAlpha" k2="-1" k3="1" operator="arithmetic" result="shadowInnerInner1"/>
            <feColorMatrix in="shadowInnerInner1" values="0 0 0 0 0.290196078 0 0 0 0 0.290196078 0 0 0 0 0.290196078 0 0 0 1 0"/>
        </filter>
        <path id="g" d="M90.744 50.3c1.895-15.38 2.3-30.122.16-44.037a4.966 4.966 0 0 0-4.914-4.369 608.382 608.382 0 0 0-79.339-.723 4.949 4.949 0 0 0-4.91 4.374C-.454 18.631-.6 37.55 1.935 50.338A5.131 5.131 0 0 0 6.4 54.6a396.257 396.257 0 0 0 79.878-.035 4.725 4.725 0 0 0 4.466-4.265z"/>
        <filter id="i" width="100%" height="100%" x="0%" y="0%" filterUnits="objectBoundingBox">
            <feGaussianBlur in="SourceGraphic"/>
        </filter>
    </defs>
    <g fill="none" fill-rule="evenodd">
        <circle cx="111" cy="366" r="13" fill="#E5E5E5"/>
        <circle cx="292.153" cy="366" r="13" fill="#E5E5E5"/>
        <path fill="#000" fill-rule="nonzero" d="M111 380.5c-8.008 0-14.5-6.492-14.5-14.5s6.492-14.5 14.5-14.5 14.5 6.492 14.5 14.5-6.492 14.5-14.5 14.5zm0-3c6.351 0 11.5-5.149 11.5-11.5s-5.149-11.5-11.5-11.5-11.5 5.149-11.5 11.5 5.149 11.5 11.5 11.5zM292.153 380.5c-8.008 0-14.5-6.492-14.5-14.5s6.492-14.5 14.5-14.5 14.5 6.492 14.5 14.5-6.492 14.5-14.5 14.5zm0-3c6.351 0 11.5-5.149 11.5-11.5s-5.149-11.5-11.5-11.5-11.5 5.149-11.5 11.5 5.149 11.5 11.5 11.5z"/>
        <path fill="url(#a)" d="M19.526 81.472l-.178-.1a9.087 9.087 0 1 1-15.957-8.674l-.093-.05L34.862 2.317l19.747 6.384-35.083 72.771z" transform="translate(60 255)"/>
        <path fill="url(#b)" d="M259.979 81.472l.177-.1a9.088 9.088 0 1 0 15.958-8.675l.093-.05-31.564-70.339L224.9 8.691l35.079 72.781z" transform="translate(60 255)"/>
        <path fill="#000" fill-rule="nonzero" d="M112.51 264.6l-16.83-5.442-30.442 67.83.24.129-.796 1.344a7.587 7.587 0 1 0 13.323 7.243l.703-1.412.16.09 33.643-69.783zm-40.898 78.303a10.587 10.587 0 0 1-10.206-14.57l-.048-.025 32.686-72.832 22.663 7.327-36.523 75.759-.298-.167a10.588 10.588 0 0 1-8.274 4.508zM319.323 338.566l-36.521-75.773 22.659-7.326 32.686 72.84-.047.025a10.589 10.589 0 0 1-18.481 10.066l-.296.168zm1.473-4.278l.704 1.417a7.588 7.588 0 1 0 13.324-7.243l-.798-1.346.24-.129-30.441-67.838-16.827 5.44 33.637 69.79.16-.091z"/>
        <path fill="#FFF" d="M67.1 341.273l.1-.178a9.1 9.1 0 1 1 8.657-15.99l41.659 19.271 3.3 20.579L67.1 341.273zM332.4 341.273l-.1-.178a9.11 9.11 0 0 0-2.755-17.173c-4.237-.6-5.952 1.089-5.952 1.089l-38.541 16.262v22.517l47.348-22.517z"/>
        <path fill="#000" fill-rule="nonzero" d="M118.898 362.47l-2.737-17.068-40.934-18.936-.14-.074a7.6 7.6 0 1 0-7.23 13.354l1.43.697-.07.124 49.681 21.903zm-58.305-29.114a10.6 10.6 0 0 1 15.963-9.58l42.315 19.574 3.863 24.09-57.751-25.461.188-.335a10.6 10.6 0 0 1-4.578-8.288zM334.494 341.938l-50.942 24.226v-25.886l39.244-16.559c.28-.22.67-.46 1.173-.686 1.495-.67 3.422-.931 5.79-.596a10.61 10.61 0 0 1 4.564 19.197l.171.304zm-4.274-1.483l1.412-.703a7.61 7.61 0 0 0-2.297-14.345c-1.81-.256-3.166-.072-4.14.364-.34.152-.518.278-.55.309l-.204.201-37.89 15.987v19.147l43.755-20.807-.086-.153z"/>
        <g transform="translate(77)">
            <path fill="#000007" fill-rule="nonzero" d="M167.127 9l-1.55 47.763h3.6L167.94 9c-.285-.217-.544-.217-.813 0zm-1.885-2.333c1.357-1.097 3.147-1.097 4.517-.052l1.143.871 1.354 52.277h-9.777l1.694-52.233 1.069-.863zM167.5.092a3.69 3.69 0 1 0-.002 7.38 3.69 3.69 0 0 0 .002-7.38zm0-3a6.69 6.69 0 1 1-.003 13.38 6.69 6.69 0 0 1 .004-13.38z"/>
            <path fill="url(#c)" d="M70.035 223.408s-36.464-2.062-61.694 31.776a66.638 66.638 0 0 0-5.31 8.426 5.069 5.069 0 0 0 .05 5.271c3.1 5.455 12.7 18.869 37.457 19.788 14.226-60.844 29.497-65.261 29.497-65.261zm112.363-.326s37.6.652 59.32 32.737a66.545 66.545 0 0 1 5.3 8.426 5.073 5.073 0 0 1-.05 5.271c-3.1 5.455-11.287 17.838-36.011 18.757-9.366-57.806-28.557-65.191-28.557-65.191h-.002z"/>
            <path fill="#000" fill-rule="nonzero" d="M70.12 221.91l8.776.497-8.444 2.442c-.23.066-.841.385-1.79 1.13-1.704 1.34-3.641 3.454-5.754 6.514-6.16 8.923-12.367 23.663-18.178 45.551a378.953 378.953 0 0 0-2.731 10.967l-.282 1.203-1.235-.046c-11.431-.424-20.56-3.458-27.659-8.466-5.075-3.582-8.562-7.708-11.016-12.029-1.297-2.086-1.322-4.72-.101-6.766a68.155 68.155 0 0 1 5.432-8.62c5.693-7.635 12.224-13.852 19.43-18.772 8.92-6.09 18.464-9.947 28.092-12.006a74.825 74.825 0 0 1 9.976-1.456c2.113-.16 3.844-.194 5.128-.157.17.005.288.01.356.014zm-5.258 3.134a71.835 71.835 0 0 0-9.575 1.399c-9.265 1.98-18.449 5.692-27.027 11.55-6.936 4.735-13.224 10.722-18.713 18.083a65.638 65.638 0 0 0-5.227 8.302c-.683 1.146-.67 2.578.065 3.762 2.281 4.013 5.486 7.807 10.168 11.11 6.367 4.493 14.535 7.298 24.81 7.863.808-3.41 1.631-6.69 2.467-9.839 5.894-22.196 12.23-37.246 18.61-46.486 1.67-2.42 3.268-4.322 4.771-5.77l-.35.026zm123.85.96c4.068 4.1 8.105 10.177 11.849 18.612 4.783 10.776 8.755 24.679 11.66 42.097 10.215-.562 18.061-3.17 23.987-7.344 4.34-3.058 7.065-6.388 9.486-10.644.704-1.134.718-2.566-.002-3.779a65.423 65.423 0 0 0-5.216-8.286c-5.846-8.636-13.187-15.446-21.688-20.633-7.976-4.868-16.532-8.06-25.09-9.9a79.405 79.405 0 0 0-5.944-1.049c.315.292.634.6.957.927zm-3.272-1.202a51.672 51.672 0 0 0-2.292-.186c-.389-.023-.65-.032-.776-.034l.026-3h.28l.26.1c.36.139.946.437 1.724.944.96.626 1.997 1.436 3.092 2.452a68.88 68.88 0 0 0-2.314-.276zm-3.016-3.22c.165.003.466.014.894.038.703.04 1.515.104 2.427.197 2.594.265 5.48.71 8.584 1.377 8.868 1.907 17.736 5.215 26.022 10.272 8.856 5.404 16.514 12.508 22.573 21.462a67.542 67.542 0 0 1 5.383 8.55c1.256 2.11 1.23 4.744-.035 6.78-2.59 4.558-5.584 8.215-10.337 11.564-6.666 4.696-15.495 7.525-26.922 7.95l-1.325.05-.212-1.31c-2.883-17.795-6.864-31.882-11.657-42.679-3.601-8.113-7.435-13.885-11.237-17.715-1.303-1.313-2.5-2.29-3.558-2.979-.6-.391-.998-.594-1.163-.657l.537-1.395.026-1.505z"/>
            <path fill="url(#c)" d="M203.867 117.913c6.208-.11 14.423 4.963 14.423-41.493s-8.215-41.383-14.423-41.493M15.316 117.913c-6.208-.11-15.247 0-15.247-41.493s9.039-41.383 15.247-41.493" transform="translate(15 56)"/>
            <path fill="#000" fill-rule="nonzero" d="M218.894 175.413l-.054-3c.522-.009.918.006 1.855.059.967.054 1.41.068 1.924.048 2.708-.107 4.4-1.458 5.938-5.873 2.106-6.038 3.233-16.98 3.233-34.227 0-17.247-1.127-28.189-3.233-34.227-1.539-4.415-3.23-5.766-5.938-5.873-.515-.02-.957-.006-1.924.048-.937.053-1.333.068-1.855.059l.054-3c.421.008.772-.006 1.634-.054 1.06-.06 1.568-.076 2.21-.05 8.485.335 12.052 10.566 12.052 43.097 0 32.53-3.567 42.762-12.052 43.097-.642.026-1.15.01-2.21-.05-.862-.048-1.213-.062-1.634-.054zm-188.551-3l-.054 3-.097-.002c-2.428-.042-3.606-.161-5.13-.69-7.664-2.653-11.493-14.43-11.493-42.301 0-27.871 3.83-39.648 11.492-42.302 1.525-.528 2.703-.647 5.13-.689.05 0 .05 0 .098-.002l.054 3-.099.001c-2.12.037-3.07.133-4.201.525-5.989 2.074-9.474 12.791-9.474 39.467s3.485 37.393 9.474 39.467c1.13.392 2.082.488 4.201.525l.099.001z"/>
            <path fill="url(#d)" d="M208.91 94.18c0 9.937-1.589 18.175-4.202 25.004-7.968 20.824-25.462 28.55-36.481 31.416-7.33 1.797-23.135 7.055-58.946 7.055-35.811 0-53.188-5.62-59.184-7.055-10.428-2.425-26.701-9.074-34.947-28.232-1.217-2.828-2.259-5.928-3.082-9.328-1.324-5.475-2.08-11.725-2.08-18.862V60.207c0-5.567.476-10.602 1.338-15.153.71-3.755 1.683-7.18 2.867-10.307C26.542 2.117 61.84 2.096 61.84 2.096h95.215s30.557.018 44.756 26.3c4.298 7.954 7.098 18.316 7.098 31.811V94.18zm-12.925 173.09s.218-3.893 4.525-53.327c4.342-49.845-38.105-46.724-38.105-46.724l-54.438-1.243-49.356 1.243s-41.305-4.216-38.1 46.724c3.112 49.525 3.619 53.327 3.619 53.327s1.341 14.458 1.378 19.022c.122 14.972 4.487 66.176 27.925 80.339 30 18.127 83.491 18.563 112.801 0 23.139-14.656 27.8-65.367 27.925-80.339.033-4.564 1.826-19.022 1.826-19.022z" transform="translate(15 56)"/>
            <path fill="#000" fill-rule="nonzero" d="M76.818 59.596l-.098.002c-.113.002-.248.006-.405.011-.453.018-.983.049-1.582.097a55.426 55.426 0 0 0-5.718.777c-5.926 1.11-11.85 3.103-17.367 6.197-9.502 5.327-16.797 13.352-21.053 24.598-1.18 3.118-2.116 6.467-2.795 10.055-.867 4.578-1.312 9.532-1.312 14.874v33.971c0 6.801.696 12.96 2.038 18.509.785 3.244 1.79 6.27 3.002 9.088 6.683 15.526 18.963 23.889 33.918 27.366.635.152 4.258 1.096 5.476 1.398 2.886.717 5.73 1.348 8.904 1.95 12.216 2.315 26.658 3.666 44.455 3.666 18.691 0 33.128-1.385 45.197-3.795 2.76-.552 5.26-1.127 7.925-1.803.95-.241 4.65-1.214 5.446-1.409 15.925-4.142 29-13.624 35.458-30.5 2.687-7.022 4.103-15.15 4.103-24.468v-33.973c0-12.47-2.417-22.769-6.917-31.099-4.378-8.103-10.614-14.151-18.244-18.428-5.517-3.094-11.441-5.088-17.367-6.197a55.428 55.428 0 0 0-5.718-.777 37.599 37.599 0 0 0-1.582-.097c-.266-.01-.444-.013-.526-.013H76.818zM225.41 150.18c0 9.674-1.48 18.166-4.301 25.54-6.852 17.907-20.725 27.967-37.525 32.337-.788.193-4.47 1.16-5.444 1.408a157.4 157.4 0 0 1-8.074 1.836c-12.266 2.45-26.9 3.854-45.785 3.854-17.984 0-32.613-1.369-45.014-3.719a162.182 162.182 0 0 1-9.068-1.985c-1.246-.31-4.851-1.249-5.442-1.39-15.794-3.672-28.874-12.58-35.984-29.1-1.28-2.974-2.338-6.162-3.163-9.568-1.4-5.786-2.122-12.182-2.122-19.215v-33.971c0-5.526.462-10.666 1.364-15.432.711-3.757 1.695-7.275 2.938-10.56 4.516-11.933 12.297-20.493 22.391-26.152 5.825-3.266 12.055-5.363 18.282-6.53a58.413 58.413 0 0 1 6.03-.817 40.577 40.577 0 0 1 2.171-.118l.125-.002h95.268c.12 0 .334.004.638.016.496.018 1.068.052 1.71.104 1.822.146 3.85.41 6.03.818 6.227 1.166 12.456 3.263 18.282 6.529 8.106 4.544 14.755 10.993 19.415 19.62 4.746 8.784 7.278 19.572 7.278 32.524v33.973zm-47.685 71.52c1.9-.073 4.37.023 7.204.425 4.233.598 8.413 1.772 12.335 3.66 14.077 6.778 21.772 20.97 19.74 44.288-1.884 21.626-3.136 36.257-3.877 45.195-.259 3.127-.436 5.318-.545 6.737-.065.843-.093 1.24-.1 1.349l-.008.1c-.015.114-.041.331-.078.638a536.327 536.327 0 0 0-1.071 9.523c-.412 4.036-.654 7.086-.666 8.69-.09 10.848-1.92 26.734-5.377 40.637-4.885 19.65-12.473 34.133-23.245 40.956-29.565 18.724-83.654 18.583-114.38.017-10.92-6.6-18.537-21.035-23.387-40.793-3.41-13.889-5.172-29.738-5.262-40.818-.013-1.62-.198-4.677-.51-8.726a756.157 756.157 0 0 0-.804-9.525c-.027-.31-.047-.53-.05-.585-.02-.148-.062-.569-.136-1.439-.121-1.42-.29-3.612-.517-6.743-.645-8.931-1.615-23.577-2.977-45.249-1.484-23.582 6.145-37.816 19.8-44.476 6.686-3.26 13.602-4.195 19.285-3.882.242.013.431.027.563.038l49.34-1.24 54.37 1.24.353-.016zm31.866 100.074c.11-1.425.287-3.622.547-6.754.74-8.943 1.993-23.578 3.878-45.207 1.925-22.1-5.123-35.099-18.053-41.325-3.623-1.744-7.51-2.835-11.454-3.393-2.644-.374-4.936-.464-6.667-.396-.168.006-.278.012-.327.016l-.144.004-54.366-1.243-49.356 1.243-.19-.008a12.859 12.859 0 0 0-.525-.037c-1.83-.1-4.148-.036-6.765.317-3.808.515-7.55 1.565-11.04 3.267-12.523 6.108-19.53 19.182-18.121 41.59 1.361 21.664 2.331 36.301 2.976 45.222.225 3.119.393 5.3.513 6.705.07.825.108 1.208.127 1.356a381.684 381.684 0 0 1 .216 2.397 759.103 759.103 0 0 1 .65 7.82c.317 4.119.504 7.22.518 8.932.088 10.86 1.825 26.479 5.176 40.127 4.677 19.053 11.961 32.859 22.025 38.94 29.765 17.985 82.632 18.124 111.222.017 9.956-6.306 17.224-20.18 21.94-39.146 3.397-13.662 5.2-29.316 5.288-39.937.013-1.73.26-4.838.681-8.97a556.453 556.453 0 0 1 1.15-10.178c.012-.176.041-.59.1-1.36z"/>
            <path fill="#000005" fill-rule="nonzero" d="M160.75 352.812a3.711 3.711 0 0 1-3.719-3.703 3.711 3.711 0 0 1 3.719-3.703 3.711 3.711 0 0 1 3.719 3.703 3.711 3.711 0 0 1-3.719 3.703zm0-1a2.711 2.711 0 0 0 2.719-2.703 2.711 2.711 0 0 0-2.719-2.703 2.711 2.711 0 0 0-2.719 2.703 2.711 2.711 0 0 0 2.719 2.703z"/>
            <circle cx="149.203" cy="349.109" r="3.203" fill="#000007" fill-rule="nonzero"/>
            <path stroke="#000007" stroke-linecap="round" stroke-linejoin="round" stroke-width="3" d="M135.774 379.708a296.95 296.95 0 0 0 49.972-4.079m-121.773-1.281a456.842 456.842 0 0 0 47.147 4.762"/>
            <path fill="#000007" fill-rule="nonzero" d="M77.473 408.921c16.67 12.425 77.366 13.082 92.72.059 6.3-5.342 10.86-16.962 14.077-34.651 2.577-14.162 4.135-30.344 5.796-56.235a3280.484 3280.484 0 0 0 .6-9.573l.197-3.178c.346-5.588.566-9.074.804-12.662 1.332-20.075-4.32-31.905-14.497-37.576-2.875-1.602-5.96-2.605-9.089-3.118-2.094-.343-3.906-.426-5.267-.365-.127.006-.209.01-.242.014l-.126.005H86.795l-.174-.01a8.628 8.628 0 0 0-.394-.032c-1.441-.09-3.275-.031-5.35.292-3.02.472-5.989 1.431-8.76 2.988-9.89 5.559-15.515 17.46-14.54 37.83.083 1.749.42 9.042.505 10.828.223 4.7.423 8.671.641 12.634.567 10.297 1.205 19.52 1.997 28.268 3.205 35.417 8.596 58.403 16.753 64.482zm85.207-160.296c1.556-.07 3.573.022 5.887.402 3.453.566 6.865 1.675 10.064 3.457 11.246 6.268 17.435 19.219 16.03 40.395a2765.66 2765.66 0 0 0-.804 12.65l-.196 3.177-.198 3.187c-.15 2.41-.278 4.445-.403 6.393-1.668 26.001-3.235 42.27-5.838 56.58-3.335 18.328-8.101 30.477-15.088 36.402-16.463 13.962-78.703 13.289-96.453.059-9.188-6.848-14.645-30.118-17.949-66.618-.795-8.787-1.436-18.044-2.004-28.373-.219-3.972-.42-7.95-.642-12.657-.085-1.788-.423-9.08-.506-10.827-1.026-21.439 5.115-34.433 16.068-40.588 5.462-3.07 11.116-3.952 15.767-3.659.195.012.349.025.46.036h75.514c.072-.005.17-.01.291-.016z"/>
            <path fill="#000005" fill-rule="nonzero" d="M236.804 261.513c1.175-1.542 2.254-3.65 2.912-5.908a1.5 1.5 0 0 1 2.88.84c-.762 2.616-2.01 5.056-3.406 6.886-.616.81-1.232 1.454-1.782 1.859-1.092.801-2.402 1.038-3.052-.488-6.595-15.497-20.925-29.677-35.074-37.385a1.5 1.5 0 0 1 1.436-2.634c14.23 7.752 28.566 21.734 35.713 37.295.12-.142.246-.298.373-.465zM26.028 243.607c7.366-8.882 15.87-15.345 25.136-18.163a1.5 1.5 0 0 1 .872 2.87c-8.63 2.624-16.677 8.74-23.699 17.208-5.344 6.443-9.77 13.99-11.662 19.113a1.5 1.5 0 0 1-1.816.923c-2.124-.602-4.033-2.204-5.782-4.478a25.848 25.848 0 0 1-1.99-3.023 20.96 20.96 0 0 1-.734-1.401 1.5 1.5 0 0 1 2.721-1.262 22.225 22.225 0 0 0 .624 1.187 22.895 22.895 0 0 0 1.757 2.67c.982 1.278 1.996 2.261 2.99 2.867 2.237-5.33 6.512-12.396 11.583-18.51z"/>
            <path fill="#000" fill-rule="nonzero" d="M88.358 74.008h73.496c.385 0 1.071.028 2.018.107a47.76 47.76 0 0 1 5.152.733c5.318 1.043 10.638 2.92 15.613 5.842 14.225 8.357 22.764 23.395 22.764 46.544v10.267c0 30.238-16.325 47.258-43.624 54.296-11.745 3.028-22.03 3.76-36.984 3.709a471.757 471.757 0 0 0-1.835-.005c-20.64 0-31.612-1.32-41.132-4.11a469.251 469.251 0 0 1-4.843-1.493c-.505-.155-.96-.291-1.399-.418-6.513-1.878-14.075-6.067-20.397-12.617-9.103-9.433-14.375-22.425-14.375-39.363v-10.266c0-23.148 8.539-38.187 22.764-46.543 4.975-2.923 10.294-4.8 15.612-5.843a47.76 47.76 0 0 1 5.152-.733 26.19 26.19 0 0 1 2.018-.107zm-.434 3.012c-.381.015-.827.042-1.331.085a44.773 44.773 0 0 0-4.828.687c-5.005.982-10.01 2.747-14.67 5.485-13.304 7.816-21.283 21.869-21.283 43.957V137.5c0 16.16 4.969 28.405 13.534 37.28 5.927 6.142 13.03 10.076 19.07 11.818.456.132.926.272 1.446.431-.17-.052 3.652 1.144 4.808 1.482 9.22 2.703 19.916 3.99 40.288 3.99.463 0 .746 0 1.845.005 14.713.05 24.796-.667 36.225-3.614 26.08-6.724 41.373-22.668 41.373-51.391v-10.267c0-22.089-7.98-36.141-21.284-43.957-4.66-2.738-9.665-4.503-14.67-5.485a44.774 44.774 0 0 0-4.828-.687c-.504-.043-.95-.07-1.33-.085-.223-.01-.37-.012-.436-.012H88.36c-.067 0-.214.003-.436.012z"/>
            <g transform="translate(93 150)">
                <use fill="#000007" xlink:href="#e"/>
                <use fill="#000" filter="url(#f)" xlink:href="#e"/>
            </g>
            <path fill="#E5E5E5" d="M123.6 219.239c19.791 0 32.022-.263 32.022 7.828 0 8.74-12.231 7.828-32.022 7.828-19.791 0-32.023-.064-32.023-7.828.001-7.713 12.233-7.828 32.023-7.828z"/>
            <path fill="#000" fill-rule="nonzero" d="M123.6 220.739c-24.265 0-30.522 1.123-30.523 6.328 0 2.802 2.147 4.42 7.353 5.349 4.573.815 9.627.979 23.17.979 1.436 0 2.646.004 4.96.014 11.775.05 15.759-.08 19.544-.868 4.284-.893 6.018-2.477 6.018-5.474 0-2.87-1.99-4.47-6.866-5.384-4.278-.802-8.824-.95-21.865-.944H123.6zm0-3h1.79c13.275-.006 17.876.144 22.419.995 6.127 1.148 9.313 3.71 9.313 8.333 0 4.635-2.87 7.257-8.406 8.41-4.084.852-8.126.983-20.169.932-2.31-.01-3.516-.014-4.947-.014-13.76 0-18.873-.166-23.696-1.026-6.464-1.152-9.827-3.688-9.827-8.302 0-4.592 3.366-7.123 9.826-8.283 4.84-.868 10.123-1.045 23.697-1.045z"/>
            <g transform="translate(78 278)">
                <mask id="h" fill="#fff">
                    <use xlink:href="#g"/>
                </mask>
                <path fill="#000" stroke="#E5E5E5" stroke-width="3" d="M92.235 50.465c-.306 3.063-2.805 5.444-5.805 5.592a397.802 397.802 0 0 1-80.205.033C3.29 55.745.935 53.499.464 50.63-2.028 38.062-2.042 19.03.25 5.37c.38-3.246 3.13-5.695 6.316-5.697a609.882 609.882 0 0 1 79.485.721c3.237.039 5.951 2.468 6.335 5.641 2.038 13.255 1.9 27.772-.152 44.43z"/>
                <path fill="url(#c)" d="M-1.917 19.65c-.626-3.102 2.289-4.652 8.745-4.652 9.684 0 5.967 10.492 28.05 10.492 22.084 0 14.832 9.052 28.706 9.052C77.458 34.542 71.886 13 93.523 13c1.909 0 2.865 4.792 2.867 14.375l-2.867 28.79-45.252 5.398-46.028-4.088-4.16-37.826z" mask="url(#h)" opacity=".45"/>
                <path fill="url(#c)" d="M-4 33.335c1.465-4.06 5.92-6.09 13.365-6.09 11.167 0 12.687 8.717 23.394 8.717C43.467 35.962 45.795 21 58.142 21s11.242 9.14 19.506 9.14 9.478-6.088 14.985-6.088c3.672 0 4.628 1.064 2.868 3.192l-2.868 28.79-45.251 5.397-46.029-4.087L-4 33.335z" mask="url(#h)" opacity=".7"/>
                <path fill="url(#c)" d="M-2.869 29.219c6.963 12.056 13.09 18.487 18.379 19.294 7.934 1.21 11.017-6.638 19.01-6.638 7.994 0 10.69 6.638 20.517 6.638 9.826 0 13.652-13.972 26.212-13.972 8.374 0 13.006 2.445 13.898 7.334l-2.078 15.118-45.252 4.189L1.79 58.009-2.87 29.22z" mask="url(#h)"/>
            </g>
        </g>
        <ellipse cx="200" cy="461.5" fill="#000" fill-rule="nonzero" filter="url(#i)" opacity=".1" rx="102" ry="12.5" style="mix-blend-mode:multiply"/>
        <g fill-rule="nonzero">
            <g transform="translate(151 102)">
                <path fill="#CDCDCD" d="M14.969 28.828c7.439 0 13.469-6.03 13.469-13.469 0-7.439-6.03-13.469-13.469-13.469C7.53 1.89 1.5 7.92 1.5 15.359c0 7.439 6.03 13.469 13.469 13.469zm0 1.5C6.702 30.328 0 23.626 0 15.359S6.702.39 14.969.39s14.969 6.702 14.969 14.969-6.702 14.969-14.969 14.969z"/>
                <path fill="#000" d="M14.969 25.828c5.782 0 10.469-4.687 10.469-10.469 0-5.782-4.687-10.469-10.469-10.469C9.187 4.89 4.5 9.577 4.5 15.359c0 5.782 4.687 10.469 10.469 10.469z"/>
                <circle cx="19.906" cy="7.5" r="3.5" fill="#FFF"/>
            </g>
        </g>
        <g fill-rule="nonzero">
            <g transform="translate(218 102)">
                <path fill="#000" d="M14.969 25.828c5.782 0 10.469-4.687 10.469-10.469 0-5.782-4.687-10.469-10.469-10.469C9.187 4.89 4.5 9.577 4.5 15.359c0 5.782 4.687 10.469 10.469 10.469z"/>
                <path fill="#CDCDCD" d="M14.969 28.828c7.439 0 13.469-6.03 13.469-13.469 0-7.439-6.03-13.469-13.469-13.469C7.53 1.89 1.5 7.92 1.5 15.359c0 7.439 6.03 13.469 13.469 13.469zm0 1.5C6.702 30.328 0 23.626 0 15.359S6.702.39 14.969.39s14.969 6.702 14.969 14.969-6.702 14.969-14.969 14.969z"/>
                <circle cx="19.906" cy="7.5" r="3.5" fill="#FFF"/>
            </g>
        </g>
    </g>
</svg>
