<svg xmlns="http://www.w3.org/2000/svg" width="19.5" height="14.5" viewBox="0 0 19.5 14.5">
  <path id="link-forward-stroke-rounded" d="M9.212,4.75a1.648,1.648,0,0,1,.548.1c1.2.423,1.229,2,1.178,3.129l.295-.006c.369-.008.751-.016,1.13-.016a12.889,12.889,0,0,1,2.426.188,7.768,7.768,0,0,1,5.493,3.645A11.942,11.942,0,0,1,21.75,18a.75.75,0,0,1-1.184.612l-.314-.223a12.488,12.488,0,0,0-3.832-2.118,11.554,11.554,0,0,0-3.088-.331c-.528,0-1.07.016-1.594.032-.264.008-.532.016-.8.022.053,1.128.031,2.722-1.177,3.148a1.806,1.806,0,0,1-.6.108c-.83,0-1.391-.6-2.168-1.42-.218-.232-.466-.5-.751-.781L4.277,15.077C2.97,13.766,2.25,13.043,2.25,11.994s.72-1.771,2.027-3.083L6.242,6.94c.216-.216.416-.422.592-.6C7.8,5.347,8.377,4.75,9.212,4.75Zm.043,1.509a.154.154,0,0,0-.043-.009c-.2,0-.787.6-1.3,1.131-.18.185-.383.394-.605.617L5.339,9.971c-.991.995-1.589,1.6-1.589,2.024s.6,1.029,1.589,2.024L7.3,15.991c.3.3.555.572.78.811.439.466.893.948,1.076.948a.317.317,0,0,0,.095-.02,1.193,1.193,0,0,0,.176-.65,9.192,9.192,0,0,0-.008-1.319c-.011-.2-.02-.366-.02-.508a.75.75,0,0,1,.75-.75c.5,0,1.006-.015,1.54-.031s1.089-.033,1.639-.033a12.952,12.952,0,0,1,3.484.384,11.281,11.281,0,0,1,3.368,1.684c-.37-3.938-2.273-6.254-5.672-6.893a11.482,11.482,0,0,0-2.149-.162c-.363,0-.737.008-1.1.016s-.742.016-1.112.016a.75.75,0,0,1-.75-.75c0-.141.009-.311.02-.507a9.191,9.191,0,0,0,.008-1.319A1.193,1.193,0,0,0,9.255,6.259Z" transform="translate(-2.25 -4.75)" fill="#fff"/>
</svg>
