<svg xmlns="http://www.w3.org/2000/svg" width="928" height="219" viewBox="0 0 928 219">
    <defs>
        <linearGradient id="a1" x1="42.657%" x2="42.657%" y1="46.673%" y2="22.995%">
            <stop offset="0%" stop-color="#459AA8"/>
            <stop offset="100%" stop-color="#CECECE"/>
        </linearGradient>
        <linearGradient id="a2" x1="100%" x2="0%" y1="50%" y2="50%">
            <stop offset="0%" stop-color="#459AA8"/>
            <stop offset="100%" stop-color="#CECECE"/>
        </linearGradient>
        <linearGradient id="a3" x1="50.785%" x2="62.927%" y1="55.71%" y2="7.002%">
            <stop offset="0%" stop-color="#459AA8"/>
            <stop offset="100%" stop-color="#CECECE"/>
        </linearGradient>
        <linearGradient id="a4" x1="59.046%" x2="59.046%" y1="119.929%" y2="5.285%">
            <stop offset="0%" stop-color="#459AA8"/>
            <stop offset="100%" stop-color="#CECECE"/>
        </linearGradient>
    </defs>
    <path fill="url(#a1)" fill-rule="evenodd" d="M-176.76 59.256C9.35 57.427 139.86 192.7 219.165 218.888c79.306 26.188 128.875-1.008 178.44-28.201 49.567-27.193 110.7-42.301 204.877 30.215 94.177 72.517 188.141-97.007 188.141-97.007s34.733-66.78 127.361-64.64c93.893 2.17 104.205 80.244 129.015 111.447 24.81 31.204 47.48 109.167 369.892 109.167h429.389v19.733s-433.65 7.975-600.493 14.434c-128.21 4.969-173.152 51.143-189.69 82.358-16.54 31.214-54.584 122.592-133.978 121.478-79.394-1.114-110.82-30.091-168.71-104.766-57.89-74.674-155.057-47.673-196.363-35.587-41.307 12.085-135.484 37.265-204.877-34.245-69.392-71.51-138.788-51.366-180.092-24.171C130.773 346.297-18.295 522-176.76 522c-388.588-3.117-368.78-192.363-368.78-242.13 0-49.768-36.829-228.544 368.78-220.614z" opacity=".1" transform="translate(0 -59)"/>
    <path fill="url(#a2)" fill-rule="evenodd" d="M370.66 59.256C556.77 57.427 687.28 192.7 766.585 218.888c79.306 26.188 128.875-1.008 178.44-28.201 49.567-27.193 110.7-42.301 204.877 30.215 94.177 72.517 188.141-97.007 188.141-97.007s34.733-66.78 127.361-64.64c93.893 2.17 104.205 80.244 129.015 111.447 24.81 31.204 47.48 109.167 369.892 109.167H2393.7v19.733s-433.65 7.975-600.493 14.434c-128.21 4.969-173.152 51.143-189.69 82.358-16.54 31.214-54.584 122.592-133.978 121.478-79.394-1.114-110.82-30.091-168.71-104.766-57.89-74.674-155.057-47.673-196.363-35.587-41.307 12.085-135.484 37.265-204.877-34.245-69.392-71.51-138.788-51.366-180.092-24.171C678.193 346.297 529.125 522 370.66 522-17.928 518.883 1.88 329.637 1.88 279.87c0-49.768-36.829-228.544 368.78-220.614z" opacity=".1" transform="translate(-1 -59)"/>
    <path fill="url(#a3)" fill-rule="evenodd" d="M-1219.07 253.174c-.703 33.773 738.484 17.81 851.429 7.097 112.944-10.714 126.927-33.798 141.985-47.81 15.058-14.012 69.918-85.722 136.608-86.55 66.691-.829 102.189 82.428 153.82 103.86 51.63 21.433 83.9-16.413 116.17-38.669 32.27-22.255 72.068-34.621 133.382 24.729 61.314 59.35 121.548-60.997 121.548-60.997s21.198-47.81 73.736-47.81c52.54 0 76.856 59.35 92.991 82.429 16.135 23.08 10.308 78.572 391.728 78.572h472.193v18.18s-639.521 7.883-755.819 9.995c-83.54 1.516-91.428 42.864-102.196 65.944-10.768 23.079-35.495 90.674-87.128 89.848-51.633-.825-72.058-22.255-109.708-77.48-37.65-55.226-100.036-40.39-126.927-30.5-26.891 9.89-88.203 30.5-133.38-28.03-45.176-58.528-90.354-26.45-117.248-4.195-26.893 22.256-43.02 64.548-100.036 75.262-57.017 10.713-90.355-29.674-123.7-51.106-33.346-21.432-101.111-50.283-305.485-46.984-204.375 3.298-723.424-3.55-723.424-3.55l-.539-32.235z" opacity=".8" transform="translate(0 -57)"/>
    <path fill="url(#a4)" fill-rule="evenodd" d="M-995.529 264.81s662.692-4.651 793.823-9.656c131.589-5.004 171.154-27.35 191.898-39.316 34.76-20.039 73.183-70.436 134.07-67.63 90.624 4.174 79.487 67.53 140.278 87.669 83.175 27.553 198.626-85.906 271.866-14.936 44.711 43.322 111.584-13.736 127.547-37.375C679.915 159.926 708.316 79 789.648 79c81.333 0 115.385 82.267 130.967 103.115 15.582 20.847 25.51 66.83 287.988 70.696 184.277 2.716 284.469 5.655 282.333 5.268h398.774v28.675c-5.8 0-317.198 5.509-379.876 5.625-266.186 4.353-431.142 10.704-494.868 19.054-95.589 12.524-103.656 69.72-116.07 93.098-12.413 23.378-50.897 96.292-110.486 95.462-59.588-.83-86.697-46.698-130.238-102.608-27.31-35.068-62.177-41.276-93.212-31.256-31.035 10.019-111.513 34.633-173.797-20.04-73.242-64.29-119.637-17.726-155.175 1.577-32.275 17.534-42.207 36.738-100.553 44.25-40.217 5.178-68.095-13.736-121.656-49.254C-33.726 285.306-995.86 299.64-995.86 299.64l.331-34.83z" opacity=".4" transform="translate(0 -79)"/>
</svg>
