<svg xmlns="http://www.w3.org/2000/svg" width="493.088" height="389.586" viewBox="0 0 493.088 389.586">
  <g id="Component_327_1" data-name="Component 327 – 1" transform="translate(3.538 3.491)">
    <path id="Path_37275" data-name="Path 37275" d="M3871.18,1992.914l-.02.01-.034.016.054-.026" transform="translate(-3427.995 -1829.268)" fill="#3c4150"/>
    <path id="Path_37276" data-name="Path 37276" d="M3870.7,1993.307h0" transform="translate(-3427.618 -1829.61)" fill="#3c4150"/>
    <path id="Path_37277" data-name="Path 37277" d="M3870.726,1993.139l.052-.025-.025.012Z" transform="translate(-3427.647 -1829.442)" fill="#3c4150"/>
    <path id="Union_7" data-name="Union 7" d="M37.491,341.38c-60.777-57.008-45.187-172.744,29-221.5C98.711,98.71,134.987,92.361,172.005,87.689c11.056-1.392,22.18-2.418,33.131-4.4C242.7,76.5,273.2,61.689,288.4,22.266,299.353-6.148,309.3-6.558,327.857,16.461c13.037,16.175-3.677,26.679-9.924,38.633-7.161,13.717-13.926,3.516-20.677-1.454-6.256-4.605-11.53-11.646-19.861-.83-22.016,28.584-54.821,36.5-87.947,42.778-24.064,4.56-48.74,5.725-72.258,13.351-44.327,14.386-76.181,42.925-93.726,85.872-24.568,60.1,10.415,116.375,79.947,128.08,57.266,9.633,112.926-.433,165.8-22.342,85.042-35.233,156.346-87.734,201.547-170.585,3.257-5.971,6.22-11.905,6.4-18.763.175-6.719.536-14.475-5.555-18.4-7.354-4.734-9.366,4.609-13.761,7.541-19.335,12.886-40.043,4.3-42.648-19.076-1.714-15.4-1.812-31.221,3.408-46.383,3.4-9.866,6.037-20.566,18.706-22.369,12.435-1.767,21.476,5.007,28.811,13.774,17.269,20.642,21.37,45.107,19.508,66.668.259,66.837-29.713,115.05-72.094,157.153-71.986,71.505-156.9,116.683-259.447,124.006-6.885.492-13.738.777-20.527.777C98.51,374.9,65.134,367.306,37.491,341.38Zm36.7-62.536c11.047-6.024,20.726-11.021,30.091-16.555,3.494-2.066,9.076-4.351,6.305-9.754-1.308-2.548-5.716-4.194-9.013-4.908-13.065-2.842-26.2-.567-42.475,1.749,19.24-29.851,35.857-36.964,62.933-29.548,12.31,3.373,17.045,9.866,12.114,22.922a55.744,55.744,0,0,1-52.836,36.506A62.25,62.25,0,0,1,74.192,278.843Z" transform="translate(-0.009 -0.006)" fill="none" stroke="rgba(219,219,219,0.33)" stroke-width="1"/>
    <path id="Path_26335" data-name="Path 26335" d="M14.822,19.494A35.773,35.773,0,0,0,.266,31.549c-.748-5.627-.044-10.935,3.72-15.411A39.99,39.99,0,0,1,18.315,5.574c2.047-.931,2.94-.578,2.64,1.844-.379,3.051-1.5,5.886-2.324,8.812-2.46,8.725-4.605,17.486-2.462,26.669,2.233,9.57,10.276,15.026,19.958,13.4,11.889-2,24.779-14.775,26.981-26.618A18.642,18.642,0,0,0,61.727,19.3c-.281-.722-.546-1.784-1.593-1.761-.894.021-.929.993-1.243,1.621-1.354,2.708-3.217,4.752-6.568,4.063-3.258-.671-3.885-3.406-4.2-6.151a34.11,34.11,0,0,1,.781-10.914C49.513,3.269,50.6.652,53.886.112c3.574-.587,6.156,1.174,7.85,4.192,2.448,4.364,3.23,9.176,3.483,14.1C65.984,33.293,62.936,47.07,53,58.662A31.507,31.507,0,0,1,35.033,69.278C25.294,71.272,16.91,65.217,13.88,54.06,11.145,43.992,11.853,34,14.52,24.054c.371-1.382,1.129-2.714.3-4.558" transform="translate(352.683 241.955)" fill="#219f8a"/>
    <path id="Path_37481" data-name="Path 37481" d="M65.372,15.143a11.275,11.275,0,0,0,0-7.573A17.159,17.159,0,0,0,52.927,0q-8.793-.253-12.7,22.7Q38.04,35.147,36.082,47.6a76.289,76.289,0,0,1-5.134-12.69Q17.536,9.052,5.318,9.515-1.021,9.515.2,23.182q.5,2.934,7.329,6.589a22.633,22.633,0,0,0,8.295,3.423,8.877,8.877,0,0,0,1.711-2.206,47.161,47.161,0,0,1,13.435,22.7q3.423,11.229,6.583,11.473,2.192.244,5.245-26T52.927,12.914A8.416,8.416,0,0,1,59.4,16.942a22.043,22.043,0,0,1,2.806,4.022q2.192,0,3.178-5.856" transform="translate(57.064 40.138)" fill="#ddd"/>
    <g id="Group_28804" data-name="Group 28804" transform="translate(-697.667 -534.862)">
      <path id="Path_37248" data-name="Path 37248" d="M362.612,1067.056v38.724a2.357,2.357,0,0,0,2.357,2.357h39.747l15.118,12.372a1.314,1.314,0,0,0,2.146-1.017v-11.355H430.2a2.357,2.357,0,0,0,2.357-2.357v-38.724a2.357,2.357,0,0,0-2.357-2.358H364.969a2.357,2.357,0,0,0-2.357,2.358" transform="translate(383.982 -398.884)" fill="#fff"/>
      <path id="Path_37249" data-name="Path 37249" d="M403.653,1110.564v28.007a1.769,1.769,0,0,0,1.77,1.77h55.735a1.769,1.769,0,0,0,1.77-1.77v-28.007a1.765,1.765,0,0,0-1.77-1.754H405.423a1.766,1.766,0,0,0-1.77,1.754" transform="translate(348.277 -437.261)" fill="#219f8a"/>
      <path id="Path_37250" data-name="Path 37250" d="M719.746,1196.8a5.844,5.844,0,1,1,5.844-5.845,5.851,5.851,0,0,1-5.844,5.845m0-10.925a5.08,5.08,0,1,0,5.08,5.08,5.086,5.086,0,0,0-5.08-5.08" transform="translate(78.369 -503.641)" fill="#fff"/>
      <path id="Path_37251" data-name="Path 37251" d="M592.484,1196.8a5.844,5.844,0,1,1,5.844-5.845,5.851,5.851,0,0,1-5.844,5.845m0-10.925a5.08,5.08,0,1,0,5.08,5.08,5.086,5.086,0,0,0-5.08-5.08" transform="translate(189.084 -503.641)" fill="#fff"/>
      <path id="Path_37252" data-name="Path 37252" d="M465.221,1196.8a5.844,5.844,0,1,1,5.844-5.845,5.851,5.851,0,0,1-5.844,5.845m0-10.925a5.08,5.08,0,1,0,5.08,5.08,5.086,5.086,0,0,0-5.08-5.08" transform="translate(299.799 -503.641)" fill="#fff"/>
      <path id="Path_37279" data-name="Path 37279" d="M417.035,1118.248a1.7,1.7,0,0,0,2.77-1.313v-10.973h7.833a2.743,2.743,0,0,0,2.74-2.74V1064.5a2.743,2.743,0,0,0-2.74-2.74H362.412a2.743,2.743,0,0,0-2.74,2.74v38.724a2.743,2.743,0,0,0,2.74,2.74h39.61Zm-56.6-15.025V1064.5a1.978,1.978,0,0,1,1.976-1.976h65.226a1.978,1.978,0,0,1,1.976,1.976v38.724a1.978,1.978,0,0,1-1.976,1.976h-8.215a.382.382,0,0,0-.382.382v11.355a.932.932,0,0,1-1.522.721L402.4,1105.285a.382.382,0,0,0-.242-.086H362.412a1.978,1.978,0,0,1-1.976-1.976" transform="translate(386.539 -396.328)" fill="#3c4150"/>
    </g>
    <g id="Group_28802" data-name="Group 28802" transform="translate(-857.466 -495.432)">
      <g id="Group_28801" data-name="Group 28801" transform="translate(1222.326 669.246)">
        <path id="Path_37253" data-name="Path 37253" d="M4245.695,909.222v33.459a2.037,2.037,0,0,1-2.037,2.037h-34.343l-13.062,10.689a1.135,1.135,0,0,1-1.854-.879v-9.811h-7.1a2.037,2.037,0,0,1-2.037-2.037V909.222a2.037,2.037,0,0,1,2.037-2.037h56.357a2.037,2.037,0,0,1,2.037,2.037" transform="translate(-4184.881 -906.803)" fill="#fff"/>
        <path id="Path_37280" data-name="Path 37280" d="M4241.1,904.247h-56.357a2.422,2.422,0,0,0-2.418,2.419v33.459a2.422,2.422,0,0,0,2.418,2.419h6.716v9.429a1.516,1.516,0,0,0,2.479,1.174l12.957-10.6H4241.1a2.422,2.422,0,0,0,2.419-2.419V906.666a2.422,2.422,0,0,0-2.419-2.419m1.655,35.878a1.657,1.657,0,0,1-1.655,1.655h-34.342a.383.383,0,0,0-.242.086l-13.062,10.69a.753.753,0,0,1-1.23-.583v-9.811a.382.382,0,0,0-.382-.382h-7.1a1.656,1.656,0,0,1-1.654-1.655V906.666a1.656,1.656,0,0,1,1.654-1.655H4241.1a1.657,1.657,0,0,1,1.655,1.655Z" transform="translate(-4182.328 -904.247)" fill="#3c4150"/>
        <path id="Path_37281" data-name="Path 37281" d="M4271.89,946.816v24.2a1.529,1.529,0,0,1-1.53,1.529H4222.2a1.529,1.529,0,0,1-1.529-1.529v-24.2a1.526,1.526,0,0,1,1.529-1.516h48.157a1.526,1.526,0,0,1,1.53,1.516" transform="translate(-4215.687 -939.962)" fill="#00758a"/>
        <path id="Path_37283" data-name="Path 37283" d="M4303,981.05h-39.382a.382.382,0,1,1,0-.764H4303a.382.382,0,1,1,0,.764" transform="translate(-4252.718 -970.399)" fill="#fff"/>
        <path id="Path_37284" data-name="Path 37284" d="M4303,1025.61h-39.382a.382.382,0,1,1,0-.764H4303a.382.382,0,1,1,0,.764" transform="translate(-4252.718 -1009.165)" fill="#fff"/>
        <path id="Path_37285" data-name="Path 37285" d="M4303,1070.17h-39.382a.382.382,0,1,1,0-.764H4303a.382.382,0,1,1,0,.764" transform="translate(-4252.718 -1047.931)" fill="#fff"/>
        <path id="Path_37286" data-name="Path 37286" d="M4283.954,1114.73h-20.333a.382.382,0,1,1,0-.764h20.333a.382.382,0,1,1,0,.764" transform="translate(-4252.718 -1086.697)" fill="#fff"/>
      </g>
    </g>
    <g id="Group_28803" data-name="Group 28803" transform="translate(-759.667 -622.862)">
      <path id="Path_37215" data-name="Path 37215" d="M1574.611,3568.4c-.1,5.194,46.8,9.408,104.765,9.408s105.022-4.215,105.12-9.408-46.8-9.408-104.765-9.408-105.022,4.214-105.12,9.408" transform="translate(-670.424 -2568.848)" fill="#f5f5f5"/>
      <path id="Path_37216" data-name="Path 37216" d="M1493.451,1017.752l18.789,296.259a23.8,23.8,0,0,0,23.882,22.383h11.135a23.8,23.8,0,0,1-23.882-22.383L1504.6,1017.752a25.174,25.174,0,0,1,25.022-26.609h-11.147a25.181,25.181,0,0,0-25.022,26.609" transform="translate(-599.773 -334.894)" fill="#128498"/>
      <path id="Path_37217" data-name="Path 37217" d="M1529.5,1017.752l18.777,296.259a23.8,23.8,0,0,0,23.881,22.383h6.459a23.8,23.8,0,0,1-23.881-22.383l-18.777-296.259a25.174,25.174,0,0,1,25.022-26.609h-6.459a25.174,25.174,0,0,0-25.022,26.609" transform="translate(-631.133 -334.894)" fill="#37b7a1"/>
      <path id="Path_37218" data-name="Path 37218" d="M1750.164,1336.418H1621.786a23.794,23.794,0,0,1-23.881-22.365L1579.111,1017.8a25.188,25.188,0,0,1,25.03-26.617h128.393a23.816,23.816,0,0,1,23.882,22.379l18.779,296.257a25.167,25.167,0,0,1-25.03,26.6" transform="translate(-674.295 -334.925)" fill="#fff"/>
      <path id="Path_37219" data-name="Path 37219" d="M1807.546,1619.943a19.487,19.487,0,0,1-14.343,6.25H1664.81a18.6,18.6,0,0,1-18.765-17.589l-17.66-278.328h167.057l17.447,275a19.4,19.4,0,0,1-5.343,14.669" transform="translate(-717.207 -629.93)" fill="#fff"/>
      <path id="Path_37220" data-name="Path 37220" d="M1630.187,1222.666l-10.8-170.291a19.467,19.467,0,0,1,5.123-14.446,20.343,20.343,0,0,1,15.052-6.476h36.125a2.567,2.567,0,0,1,2.51,1.971l2.131,8.934a2.576,2.576,0,0,0,2.52,1.982H1722.6a2.734,2.734,0,0,0,2.7-2.458l.771-7.981a2.724,2.724,0,0,1,2.7-2.448h38.686a18.637,18.637,0,0,1,18.78,17.6l11.014,173.615Z" transform="translate(-709.34 -369.962)" fill="#f5f5f5"/>
      <path id="Path_37221" data-name="Path 37221" d="M1728.043,1079.708a4.494,4.494,0,0,1-4.553,5.076,5.774,5.774,0,0,1-5.61-5.076,4.5,4.5,0,0,1,4.553-5.082,5.776,5.776,0,0,1,5.61,5.082" transform="translate(-795.039 -407.521)" fill="#e1e5e2"/>
      <path id="Path_37222" data-name="Path 37222" d="M2235.964,1042.668h0a2.1,2.1,0,0,1-2.128,2.376H2213.6a2.7,2.7,0,0,1-2.623-2.376,2.1,2.1,0,0,1,2.128-2.376h20.23a2.7,2.7,0,0,1,2.623,2.376" transform="translate(-1224.037 -377.652)" fill="#fff"/>
      <path id="Path_37223" data-name="Path 37223" d="M2128.99,1042.668h0a2.1,2.1,0,0,1-2.128,2.376h-2.051a2.7,2.7,0,0,1-2.623-2.376,2.1,2.1,0,0,1,2.128-2.376h2.051a2.7,2.7,0,0,1,2.623,2.376" transform="translate(-1146.789 -377.652)" fill="#fff"/>
      <path id="Path_37224" data-name="Path 37224" d="M2690.965,3412.336l-.667-9.3h9.517l.667,9.3Z" transform="translate(-1641.041 -2433.176)" fill="#f5f5f5"/>
      <path id="Path_37225" data-name="Path 37225" d="M2020.848,3401.627l7.883-5.593.782,11.207Z" transform="translate(-1058.637 -2427.082)" fill="#f5f5f5"/>
      <path id="Path_37226" data-name="Path 37226" d="M2371.558,3412.336a4.991,4.991,0,0,1-4.895-4.564,4.353,4.353,0,0,1,4.383-4.732,5,5,0,0,1,4.9,4.578,4.348,4.348,0,0,1-4.383,4.719" transform="translate(-1359.477 -2433.176)" fill="#f5f5f5"/>
      <path id="Path_37227" data-name="Path 37227" d="M2009.041,1475.776A50.212,50.212,0,0,1,1958.507,1528a54.353,54.353,0,0,1-53.939-52.221,50.205,50.205,0,0,1,50.5-52.221,54.36,54.36,0,0,1,53.969,52.221" transform="translate(-957.453 -711.08)" fill="#219f8a"/>
      <path id="Path_37228" data-name="Path 37228" d="M1857.387,2348.709a22.031,22.031,0,0,1-22.172,22.912,23.848,23.848,0,0,1-23.666-22.912,22.028,22.028,0,0,1,22.159-22.912,23.851,23.851,0,0,1,23.679,22.912" transform="translate(-876.543 -1496.005)" fill="#00758a"/>
      <path id="Path_37229" data-name="Path 37229" d="M2296.684,1975.925a2.37,2.37,0,0,1-2.353-2.278l-.351-10.662a2.19,2.19,0,0,1,2.2-2.278,2.37,2.37,0,0,1,2.353,2.278l.351,10.662a2.189,2.189,0,0,1-2.2,2.278" transform="translate(-1296.254 -1178.387)" fill="#fff"/>
      <path id="Path_37230" data-name="Path 37230" d="M2142.48,1812.733a25.537,25.537,0,0,1-24.326-18.325,24.1,24.1,0,0,1-1.009-6.213,2.433,2.433,0,0,1,2.448-2.531,2.634,2.634,0,0,1,2.614,2.531,19.3,19.3,0,0,0,.8,4.913,20.27,20.27,0,0,0,19.31,14.563,18.619,18.619,0,0,0,18.339-14.457,18.941,18.941,0,0,0,.5-5.019,2.433,2.433,0,0,1,2.448-2.531,2.634,2.634,0,0,1,2.614,2.531,23.894,23.894,0,0,1-.625,6.319,23.471,23.471,0,0,1-23.107,18.219" transform="translate(-1142.412 -1026.105)" fill="#fff"/>
      <path id="Path_37231" data-name="Path 37231" d="M2222.028,1571.272l.6,18.317a13.435,13.435,0,0,1-13.451,13.908,14.464,14.464,0,0,1-13.777-10.371,13.7,13.7,0,0,1-.578-3.537l-.6-18.317a13.864,13.864,0,0,1,.335-3.527,13.354,13.354,0,0,1,13.106-10.371,14.4,14.4,0,0,1,14.365,13.9" transform="translate(-1209.461 -827.499)" fill="#fff"/>
      <path id="Path_37232" data-name="Path 37232" d="M2239.392,2042.144l.089,2.693a1.018,1.018,0,0,1-1.019,1.053h-24.216a1.1,1.1,0,0,1-1.1-1.053l-.088-2.693a3.163,3.163,0,0,1,3.182-3.29h19.751a3.424,3.424,0,0,1,3.4,3.29" transform="translate(-1225.855 -1246.373)" fill="#fff"/>
      <path id="Path_37233" data-name="Path 37233" d="M1877.318,2470.425a.382.382,0,0,1-.382-.382v-10.336a.382.382,0,0,1,.764,0v10.336a.382.382,0,0,1-.382.382" transform="translate(-933.438 -1612.171)" fill="#fff"/>
      <path id="Path_37234" data-name="Path 37234" d="M1920.64,2457.911a.382.382,0,0,1-.382-.382V2442.8a.382.382,0,1,1,.764,0v14.734a.382.382,0,0,1-.382.382" transform="translate(-971.127 -1597.458)" fill="#fff"/>
      <path id="Path_37235" data-name="Path 37235" d="M2050.607,2470.425a.382.382,0,0,1-.382-.382v-10.336a.382.382,0,0,1,.764,0v10.336a.382.382,0,0,1-.382.382" transform="translate(-1084.195 -1612.171)" fill="#fff"/>
      <path id="Path_37236" data-name="Path 37236" d="M2093.929,2470.425a.382.382,0,0,1-.382-.382v-10.336a.382.382,0,0,1,.764,0v10.336a.382.382,0,0,1-.382.382" transform="translate(-1121.885 -1612.171)" fill="#fff"/>
      <path id="Path_37237" data-name="Path 37237" d="M2050.607,2457.911a.382.382,0,0,1-.382-.382V2442.8a.382.382,0,0,1,.764,0v14.734a.382.382,0,0,1-.382.382" transform="translate(-1084.195 -1597.458)" fill="#fff"/>
      <path id="Path_37238" data-name="Path 37238" d="M1963.962,2434.436a.382.382,0,0,1-.382-.382v-22.984a.382.382,0,0,1,.764,0v22.984a.382.382,0,0,1-.382.382" transform="translate(-1008.816 -1569.857)" fill="#fff"/>
      <path id="Path_37239" data-name="Path 37239" d="M2007.285,2434.436a.382.382,0,0,1-.382-.382v-22.984a.382.382,0,1,1,.764,0v22.984a.382.382,0,0,1-.382.382" transform="translate(-1046.506 -1569.857)" fill="#fff"/>
      <path id="Path_37240" data-name="Path 37240" d="M1984.226,2799.734h0a2.787,2.787,0,0,1-2.82,3.084H1860.324a3.425,3.425,0,0,1-3.348-3.084,2.787,2.787,0,0,1,2.82-3.084h121.082a3.425,3.425,0,0,1,3.348,3.084" transform="translate(-916.064 -1905.634)" fill="#f5f5f5"/>
      <path id="Path_37241" data-name="Path 37241" d="M1993.163,2929.732h0a2.787,2.787,0,0,1-2.82,3.084H1869.262a3.425,3.425,0,0,1-3.348-3.084,2.787,2.787,0,0,1,2.82-3.084h121.082a3.425,3.425,0,0,1,3.348,3.084" transform="translate(-923.84 -2018.729)" fill="#f5f5f5"/>
      <path id="Path_37242" data-name="Path 37242" d="M2005.013,3060.021h0a2.787,2.787,0,0,1-2.82,3.084H1879.043a3.425,3.425,0,0,1-3.348-3.084,2.787,2.787,0,0,1,2.82-3.084h123.149a3.426,3.426,0,0,1,3.348,3.084" transform="translate(-932.35 -2132.076)" fill="#f5f5f5"/>
      <path id="Path_37243" data-name="Path 37243" d="M1973.764,3190.308h0a2.787,2.787,0,0,1-2.82,3.084h-82.12a3.425,3.425,0,0,1-3.348-3.084,2.787,2.787,0,0,1,2.82-3.084h82.119a3.425,3.425,0,0,1,3.348,3.084" transform="translate(-940.857 -2245.423)" fill="#f5f5f5"/>
      <path id="Path_37244" data-name="Path 37244" d="M2940.751,1328.636a13.341,13.341,0,0,1-13.5,15.111h-12.3l1.188,11.16-12.362-11.16h-70.193a17.255,17.255,0,0,1-16.734-15.111,13.653,13.653,0,0,1,3.287-10.7,13.488,13.488,0,0,1,10.227-4.426h93.668a17.255,17.255,0,0,1,16.722,15.125" transform="translate(-1751.059 -615.345)" fill="#fff"/>
      <path id="Path_37245" data-name="Path 37245" d="M2971.849,1364.948a8.539,8.539,0,0,1-8.65,9.681h-93.674a11.037,11.037,0,0,1-10.727-9.681,8.781,8.781,0,0,1,2.106-6.859,8.673,8.673,0,0,1,6.557-2.837h93.674a11.036,11.036,0,0,1,10.713,9.7" transform="translate(-1787.582 -651.659)" fill="#219f8a"/>
      <path id="Path_37246" data-name="Path 37246" d="M3549.7,1364.917a8.543,8.543,0,0,1-8.648,9.7h-16.03l-2.064-19.383h16.03a11.032,11.032,0,0,1,10.712,9.681" transform="translate(-2365.434 -651.645)" fill="#fff"/>
      <path id="Path_37247" data-name="Path 37247" d="M3613.378,1396.127a4.1,4.1,0,0,1-5.814,0,4.156,4.156,0,0,1-.619-5.813,4.1,4.1,0,0,1,5.813,0,4.156,4.156,0,0,1,.619,5.813" transform="translate(-2437.699 -681.112)" fill="#fff"/>
      <path id="Path_37254" data-name="Path 37254" d="M1719.88,1071.658a4.882,4.882,0,0,0-4.932,5.511,6.171,6.171,0,0,0,5.991,5.412,4.861,4.861,0,0,0,4.965-4.921,5.193,5.193,0,0,0-.032-.579,6.179,6.179,0,0,0-5.991-5.423m1.059,10.159a5.376,5.376,0,0,1-5.227-4.736,4.111,4.111,0,0,1,4.168-4.659,5.266,5.266,0,0,1,3.492,1.386,5.4,5.4,0,0,1,1.735,3.361,4.106,4.106,0,0,1-4.169,4.649" transform="translate(-792.486 -404.939)" fill="#3c4150"/>
      <path id="Path_37255" data-name="Path 37255" d="M1743.657,1100.709l1.138-1.27a.382.382,0,0,0-.569-.51l-1.135,1.267-1.43-1.295a.382.382,0,0,0-.513.566l1.433,1.3-1.138,1.27a.382.382,0,1,0,.569.51l1.135-1.267,1.43,1.3a.382.382,0,0,0,.513-.566Z" transform="translate(-815.197 -428.555)" fill="#3c4150"/>
      <path id="Path_37256" data-name="Path 37256" d="M2700.792,1081.066h13.269a.387.387,0,0,0,.382-.382.38.38,0,0,0-.382-.382h-13.269a.38.38,0,0,0-.382.382.387.387,0,0,0,.382.382" transform="translate(-1649.838 -412.459)" fill="#3c4150"/>
      <path id="Path_37257" data-name="Path 37257" d="M2703.6,1111.065a.379.379,0,0,0,.382.382h13.259a.382.382,0,0,0,0-.764h-13.259a.379.379,0,0,0-.382.382" transform="translate(-1652.613 -438.89)" fill="#3c4150"/>
      <path id="Path_37258" data-name="Path 37258" d="M2720.355,1141.062h-13.27a.387.387,0,0,0-.382.382.379.379,0,0,0,.382.382h13.27a.38.38,0,0,0,.382-.382.387.387,0,0,0-.382-.382" transform="translate(-1655.313 -465.319)" fill="#3c4150"/>
      <path id="Path_37259" data-name="Path 37259" d="M2211.03,1042.855h20.221a2.488,2.488,0,0,0,2.51-2.8,3.087,3.087,0,0,0-3-2.717h-20.232a2.492,2.492,0,0,0-2.51,2.8,3.106,3.106,0,0,0,3.012,2.717m-.5-4.758h20.232a2.321,2.321,0,0,1,2.248,2.04,1.733,1.733,0,0,1-1.757,1.953H2211.03a2.321,2.321,0,0,1-2.248-2.04,1.721,1.721,0,0,1,1.746-1.953" transform="translate(-1221.459 -375.079)" fill="#3c4150"/>
      <path id="Path_37260" data-name="Path 37260" d="M2122.237,1042.855h2.041a2.488,2.488,0,0,0,2.51-2.8,3.087,3.087,0,0,0-3-2.717h-2.052a2.487,2.487,0,0,0-2.51,2.8,3.107,3.107,0,0,0,3.012,2.717m-.5-4.758h2.052a2.321,2.321,0,0,1,2.248,2.04,1.733,1.733,0,0,1-1.757,1.953h-2.041a2.321,2.321,0,0,1-2.248-2.04,1.721,1.721,0,0,1,1.746-1.953" transform="translate(-1144.209 -375.079)" fill="#3c4150"/>
      <path id="Path_37261" data-name="Path 37261" d="M2682.094,1209.974a.383.383,0,1,0-.513.568l4.212,3.765-4.409,3.961a.379.379,0,0,0-.022.535.368.368,0,0,0,.284.131.385.385,0,0,0,.251-.1l4.725-4.245a.4.4,0,0,0,.12-.284.378.378,0,0,0-.12-.284Z" transform="translate(-1633.18 -525.185)" fill="#3c4150"/>
      <path id="Path_37262" data-name="Path 37262" d="M1814.5,1209.975l-4.714,4.048a.421.421,0,0,0-.142.284.4.4,0,0,0,.12.284l4.529,4.245a.356.356,0,0,0,.262.109.373.373,0,0,0,.273-.12.382.382,0,0,0-.011-.546l-4.212-3.95,4.387-3.765a.383.383,0,0,0,.044-.546.391.391,0,0,0-.535-.044" transform="translate(-874.896 -525.197)" fill="#3c4150"/>
      <path id="Path_37263" data-name="Path 37263" d="M2697.287,3400.118h-9.516a.4.4,0,0,0-.283.12.353.353,0,0,0-.1.284l.666,9.3a.375.375,0,0,0,.382.36h9.516a.372.372,0,0,0,.273-.12.412.412,0,0,0,.109-.295l-.677-9.3a.371.371,0,0,0-.371-.349m-8.5,9.3-.611-8.533h8.752l.611,8.533Z" transform="translate(-1638.508 -2430.635)" fill="#3c4150"/>
      <path id="Path_37264" data-name="Path 37264" d="M2026.36,3393.124a.347.347,0,0,0-.382.033l-7.89,5.587a.381.381,0,0,0-.153.327.362.362,0,0,0,.175.306l8.665,5.62a.417.417,0,0,0,.207.055.286.286,0,0,0,.186-.055.381.381,0,0,0,.2-.349l-.786-11.207a.379.379,0,0,0-.218-.317m-7.366,5.926,6.864-4.878.687,9.767Z" transform="translate(-1056.104 -2424.514)" fill="#3c4150"/>
      <path id="Path_37265" data-name="Path 37265" d="M2368.473,3400.118a4.734,4.734,0,0,0-4.769,5.14,5.382,5.382,0,0,0,5.282,4.921,4.729,4.729,0,0,0,4.758-5.129,5.382,5.382,0,0,0-5.271-4.933m.513,9.3a4.6,4.6,0,0,1-4.518-4.212,3.97,3.97,0,0,1,4-4.321,4.593,4.593,0,0,1,4.507,4.223,3.963,3.963,0,0,1-3.994,4.311" transform="translate(-1356.902 -2430.635)" fill="#3c4150"/>
      <path id="Path_37266" data-name="Path 37266" d="M1952.487,1420.612a50.573,50.573,0,0,0-50.884,52.62c.96,28.994,25.328,52.587,54.322,52.587a50.568,50.568,0,0,0,50.917-52.619c-.949-28.994-25.339-52.587-54.355-52.587m3.438,104.443c-28.591,0-52.62-23.265-53.558-51.856a49.807,49.807,0,0,1,50.121-51.823c28.612,0,52.652,23.265,53.591,51.856a49.8,49.8,0,0,1-50.153,51.823" transform="translate(-954.873 -708.52)" fill="#3c4150"/>
      <path id="Path_37267" data-name="Path 37267" d="M2161.032,1782.742a2.8,2.8,0,0,0-2.826,2.925,18.318,18.318,0,0,1-18.453,19.086,19.892,19.892,0,0,1-19.73-19.108,3.024,3.024,0,0,0-3-2.9,2.818,2.818,0,0,0-2.826,2.925,25.939,25.939,0,0,0,23.069,24.76l.164,5.238h-7.191a3.54,3.54,0,0,0-3.568,3.677l.087,2.7a1.5,1.5,0,0,0,1.484,1.43h24.215a1.416,1.416,0,0,0,1.4-1.451l-.087-2.7a3.8,3.8,0,0,0-3.776-3.655h-7.224l-.175-5.238a23.9,23.9,0,0,0,21.443-24.782,3.023,3.023,0,0,0-3-2.9m-11.043,33.687a3.043,3.043,0,0,1,3.012,2.913l.087,2.7a.632.632,0,0,1-.175.469.644.644,0,0,1-.458.185H2128.24a.719.719,0,0,1-.72-.677l-.088-2.7a2.775,2.775,0,0,1,2.8-2.892Zm-11.96-5.936c.622.055,1.255.076,1.888.076s1.277-.022,1.91-.076l.164,5.172H2138.2Zm1.888-.688a25.148,25.148,0,0,1-24.957-24.16,2.05,2.05,0,0,1,2.062-2.139,2.255,2.255,0,0,1,2.237,2.161,20.683,20.683,0,0,0,20.34,19.85,19.265,19.265,0,0,0,19.37-19.872,2.038,2.038,0,0,1,2.063-2.139,2.262,2.262,0,0,1,2.237,2.161,23.163,23.163,0,0,1-23.353,24.138" transform="translate(-1139.848 -1023.563)" fill="#3c4150"/>
      <path id="Path_37268" data-name="Path 37268" d="M2192.469,1590.711a14.837,14.837,0,0,0,14.143,10.639,13.738,13.738,0,0,0,13.826-14.295c0-.111-.643-19.657-.6-18.322a14.841,14.841,0,0,0-14.743-14.262,13.749,13.749,0,0,0-13.826,14.284l.6,18.322a14,14,0,0,0,.6,3.634m12.626-35.476a14.076,14.076,0,0,1,13.979,13.521l.055,1.8h-6.992a.382.382,0,0,0,0,.764h7.025l.2,6.207h-7.221a.382.382,0,1,0,0,.764h7.254l.2,6.206h-7.45a.382.382,0,0,0,0,.764h7.483v0l.055,1.812a12.973,12.973,0,0,1-13.062,13.509,14.064,14.064,0,0,1-13.411-10.094,13.392,13.392,0,0,1-.568-3.437l-.054-1.79v0h7.4a.382.382,0,0,0,0-.764h-7.428l-.2-6.206h7.625a.382.382,0,0,0,0-.764h-7.623a.327.327,0,0,0-.034.007l-.2-6.3a.374.374,0,0,0,.23.085h7.623a.382.382,0,0,0,0-.764h-7.623a.378.378,0,0,0-.252.1v0l-.065-1.921a12.975,12.975,0,0,1,13.062-13.5" transform="translate(-1206.891 -824.973)" fill="#3c4150"/>
      <path id="Path_37269" data-name="Path 37269" d="M1857.776,2800.628h121.073a3.18,3.18,0,0,0,3.208-3.5,3.818,3.818,0,0,0-3.732-3.437H1857.241a3.172,3.172,0,0,0-3.2,3.5,3.828,3.828,0,0,0,3.732,3.437m-.535-6.176h121.084a3.05,3.05,0,0,1,2.969,2.739,2.415,2.415,0,0,1-2.445,2.674H1857.776a3.049,3.049,0,0,1-2.968-2.739,2.407,2.407,0,0,1,2.433-2.674" transform="translate(-913.512 -1903.058)" fill="#3c4150"/>
      <path id="Path_37270" data-name="Path 37270" d="M1987.287,2923.683H1866.2a3.17,3.17,0,0,0-3.2,3.5,3.816,3.816,0,0,0,3.721,3.437h121.084a3.169,3.169,0,0,0,3.2-3.5,3.816,3.816,0,0,0-3.721-3.437m.524,6.177H1866.727a3.049,3.049,0,0,1-2.968-2.739,2.411,2.411,0,0,1,2.444-2.673h121.084a3.049,3.049,0,0,1,2.968,2.739,2.411,2.411,0,0,1-2.444,2.673" transform="translate(-921.307 -2016.15)" fill="#3c4150"/>
      <path id="Path_37271" data-name="Path 37271" d="M1875.956,3054.019a3.165,3.165,0,0,0-3.2,3.492,3.819,3.819,0,0,0,3.732,3.437h123.146a3.163,3.163,0,0,0,3.2-3.5,3.815,3.815,0,0,0-3.721-3.426Zm126.126,3.492a2.406,2.406,0,0,1-2.445,2.673H1876.49a3.04,3.04,0,0,1-2.968-2.739,2.4,2.4,0,0,1,2.433-2.663h123.157a3.039,3.039,0,0,1,2.969,2.728" transform="translate(-929.793 -2129.539)" fill="#3c4150"/>
      <path id="Path_37272" data-name="Path 37272" d="M1967.871,3184.267h-82.116a3.172,3.172,0,0,0-3.2,3.5,3.817,3.817,0,0,0,3.721,3.438h82.127a3.173,3.173,0,0,0,3.2-3.5,3.819,3.819,0,0,0-3.732-3.437m.535,6.166h-82.127a3.039,3.039,0,0,1-2.968-2.728,2.5,2.5,0,0,1,.622-1.9,2.437,2.437,0,0,1,1.822-.775h82.116a3.057,3.057,0,0,1,2.968,2.739,2.4,2.4,0,0,1-2.433,2.663" transform="translate(-938.316 -2242.851)" fill="#3c4150"/>
      <path id="Path_37273" data-name="Path 37273" d="M2858.059,1355.265a9.126,9.126,0,0,0-2.2,7.153,11.449,11.449,0,0,0,11.106,10.023H2944.6s.007,0,.011,0h16.03a9,9,0,0,0,6.807-2.94,9.136,9.136,0,0,0,2.221-7.185,11.441,11.441,0,0,0-11.092-10.023h-16.03l-.01,0H2864.9a9.022,9.022,0,0,0-6.841,2.964m-1.441,7.072a8.372,8.372,0,0,1,2.011-6.563,8.268,8.268,0,0,1,6.272-2.709h77.305l1.982,18.613h-77.224a10.666,10.666,0,0,1-10.347-9.34m101.958-9.272a10.667,10.667,0,0,1,10.333,9.353,8.349,8.349,0,0,1-2.027,6.571,8.256,8.256,0,0,1-6.243,2.689h-15.682l-1.982-18.613Z" transform="translate(-1785.021 -649.089)" fill="#3c4150"/>
      <path id="Path_37274" data-name="Path 37274" d="M3590.622,1397.417a.382.382,0,0,0,.54-.03l2.944-3.295a4.917,4.917,0,0,0,2.986,1.073c.079,0,.158,0,.236-.006a4.039,4.039,0,0,0,2.825-1.327,4.549,4.549,0,0,0-.648-6.351,4.942,4.942,0,0,0-3.53-1.3,4.038,4.038,0,0,0-2.825,1.327,4.5,4.5,0,0,0,.389,6.07l-2.946,3.3a.382.382,0,0,0,.03.539m3.1-9.4a3.277,3.277,0,0,1,2.3-1.074c.065,0,.131-.005.2-.005a4.193,4.193,0,0,1,2.781,1.108,3.785,3.785,0,0,1,.59,5.275,3.276,3.276,0,0,1-2.294,1.074,4.134,4.134,0,0,1-2.978-1.1,3.786,3.786,0,0,1-.59-5.275" transform="translate(-2424.188 -678.562)" fill="#3c4150"/>
      <path id="Path_37278" data-name="Path 37278" d="M1787.337,1045.617a17.647,17.647,0,0,0-17.1-15.466h-89.253l-1.215-19.171a24.065,24.065,0,0,0-24.269-22.742H1515.972a25.573,25.573,0,0,0-25.4,27.019l6.509,102.683,1.155,18.214,11.116,175.353a24.048,24.048,0,0,0,24.258,22.742h11.142a.065.065,0,0,0,.043-.011h128.341a25.566,25.566,0,0,0,25.415-27.008l-15.6-246.079h66.886l12.253,11.062a.382.382,0,0,0,.636-.324l-1.144-10.738h11.876a13.849,13.849,0,0,0,10.467-4.526,14,14,0,0,0,3.415-11.008m-253.731,287.868a23.3,23.3,0,0,1-23.494-22.021q-.077-1.223-.155-2.445l-.435-6.855q-.335-5.276-.669-10.552l-.858-13.534-1-15.8q-.55-8.677-1.1-17.354-.577-9.1-1.153-18.193l-1.161-18.318q-.562-8.864-1.124-17.728l-1.041-16.423-.913-14.405q-.37-5.836-.74-11.672-.313-4.942-.63-9.885c-.5-7.7-.974-15.405-1.462-23.1l-.55-8.683-.849-13.394q-.516-8.147-1.033-16.294-.551-8.692-1.1-17.384l-1.056-16.664q-.448-7.067-.9-14.133-.311-4.9-.621-9.792c-.076-1.2-.231-2.432-.231-3.64A24.8,24.8,0,0,1,1515.972,989h5.02a25.59,25.59,0,0,0-19.293,26.255l.3,4.682.774,12.207q.539,8.5,1.078,17,.6,9.527,1.209,19.053l1.165,18.375q.475,7.48.949,14.961.718,11.318,1.43,22.636.764,11.975,1.525,23.95.467,7.356.933,14.712.549,8.65,1.1,17.3l1.208,19.036q.631,9.959,1.263,19.917l1.265,19.945,1.213,19.119,1.106,17.439q.473,7.453.945,14.906l.731,11.519q.231,3.638.462,7.277l.141,2.219v.011c.691,11.245,8.142,19.181,18.082,21.967Zm-24.253-207.033.071.1-.022.022Zm188.43,180.832a24.8,24.8,0,0,1-24.651,26.19H1544.759a23.3,23.3,0,0,1-23.505-22v-.011q-.03-.472-.06-.944-.086-1.361-.173-2.722-.137-2.169-.275-4.338-.183-2.9-.367-5.791l-.449-7.081q-.26-4.1-.52-8.208-.291-4.586-.581-9.172-.316-4.987-.632-9.974-.337-5.307-.673-10.614-.352-5.544-.7-11.089l-.723-11.4q-.366-5.777-.732-11.554l-.732-11.542-.72-11.367q-.35-5.515-.7-11.029-.333-5.265-.667-10.529-.313-4.933-.625-9.866l-.573-9.04-.51-8.051-.437-6.9q-.177-2.793-.354-5.586-.689-10.863-1.346-21.75c-.208-3.484-.474-6.958-.695-10.444l-.56-8.831-.693-10.932q-.387-6.112-.775-12.224l-.806-12.707-.785-12.381q-.357-5.623-.713-11.245-.294-4.651-.59-9.3l-.415-6.548-.189-2.986c0-.033,0-.066-.006-.1A24.8,24.8,0,0,1,1527.113,989H1655.5A23.3,23.3,0,0,1,1679,1011.023l1.212,19.127h-3.648c-.283,0-.559.026-.838.041-.518-8.172-.926-14.6-1.19-18.764a19.012,19.012,0,0,0-19.162-17.951h-38.684a3.1,3.1,0,0,0-3.077,2.794l-.775,7.977a2.357,2.357,0,0,1-2.313,2.117h-39.754a2.189,2.189,0,0,1-2.15-1.691l-2.139-8.937a2.936,2.936,0,0,0-2.881-2.259h-36.12a20.2,20.2,0,0,0-20.559,21.323l1.135,17.929q.133,2.109.268,4.217l.586,9.223q.429,6.762.858,13.525.544,8.565,1.087,17.13.636,10.018,1.272,20.037.69,10.876,1.415,21.749c.43,6.494.79,12.987,1.2,19.481q.573,9.024,1.146,18.048.581,9.145,1.161,18.29.579,9.124,1.158,18.249l1.138,17.926,1.1,17.322q.522,8.218,1.043,16.437.484,7.634.969,15.269l.877,13.82.767,12.089.64,10.076q.247,3.891.494,7.782.165,2.6.33,5.206l.149,2.348.007.107a18.971,18.971,0,0,0,19.14,17.951h128.4a20.178,20.178,0,0,0,20.068-21.323c-1.849-29.155-10.65-167.916-15.647-246.695a15.817,15.817,0,0,0,2.1.158h2.393Zm-35.11-261.586a17.736,17.736,0,0,0,14.234,15.178l7.857,123.807h-106.3a24.254,24.254,0,0,0-24.04-22.905,22.385,22.385,0,0,0-22.545,22.905h-13.411l-3.926-61.909a5.728,5.728,0,0,1-.057-.9c0-.943-.108-1.9-.161-2.84-.206-3.635-.411-7.27-.659-10.9-.14-2.04-.309-4.077-.439-6.117q-.092-1.457-.185-2.914l-.238-3.75-.282-4.447-.317-5q-.172-2.711-.344-5.422-.181-2.851-.361-5.7l-.37-5.84-.37-5.839q-.181-2.85-.361-5.7l-.344-5.421q-.159-2.5-.317-5-.141-2.222-.282-4.445-.119-1.874-.238-3.748l-.185-2.911q-.061-.967-.123-1.935l-.052-.819c0-.006,0-.012,0-.018l-.055-.764-1.113-17.58a19.425,19.425,0,0,1,19.8-20.515h36.12a2.176,2.176,0,0,1,2.139,1.681l2.128,8.926a2.96,2.96,0,0,0,2.9,2.281h39.754a3.143,3.143,0,0,0,3.077-2.8l.775-7.977a2.332,2.332,0,0,1,2.313-2.106h38.684a18.257,18.257,0,0,1,18.4,17.242l1.188,18.754a13.675,13.675,0,0,0-8.908,4.468,14.027,14.027,0,0,0-3.382,10.994m-106.74,162.665a22.374,22.374,0,0,0,22.556-22.916h106.319l7.759,122.284c.022.415.044.829.044,1.233a19.435,19.435,0,0,1-19.348,19.282h-128.4a18.238,18.238,0,0,1-18.387-17.231l-7.966-125.569h13.4a24.244,24.244,0,0,0,24.018,22.916m-23.276-23.309c0-13.769,10.221-22.512,21.77-22.512a23.49,23.49,0,0,1,23.276,22.141c.011.131.022.273.022.4,0,13.814-10.251,22.512-21.792,22.512a23.471,23.471,0,0,1-23.254-22.152c-.011-.131-.022-.262-.022-.393m250.7-128.94a13.1,13.1,0,0,1-9.9,4.272h-12.3a.383.383,0,0,0-.38.423l1.083,10.167-11.621-10.491a.381.381,0,0,0-.256-.1h-70.193a16.864,16.864,0,0,1-16.354-14.77,13.267,13.267,0,0,1,3.192-10.4,13.1,13.1,0,0,1,9.942-4.3h93.667a16.864,16.864,0,0,1,16.342,14.783,13.245,13.245,0,0,1-3.223,10.416" transform="translate(-597.266 -332.366)" fill="#3c4150"/>
      <path id="Path_37287" data-name="Path 37287" d="M9.213,24.8a7.321,7.321,0,0,0,1.573-4.474q0-2.9-1.314-3.091L7.71,16.965Q5.662,16.654,5.661,15.3A4.764,4.764,0,0,1,6.44,12.82a2.423,2.423,0,0,1,1.992-1.427.89.89,0,0,1,.693.238c.125.187.253.372.391.549l.043.03q.274-.073.5-.891a4.474,4.474,0,0,0,.2-1.159l-.057-.335a2.739,2.739,0,0,0-1.952-.817q-1.053,0-2.179,2.154a9.521,9.521,0,0,0-1.11,3.182c-.01.079-.015.47-.015,1.172a6.648,6.648,0,0,0,.476,3.093,3.513,3.513,0,0,0,2.655,1.262q1.674.223,1.675.891a3.182,3.182,0,0,1-1.616,2.453,4.852,4.852,0,0,1-2.815,1.1,3.9,3.9,0,0,1-3.508-2.9,12.627,12.627,0,0,1-.953-4.98q0-3.387,3.783-8,1.9-2.2,2.611-2.941a10.1,10.1,0,0,0,1.4-2.452q.1-.25.9-2.7L9.614.168,9.541,0,9.4.089A15.975,15.975,0,0,1,6.7,5.1L2.944,9.467Q2.178,10.627,1.7,11.5A13.463,13.463,0,0,0,0,17.893a14.38,14.38,0,0,0,1.138,5.783q1.473,3.389,4.141,3.388a4.856,4.856,0,0,0,3.925-2.258" transform="translate(963.785 772.24) rotate(-7)" fill="#fff"/>
      <path id="Path_37288" data-name="Path 37288" d="M7.538,16.771a7.6,7.6,0,0,0,5.277-3.462,16.913,16.913,0,0,0,2.9-5.92,10.013,10.013,0,0,0,.261-4.215A3.388,3.388,0,0,0,13.624.049a.946.946,0,0,0-1.15.484A9.015,9.015,0,0,0,11.45,2.717a3.613,3.613,0,0,0-.161,1.724A1.639,1.639,0,0,0,12.6,5.52a2.1,2.1,0,0,0,2.126-.508,3.38,3.38,0,0,1,.2,1.909,10.169,10.169,0,0,1-4.2,5.538A14.97,14.97,0,0,1,.705,15.123a3.62,3.62,0,0,0-.65,0L0,15.2q.083.355,1.2.659a20.1,20.1,0,0,0,6.332.905" transform="translate(1028.543 755.27)" fill="#fff"/>
      <path id="Path_37289" data-name="Path 37289" d="M3.152,11.937Q6.181,7.41,8.233,4.487q.719-2.2,1.138-4.054A1.527,1.527,0,0,0,9.414.124L9.206,0,9,.124A10.913,10.913,0,0,1,8,3.31Q5.069,7.545,3.931,9.168A21.032,21.032,0,0,0,0,21.293,10.877,10.877,0,0,0,1.015,26.02a3.957,3.957,0,0,0,3.6,2.694,5.4,5.4,0,0,0,4.9-3.021,18.426,18.426,0,0,0,1.859-5.816L11.5,19.2a7.25,7.25,0,0,0-1.344-4.87,3.005,3.005,0,0,0-2.233-1.193,2.821,2.821,0,0,0-2.69,2.221,26.09,26.09,0,0,0-.745,3.7,21.474,21.474,0,0,0-.309,2.631l.123.309a26.7,26.7,0,0,0,2.69.7A6.357,6.357,0,0,0,7.694,20a2.1,2.1,0,0,0-.081-.658,3.434,3.434,0,0,0-2.278-.554A2.668,2.668,0,0,1,7.794,17a2.938,2.938,0,0,1,1.757.536,1.83,1.83,0,0,1,.848,1.561A6.5,6.5,0,0,1,8.641,23.1,4.948,4.948,0,0,1,5,25.342a3.914,3.914,0,0,1-.455-.021Q.9,24.807.9,19.935A16.473,16.473,0,0,1,2.242,14.1q.763-1.934.91-2.16" transform="matrix(0.978, -0.208, 0.208, 0.978, 1019.92, 730.308)" fill="#fff"/>
      <path id="Path_37290" data-name="Path 37290" d="M10.013,0c-.328,2.232-.624,4.258-.928,6.283a1.575,1.575,0,0,1-.466.765c-1.37,1.59-3.012,2.886-4.5,4.35C2.25,13.242.91,15.321,1.174,18.135A12.243,12.243,0,0,0,3.1,23.645a18.115,18.115,0,0,0,3.053,3.564,3.748,3.748,0,0,1,.517.53.58.58,0,0,1,.022.766c-.216.2-.377-.109-.529-.233a17.233,17.233,0,0,1-4.885-5.841A11.185,11.185,0,0,1,2.417,10.286a29.823,29.823,0,0,1,3.974-4.4A1.472,1.472,0,0,0,6.9,4.65a14.835,14.835,0,0,1,.155-2.992c.091-.524.308-.8.832-.831A4.348,4.348,0,0,0,10.013,0" transform="translate(963.664 743.605) rotate(7)" fill="#fff"/>
      <path id="Union_10" data-name="Union 10" d="M1.817,15.833C-1.129,13.189-.373,7.821,3.222,5.56A12,12,0,0,1,8.337,4.067c.536-.064,1.075-.112,1.606-.2,1.82-.315,3.3-1,4.035-2.831C14.509-.285,14.992-.3,15.89.763c.632.75-.179,1.238-.481,1.793-.346.636-.675.163-1-.068-.3-.213-.558-.54-.962-.039-1.067,1.326-2.657,1.693-4.262,1.985a29.387,29.387,0,0,0-3.5.618A6.917,6.917,0,0,0,1.137,9.036c-1.191,2.787.5,5.4,3.875,5.939a15.073,15.073,0,0,0,8.035-1.036c4.123-1.634,7.579-4.069,9.77-7.911a1.879,1.879,0,0,0,.309-.87c.008-.312.026-.672-.269-.853-.357-.22-.454.213-.667.349a1.253,1.253,0,0,1-2.067-.884,4.67,4.67,0,0,1,.166-2.151c.164-.459.293-.954.905-1.038a1.539,1.539,0,0,1,1.4.64,4.029,4.029,0,0,1,.945,3.091c.013,3.1-1.44,5.337-3.494,7.289A19.8,19.8,0,0,1,7.468,17.351c-.335.023-.668.036-1,.036A6.637,6.637,0,0,1,1.817,15.833Zm6.044-4.9c.537-.279,1-.51,1.46-.768.168-.095.439-.2.3-.452a.7.7,0,0,0-.437-.228,6.085,6.085,0,0,0-2.059.081C8.063,8.187,8.867,7.857,10.18,8.2c.6.156.826.457.588,1.062a2.7,2.7,0,0,1-2.561,1.693A3.153,3.153,0,0,1,7.86,10.938Z" transform="matrix(0.995, -0.105, 0.105, 0.995, 1019.389, 780.346)" fill="#fff" stroke="rgba(0,0,0,0)" stroke-width="1"/>
      <path id="Path_37293" data-name="Path 37293" d="M15.371,3.52a2.593,2.593,0,0,0,0-1.76A4.042,4.042,0,0,0,12.445,0Q10.377-.058,9.46,5.278q-.515,2.892-.976,5.786a17.618,17.618,0,0,1-1.207-2.95Q4.123,2.1,1.25,2.212q-1.49,0-1.2,3.177.117.682,1.723,1.532a5.356,5.356,0,0,0,1.95.8,2.067,2.067,0,0,0,.4-.513A10.938,10.938,0,0,1,7.281,12.48q.8,2.61,1.548,2.667.515.057,1.233-6.044T12.445,3a1.982,1.982,0,0,1,1.522.936,5.123,5.123,0,0,1,.66.935q.515,0,.747-1.361" transform="translate(972.725 722.027) rotate(1)" fill="#f6f8fa"/>
    </g>
    <path id="Path_37480" data-name="Path 37480" d="M165.8,28.2c-1.244,8.277-2.362,15.794-3.514,23.3a5.825,5.825,0,0,1-1.765,2.836c-5.189,5.9-11.407,10.7-17.033,16.136-7.083,6.841-12.157,14.554-11.158,24.992a44.811,44.811,0,0,0,7.306,20.435A67.588,67.588,0,0,0,151.2,129.121a14.038,14.038,0,0,1,1.956,1.966,2.119,2.119,0,0,1,.082,2.843c-.819.754-1.428-.406-2-.865-7.549-6.037-14.194-12.864-18.5-21.665-7.768-15.885-6.112-30.89,4.3-45.047a111.451,111.451,0,0,1,15.047-16.332,5.407,5.407,0,0,0,1.935-4.574,53.923,53.923,0,0,1,.588-11.1c.344-1.942,1.165-2.961,3.151-3.083,2.717-.167,5.158-1.23,8.042-3.067" transform="translate(-37.808 181.355)" fill="#00758a"/>
    <g id="Ellipse_221" data-name="Ellipse 221" transform="translate(181.013 83.138)" fill="none" stroke="#038670" stroke-width="0.5">
      <circle cx="58.5" cy="58.5" r="58.5" stroke="none"/>
      <circle cx="58.5" cy="58.5" r="58.25" fill="none"/>
    </g>
    <g id="Ellipse_222" data-name="Ellipse 222" transform="translate(172.013 74.138)" fill="none" stroke="#038670" stroke-width="0.5" opacity="0.35">
      <circle cx="67.5" cy="67.5" r="67.5" stroke="none"/>
      <circle cx="67.5" cy="67.5" r="67.25" fill="none"/>
    </g>
  </g>
</svg>
