<svg xmlns="http://www.w3.org/2000/svg" xmlns:xlink="http://www.w3.org/1999/xlink" width="286" height="429" viewBox="0 0 286 429">
    <defs>
        <linearGradient id="a" x1="45.011%" x2="52.64%" y1="71.547%" y2="40.531%">
            <stop offset="0%" stop-color="#F2F2F2"/>
            <stop offset="100%" stop-color="#E2E2E2"/>
            <stop offset="100%" stop-color="#D9D9D9"/>
        </linearGradient>
        <linearGradient id="b" x1="46.848%" x2="55.009%" y1="42.135%" y2="55.964%">
            <stop offset="0%" stop-color="#F2F2F2"/>
            <stop offset="100%" stop-color="#E2E2E2"/>
            <stop offset="100%" stop-color="#D9D9D9"/>
        </linearGradient>
        <linearGradient id="c" x1="50%" x2="50%" y1="100%" y2="0%">
            <stop offset="0%" stop-color="#F89096"/>
            <stop offset="100%" stop-color="#B1B4E5"/>
        </linearGradient>
        <linearGradient id="d" x1="50%" x2="50%" y1="100%" y2="0%">
            <stop offset="0%" stop-color="#F89096"/>
            <stop offset="100%" stop-color="#B1B4E5"/>
        </linearGradient>
        <radialGradient id="e" cx="51.411%" cy="37.949%" r="110.613%" fx="51.411%" fy="37.949%" gradientTransform="matrix(0 .52584 -1 0 .894 .11)">
            <stop offset="0%" stop-color="#FFF"/>
            <stop offset="76.599%" stop-color="#FAFCFF"/>
            <stop offset="100%" stop-color="#F2F2F2"/>
        </radialGradient>
        <radialGradient id="f" cx="50.001%" cy="43.962%" r="74.856%" fx="50.001%" fy="43.962%" gradientTransform="matrix(-.73336 0 0 -1 .867 .88)">
            <stop offset="0%" stop-color="#FFF"/>
            <stop offset="76.599%" stop-color="#FAFCFF"/>
            <stop offset="100%" stop-color="#E0E0E0"/>
        </radialGradient>
        <path id="g" d="M85.16 47.435c-.283 2.83-2.592 5.029-5.358 5.166a358.177 358.177 0 0 1-72.217.029c-2.709-.318-4.88-2.39-5.315-5.034C.024 36.266.011 19.12 2.077 6.816c.35-2.998 2.889-5.259 5.825-5.26a549.044 549.044 0 0 1 71.551.65c2.987.037 5.49 2.279 5.843 5.203 1.837 11.944 1.712 25.022-.135 40.026z"/>
        <linearGradient id="h" x1="0%" y1="50%" y2="50%">
            <stop offset="0%" stop-color="#F89096"/>
            <stop offset="100%" stop-color="#B1B4E5"/>
        </linearGradient>
        <linearGradient id="j" x1="0%" y1="50%" y2="50%">
            <stop offset="0%" stop-color="#F89096"/>
            <stop offset="100%" stop-color="#B1B4E5"/>
        </linearGradient>
        <linearGradient id="k" x1="0%" y1="50%" y2="50%">
            <stop offset="0%" stop-color="#F89096"/>
            <stop offset="100%" stop-color="#B1B4E5"/>
        </linearGradient>
        <filter id="l" width="100%" height="100%" x="0%" y="0%" filterUnits="objectBoundingBox">
            <feGaussianBlur in="SourceGraphic"/>
        </filter>
    </defs>
    <g fill="none" fill-rule="evenodd" transform="translate(-19 1)">
        <g fill-rule="nonzero">
            <g transform="translate(0 232.3)">
                <path fill="#E5E5E5" d="M35.573 71.525l-.16-.09a8.178 8.178 0 1 1-14.361-7.807l-.084-.045L49.376.285l17.772 5.746-31.575 65.494z"/>
                <path fill="url(#a)" stroke="#000" stroke-width="1.5" d="M16.573 71.525l-.16-.09a8.178 8.178 0 1 1-14.361-7.807l-.084-.045L30.376.285l17.772 5.746-31.575 65.494z" transform="translate(19)"/>
                <path fill="#FFF" stroke="#000" stroke-width="1.5" d="M20.434 70.152l.182-.019a8.19 8.19 0 1 1 16.258-1.872l7.298 40.66-13.468 13.057-10.27-51.826z"/>
                <circle cx="38.7" cy="118.8" r="11.7" fill="#E5E5E5" stroke="#000" stroke-width="1.5"/>
            </g>
            <g transform="translate(219.6 217)">
                <path fill="#E5E5E5" d="M32.381 86.825l.16-.09a8.18 8.18 0 1 0 14.362-7.808l.083-.045L18.58 15.577.81 21.322l31.571 65.503z"/>
                <path fill="url(#b)" stroke="#000" stroke-width="1.5" d="M32.381 71.825l.16-.09a8.18 8.18 0 1 0 14.362-7.808l.083-.045L18.58.577.81 6.322l31.571 65.503z" transform="translate(0 15)"/>
                <path fill="#FFF" stroke="#000" stroke-width="1.5" d="M32.582 80.588l.173.062a8.199 8.199 0 0 0 12.011 10.038c3.232-2.095 3.4-4.254 3.4-4.254l29-62.93-16.011-9.679-28.573 66.763z"/>
                <circle cx="72" cy="11.7" r="11.7" fill="#E5E5E5" stroke="#000" stroke-width="1.5"/>
            </g>
        </g>
        <path stroke="#000007" stroke-width="1.5" d="M183.243 8.517c.514-.415 1.13-.415 1.658-.013l.285.218 1.143 44.115h-4.784l1.431-44.104.267-.216zm.807-8.184a4.07 4.07 0 1 1-.002 8.142 4.07 4.07 0 0 1 .002-8.142z"/>
        <path fill="url(#c)" fill-rule="nonzero" stroke="#000" stroke-width="1.5" d="M96.332 202.067s-32.818-1.856-55.525 28.599a59.974 59.974 0 0 0-4.78 7.583 4.562 4.562 0 0 0 .046 4.744c2.79 4.91 11.43 16.982 33.711 17.81 12.804-54.76 26.547-58.736 26.547-58.736zm101.126-.293s33.84.587 53.388 29.463a59.89 59.89 0 0 1 4.77 7.584 4.566 4.566 0 0 1-.045 4.743c-2.79 4.91-10.158 16.055-32.41 16.882-8.43-52.026-25.701-58.672-25.701-58.672h-.002z"/>
        <g fill-rule="nonzero" stroke="#000" stroke-width="1.5">
            <path fill="url(#d)" d="M183.48 104.322c5.588-.1 12.981 4.466 12.981-37.344s-7.394-37.245-12.98-37.344M13.783 104.322c-5.587-.1-13.722 0-13.722-37.344s8.135-37.245 13.722-37.344" transform="translate(46.8 53.2)"/>
            <path fill="url(#e)" d="M180.019 82.962c0 8.943-1.43 16.358-3.782 22.504-7.171 18.741-22.915 25.695-32.833 28.274-6.596 1.617-20.821 6.35-53.051 6.35-32.23 0-47.869-5.06-53.266-6.35-9.385-2.182-24.03-8.167-31.452-25.409a52.313 52.313 0 0 1-2.774-8.395C1.67 95.009.99 89.384.99 82.96V52.386c0-5.01.429-9.541 1.204-13.638.64-3.379 1.515-6.462 2.58-9.276C15.887.105 47.657.086 47.657.086h85.693s27.501.016 40.281 23.67c3.868 7.16 6.388 16.484 6.388 28.63v30.576zm-11.632 155.781s.196-3.504 4.072-47.994c3.908-44.86-34.294-42.052-34.294-42.052l-48.995-1.119-44.42 1.12s-37.175-3.795-34.29 42.05c2.8 44.573 3.257 47.995 3.257 47.995s1.207 13.012 1.24 17.12c.11 13.475 4.038 59.558 25.133 72.305 27 16.314 75.142 16.707 101.52 0 20.826-13.19 25.02-58.83 25.133-72.305.03-4.108 1.644-17.12 1.644-17.12z" transform="translate(54.8 53.2)"/>
        </g>
        <ellipse cx="177.975" cy="315.198" stroke="#000005" rx="2.897" ry="2.883"/>
        <circle cx="167.583" cy="315.198" r="2.883" fill="#000007" fill-rule="nonzero"/>
        <path stroke="#000007" stroke-linecap="round" stroke-linejoin="round" stroke-width="2" d="M155.497 342.737a267.255 267.255 0 0 0 44.974-3.67m-109.595-1.154a411.158 411.158 0 0 0 42.432 4.286"/>
        <path stroke="#000007" stroke-width="1.5" d="M102.22 370.112c-14.812-11.04-17.057-76.477-18.45-105.61-2.001-41.837 27.645-38.375 27.645-38.375h68.086s30.363-2.563 27.647 38.375c-2.802 42.239-4.227 92.402-19.8 105.61-14.854 12.597-70.266 11.077-85.129 0z"/>
        <path stroke="#000005" stroke-linecap="round" stroke-linejoin="round" stroke-width="1.5" d="M250.34 231.422c-1.414 4.854-4.54 8.073-4.878 7.281-6.975-16.393-21.963-28.747-32.162-34.303m-133.56.791c-17.833 5.423-29.87 25.853-32.699 33.512-3.94-1.117-6.799-7.28-6.799-7.28"/>
        <path fill="url(#f)" fill-rule="nonzero" stroke="#000" stroke-width="1.5" d="M112.823 68.957s-39.642.025-39.642 46.554v9.239c0 33.324 23.385 43.485 30.319 45.485 7.475 2.16 13.573 5.366 42.262 5.366 15.217 0 72.849 1.88 72.849-50.85v-9.24c0-46.53-39.643-46.554-39.643-46.554h-66.145z"/>
        <path fill="#000007" d="M117.127 136.45h55.92s.092 18.35-28.145 18.35c-26.784 0-27.775-18.35-27.775-18.35z"/>
        <path fill="#000" fill-rule="nonzero" d="M117.127 136.45h55.92s.092 18.35-28.145 18.35c-26.784 0-27.775-18.35-27.775-18.35z"/>
        <path fill="#E5E5E5" fill-rule="nonzero" stroke="#000" stroke-width="2" d="M144.54 198.315c17.812 0 28.82-.237 28.82 7.045 0 7.866-11.008 7.045-28.82 7.045s-28.82-.057-28.82-7.045c0-6.941 11.009-7.045 28.82-7.045z"/>
        <g transform="translate(101.5 249.2)">
            <mask id="i" fill="#fff">
                <use xlink:href="#g"/>
            </mask>
            <path stroke="#E5E5E5" stroke-width="3" d="M86.651 47.603c-.364 3.545-3.26 6.322-6.697 6.49a359.722 359.722 0 0 1-72.543.027c-3.365-.395-6.076-2.969-6.612-6.232-2.258-11.39-2.32-28.702-.212-41.246C1.024 2.904 4.19.058 7.817.059a549.688 549.688 0 0 1 71.655.646c3.731.047 6.87 2.847 7.307 6.476 1.83 11.895 1.765 25.039-.128 40.422z"/>
            <path fill="url(#h)" fill-rule="nonzero" d="M.275 19.684c-.564-2.79 2.06-4.186 7.87-4.186 8.716 0 5.37 9.443 25.246 9.443 19.875 0 13.348 8.147 25.835 8.147 12.486 0 7.471-19.388 26.944-19.388 1.719 0 2.579 4.313 2.581 12.938l-2.58 25.91-40.727 4.858-41.426-3.678L.275 19.684z" mask="url(#i)" opacity=".45"/>
            <path fill="url(#j)" fill-rule="nonzero" d="M-1.6 32.002c1.319-3.655 5.328-5.482 12.028-5.482 10.05 0 11.418 7.846 21.055 7.846S43.215 20.9 54.328 20.9c11.112 0 10.118 8.226 17.555 8.226 7.438 0 8.53-5.48 13.487-5.48 3.304 0 4.164.958 2.58 2.874l-2.58 25.91-40.727 4.858L3.218 53.61-1.6 32.002z" mask="url(#i)" opacity=".7"/>
            <path fill="url(#k)" fill-rule="nonzero" d="M-.582 28.297c6.267 10.85 11.78 16.638 16.54 17.365 7.141 1.09 9.916-5.974 17.11-5.974 7.194 0 9.622 5.974 18.465 5.974 8.844 0 12.287-12.575 23.591-12.575 7.536 0 11.706 2.2 12.508 6.6l-1.87 13.606-40.727 3.77L3.61 54.21-.582 28.297z" mask="url(#i)"/>
        </g>
        <g transform="translate(101.1 92)">
            <path fill="#CDCDCD" fill-rule="nonzero" d="M14.572 25.721c5.964 0 10.798-4.834 10.798-10.798 0-5.963-4.834-10.798-10.798-10.798-5.963 0-10.798 4.835-10.798 10.798 0 5.964 4.835 10.798 10.798 10.798zm0 3.551C6.647 29.272.223 22.848.223 14.923S6.647.574 14.573.574c7.924 0 14.348 6.424 14.348 14.35 0 7.924-6.424 14.348-14.349 14.348z"/>
            <circle cx="14.572" cy="14.923" r="10.622" stroke="#FFF" stroke-width="3"/>
            <circle cx="14.572" cy="14.923" r="9.523" fill="#000" fill-rule="nonzero"/>
            <circle cx="19.015" cy="7.85" r="3.15" fill="#FFF" fill-rule="nonzero"/>
        </g>
        <g transform="translate(158.1 92)">
            <path fill="#CDCDCD" fill-rule="nonzero" d="M14.572 25.721c5.964 0 10.798-4.834 10.798-10.798 0-5.963-4.834-10.798-10.798-10.798-5.963 0-10.798 4.835-10.798 10.798 0 5.964 4.835 10.798 10.798 10.798zm0 3.551C6.647 29.272.223 22.848.223 14.923S6.647.574 14.573.574c7.924 0 14.348 6.424 14.348 14.35 0 7.924-6.424 14.348-14.349 14.348z"/>
            <circle cx="14.572" cy="14.923" r="10.622" stroke="#FFF" stroke-width="3"/>
            <circle cx="14.572" cy="14.923" r="9.523" fill="#000" fill-rule="nonzero"/>
            <circle cx="19.015" cy="7.85" r="3.15" fill="#FFF" fill-rule="nonzero"/>
        </g>
        <ellipse cx="144" cy="416.35" fill="#000" fill-rule="nonzero" filter="url(#l)" opacity=".1" rx="91.8" ry="11.25" style="mix-blend-mode:multiply"/>
    </g>
</svg>
