<svg xmlns="http://www.w3.org/2000/svg" width="930" height="219" viewBox="0 0 930 219">
    <defs>
        <linearGradient id="a1" x1="100%" x2="0%" y1="50%" y2="50%">
            <stop offset="0%" stop-color="#D56028"/>
            <stop offset="100%" stop-color="#CECECE"/>
        </linearGradient>
        <linearGradient id="a2" x1="64.931%" x2="65.807%" y1="0%" y2="53.862%">
            <stop offset="0%" stop-color="#D56028"/>
            <stop offset="100%" stop-color="#CECECE"/>
        </linearGradient>
        <linearGradient id="a3" x1="62.215%" x2="62.215%" y1="2.497%" y2="52.847%">
            <stop offset="0%" stop-color="#D56028"/>
            <stop offset="100%" stop-color="#CECECE"/>
        </linearGradient>
    </defs>
    <path fill="url(#a1)" fill-rule="evenodd" d="M126.99 59.256C311.257 57.427 440.474 192.7 518.995 218.888c78.52 26.188 127.599-1.008 176.674-28.201 49.076-27.193 109.603-42.301 202.848 30.215 93.245 72.517 186.278-97.007 186.278-97.007s34.39-66.78 126.1-64.64c92.963 2.17 103.173 80.244 127.738 111.447 24.565 31.204 47.01 109.167 366.23 109.167H2130v19.733s-429.356 7.975-594.548 14.434c-126.94 4.969-171.437 51.143-187.812 82.358-16.375 31.214-54.043 122.592-132.65 121.478-78.609-1.114-109.724-30.091-167.04-104.766-57.318-74.674-153.522-47.673-194.42-35.587-40.897 12.085-134.142 37.265-202.847-34.245-68.706-71.51-137.414-51.366-178.31-24.171C431.479 346.297 283.888 522 126.99 522c-384.741-3.117-365.129-192.363-365.129-242.13 0-49.768-36.464-228.544 365.13-220.614z" opacity=".1" transform="translate(0 -59)"/>
    <path fill="url(#a2)" fill-rule="evenodd" d="M-1207 253.174c-.696 33.773 731.173 17.81 842.999 7.097 111.826-10.714 125.67-33.798 140.58-47.81 14.908-14.012 69.225-85.722 135.255-86.55 66.03-.829 101.177 82.428 152.296 103.86 51.119 21.433 83.07-16.413 115.021-38.669 31.95-22.255 71.354-34.621 132.06 24.729 60.708 59.35 120.346-60.997 120.346-60.997s20.987-47.81 73.006-47.81c52.018 0 76.094 59.35 92.07 82.429 15.975 23.08 10.205 78.572 387.85 78.572H1452v18.18s-633.19 7.883-748.335 9.995c-82.713 1.516-90.524 42.864-101.185 65.944-10.661 23.079-35.144 90.674-86.265 89.848-51.122-.825-71.345-22.255-108.622-77.48-37.277-55.226-99.045-40.39-125.67-30.5s-87.33 30.5-132.059-28.03c-44.729-58.528-89.46-26.45-116.088-4.195C7.15 334.043-8.817 376.335-65.269 387.05c-56.452 10.713-89.46-29.674-122.476-51.106-33.015-21.432-100.11-50.283-302.46-46.984-202.351 3.298-716.261-3.55-716.261-3.55l-.534-32.235z" opacity=".8" transform="translate(0 -57)"/>
    <path fill="url(#a3)" fill-rule="evenodd" d="M-985.672 264.81s656.13-4.651 785.963-9.656c130.286-5.004 169.46-27.35 189.998-39.316 34.415-20.039 72.458-70.436 132.743-67.63 89.726 4.174 78.7 67.53 138.888 87.669 82.352 27.553 196.66-85.906 269.175-14.936 44.268 43.322 110.48-13.736 126.284-37.375C673.183 159.926 701.303 79 781.83 79c80.527 0 114.243 82.267 129.67 103.115 15.428 20.847 25.256 66.83 285.137 70.696 182.452 2.716 281.652 5.655 279.537 5.268H1871v28.675c-5.743 0-314.057 5.509-376.115 5.625-263.55 4.353-426.873 10.704-489.968 19.054-94.642 12.524-102.63 69.72-114.92 93.098-12.291 23.378-50.394 96.292-109.393 95.462-58.999-.83-85.838-46.698-128.949-102.608-27.04-35.068-61.56-41.276-92.289-31.256-30.727 10.019-110.408 34.633-172.075-20.04-72.518-64.29-118.454-17.726-153.64 1.577-31.955 17.534-41.79 36.738-99.557 44.25-39.819 5.178-67.42-13.736-120.452-49.254C-33.392 285.306-986 299.64-986 299.64l.328-34.83z" opacity=".4" transform="translate(0 -79)"/>
</svg>
