<svg id="Component_248_1" data-name="Component 248 – 1" xmlns="http://www.w3.org/2000/svg" xmlns:xlink="http://www.w3.org/1999/xlink" width="355.712" height="126.134" viewBox="0 0 355.712 126.134">
  <defs>
    <clipPath id="clip-path">
      <rect id="Rectangle_20768" data-name="Rectangle 20768" width="355.712" height="126.134" fill="#fff"/>
    </clipPath>
  </defs>
  <g id="Group_27606" data-name="Group 27606" clip-path="url(#clip-path)">
    <path id="Path_26449" data-name="Path 26449" d="M281.9,65.92a49.869,49.869,0,0,1-13.809,1.656,14.4,14.4,0,0,1-7.546-1.9,11.553,11.553,0,0,1-4.638-10.808,24.905,24.905,0,0,1,3.48-9.731c.349-.573.61-1.2.965-1.768.542-.853,1.314-1.463,2.323-.953,1.083.542.965,1.488.4,2.4a31.088,31.088,0,0,0-3.648,7.552c-2.136,7.042.815,11.412,8.168,12.053a39.338,39.338,0,0,0,14.239-1.569c-.019,1.028.006,2.055.068,3.076" fill="#fff"/>
    <path id="Path_26450" data-name="Path 26450" d="M346.331,13.2c-.859,6.207-4.725,11.985-8.691,16.667a112.891,112.891,0,0,1-13.691,13.583q-2.6,2.167-5.311,4.153c-.709-.722-1.444-1.42-2.2-2.073A109.36,109.36,0,0,0,335.9,27.283c3.3-3.954,6.133-8.287,7.341-13.429,1.326-5.61-.953-9.239-6.593-10.453-4.477-.966-8.916-.337-13.3.647-10.584,2.366-20.19,7.023-29.386,12.626-.8.486-1.6.965-2.372,1.494a1.7,1.7,0,0,1-2.4-.078,1.727,1.727,0,0,1-.187-.239,2.046,2.046,0,0,1,.891-2.21l.392-.187q2.222-1.383,4.439-2.758c3.835-1.837,7.328-4.29,11.3-5.9A121.313,121.313,0,0,1,320,1.788C325.391.344,330.845-.522,336.43.35a12.145,12.145,0,0,1,8.07,4.277c2,2.534,2.26,5.491,1.83,8.573" fill="#fff"/>
    <path id="Path_26451" data-name="Path 26451" d="M311.021,102.852h0q.549.681-.344,3.06-.689,2.4-1.511,2.306s-.354-.588-1.054-1.77a3.468,3.468,0,0,0-2.5-1.932q-2.886-.324-5.325,10.245t-3.447,10.252q-1.239-.141-2.155-5a17.866,17.866,0,0,0-4.54-9.8,3.215,3.215,0,0,1-.709.745q-.642.138-3.257-1.707t-2.681-3.088q0-5.58,2.682-5.277,4.971.354,9.352,11.583a49.49,49.49,0,0,0,1.7,5.356q1.193-5.031,2.8-10.014,2.7-9.2,6.186-8.6,2.68.3,4.814,3.638" fill="#fff"/>
    <path id="Path_26452" data-name="Path 26452" d="M332.123,74.069q-.094-.628-.208-1.255C329.4,58.942,314,51.713,301.456,58.144l-.182.093c.193.068.386.149.573.23a36.131,36.131,0,0,1,9.58,6.206,1.773,1.773,0,0,1-.837,3.064l-.033.007c-4.022.747-8.019,1.787-12.147,1.426a15.237,15.237,0,0,1-8.131-3.014,5.653,5.653,0,0,1-1.787-2.135.691.691,0,0,1-.043-.118c-2.154.772-4.34,1.456-6.55,2.017a37.582,37.582,0,0,0,2.808,12.24,18.252,18.252,0,0,0,18,12.04,38.946,38.946,0,0,0,11.761-2.06,17.432,17.432,0,0,1,5.36-1.14c2.223.031,4.738,1.264,4.8,3.717a9.5,9.5,0,0,1-3.044,6.668,22.413,22.413,0,0,1-6.986,4.937,20.242,20.242,0,0,0-.261,2.553,26.5,26.5,0,0,1-.56,2.6c-.449,1.662-1.09,3.231-1.681,4.831a62.345,62.345,0,0,1-4.415,9.47q-.6,1.05-1.245,2.079c-.193.311-1.444,1.862-1.264,2.142.243.392,1.887-.174,2.229-.28.747-.231,1.476-.536,2.21-.822a33.078,33.078,0,0,0,14.046-10.734,46.206,46.206,0,0,0,3.493-5.4,51.024,51.024,0,0,0,3.032-6.594c3.461-9.176,3.374-18.552,1.942-28.1M288.592,60.553a4.92,4.92,0,0,1,2.235-2.546,10.157,10.157,0,0,1,4.887-.99c.349.012.7.037,1.04.074A115.367,115.367,0,0,0,316.44,45.53a41.856,41.856,0,0,0-5.429-4.109,35.516,35.516,0,0,0-9.282-4.2,16.356,16.356,0,0,0-5.193-.754c-3.231.137-5.3,1.868-7.2,4.308a37.045,37.045,0,0,0-7.5,22.071c1.631-.461,3.25-1,4.856-1.581.635-.231,1.27-.473,1.9-.71" fill="#fff"/>
    <path id="Path_26453" data-name="Path 26453" d="M271.753,14.829a54.192,54.192,0,0,1-8.936,11.6c-.485.48-1.544,1.278-.511,1.8a49.811,49.811,0,0,1,14.548,10.9c.713.784,1.242-.25,1.545-.866a45.92,45.92,0,0,1,7.846-11.291q.791-.835,1.623-1.63c.373-.357,1.3-.86,1.33-1.45.029-.669-1.178-1.151-1.677-1.4a47.563,47.563,0,0,1-12.34-8.994c-.4-.4-1.262-1.693-1.935-1.216a1.555,1.555,0,0,0-.439.6q-.506.987-1.054,1.952" fill="#fff"/>
    <path id="Path_26454" data-name="Path 26454" d="M16.794,56.492H15.621A2.318,2.318,0,0,1,14,56.01a1.408,1.408,0,0,1-.518-1.036,1.222,1.222,0,0,1,.379-1,1.418,1.418,0,0,1,.932-.31,4,4,0,0,1,.74.069q.363.069.674.138l.31-1.931a6.565,6.565,0,0,0-1.863-.276,3.546,3.546,0,0,0-2.6.845,2.672,2.672,0,0,0-.845,1.949,2.386,2.386,0,0,0,.276,1.138,7.739,7.739,0,0,0,.551.9H10.345V58.53h6.449Z" fill="#fff"/>
    <path id="Path_26455" data-name="Path 26455" d="M234.1,62.114a8.117,8.117,0,0,0-.447-2.759,6.061,6.061,0,0,0-1.277-2.122,5.681,5.681,0,0,0-2-1.362,6.949,6.949,0,0,0-2.655-.483,7.567,7.567,0,0,0-3.139.638,7.752,7.752,0,0,0-2.414,1.674,7.463,7.463,0,0,0-1.551,2.378,7.21,7.21,0,0,0-.552,2.758,6.89,6.89,0,0,0,.31,2.259,5.232,5.232,0,0,0,.587,1.259H57.208a2.761,2.761,0,0,1-2.4-.9,3.829,3.829,0,0,1-.638-2.276V45.664H50.208v18.9a2.8,2.8,0,0,1-.259,1.311,1.045,1.045,0,0,1-1.017.482H28.759a2.674,2.674,0,0,1-2.327-.9,3.829,3.829,0,0,1-.638-2.276V45.664H21.862v18.9a2.93,2.93,0,0,1-.241,1.345,1.068,1.068,0,0,1-1.034.448H5.1a1.887,1.887,0,0,1-.449-.052.71.71,0,0,1-.362-.224,1.374,1.374,0,0,1-.259-.535,3.6,3.6,0,0,1-.1-.948v-5.14H0v5.828a7.235,7.235,0,0,0,.259,1.93,4.317,4.317,0,0,0,.828,1.62,4.035,4.035,0,0,0,1.482,1.1,5.479,5.479,0,0,0,2.258.414h15.9a5.207,5.207,0,0,0,2.414-.6,4.441,4.441,0,0,0,1.827-1.707A5.126,5.126,0,0,0,26.3,69.629a3.654,3.654,0,0,0,2.4.725H49.111a5.28,5.28,0,0,0,2.516-.568,3.922,3.922,0,0,0,1.657-1.708,5.192,5.192,0,0,0,1.4,1.569,3.8,3.8,0,0,0,2.4.707H234.113Zm-3.968,4.24h-3a3.666,3.666,0,0,1-1.587-.518,4.033,4.033,0,0,1-1.086-1.085,3.33,3.33,0,0,1-.5-1.949,3.6,3.6,0,0,1,.293-1.483,3.681,3.681,0,0,1,.759-1.119,3.341,3.341,0,0,1,1.068-.725,3.158,3.158,0,0,1,1.26-.259,3.034,3.034,0,0,1,1.258.242,2.534,2.534,0,0,1,.879.637,2.5,2.5,0,0,1,.5.88,3.164,3.164,0,0,1,.156.965Z" fill="#fff"/>
    <path id="Path_26456" data-name="Path 26456" d="M227.632,53.251a2.038,2.038,0,0,0,1.487-.587,1.967,1.967,0,0,0,.046-2.781l-.046-.046a2.041,2.041,0,0,0-1.487-.586,2,2,0,0,0-1.454.586,1.967,1.967,0,0,0-.046,2.781l.046.046a2,2,0,0,0,1.454.587" fill="#fff"/>
    <path id="Path_26457" data-name="Path 26457" d="M5.38,94.631a2,2,0,1,0,0-4,2,2,0,1,0,0,4" fill="#fff"/>
    <path id="Path_26458" data-name="Path 26458" d="M12.241,94.044a2,2,0,0,0-1.482-3.413,2,2,0,1,0,0,4,2,2,0,0,0,1.482-.587" fill="#fff"/>
    <path id="Path_26459" data-name="Path 26459" d="M25.655,98.009H21.724v9.725h-6.93v-4.1a7.976,7.976,0,0,0-.466-2.776,6.206,6.206,0,0,0-1.345-2.172,6.057,6.057,0,0,0-2.1-1.414,7.124,7.124,0,0,0-2.707-.5,6.839,6.839,0,0,0-2.966.638A7.074,7.074,0,0,0,2.9,99.147a8.307,8.307,0,0,0-1.516,2.569A8.645,8.645,0,0,0,.827,104.8a7.925,7.925,0,0,0,.414,2.518,5.922,5.922,0,0,0,1.346,2.225,6.8,6.8,0,0,0,2.4,1.585,9.362,9.362,0,0,0,3.568.6h17.1Zm-14.793,9.725H8.448a5.137,5.137,0,0,1-1.4-.189,3.164,3.164,0,0,1-1.189-.622,3.1,3.1,0,0,1-.828-1.1,3.886,3.886,0,0,1-.311-1.638A3.776,3.776,0,0,1,5,102.7a3.638,3.638,0,0,1,.723-1.12,3.316,3.316,0,0,1,1.018-.725A2.854,2.854,0,0,1,7.93,100.6a2.511,2.511,0,0,1,2.191,1.052,5.2,5.2,0,0,1,.741,3.018Z" fill="#fff"/>
    <path id="Path_26460" data-name="Path 26460" d="M19.345,114.079a2.028,2.028,0,0,0-1.482.574,1.9,1.9,0,0,0-.586,1.409,1.935,1.935,0,0,0,.586,1.444,2.2,2.2,0,0,0,2.965,0,1.935,1.935,0,0,0,.586-1.444,1.9,1.9,0,0,0-.586-1.409,2.032,2.032,0,0,0-1.483-.574" fill="#fff"/>
    <path id="Path_26461" data-name="Path 26461" d="M24.69,114.079a2.028,2.028,0,0,0-1.482.574,1.887,1.887,0,0,0-.587,1.409,1.93,1.93,0,0,0,.587,1.444,2.2,2.2,0,0,0,2.964,0,1.935,1.935,0,0,0,.586-1.444,1.9,1.9,0,0,0-.586-1.409,2.028,2.028,0,0,0-1.482-.574" fill="#fff"/>
    <path id="Path_26462" data-name="Path 26462" d="M58.23,94.044a1.967,1.967,0,0,0,.046-2.781c-.015-.016-.031-.031-.046-.046a2.041,2.041,0,0,0-1.487-.586,2,2,0,0,0-1.454.586A1.967,1.967,0,0,0,55.243,94c.015.016.031.031.046.046a2,2,0,0,0,1.454.587,2.038,2.038,0,0,0,1.487-.587" fill="#fff"/>
    <path id="Path_26463" data-name="Path 26463" d="M82.451,107.735H77.415a2.761,2.761,0,0,1-2.4-.9,3.822,3.822,0,0,1-.638-2.276V87.044H70.415v18.9a2.8,2.8,0,0,1-.257,1.31,1.05,1.05,0,0,1-1.018.483H63.071a19.246,19.246,0,0,1-2.413-.1,12.061,12.061,0,0,0,2.964-3.862,8.426,8.426,0,0,0,.759-3.241,2.709,2.709,0,0,0-.413-1.363,4.268,4.268,0,0,0-1.242-1.293,6.888,6.888,0,0,0-2.1-.948,11.216,11.216,0,0,0-3.035-.362,11.008,11.008,0,0,0-2.275.241,15.133,15.133,0,0,0-2.225.655,14.808,14.808,0,0,0-2.051.966A12.7,12.7,0,0,0,49.312,99.6l.138,2.759a5.634,5.634,0,0,0,.517,1.051q.38.639.9,1.345T52,106.183a17.261,17.261,0,0,0,1.242,1.31,8.036,8.036,0,0,1-1,.172,11.413,11.413,0,0,1-1.345.07H44.173v-4.1a8.243,8.243,0,0,0-.447-2.776,6.119,6.119,0,0,0-1.311-2.172,5.89,5.89,0,0,0-2.086-1.414,7.285,7.285,0,0,0-2.777-.5A6.73,6.73,0,0,0,34.6,97.4a7.079,7.079,0,0,0-2.293,1.742,8,8,0,0,0-1.5,2.569,8.921,8.921,0,0,0-.535,3.086,7.919,7.919,0,0,0,.414,2.517,6.027,6.027,0,0,0,1.328,2.225,6.6,6.6,0,0,0,2.386,1.591,9.486,9.486,0,0,0,3.6.6h2.311a4.107,4.107,0,0,1-.432,1.878,2.9,2.9,0,0,1-1.068,1.1,4.37,4.37,0,0,1-1.535.535,11.657,11.657,0,0,1-1.828.138c-.436,0-.954-.024-1.551-.07s-1.231-.115-1.9-.207l-.276,3.863a18.1,18.1,0,0,0,1.9.224c.576.035,1.126.052,1.656.052a13.193,13.193,0,0,0,3.482-.432,7.893,7.893,0,0,0,2.76-1.327,6.328,6.328,0,0,0,1.861-2.328,8.894,8.894,0,0,0,.793-3.43H50.9a13.8,13.8,0,0,0,3.017-.345,10.034,10.034,0,0,0,2.845-1.1,11.877,11.877,0,0,0,2.38.966,13.181,13.181,0,0,0,3.861.483h6.311a5.274,5.274,0,0,0,2.517-.57,3.9,3.9,0,0,0,1.656-1.707,5.208,5.208,0,0,0,1.4,1.57,3.8,3.8,0,0,0,2.4.707h9.068V87.044h-3.9Zm-42.174,0H37.863a5.177,5.177,0,0,1-1.4-.19,3.184,3.184,0,0,1-1.189-.621,3.1,3.1,0,0,1-.828-1.1,3.9,3.9,0,0,1-.31-1.637,3.772,3.772,0,0,1,.276-1.484,3.629,3.629,0,0,1,.724-1.12,3.308,3.308,0,0,1,1.017-.724,2.855,2.855,0,0,1,1.19-.259,2.527,2.527,0,0,1,2.155,1.052,5.018,5.018,0,0,1,.776,3.017Zm20.07-5.311a6.817,6.817,0,0,1-.76,1.275,8.961,8.961,0,0,1-1.154,1.277A8.4,8.4,0,0,1,57,106.045a8.7,8.7,0,0,1-1.293-1.1q-.637-.655-1.189-1.345a15.562,15.562,0,0,1-.932-1.277,7.1,7.1,0,0,1-.516-.9,7.042,7.042,0,0,1,2.069-.776,10.845,10.845,0,0,1,2.414-.293q.55,0,1.086.051a7.961,7.961,0,0,1,.982.156,2.141,2.141,0,0,1,.725.293.555.555,0,0,1,.275.465,2.765,2.765,0,0,1-.275,1.1" fill="#fff"/>
    <rect id="Rectangle_20767" data-name="Rectangle 20767" width="3.896" height="24.69" transform="translate(92.003 87.043)" fill="#fff"/>
    <path id="Path_26464" data-name="Path 26464" d="M118.038,94.631a2,2,0,0,0,1.482-3.414,2.169,2.169,0,0,0-2.965,0,2,2,0,0,0,1.483,3.414" fill="#fff"/>
    <path id="Path_26465" data-name="Path 26465" d="M123.417,94.631a2,2,0,0,0,1.482-3.414,2.168,2.168,0,0,0-2.964,0,2,2,0,0,0,1.482,3.414" fill="#fff"/>
    <path id="Path_26466" data-name="Path 26466" d="M128.692,107.734H112.658a1.953,1.953,0,0,1-1.277-.328,1.922,1.922,0,0,1-.378-1.431v-5.137h-3.932v5.827a7.157,7.157,0,0,0,.26,1.931,3.965,3.965,0,0,0,.879,1.62,4.338,4.338,0,0,0,1.654,1.1,6.9,6.9,0,0,0,2.553.414h20.242V98.009h-3.967Z" fill="#fff"/>
    <path id="Path_26467" data-name="Path 26467" d="M148.8,107.734h-6.862V87.044H138v24.69h14.725V98.008H148.8Z" fill="#fff"/>
    <path id="Path_26468" data-name="Path 26468" d="M150.814,90.631a2,2,0,0,0-1.453.586A1.967,1.967,0,0,0,149.315,94l.046.046a1.993,1.993,0,0,0,1.453.587,2.03,2.03,0,0,0,1.487-.587,1.967,1.967,0,0,0,.046-2.781c-.015-.016-.031-.031-.046-.046a2.033,2.033,0,0,0-1.487-.586" fill="#fff"/>
    <path id="Path_26469" data-name="Path 26469" d="M169.453,98.682a5.89,5.89,0,0,0-2.086-1.414,7.209,7.209,0,0,0-2.743-.5,6.833,6.833,0,0,0-2.964.638,7.079,7.079,0,0,0-2.311,1.741,8.058,8.058,0,0,0-1.5,2.569,8.968,8.968,0,0,0-.535,3.086,7.925,7.925,0,0,0,.414,2.518,6.054,6.054,0,0,0,1.328,2.225,6.626,6.626,0,0,0,2.379,1.585,9.467,9.467,0,0,0,3.6.6h2.346a4.234,4.234,0,0,1-.482,1.879,3.06,3.06,0,0,1-1.071,1.1,4.187,4.187,0,0,1-1.516.536,11.755,11.755,0,0,1-1.827.137q-.621,0-1.535-.069t-1.915-.207l-.275,3.862a19.294,19.294,0,0,0,1.948.225q.879.051,1.6.052a13.665,13.665,0,0,0,3.6-.449,7.744,7.744,0,0,0,2.827-1.4,6.242,6.242,0,0,0,1.846-2.484,9.434,9.434,0,0,0,.654-3.707v-7.586a7.974,7.974,0,0,0-.464-2.776,6.341,6.341,0,0,0-1.328-2.172m-2.1,9.052h-2.414a5.311,5.311,0,0,1-1.413-.189,3.139,3.139,0,0,1-1.207-.622,3.1,3.1,0,0,1-.827-1.1,3.886,3.886,0,0,1-.311-1.638,3.8,3.8,0,0,1,.276-1.483,3.449,3.449,0,0,1,.742-1.12,3.5,3.5,0,0,1,1.033-.725,2.855,2.855,0,0,1,1.19-.259,2.535,2.535,0,0,1,2.156,1.052,5.021,5.021,0,0,1,.775,3.018Z" fill="#fff"/>
    <path id="Path_26470" data-name="Path 26470" d="M230.212,107.735h-5.035a2.761,2.761,0,0,1-2.4-.9,3.822,3.822,0,0,1-.638-2.276V87.044h-3.966v18.9a2.8,2.8,0,0,1-.258,1.31,1.048,1.048,0,0,1-1.018.483h-2.919a1.223,1.223,0,0,0-.218-.035h-1.242a3.631,3.631,0,0,1-1.638-.308,2.5,2.5,0,0,1-.914-.737,2.2,2.2,0,0,1-.4-.908,4.549,4.549,0,0,1-.087-.789A9.049,9.049,0,0,0,207.712,99a6.3,6.3,0,0,0-5.121-2.124,6.913,6.913,0,0,0-5.086,2.176,7.284,7.284,0,0,0-1.483,2.4,8.348,8.348,0,0,0-.535,3.032,6.371,6.371,0,0,1-.172,1.628,2.662,2.662,0,0,1-.466.994,1.416,1.416,0,0,1-.673.479,2.5,2.5,0,0,1-.757.12h-1.346a.921.921,0,0,0-.164.035h-.869a2.857,2.857,0,0,1-2.38-.914,4.219,4.219,0,0,1-.724-2.672,11.411,11.411,0,0,0-.363-2.949,6.086,6.086,0,0,0-1.19-2.362,5.521,5.521,0,0,0-2.207-1.569A8.86,8.86,0,0,0,180.8,96.7h-4.07v3.793h3.277a5.847,5.847,0,0,1,2.224.345,2.581,2.581,0,0,1,1.224,1.017,4,4,0,0,1,.516,1.724,24.013,24.013,0,0,1,.1,2.431,2.428,2.428,0,0,1-.275,1.311,1.2,1.2,0,0,1-1.069.414h-7.863v4H183a5.106,5.106,0,0,0,2.464-.586,4.063,4.063,0,0,0,1.673-1.656,5.02,5.02,0,0,0,1.449,1.569,3.964,3.964,0,0,0,2.378.673h2.657a3.348,3.348,0,0,0,2.034-.661,4.423,4.423,0,0,0,1.38-1.671,6.335,6.335,0,0,0,2.12,1.808,6.823,6.823,0,0,0,3.259.7q.826,0,1.621-.071a6.013,6.013,0,0,0,1.517-.33,4.928,4.928,0,0,0,1.413-.817,6.241,6.241,0,0,0,1.311-1.531,4.483,4.483,0,0,0,4.138,2.576h4.655a5.274,5.274,0,0,0,2.517-.57,3.907,3.907,0,0,0,1.656-1.707,5.221,5.221,0,0,0,1.4,1.57,3.812,3.812,0,0,0,2.4.707h9.068V87.044h-3.9Zm-25.225-.806a3.509,3.509,0,0,1-4.861,0,3.771,3.771,0,0,1-.777-2.42,4.757,4.757,0,0,1,.259-1.613,4,4,0,0,1,.69-1.236,2.96,2.96,0,0,1,1.017-.789,2.892,2.892,0,0,1,1.241-.275,2.816,2.816,0,0,1,1.207.275,2.948,2.948,0,0,1,1.017.789,4.293,4.293,0,0,1,.707,1.236,4.46,4.46,0,0,1,.276,1.613,3.77,3.77,0,0,1-.776,2.42" fill="#fff"/>
    <path id="Path_26471" data-name="Path 26471" d="M355.712,85.065s-9.172-9.989-9.476-10.351a50.513,50.513,0,0,1-8.81,9.34l7.759,8.074-7.88,7.451s8.151,10.482,8.87,12.838c.014.042.059.037.061-.008.333-5.891,8.932-12.057,8.932-12.057L348,92.146Z" fill="#fff"/>
  </g>
</svg>
