<svg xmlns="http://www.w3.org/2000/svg" xmlns:xlink="http://www.w3.org/1999/xlink" width="24" height="24" viewBox="0 0 24 24">
    <defs>
        <path id="a" d="M18 7c0 .6-.4 1-1 1H3.4l4.3 4.3c.4.4.4 1 0 1.4-.2.2-.4.3-.7.3-.3 0-.5-.1-.7-.3l-6-6c-.1-.1-.2-.2-.2-.3-.1-.2-.1-.5 0-.8.1-.1.1-.2.2-.3l6-6c.4-.4 1-.4 1.4 0 .4.4.4 1 0 1.4L3.4 6H17c.6 0 1 .4 1 1z"/>
    </defs>
    <g fill="none" fill-rule="evenodd" transform="translate(3 5)">
        <mask id="b" fill="#fff">
            <use xlink:href="#a"/>
        </mask>
        <use fill="#000" fill-rule="nonzero" xlink:href="#a"/>
        <g fill="#4A4A4A" mask="url(#b)">
            <path d="M-3-5h24v24H-3z"/>
        </g>
    </g>
</svg>
