<?xml version="1.0" encoding="UTF-8"?>
<svg width="10px" height="10px" viewBox="0 0 10 10" version="1.1" xmlns="http://www.w3.org/2000/svg" xmlns:xlink="http://www.w3.org/1999/xlink">
    <!-- Generator: Sketch 47.1 (45422) - http://www.bohemiancoding.com/sketch -->
    <title>icon / close</title>
    <desc>Created with Sketch.</desc>
    <defs></defs>
    <g id="Symbols" stroke="none" stroke-width="1" fill="none" fill-rule="evenodd">
        <g id="icon-/-close" fill="#000">
            <path d="M9.9803406,0.842105263 C9.9803406,1.07017658 9.90170443,1.26315711 9.74442973,1.42105263 L6.17955435,5 L9.74442973,8.57894737 C9.84927953,8.68421105 9.92354702,8.80701684 9.96723444,8.94736842 C10.0109219,9.08772 10.0109219,9.23245539 9.96723444,9.38157895 C9.92354702,9.5307025 9.84927953,9.65789421 9.74442973,9.76315789 C9.58715503,9.92105342 9.3905646,10 9.15465255,10 C8.9187405,10 8.72215007,9.92105342 8.56487537,9.76315789 L5,6.18421053 L1.43512463,9.76315789 C1.27784993,9.92105342 1.0812595,10 0.845347449,10 C0.609435399,10 0.412844973,9.92105342 0.255570273,9.76315789 C0.150720473,9.65789421 0.0764529791,9.5307025 0.0327655625,9.38157895 C-0.0109218542,9.23245539 -0.0109218542,9.08772 0.0327655625,8.94736842 C0.0764529791,8.80701684 0.150720473,8.68421105 0.255570273,8.57894737 L3.82044565,5 L0.255570273,1.42105263 C0.0982955735,1.26315711 0.019659403,1.06579066 0.019659403,0.828947368 C0.019659403,0.592104079 0.0982955735,0.394737632 0.255570273,0.236842105 C0.412844973,0.0789465789 0.609435399,0 0.845347449,0 C1.0812595,0 1.27784993,0.0789465789 1.43512463,0.236842105 L5,3.81578947 L8.56487537,0.236842105 C8.72215007,0.0789465789 8.9187405,0 9.15465255,0 C9.3905646,0 9.58715503,0.0789465789 9.74442973,0.236842105 C9.90170443,0.394737632 9.9803406,0.59649 9.9803406,0.842105263 Z"></path>
        </g>
    </g>
</svg>
