<svg xmlns="http://www.w3.org/2000/svg" viewBox="0 0 336.8 83.56"><defs><style>.cls-1{fill:none;}.cls-2{fill:#fff;}</style></defs><title>cv-logo-bw</title><g id="Layer_2" data-name="Layer 2"><g id="Layer_1-2" data-name="Layer 1"><path class="cls-1" d="M260.26,14.82a5.57,5.57,0,0,0-4.63,2.11A8.84,8.84,0,0,0,254,22.57a9.62,9.62,0,0,0,1.59,5.62,5.35,5.35,0,0,0,4.71,2.29A5.66,5.66,0,0,0,265,28.26a9.11,9.11,0,0,0,1.72-5.75,8.24,8.24,0,0,0-1.79-5.72A6,6,0,0,0,260.26,14.82Z"/><path class="cls-1" d="M45.4,30.47a5.66,5.66,0,0,0,4.73-2.21,9.11,9.11,0,0,0,1.72-5.75A8.24,8.24,0,0,0,50,16.8a6,6,0,0,0-4.65-2,5.57,5.57,0,0,0-4.63,2.11,8.84,8.84,0,0,0-1.66,5.64,9.62,9.62,0,0,0,1.59,5.62A5.35,5.35,0,0,0,45.4,30.47Z"/><path class="cls-1" d="M163,14.82a5.57,5.57,0,0,0-4.63,2.11,8.84,8.84,0,0,0-1.66,5.64,9.62,9.62,0,0,0,1.59,5.62A5.35,5.35,0,0,0,163,30.47a5.66,5.66,0,0,0,4.73-2.21,9.11,9.11,0,0,0,1.72-5.75,8.24,8.24,0,0,0-1.79-5.72A6,6,0,0,0,163,14.82Z"/><path class="cls-1" d="M329.91,16.46A4.29,4.29,0,0,0,326,14.61a4.53,4.53,0,0,0-3.8,1.66,8.22,8.22,0,0,0-1.61,4.11h10.3A6,6,0,0,0,329.91,16.46Z"/><path d="M16.85,34.84a23.86,23.86,0,0,0,6.94-1A12.88,12.88,0,0,0,29,31.1l.73-7.38L25,23.24l-.83,5a14.08,14.08,0,0,1-6.81,1.46,10.85,10.85,0,0,1-8.06-3.09q-3.07-3.09-3.07-9.13,0-5.77,2.89-9.1A9.65,9.65,0,0,1,16.74,5.1a13.44,13.44,0,0,1,7.49,2l.83,4.68,4.73-.47L28.91,4A15.61,15.61,0,0,0,24.13,1.2,19.78,19.78,0,0,0,16.85,0,16,16,0,0,0,7.28,2.7,16.17,16.17,0,0,0,1.77,9.52,20.87,20.87,0,0,0,0,17.84,16.58,16.58,0,0,0,4.76,30.08,16.38,16.38,0,0,0,16.85,34.84Z"/><path d="M45.19,34.84a12.34,12.34,0,0,0,9-3.35,11.72,11.72,0,0,0,3.46-8.81,13,13,0,0,0-3-8.58q-3-3.64-9.1-3.64t-9.1,3.67a13.21,13.21,0,0,0-3.07,8.76,11.75,11.75,0,0,0,3.25,8.74A11.68,11.68,0,0,0,45.19,34.84ZM40.77,16.93a5.57,5.57,0,0,1,4.63-2.11,6,6,0,0,1,4.65,2,8.24,8.24,0,0,1,1.79,5.72,9.11,9.11,0,0,1-1.72,5.75,5.66,5.66,0,0,1-4.73,2.21,5.35,5.35,0,0,1-4.71-2.29,9.62,9.62,0,0,1-1.59-5.62A8.84,8.84,0,0,1,40.77,16.93Z"/><path d="M73.89,30.06H69.52V20.9a7.47,7.47,0,0,1,1.35-4.24,4.57,4.57,0,0,1,4-1.85,4,4,0,0,1,3.25,1.38q1.17,1.38,1.17,4.71v9.15H78.05v4.26h10.3V30.06H84.86V21a7.7,7.7,0,0,1,1.33-4.26,4.53,4.53,0,0,1,4-1.87,4.1,4.1,0,0,1,3.3,1.38q1.17,1.38,1.17,4.71v9.15h-1.3v4.26h10.3V30.06h-3.43V18.88q0-4.32-2.39-6.34a8.35,8.35,0,0,0-5.56-2,8,8,0,0,0-4.84,1.43,9.06,9.06,0,0,0-3,3.82,6.79,6.79,0,0,0-2.91-4,8.79,8.79,0,0,0-4.68-1.27,7.87,7.87,0,0,0-4.42,1.2,9,9,0,0,0-2.91,3.12V11h-9v4.32H64V30.06H60.48v4.26H73.89Z"/><path d="M145.55,18.88q0-4.32-2.39-6.34a8.35,8.35,0,0,0-5.56-2,8,8,0,0,0-4.84,1.43,9.06,9.06,0,0,0-3,3.82,6.79,6.79,0,0,0-2.91-4,8.79,8.79,0,0,0-4.68-1.27,7.87,7.87,0,0,0-4.42,1.2,9,9,0,0,0-2.91,3.12V11h-9v4.32h3.43V30.06h-3.48v4.26h13.42V30.06h-4.37V20.9a7.47,7.47,0,0,1,1.35-4.24,4.57,4.57,0,0,1,4-1.85,4,4,0,0,1,3.25,1.38q1.17,1.38,1.17,4.71v9.15h-1.25v4.26h10.3V30.06h-3.48V21a7.7,7.7,0,0,1,1.33-4.26,4.53,4.53,0,0,1,4-1.87,4.1,4.1,0,0,1,3.3,1.38Q140,17.58,140,20.9v9.15h-1.3v4.26H149V30.06h-3.43Z"/><path d="M163.07,10.45q-6,0-9.1,3.67a13.21,13.21,0,0,0-3.07,8.76,11.75,11.75,0,0,0,3.25,8.74,11.68,11.68,0,0,0,8.61,3.22,12.34,12.34,0,0,0,9-3.35,11.72,11.72,0,0,0,3.46-8.81,13,13,0,0,0-3-8.58Q169.15,10.45,163.07,10.45Zm4.63,17.81A5.66,5.66,0,0,1,163,30.47a5.35,5.35,0,0,1-4.71-2.29,9.62,9.62,0,0,1-1.59-5.62,8.84,8.84,0,0,1,1.66-5.64A5.57,5.57,0,0,1,163,14.82a6,6,0,0,1,4.65,2,8.24,8.24,0,0,1,1.79,5.72A9.11,9.11,0,0,1,167.7,28.26Z"/><path d="M203,18.88q0-4.32-2.39-6.34a8.56,8.56,0,0,0-5.72-2,8.28,8.28,0,0,0-7.75,4.26V11h-9.2v4.32h3.64V30.06H178v4.26h12.53V30.06h-3.48V20.75a6.3,6.3,0,0,1,1.59-4.21,5.33,5.33,0,0,1,4.19-1.72,4.18,4.18,0,0,1,3.33,1.38q1.2,1.38,1.2,4.71v9.15H194v4.26h12.48V30.06H203Z"/><polygon points="250.48 0.52 237.69 0.52 237.69 5.46 241.49 5.46 233.69 25.48 233.43 25.48 225.42 5.46 229.16 5.46 229.16 0.52 215.85 0.52 215.85 5.46 219.07 5.46 231.14 34.32 235.3 34.32 247.36 5.46 250.48 5.46 250.48 0.52"/><path d="M260.36,10.45q-6,0-9.1,3.67a13.21,13.21,0,0,0-3.07,8.76,11.75,11.75,0,0,0,3.25,8.74A11.68,11.68,0,0,0,260,34.84a12.34,12.34,0,0,0,9-3.35,11.72,11.72,0,0,0,3.46-8.81,13,13,0,0,0-3-8.58Q266.45,10.45,260.36,10.45ZM265,28.26a5.66,5.66,0,0,1-4.73,2.21,5.35,5.35,0,0,1-4.71-2.29A9.62,9.62,0,0,1,254,22.57a8.84,8.84,0,0,1,1.66-5.64,5.57,5.57,0,0,1,4.63-2.11,6,6,0,0,1,4.65,2,8.24,8.24,0,0,1,1.79,5.72A9.11,9.11,0,0,1,265,28.26Z"/><polygon points="284.54 10.97 275.34 10.97 275.34 15.29 279.03 15.29 279.03 30.06 275.55 30.06 275.55 34.32 288.02 34.32 288.02 30.06 284.54 30.06 284.54 10.97"/><rect x="278.72" width="5.67" height="6.14"/><path d="M302.22,30.37q-6,0-6-7.59,0-7.8,5.82-7.8a9.16,9.16,0,0,1,4.06.94l.78,3.85,4.47-.47-.94-6.55A15.48,15.48,0,0,0,306.33,11a17.11,17.11,0,0,0-4.16-.52,11.17,11.17,0,0,0-8.5,3.43,12.69,12.69,0,0,0-3.25,9.1q0,5.77,3.15,8.79a11.27,11.27,0,0,0,8.14,3q5.3,0,7.7-2.89a11.46,11.46,0,0,0,2.76-6l-4.68-.88Q306.59,30.37,302.22,30.37Z"/><path d="M332.17,26.31a6.46,6.46,0,0,1-1.53,2.76,5,5,0,0,1-3.87,1.3q-5.77,0-6.24-6.55h15.76a17,17,0,0,0,.31-3.12,10.18,10.18,0,0,0-2.89-7.31,11.56,11.56,0,0,0-16,.7,13.5,13.5,0,0,0-3,8.94q0,5.82,3.28,8.81a11.94,11.94,0,0,0,8.37,3,11.16,11.16,0,0,0,7.44-2.29,8,8,0,0,0,3-5.36Zm-10-10a4.53,4.53,0,0,1,3.8-1.66,4.29,4.29,0,0,1,3.93,1.85,6,6,0,0,1,1,3.93h-10.3A8.22,8.22,0,0,1,322.19,16.28Z"/><path d="M101,72.35A1.53,1.53,0,0,0,102.67,74c1.49,0,3.08-1.07,3.18-3.5a15.43,15.43,0,0,0-2.11-.19C102.25,70.34,101,70.76,101,72.35Z"/><path d="M43.58,73.81c2.17,0,3.6-1.75,3.6-4.54,0-3-1.59-4.28-3.57-4.28-2.14,0-3.47,1.59-3.47,4.34C40.15,71.86,41.31,73.81,43.58,73.81Z"/><path d="M0,83.56H116.9V50.14H0ZM98,63.11a14.06,14.06,0,0,1,6.26-1.33c3.15,0,5.8,1.62,5.8,5v6.36c0,.84.32,1.13,1,1.13a2.21,2.21,0,0,0,.62-.1l0,2.2a5.65,5.65,0,0,1-2.63.68,3,3,0,0,1-3.21-2.92,5.3,5.3,0,0,1-4.7,2.92c-2.11,0-4.51-1.14-4.51-4.18,0-3.6,3.47-4.44,6.81-4.44a19.13,19.13,0,0,1,2.4.13V68c0-1.49,0-3.27-2.4-3.27a4.54,4.54,0,0,0-2.24.42l-.47,1.65-3.34-.36Zm-.91-8.72L90.74,76.69H86.62l6.32-22.31Zm-12.61,0h4.12L82.24,76.69H78.12ZM71,62.07h4.38v5.25H71Zm0,9.37h4.38v5.25H71ZM54.16,62.07H67l.32,2.2-8.11,9.24H64l.68-2.27,3.31.32L67,76.69H54.26l-.42-2.2,8-9.24H57.31l-.65,2.27-3-.32Zm-10.48-.29c5.25,0,7.81,3.53,7.81,7.62,0,4.67-3.37,7.62-8,7.62-4.51,0-7.62-2.76-7.62-7.43C35.83,65.31,38.43,61.78,43.68,61.78ZM6.94,73.52H8.88V65.25H6.94V62.07h6.13v2.2a4.84,4.84,0,0,1,4.44-2.5,4.74,4.74,0,0,1,4.77,3.15A4.9,4.9,0,0,1,27,61.78a4.73,4.73,0,0,1,5,5.06v6.68H34v3.18H27.89V68.46c0-2.53-.84-3.5-2.5-3.5-2,0-2.82,1.43-2.82,3.47v5.09h1.95v3.18H18.38V68.46c0-2.53-.84-3.5-2.5-3.5-2,0-2.82,1.43-2.82,3.47v5.09h2.79v3.18H6.94Z"/><polygon points="90.73 76.69 97.06 54.38 92.94 54.38 86.62 76.69 90.73 76.69"/><polygon class="cls-2" points="90.73 76.69 97.06 54.38 92.94 54.38 86.62 76.69 90.73 76.69"/><path d="M43.45,77c4.67,0,8-3,8-7.62,0-4.09-2.56-7.62-7.81-7.62s-7.85,3.53-7.85,7.81C35.83,74.26,38.95,77,43.45,77Zm.16-12c2,0,3.57,1.33,3.57,4.28,0,2.79-1.43,4.54-3.6,4.54s-3.44-1.95-3.44-4.47C40.15,66.58,41.48,65,43.62,65Z"/><path class="cls-2" d="M43.45,77c4.67,0,8-3,8-7.62,0-4.09-2.56-7.62-7.81-7.62s-7.85,3.53-7.85,7.81C35.83,74.26,38.95,77,43.45,77Zm.16-12c2,0,3.57,1.33,3.57,4.28,0,2.79-1.43,4.54-3.6,4.54s-3.44-1.95-3.44-4.47C40.15,66.58,41.48,65,43.62,65Z"/><path d="M15.86,73.52H13.07V68.43c0-2,.81-3.47,2.82-3.47,1.65,0,2.5,1,2.5,3.5v8.24h6.13V73.52H22.57V68.43c0-2,.81-3.47,2.82-3.47,1.65,0,2.5,1,2.5,3.5v8.24H34V73.52H32.07V66.84a4.73,4.73,0,0,0-5-5.06,4.9,4.9,0,0,0-4.77,3.15,4.74,4.74,0,0,0-4.77-3.15,4.84,4.84,0,0,0-4.44,2.5v-2.2H6.94v3.18H8.88v8.27H6.94v3.18h8.92Z"/><path class="cls-2" d="M15.86,73.52H13.07V68.43c0-2,.81-3.47,2.82-3.47,1.65,0,2.5,1,2.5,3.5v8.24h6.13V73.52H22.57V68.43c0-2,.81-3.47,2.82-3.47,1.65,0,2.5,1,2.5,3.5v8.24H34V73.52H32.07V66.84a4.73,4.73,0,0,0-5-5.06,4.9,4.9,0,0,0-4.77,3.15,4.74,4.74,0,0,0-4.77-3.15,4.84,4.84,0,0,0-4.44,2.5v-2.2H6.94v3.18H8.88v8.27H6.94v3.18h8.92Z"/><polygon points="57.31 65.25 61.88 65.25 53.84 74.49 54.26 76.69 67.04 76.69 67.94 71.57 64.64 71.25 63.96 73.52 59.22 73.52 67.33 64.28 67 62.07 54.16 62.07 53.65 67.19 56.66 67.52 57.31 65.25"/><polygon class="cls-2" points="57.31 65.25 61.88 65.25 53.84 74.49 54.26 76.69 67.04 76.69 67.94 71.57 64.64 71.25 63.96 73.52 59.22 73.52 67.33 64.28 67 62.07 54.16 62.07 53.65 67.19 56.66 67.52 57.31 65.25"/><rect x="71.01" y="71.44" width="4.38" height="5.25"/><rect class="cls-2" x="71.01" y="71.44" width="4.38" height="5.25"/><polygon points="88.56 54.38 84.44 54.38 78.12 76.69 82.24 76.69 88.56 54.38"/><polygon class="cls-2" points="88.56 54.38 84.44 54.38 78.12 76.69 82.24 76.69 88.56 54.38"/><rect x="71.01" y="62.07" width="4.38" height="5.25"/><rect class="cls-2" x="71.01" y="62.07" width="4.38" height="5.25"/><path d="M101.21,65.18a4.54,4.54,0,0,1,2.24-.42c2.37,0,2.4,1.78,2.4,3.27v.49a19.13,19.13,0,0,0-2.4-.13c-3.34,0-6.81.84-6.81,4.44,0,3,2.4,4.18,4.51,4.18a5.3,5.3,0,0,0,4.7-2.92A3,3,0,0,0,109.06,77a5.65,5.65,0,0,0,2.63-.68l0-2.2a2.21,2.21,0,0,1-.62.1c-.68,0-1-.29-1-1.13V66.74c0-3.34-2.66-5-5.8-5A14.06,14.06,0,0,0,98,63.11l-.57,3.36,3.34.36ZM102.67,74A1.53,1.53,0,0,1,101,72.35c0-1.59,1.3-2,2.79-2a15.43,15.43,0,0,1,2.11.19C105.75,73,104.16,74,102.67,74Z"/><path class="cls-2" d="M101.21,65.18a4.54,4.54,0,0,1,2.24-.42c2.37,0,2.4,1.78,2.4,3.27v.49a19.13,19.13,0,0,0-2.4-.13c-3.34,0-6.81.84-6.81,4.44,0,3,2.4,4.18,4.51,4.18a5.3,5.3,0,0,0,4.7-2.92A3,3,0,0,0,109.06,77a5.65,5.65,0,0,0,2.63-.68l0-2.2a2.21,2.21,0,0,1-.62.1c-.68,0-1-.29-1-1.13V66.74c0-3.34-2.66-5-5.8-5A14.06,14.06,0,0,0,98,63.11l-.57,3.36,3.34.36ZM102.67,74A1.53,1.53,0,0,1,101,72.35c0-1.59,1.3-2,2.79-2a15.43,15.43,0,0,1,2.11.19C105.75,73,104.16,74,102.67,74Z"/></g></g></svg>