<svg xmlns="http://www.w3.org/2000/svg" viewBox="0 0 336.8 83.56"><defs><style>.cls-1{fill:none;}.cls-2{fill:#fff;}</style></defs><title>cv-logo-one-color-white</title><g id="Layer_2" data-name="Layer 2"><g id="Layer_1-2" data-name="Layer 1"><rect class="cls-1" x="71.13" y="71.23" width="4.22" height="5.52"/><path class="cls-1" d="M43.46,77c4.67,0,8-2.95,8-7.61,0-4.08-2.56-7.61-7.81-7.61s-7.84,3.53-7.84,7.81C35.85,74.2,39,77,43.46,77Zm.16-12c2,0,3.56,1.33,3.56,4.28,0,2.79-1.43,4.54-3.6,4.54s-3.43-1.94-3.43-4.47C40.16,66.52,41.49,64.93,43.63,64.93Z"/><rect class="cls-1" x="71.13" y="62.14" width="4.22" height="5.19"/><path class="cls-1" d="M16,73.5H13V68.36c0-2,.91-3.47,2.92-3.47,1.65,0,2.6,1,2.6,3.5v8.35H24.4V73.5H22.45V68.36c0-2,.91-3.47,2.92-3.47,1.65,0,2.6,1,2.6,3.5v8.35h6.17V73.5H32.19V66.78a4.77,4.77,0,0,0-5.08-5.06,5,5,0,0,0-4.82,3.14,4.75,4.75,0,0,0-4.78-3.14A5,5,0,0,0,13,64.22V62.14H6.87v2.92H8.82V73.5H6.87v3.25H16Z"/><path class="cls-1" d="M163,14.82a5.57,5.57,0,0,0-4.63,2.11,8.84,8.84,0,0,0-1.66,5.64,9.62,9.62,0,0,0,1.59,5.62A5.35,5.35,0,0,0,163,30.47a5.66,5.66,0,0,0,4.73-2.21,9.11,9.11,0,0,0,1.72-5.75,8.24,8.24,0,0,0-1.79-5.72A6,6,0,0,0,163,14.82Z"/><path class="cls-1" d="M45.4,30.47a5.66,5.66,0,0,0,4.73-2.21,9.11,9.11,0,0,0,1.72-5.75A8.24,8.24,0,0,0,50,16.8a6,6,0,0,0-4.65-2,5.57,5.57,0,0,0-4.63,2.11,8.84,8.84,0,0,0-1.66,5.64,9.62,9.62,0,0,0,1.59,5.62A5.35,5.35,0,0,0,45.4,30.47Z"/><polygon class="cls-1" points="88.54 54.36 84.43 54.36 78.11 76.75 82.23 76.75 88.54 54.36"/><polygon class="cls-1" points="90.72 76.75 97.03 54.36 92.92 54.36 86.6 76.75 90.72 76.75"/><path class="cls-1" d="M101.2,65.12a4.56,4.56,0,0,1,2.24-.42c2.37,0,2.41,1.78,2.41,3.27v.49a18.36,18.36,0,0,0-2.41-.13c-3.34,0-6.82.84-6.82,4.44,0,3,2.4,4.18,4.5,4.18a5.29,5.29,0,0,0,4.7-2.92A3,3,0,0,0,109,77a5.68,5.68,0,0,0,2.63-.68l0-2.2a2.1,2.1,0,0,1-.6.1c-.68,0-1-.29-1-1.13V66.68c0-3.34-2.69-5-5.83-5A14.19,14.19,0,0,0,97.95,63l-.57,3.36,3.34.36ZM102.65,74a1.53,1.53,0,0,1-1.72-1.69c0-1.59,1.3-2,2.79-2a15.42,15.42,0,0,1,2.11.19C105.72,72.9,104.14,74,102.65,74Z"/><polygon class="cls-1" points="57.31 65.06 61.88 65.06 53.84 74.42 54.26 76.75 67.03 76.75 67.94 71.58 64.63 71.21 63.95 73.5 59.22 73.5 67.32 64.31 67 62.14 54.17 62.14 53.65 67.17 56.66 67.39 57.31 65.06"/><path class="cls-1" d="M260.26,14.82a5.57,5.57,0,0,0-4.63,2.11A8.84,8.84,0,0,0,254,22.57a9.62,9.62,0,0,0,1.59,5.62,5.35,5.35,0,0,0,4.71,2.29A5.66,5.66,0,0,0,265,28.26a9.11,9.11,0,0,0,1.72-5.75,8.24,8.24,0,0,0-1.79-5.72A6,6,0,0,0,260.26,14.82Z"/><path class="cls-1" d="M329.91,16.46A4.29,4.29,0,0,0,326,14.61a4.53,4.53,0,0,0-3.8,1.66,8.22,8.22,0,0,0-1.61,4.11h10.3A6,6,0,0,0,329.91,16.46Z"/><path class="cls-2" d="M43.59,73.74c2.17,0,3.6-1.75,3.6-4.54,0-2.95-1.59-4.28-3.56-4.28-2.14,0-3.47,1.59-3.47,4.34C40.16,71.8,41.33,73.74,43.59,73.74Z"/><path class="cls-2" d="M100.93,72.29A1.53,1.53,0,0,0,102.65,74c1.49,0,3.08-1.07,3.18-3.5a15.42,15.42,0,0,0-2.11-.19C102.23,70.28,100.93,70.7,100.93,72.29Z"/><path class="cls-2" d="M.06,83.56H116.88V50.14H.06ZM97.95,63a14.19,14.19,0,0,1,6.29-1.33c3.14,0,5.83,1.62,5.83,5V73c0,.84.29,1.13,1,1.13a2.1,2.1,0,0,0,.6-.1l0,2.2A5.68,5.68,0,0,1,109,77,3,3,0,0,1,105.82,74a5.29,5.29,0,0,1-4.7,2.92c-2.11,0-4.5-1.13-4.5-4.18,0-3.6,3.48-4.44,6.82-4.44a18.36,18.36,0,0,1,2.41.13V68c0-1.49,0-3.27-2.41-3.27a4.56,4.56,0,0,0-2.24.42l-.48,1.64-3.34-.36ZM97,54.36,90.72,76.75H86.6l6.32-22.39Zm-12.61,0h4.12L82.23,76.75H78.11Zm-13.3,7.79h4.22v5.19H71.13Zm0,9.09h4.22v5.52H71.13Zm-17-9.09H67l.32,2.16-8.1,9.19H64l.68-2.29,3.31.37L67,76.75H54.26l-.42-2.33,8-9.36H57.31l-.65,2.33-3-.23Zm-10.48-.42c5.25,0,7.81,3.53,7.81,7.61,0,4.67-3.37,7.61-8,7.61-4.5,0-7.62-2.75-7.62-7.42C35.85,65.25,38.44,61.72,43.69,61.72ZM6.87,73.5H8.82V65.06H6.87V62.14H13v2.07a5,5,0,0,1,4.47-2.49,4.75,4.75,0,0,1,4.78,3.14,5,5,0,0,1,4.82-3.14,4.77,4.77,0,0,1,5.08,5.06V73.5h1.95v3.25H28V68.4c0-2.53-.94-3.5-2.6-3.5-2,0-2.92,1.43-2.92,3.47V73.5H24.4v3.25H18.56V68.4c0-2.53-.94-3.5-2.6-3.5-2,0-2.92,1.43-2.92,3.47V73.5H16v3.25H6.87Z"/><path class="cls-2" d="M16.85,34.84a23.86,23.86,0,0,0,6.94-1A12.88,12.88,0,0,0,29,31.1l.73-7.38L25,23.24l-.83,5a14.08,14.08,0,0,1-6.81,1.46,10.85,10.85,0,0,1-8.06-3.09q-3.07-3.09-3.07-9.13,0-5.77,2.89-9.1A9.65,9.65,0,0,1,16.74,5.1a13.44,13.44,0,0,1,7.49,2l.83,4.68,4.73-.47L28.91,4A15.61,15.61,0,0,0,24.13,1.2,19.78,19.78,0,0,0,16.85,0,16,16,0,0,0,7.28,2.7,16.17,16.17,0,0,0,1.77,9.52,20.87,20.87,0,0,0,0,17.84,16.58,16.58,0,0,0,4.76,30.08,16.38,16.38,0,0,0,16.85,34.84Z"/><path class="cls-2" d="M45.19,34.84a12.34,12.34,0,0,0,9-3.35,11.72,11.72,0,0,0,3.46-8.81,13,13,0,0,0-3-8.58q-3-3.64-9.1-3.64t-9.1,3.67a13.21,13.21,0,0,0-3.07,8.76,11.75,11.75,0,0,0,3.25,8.74A11.68,11.68,0,0,0,45.19,34.84ZM40.77,16.93a5.57,5.57,0,0,1,4.63-2.11,6,6,0,0,1,4.65,2,8.24,8.24,0,0,1,1.79,5.72,9.11,9.11,0,0,1-1.72,5.75,5.66,5.66,0,0,1-4.73,2.21,5.35,5.35,0,0,1-4.71-2.29,9.62,9.62,0,0,1-1.59-5.62A8.84,8.84,0,0,1,40.77,16.93Z"/><path class="cls-2" d="M73.89,30.06H69.52V20.9a7.47,7.47,0,0,1,1.35-4.24,4.57,4.57,0,0,1,4-1.85,4,4,0,0,1,3.25,1.38q1.17,1.38,1.17,4.71v9.15H78.05v4.26h10.3V30.06H84.86V21a7.7,7.7,0,0,1,1.33-4.26,4.53,4.53,0,0,1,4-1.87,4.1,4.1,0,0,1,3.3,1.38q1.17,1.38,1.17,4.71v9.15h-1.3v4.26h10.3V30.06h-3.43V18.88q0-4.32-2.39-6.34a8.35,8.35,0,0,0-5.56-2,8,8,0,0,0-4.84,1.43,9.06,9.06,0,0,0-3,3.82,6.79,6.79,0,0,0-2.91-4,8.79,8.79,0,0,0-4.68-1.27,7.87,7.87,0,0,0-4.42,1.2,9,9,0,0,0-2.91,3.12V11h-9v4.32H64V30.06H60.48v4.26H73.89Z"/><path class="cls-2" d="M145.55,18.88q0-4.32-2.39-6.34a8.35,8.35,0,0,0-5.56-2,8,8,0,0,0-4.84,1.43,9.06,9.06,0,0,0-3,3.82,6.79,6.79,0,0,0-2.91-4,8.79,8.79,0,0,0-4.68-1.27,7.87,7.87,0,0,0-4.42,1.2,9,9,0,0,0-2.91,3.12V11h-9v4.32h3.43V30.06h-3.48v4.26h13.42V30.06h-4.37V20.9a7.47,7.47,0,0,1,1.35-4.24,4.57,4.57,0,0,1,4-1.85,4,4,0,0,1,3.25,1.38q1.17,1.38,1.17,4.71v9.15h-1.25v4.26h10.3V30.06h-3.48V21a7.7,7.7,0,0,1,1.33-4.26,4.53,4.53,0,0,1,4-1.87,4.1,4.1,0,0,1,3.3,1.38Q140,17.58,140,20.9v9.15h-1.3v4.26H149V30.06h-3.43Z"/><path class="cls-2" d="M163.07,10.45q-6,0-9.1,3.67a13.21,13.21,0,0,0-3.07,8.76,11.75,11.75,0,0,0,3.25,8.74,11.68,11.68,0,0,0,8.61,3.22,12.34,12.34,0,0,0,9-3.35,11.72,11.72,0,0,0,3.46-8.81,13,13,0,0,0-3-8.58Q169.15,10.45,163.07,10.45Zm4.63,17.81A5.66,5.66,0,0,1,163,30.47a5.35,5.35,0,0,1-4.71-2.29,9.62,9.62,0,0,1-1.59-5.62,8.84,8.84,0,0,1,1.66-5.64A5.57,5.57,0,0,1,163,14.82a6,6,0,0,1,4.65,2,8.24,8.24,0,0,1,1.79,5.72A9.11,9.11,0,0,1,167.7,28.26Z"/><path class="cls-2" d="M203,18.88q0-4.32-2.39-6.34a8.56,8.56,0,0,0-5.72-2,8.28,8.28,0,0,0-7.75,4.26V11h-9.2v4.32h3.64V30.06H178v4.26h12.53V30.06h-3.48V20.75a6.3,6.3,0,0,1,1.59-4.21,5.33,5.33,0,0,1,4.19-1.72,4.18,4.18,0,0,1,3.33,1.38q1.2,1.38,1.2,4.71v9.15H194v4.26h12.48V30.06H203Z"/><polygon class="cls-2" points="250.48 0.52 237.69 0.52 237.69 5.46 241.49 5.46 233.69 25.48 233.43 25.48 225.42 5.46 229.16 5.46 229.16 0.52 215.85 0.52 215.85 5.46 219.07 5.46 231.14 34.32 235.3 34.32 247.36 5.46 250.48 5.46 250.48 0.52"/><path class="cls-2" d="M260.36,10.45q-6,0-9.1,3.67a13.21,13.21,0,0,0-3.07,8.76,11.75,11.75,0,0,0,3.25,8.74A11.68,11.68,0,0,0,260,34.84a12.34,12.34,0,0,0,9-3.35,11.72,11.72,0,0,0,3.46-8.81,13,13,0,0,0-3-8.58Q266.45,10.45,260.36,10.45ZM265,28.26a5.66,5.66,0,0,1-4.73,2.21,5.35,5.35,0,0,1-4.71-2.29A9.62,9.62,0,0,1,254,22.57a8.84,8.84,0,0,1,1.66-5.64,5.57,5.57,0,0,1,4.63-2.11,6,6,0,0,1,4.65,2,8.24,8.24,0,0,1,1.79,5.72A9.11,9.11,0,0,1,265,28.26Z"/><polygon class="cls-2" points="284.54 10.97 275.34 10.97 275.34 15.29 279.03 15.29 279.03 30.06 275.55 30.06 275.55 34.32 288.02 34.32 288.02 30.06 284.54 30.06 284.54 10.97"/><rect class="cls-2" x="278.72" width="5.67" height="6.14"/><path class="cls-2" d="M302.22,30.37q-6,0-6-7.59,0-7.8,5.82-7.8a9.16,9.16,0,0,1,4.06.94l.78,3.85,4.47-.47-.94-6.55A15.48,15.48,0,0,0,306.33,11a17.11,17.11,0,0,0-4.16-.52,11.17,11.17,0,0,0-8.5,3.43,12.69,12.69,0,0,0-3.25,9.1q0,5.77,3.15,8.79a11.27,11.27,0,0,0,8.14,3q5.3,0,7.7-2.89a11.46,11.46,0,0,0,2.76-6l-4.68-.88Q306.59,30.37,302.22,30.37Z"/><path class="cls-2" d="M332.17,26.31a6.46,6.46,0,0,1-1.53,2.76,5,5,0,0,1-3.87,1.3q-5.77,0-6.24-6.55h15.76a17,17,0,0,0,.31-3.12,10.18,10.18,0,0,0-2.89-7.31,11.56,11.56,0,0,0-16,.7,13.5,13.5,0,0,0-3,8.94q0,5.82,3.28,8.81a11.94,11.94,0,0,0,8.37,3,11.16,11.16,0,0,0,7.44-2.29,8,8,0,0,0,3-5.36Zm-10-10a4.53,4.53,0,0,1,3.8-1.66,4.29,4.29,0,0,1,3.93,1.85,6,6,0,0,1,1,3.93h-10.3A8.22,8.22,0,0,1,322.19,16.28Z"/></g></g></svg>