<svg xmlns="http://www.w3.org/2000/svg" xmlns:xlink="http://www.w3.org/1999/xlink" width="25" height="22" viewBox="0 0 25 22">
    <defs>
        <path id="a" d="M3.074 17.094H.887A.887.887 0 0 1 0 16.207V2.99c0-.49.397-.887.887-.887h17.42c.49 0 .886.397.886.887v13.216c0 .49-.397.887-.886.887H8.373L4.517 20.2a.887.887 0 0 1-1.443-.69v-2.417zM17.42 3.878H1.774V15.32H3.96c.49 0 .887.397.887.887v1.45l2.655-2.14a.887.887 0 0 1 .557-.197h9.36V3.878zM4.37 8.598a.887.887 0 1 1 0-1.774h10.453a.887.887 0 1 1 0 1.774H4.37zm0 3.54a.887.887 0 0 1 0-1.774h6.969a.887.887 0 1 1 0 1.774H4.37zm17.335-4.72a.887.887 0 1 1 0-1.774h2.408c.49 0 .887.397.887.887v13.216c0 .49-.397.886-.887.886h-2.329v2.417a.887.887 0 0 1-1.428.703l-4.049-3.12h-6.13a.887.887 0 0 1 0-1.773h6.432c.196 0 .386.065.542.184l2.86 2.204v-1.501c0-.49.396-.887.886-.887h2.33V7.418h-1.522z"/>
    </defs>
    <g fill="none" fill-rule="evenodd" transform="translate(0 -2)">
        <mask id="b" fill="#fff">
            <use xlink:href="#a"/>
        </mask>
        <use fill="#000" fill-rule="nonzero" xlink:href="#a"/>
        <g fill="#4A4A4A" mask="url(#b)">
            <path d="M0 0h25v25H0z"/>
        </g>
    </g>
</svg>
