<svg id="Component_434_1" data-name="Component 434 – 1" xmlns="http://www.w3.org/2000/svg" width="260.759" height="92.463" viewBox="0 0 260.759 92.463">
  <path id="Path_26449" data-name="Path 26449" d="M546.21,341.964a36.549,36.549,0,0,1-10.123,1.214,10.56,10.56,0,0,1-5.532-1.393,8.47,8.47,0,0,1-3.4-7.923,18.277,18.277,0,0,1,2.551-7.133c.256-.42.448-.88.708-1.3.4-.625.963-1.073,1.7-.7.794.4.707,1.091.293,1.76a22.785,22.785,0,0,0-2.674,5.536c-1.566,5.162.6,8.365,5.987,8.835a28.827,28.827,0,0,0,10.438-1.15c-.013.754.005,1.507.05,2.255" transform="translate(-339.56 -293.641)" fill="#00758a"/>
  <path id="Path_26450" data-name="Path 26450" d="M593.442,303.317c-.63,4.55-3.464,8.786-6.371,12.218a82.728,82.728,0,0,1-10.037,9.957q-1.905,1.588-3.893,3.045c-.52-.53-1.059-1.041-1.613-1.52a80.174,80.174,0,0,0,14.267-13.376,24.136,24.136,0,0,0,5.382-9.844c.972-4.113-.7-6.773-4.834-7.663a22.465,22.465,0,0,0-9.749.474c-7.759,1.735-14.8,5.149-21.542,9.256-.586.356-1.173.707-1.739,1.1a1.246,1.246,0,0,1-1.759-.057,1.211,1.211,0,0,1-.137-.175,1.5,1.5,0,0,1,.653-1.62l.287-.137q1.629-1.014,3.254-2.022c2.812-1.347,5.372-3.145,8.284-4.325a88.848,88.848,0,0,1,10.244-3.671,28.918,28.918,0,0,1,12.045-1.055,8.9,8.9,0,0,1,5.915,3.136,7.877,7.877,0,0,1,1.342,6.284" transform="translate(-339.56 -293.641)" fill="#00758a"/>
  <path id="Path_26451" data-name="Path 26451" d="M567.557,369.038h0q.4.5-.252,2.243-.505,1.76-1.108,1.69c-.6-.069-.259-.431-.772-1.3a2.546,2.546,0,0,0-1.833-1.417q-2.115-.237-3.9,7.511t-2.527,7.515q-.909-.1-1.58-3.665a13.1,13.1,0,0,0-3.328-7.184,2.366,2.366,0,0,1-.52.546q-.471.1-2.387-1.252t-1.966-2.263q0-4.09,1.966-3.869,3.645.26,6.856,8.491a36.405,36.405,0,0,0,1.246,3.927q.875-3.689,2.053-7.341,1.978-6.744,4.534-6.3,1.965.219,3.529,2.666" transform="translate(-339.56 -293.641)" fill="#00758a"/>
  <path id="Path_26452" data-name="Path 26452" d="M583.026,347.938c-.046-.307-.1-.614-.152-.92-1.844-10.169-13.133-15.468-22.328-10.754l-.134.068c.142.05.283.109.42.169a26.468,26.468,0,0,1,7.023,4.549,1.3,1.3,0,0,1-.614,2.246l-.024.005c-2.948.548-5.878,1.31-8.9,1.046a11.177,11.177,0,0,1-5.961-2.21,4.139,4.139,0,0,1-1.31-1.565.467.467,0,0,1-.031-.086c-1.579.566-3.182,1.067-4.8,1.478a27.54,27.54,0,0,0,2.059,8.973,13.38,13.38,0,0,0,13.2,8.826,28.556,28.556,0,0,0,8.621-1.51,12.8,12.8,0,0,1,3.929-.836c1.63.023,3.474.927,3.519,2.725a6.967,6.967,0,0,1-2.231,4.888,16.424,16.424,0,0,1-5.122,3.619,14.865,14.865,0,0,0-.191,1.872c-.1.641-.242,1.278-.41,1.906-.33,1.218-.8,2.368-1.233,3.541a45.652,45.652,0,0,1-3.236,6.942q-.44.77-.913,1.524c-.141.228-1.058,1.365-.926,1.57.178.288,1.383-.127,1.634-.2.547-.169,1.082-.393,1.62-.6a24.251,24.251,0,0,0,10.3-7.868,33.856,33.856,0,0,0,2.561-3.959,37.437,37.437,0,0,0,2.222-4.834c2.538-6.726,2.474-13.6,1.424-20.6m-31.912-9.906a3.608,3.608,0,0,1,1.639-1.867,7.446,7.446,0,0,1,3.582-.725c.256.009.513.027.763.054a84.643,84.643,0,0,0,14.431-8.475,30.741,30.741,0,0,0-3.98-3.012,26.032,26.032,0,0,0-6.8-3.079,12.015,12.015,0,0,0-3.807-.553c-2.369.1-3.885,1.37-5.278,3.158a27.158,27.158,0,0,0-5.5,16.18c1.2-.338,2.382-.733,3.56-1.159.465-.17.931-.347,1.392-.521" transform="translate(-339.56 -293.641)" fill="#0c1e28"/>
  <path id="Path_26453" data-name="Path 26453" d="M538.771,304.511a39.7,39.7,0,0,1-6.55,8.5c-.356.352-1.132.937-.375,1.319a36.526,36.526,0,0,1,10.665,7.991c.522.574.91-.184,1.132-.635a33.662,33.662,0,0,1,5.752-8.277q.58-.612,1.19-1.2c.273-.262.953-.63.975-1.063.021-.49-.864-.844-1.23-1.026a34.894,34.894,0,0,1-9.046-6.593c-.293-.294-.925-1.241-1.418-.892a1.149,1.149,0,0,0-.322.44q-.371.723-.773,1.431" transform="translate(-339.56 -293.641)" fill="#00758a"/>
  <g id="Group_28571" data-name="Group 28571" transform="translate(-339.56 -293.641)">
    <path id="Path_36823" data-name="Path 36823" d="M351.871,335.053h-.86a1.7,1.7,0,0,1-1.188-.353,1.033,1.033,0,0,1-.38-.76.9.9,0,0,1,.278-.733,1.038,1.038,0,0,1,.683-.227,3,3,0,0,1,.543.05c.177.034.342.068.494.1l.227-1.416a4.786,4.786,0,0,0-1.366-.2,2.6,2.6,0,0,0-1.906.619,1.957,1.957,0,0,0-.619,1.429,1.744,1.744,0,0,0,.2.834,5.855,5.855,0,0,0,.4.66h-1.24v1.491h4.728Z" fill="#0a171e"/>
    <path id="Path_36824" data-name="Path 36824" d="M377.406,344.8a2.873,2.873,0,0,0,1.214-1.252,3.807,3.807,0,0,0,1.027,1.15,2.787,2.787,0,0,0,1.759.519H511.179l-.01-6.041a5.944,5.944,0,0,0-.327-2.022,4.46,4.46,0,0,0-.936-1.556,4.17,4.17,0,0,0-1.466-1,5.087,5.087,0,0,0-1.947-.354,5.54,5.54,0,0,0-2.3.467,5.694,5.694,0,0,0-1.769,1.227,5.47,5.47,0,0,0-1.137,1.744,5.268,5.268,0,0,0-.4,2.021,5.047,5.047,0,0,0,.227,1.656,3.827,3.827,0,0,0,.431.923H381.5a2.026,2.026,0,0,1-1.76-.659,2.814,2.814,0,0,1-.467-1.669V327.115h-2.9V340.97a2.052,2.052,0,0,1-.189.961.769.769,0,0,1-.746.354H360.642a1.961,1.961,0,0,1-1.706-.66,2.807,2.807,0,0,1-.467-1.669V327.115h-2.883V340.97a2.14,2.14,0,0,1-.177.986.783.783,0,0,1-.758.329H343.3a1.411,1.411,0,0,1-.33-.039.517.517,0,0,1-.265-.164,1.008,1.008,0,0,1-.19-.392,2.62,2.62,0,0,1-.073-.7v-3.768H339.56V341.5a5.285,5.285,0,0,0,.19,1.415,3.142,3.142,0,0,0,.607,1.188,2.959,2.959,0,0,0,1.086.806,4.028,4.028,0,0,0,1.655.3h11.656a3.831,3.831,0,0,0,1.77-.44,3.251,3.251,0,0,0,1.339-1.252,3.759,3.759,0,0,0,.976,1.163,2.687,2.687,0,0,0,1.76.532h14.962A3.884,3.884,0,0,0,377.406,344.8Zm126.544-6.207a2.713,2.713,0,0,1,.557-.82,2.447,2.447,0,0,1,.783-.531,2.308,2.308,0,0,1,.923-.19,2.225,2.225,0,0,1,.922.177,1.866,1.866,0,0,1,.645.467,1.83,1.83,0,0,1,.366.645,2.331,2.331,0,0,1,.115.708v3.235h-2.2a2.69,2.69,0,0,1-1.164-.379,2.956,2.956,0,0,1-.8-.8,2.437,2.437,0,0,1-.366-1.428A2.639,2.639,0,0,1,503.95,338.591Z" fill="#0a171e"/>
    <path id="Path_36825" data-name="Path 36825" d="M505.362,332.247a1.467,1.467,0,0,0,1.066.43,1.492,1.492,0,0,0,1.09-.43,1.443,1.443,0,0,0,.034-2.039l-.034-.034a1.5,1.5,0,0,0-1.09-.429,1.466,1.466,0,0,0-1.066.429,1.443,1.443,0,0,0-.034,2.039Z" fill="#0a171e"/>
    <circle id="Ellipse_108" data-name="Ellipse 108" cx="1.466" cy="1.466" r="1.466" transform="translate(342.038 360.079)" fill="#0a171e"/>
    <path id="Path_36826" data-name="Path 36826" d="M348.533,362.581a1.5,1.5,0,1,0-1.086.43A1.466,1.466,0,0,0,348.533,362.581Z" fill="#0a171e"/>
    <path id="Path_36827" data-name="Path 36827" d="M358.367,365.487h-2.882v7.129H350.4v-3.005a5.856,5.856,0,0,0-.342-2.035,4.529,4.529,0,0,0-.986-1.592,4.438,4.438,0,0,0-1.539-1.037,5.228,5.228,0,0,0-1.985-.366,5.023,5.023,0,0,0-2.174.467,5.19,5.19,0,0,0-1.693,1.274,6.085,6.085,0,0,0-1.112,1.883,6.344,6.344,0,0,0-.408,2.261,5.788,5.788,0,0,0,.3,1.845,4.342,4.342,0,0,0,.986,1.631,4.97,4.97,0,0,0,1.76,1.162,6.844,6.844,0,0,0,2.615.44h12.536Zm-10.845,7.129h-1.769a3.743,3.743,0,0,1-1.026-.138,2.331,2.331,0,0,1-.872-.456,2.279,2.279,0,0,1-.607-.806,2.846,2.846,0,0,1-.228-1.2,2.767,2.767,0,0,1,.205-1.089,2.672,2.672,0,0,1,.53-.821,2.425,2.425,0,0,1,.746-.531,2.1,2.1,0,0,1,.872-.187,1.84,1.84,0,0,1,1.606.771,3.8,3.8,0,0,1,.543,2.212Z" fill="#0a171e"/>
    <path id="Path_36828" data-name="Path 36828" d="M353.741,377.268a1.483,1.483,0,0,0-1.086.42,1.394,1.394,0,0,0-.43,1.033,1.418,1.418,0,0,0,.43,1.059,1.613,1.613,0,0,0,2.173,0,1.422,1.422,0,0,0,.43-1.059,1.4,1.4,0,0,0-.43-1.033A1.487,1.487,0,0,0,353.741,377.268Z" fill="#0a171e"/>
    <path id="Path_36829" data-name="Path 36829" d="M357.659,377.268a1.484,1.484,0,0,0-1.086.42,1.386,1.386,0,0,0-.431,1.033,1.419,1.419,0,0,0,.431,1.059,1.613,1.613,0,0,0,2.173,0,1.417,1.417,0,0,0,.429-1.059,1.393,1.393,0,0,0-.429-1.033A1.487,1.487,0,0,0,357.659,377.268Z" fill="#0a171e"/>
    <path id="Path_36830" data-name="Path 36830" d="M381.156,360.079a1.466,1.466,0,0,0-1.066.429,1.442,1.442,0,0,0-.035,2.039v0l.034.033a1.468,1.468,0,0,0,1.066.431,1.5,1.5,0,0,0,1.09-.431h0a1.443,1.443,0,0,0,.034-2.039c-.011-.012-.023-.023-.034-.034A1.5,1.5,0,0,0,381.156,360.079Z" fill="#0a171e"/>
    <path id="Path_36831" data-name="Path 36831" d="M400,372.617H396.31a2.024,2.024,0,0,1-1.76-.66,2.8,2.8,0,0,1-.467-1.668v-12.84h-2.9V371.3a2.054,2.054,0,0,1-.188.961.772.772,0,0,1-.746.354H385.8a14.114,14.114,0,0,1-1.769-.074,8.848,8.848,0,0,0,2.173-2.831,6.19,6.19,0,0,0,.556-2.376,1.978,1.978,0,0,0-.3-1,3.13,3.13,0,0,0-.91-.948A5.074,5.074,0,0,0,384,364.7a8.257,8.257,0,0,0-2.224-.265,8.057,8.057,0,0,0-1.668.177,11.009,11.009,0,0,0-1.631.48,10.852,10.852,0,0,0-1.5.708,9.355,9.355,0,0,0-1.266.858l.1,2.022a4.116,4.116,0,0,0,.379.771,11.77,11.77,0,0,0,.66.986q.381.518.83,1.046a12.73,12.73,0,0,0,.911.961,6.1,6.1,0,0,1-.733.126,8.566,8.566,0,0,1-.986.051h-4.93v-3.005a6.018,6.018,0,0,0-.327-2.035,4.5,4.5,0,0,0-.961-1.593,4.329,4.329,0,0,0-1.529-1.036,5.352,5.352,0,0,0-2.036-.367,4.942,4.942,0,0,0-2.164.46,5.194,5.194,0,0,0-1.681,1.277,5.868,5.868,0,0,0-1.1,1.883,6.535,6.535,0,0,0-.392,2.262,5.784,5.784,0,0,0,.3,1.845,4.415,4.415,0,0,0,.973,1.632,4.85,4.85,0,0,0,1.749,1.166,6.965,6.965,0,0,0,2.639.44h1.694a3.013,3.013,0,0,1-.316,1.376,2.129,2.129,0,0,1-.783.807,3.2,3.2,0,0,1-1.125.392,8.481,8.481,0,0,1-1.341.1c-.319,0-.7-.018-1.136-.051s-.9-.084-1.393-.152l-.2,2.832a13.307,13.307,0,0,0,1.393.164q.633.039,1.214.038a9.688,9.688,0,0,0,2.553-.316,5.815,5.815,0,0,0,2.023-.973,4.631,4.631,0,0,0,1.364-1.707,6.521,6.521,0,0,0,.581-2.514h4.932a10.153,10.153,0,0,0,2.211-.253,7.339,7.339,0,0,0,2.086-.807,8.7,8.7,0,0,0,1.745.709,9.69,9.69,0,0,0,2.83.354h4.626a3.873,3.873,0,0,0,1.845-.418,2.86,2.86,0,0,0,1.214-1.251,3.821,3.821,0,0,0,1.027,1.15,2.78,2.78,0,0,0,1.759.519h6.647v-18.1H400Zm-32.686,0a3.8,3.8,0,0,1-1.027-.139,2.347,2.347,0,0,1-.871-.455,2.273,2.273,0,0,1-.607-.807,2.855,2.855,0,0,1-.227-1.2,2.762,2.762,0,0,1,.2-1.088,2.676,2.676,0,0,1,.531-.821,2.424,2.424,0,0,1,.745-.53,2.089,2.089,0,0,1,.873-.19,1.85,1.85,0,0,1,1.579.771,3.673,3.673,0,0,1,.569,2.211l0,2.248Zm16.482-3.893a5.02,5.02,0,0,1-.557.935,6.643,6.643,0,0,1-.846.936,6.186,6.186,0,0,1-1.051.783,6.334,6.334,0,0,1-.947-.806q-.468-.48-.872-.986a11.137,11.137,0,0,1-.683-.936,5.264,5.264,0,0,1-.379-.66,5.191,5.191,0,0,1,1.517-.569,8.055,8.055,0,0,1,1.77-.215q.4,0,.8.038a5.859,5.859,0,0,1,.72.114,1.567,1.567,0,0,1,.531.215.407.407,0,0,1,.2.341,2.032,2.032,0,0,1-.2.806Z" fill="#0a171e"/>
    <rect id="Rectangle_21200" data-name="Rectangle 21200" width="2.856" height="18.099" transform="translate(407.004 357.449)" fill="#0a171e"/>
    <path id="Path_36832" data-name="Path 36832" d="M425,360.508a1.517,1.517,0,1,0,2.173,0A1.59,1.59,0,0,0,425,360.508Z" fill="#0a171e"/>
    <path id="Path_36833" data-name="Path 36833" d="M428.946,360.508a1.516,1.516,0,1,0,2.173,0A1.59,1.59,0,0,0,428.946,360.508Z" fill="#0a171e"/>
    <path id="Path_36834" data-name="Path 36834" d="M433.9,372.616H422.145a1.432,1.432,0,0,1-.936-.24,1.4,1.4,0,0,1-.277-1.049v-3.766H418.05v4.272a5.208,5.208,0,0,0,.19,1.415,2.916,2.916,0,0,0,.644,1.188,3.181,3.181,0,0,0,1.213.806,5.056,5.056,0,0,0,1.871.3h14.839V365.487H433.9Z" fill="#0a171e"/>
    <path id="Path_36835" data-name="Path 36835" d="M448.639,372.616h-5.03V357.449h-2.887v18.1h10.794V365.487h-2.877Z" fill="#0a171e"/>
    <path id="Path_36836" data-name="Path 36836" d="M451.206,360.51a1.494,1.494,0,0,0-1.09-.43h0a1.462,1.462,0,0,0-1.065.429,1.441,1.441,0,0,0-.035,2.039v0l.034.033a1.46,1.46,0,0,0,1.065.431,1.489,1.489,0,0,0,1.09-.431,1.442,1.442,0,0,0,.034-2.038C451.229,360.532,451.217,360.521,451.206,360.51Z" fill="#0a171e"/>
    <path id="Path_36837" data-name="Path 36837" d="M463.776,365.978a4.326,4.326,0,0,0-1.526-1.034,5.278,5.278,0,0,0-2.011-.366,5.011,5.011,0,0,0-2.172.467,5.2,5.2,0,0,0-1.695,1.277,5.9,5.9,0,0,0-1.1,1.883,6.558,6.558,0,0,0-.392,2.262,5.793,5.793,0,0,0,.3,1.846,4.428,4.428,0,0,0,.974,1.631,4.869,4.869,0,0,0,1.744,1.162,6.943,6.943,0,0,0,2.639.44h1.719a3.09,3.09,0,0,1-.353,1.377,2.249,2.249,0,0,1-.785.807,3.064,3.064,0,0,1-1.111.392,8.58,8.58,0,0,1-1.34.1q-.454,0-1.125-.051t-1.4-.151l-.2,2.831a13.957,13.957,0,0,0,1.428.164q.644.037,1.173.039a10.008,10.008,0,0,0,2.639-.33,5.664,5.664,0,0,0,2.072-1.026,4.574,4.574,0,0,0,1.353-1.821,6.914,6.914,0,0,0,.48-2.717V369.6a5.832,5.832,0,0,0-.341-2.035A4.625,4.625,0,0,0,463.776,365.978Zm-1.543,6.63h-1.77a3.9,3.9,0,0,1-1.036-.138,2.3,2.3,0,0,1-.885-.456,2.271,2.271,0,0,1-.606-.807,2.841,2.841,0,0,1-.228-1.2,2.786,2.786,0,0,1,.2-1.087,2.547,2.547,0,0,1,.544-.822,2.574,2.574,0,0,1,.758-.531,2.1,2.1,0,0,1,.872-.19,1.86,1.86,0,0,1,1.58.771,3.679,3.679,0,0,1,.569,2.213Z" fill="#0a171e"/>
    <path id="Path_36838" data-name="Path 36838" d="M463.772,365.973l0,.005,0,0Z" fill="#0a171e"/>
    <path id="Path_36839" data-name="Path 36839" d="M508.319,372.617h-3.691a2.023,2.023,0,0,1-1.759-.66,2.8,2.8,0,0,1-.468-1.668v-12.84h-2.907V371.3a2.067,2.067,0,0,1-.189.961.769.769,0,0,1-.746.354h-2.14a.877.877,0,0,0-.16-.026h-.91a2.65,2.65,0,0,1-1.2-.226,1.824,1.824,0,0,1-.67-.54,1.6,1.6,0,0,1-.293-.666,3.206,3.206,0,0,1-.064-.578,6.632,6.632,0,0,0-1.3-4.369,4.622,4.622,0,0,0-3.755-1.557,5.064,5.064,0,0,0-3.728,1.6,5.35,5.35,0,0,0-1.087,1.759,6.136,6.136,0,0,0-.392,2.223,4.692,4.692,0,0,1-.126,1.193,1.954,1.954,0,0,1-.342.729,1.034,1.034,0,0,1-.493.351,1.809,1.809,0,0,1-.555.088h-.987a.694.694,0,0,0-.12.026H479.6a2.093,2.093,0,0,1-1.745-.67,3.1,3.1,0,0,1-.531-1.959,8.343,8.343,0,0,0-.266-2.162,4.456,4.456,0,0,0-.872-1.731,4.036,4.036,0,0,0-1.618-1.15,6.492,6.492,0,0,0-2.475-.421h-2.983v2.78h2.4a4.287,4.287,0,0,1,1.63.253,1.9,1.9,0,0,1,.9.746,2.944,2.944,0,0,1,.378,1.264,17.653,17.653,0,0,1,.073,1.782,1.781,1.781,0,0,1-.2.961.882.882,0,0,1-.784.3h-5.764v2.932h5.964a3.744,3.744,0,0,0,1.806-.429,2.978,2.978,0,0,0,1.227-1.214,3.683,3.683,0,0,0,1.062,1.15,2.9,2.9,0,0,0,1.743.493H481.5a2.454,2.454,0,0,0,1.491-.484A3.243,3.243,0,0,0,484,373.84a4.647,4.647,0,0,0,1.554,1.325,5,5,0,0,0,2.389.513c.4,0,.8-.017,1.188-.052a4.369,4.369,0,0,0,1.112-.242,3.6,3.6,0,0,0,1.036-.6,4.55,4.55,0,0,0,.961-1.122,3.287,3.287,0,0,0,3.033,1.889h3.413a3.873,3.873,0,0,0,1.845-.418,2.862,2.862,0,0,0,1.214-1.252,3.807,3.807,0,0,0,1.026,1.151,2.794,2.794,0,0,0,1.759.519h6.648v-18.1h-2.859Zm-18.491-.591a2.573,2.573,0,0,1-3.564,0,2.765,2.765,0,0,1-.569-1.774,3.493,3.493,0,0,1,.19-1.182,2.9,2.9,0,0,1,.506-.906,2.173,2.173,0,0,1,.745-.579,2.134,2.134,0,0,1,.91-.2,2.072,2.072,0,0,1,.885.2,2.161,2.161,0,0,1,.745.579,3.139,3.139,0,0,1,.518.906,3.264,3.264,0,0,1,.2,1.182A2.765,2.765,0,0,1,489.828,372.026Z" fill="#0a171e"/>
  </g>
  <path id="Path_26471" data-name="Path 26471" d="M600.319,356s-6.724-7.323-6.947-7.588a37.09,37.09,0,0,1-6.458,6.847l5.688,5.918-5.777,5.462s5.975,7.684,6.5,9.411c.011.031.044.027.045-.006.244-4.318,6.548-8.838,6.548-8.838l-5.255-6.016Z" transform="translate(-339.56 -293.641)" fill="#0c1e28"/>
</svg>
