<svg xmlns="http://www.w3.org/2000/svg" xmlns:xlink="http://www.w3.org/1999/xlink" width="22" height="23" viewBox="0 0 22 23">
    <defs>
        <path id="a" d="M17.08 17.318a6.13 6.13 0 0 1 .306 1.895v3.79c0 .598-.408.997-1.02.997-.613 0-1.022-.399-1.022-.997v-3.89c.102-.797-.204-1.396-.714-1.894-.306-.3-.409-.698-.204-.997.102-.4.51-.599.816-.699 2.96-.299 5.716-1.296 5.716-5.983 0-1.097-.408-2.194-1.224-3.091-.307-.3-.307-.699-.205-.998.307-.797.307-1.595.102-2.393-.51.1-1.326.399-2.653 1.296-.205.2-.51.2-.817.1a12.487 12.487 0 0 0-6.635 0c-.306.1-.612.1-.919-.1-1.225-.897-2.143-1.196-2.654-1.296-.204.798-.204 1.596.102 2.393.102.4.102.798-.204.998-.816.897-1.225 1.994-1.225 3.091 0 4.687 2.756 5.684 5.717 5.983.408 0 .714.3.816.699.102.398 0 .797-.204.997-.51.498-.714 1.097-.714 1.795v3.889c0 .598-.409.997-1.021.997-.613 0-1.021-.399-1.021-.997v-1.695c-3.062.498-4.39-1.197-5.308-2.294-.408-.499-.714-.897-1.123-.997-.51-.1-.918-.698-.714-1.197.102-.498.714-.897 1.225-.698 1.02.3 1.633.997 2.245 1.695.817 1.097 1.531 1.895 3.675 1.496v-.1c0-.598.102-1.296.306-1.795-2.858-.598-5.92-2.393-5.92-7.678 0-1.496.51-2.892 1.429-3.99-.408-1.395-.306-2.692.306-3.988a.91.91 0 0 1 .613-.599c.408-.1 1.735-.299 4.49 1.397 2.247-.499 4.594-.499 6.738 0C18.815.764 20.244.964 20.652 1.063c.306.1.51.3.613.599.51 1.296.612 2.593.306 3.889A6.175 6.175 0 0 1 23 9.54c0 5.684-3.47 7.28-5.92 7.778z"/>
    </defs>
    <g fill="none" fill-rule="evenodd" transform="translate(-1 -1)">
        <mask id="b" fill="#fff">
            <use xlink:href="#a"/>
        </mask>
        <use fill="#000" fill-rule="nonzero" xlink:href="#a"/>
        <g fill="#4A4A4A" mask="url(#b)">
            <path d="M0 0h24v24H0z"/>
        </g>
    </g>
</svg>
