<?xml version="1.0" encoding="UTF-8"?>
<svg width="27px" height="27px" viewBox="0 0 27 27" version="1.1" xmlns="http://www.w3.org/2000/svg" xmlns:xlink="http://www.w3.org/1999/xlink">
    <!-- Generator: Sketch 47.1 (45422) - http://www.bohemiancoding.com/sketch -->
    <title>icon / github</title>
    <desc>Created with Sketch.</desc>
    <defs></defs>
    <g id="Symbols" stroke="none" stroke-width="1" fill="none" fill-rule="evenodd">
        <g id="icon-/-github" fill="#000000">
            <path d="M3.80859375,4.609375 C6.38673164,1.95311172 9.49216934,0.625 13.125,0.625 C16.7578307,0.625 19.8535028,1.94334619 22.4121094,4.58007812 C24.9707159,7.21681006 26.25,10.3906064 26.25,14.1015625 C26.25,17.0312646 25.4101646,19.667957 23.7304688,22.0117188 C22.0507729,24.3554805 19.9023568,25.976558 17.2851562,26.875 L17.0507812,26.875 C16.5820289,26.875 16.3476562,26.6406273 16.3476562,26.171875 C16.3476562,26.1328123 16.3574218,25.6933636 16.3769531,24.8535156 C16.3964845,24.0136677 16.40625,23.242191 16.40625,22.5390625 C16.40625,21.4062443 16.0937531,20.566409 15.46875,20.0195312 C17.265634,19.7851551 18.7206976,19.208989 19.8339844,18.2910156 C20.9472712,17.3730423 21.5039062,15.7421992 21.5039062,13.3984375 C21.5039062,11.9921805 21.054692,10.7812551 20.15625,9.765625 C20.546877,8.63280684 20.5078148,7.4414125 20.0390625,6.19140625 L19.7460938,6.19140625 C18.8476518,6.19140625 17.7343816,6.66015156 16.40625,7.59765625 C15.2734318,7.28515469 14.1796928,7.12890625 13.125,7.12890625 C12.0703072,7.12890625 10.9765682,7.28515469 9.84375,7.59765625 C8.51561836,6.66015156 7.40234824,6.19140625 6.50390625,6.19140625 L6.2109375,6.19140625 C5.74218516,7.4414125 5.70312305,8.63280684 6.09375,9.765625 C5.19530801,10.7812551 4.74609375,11.9921805 4.74609375,13.3984375 C4.74609375,15.7421992 5.29296328,17.3730423 6.38671875,18.2910156 C7.48047422,19.208989 8.92577227,19.7851551 10.7226562,20.0195312 C10.2929666,20.4492209 10.0195318,21.0546836 9.90234375,21.8359375 C9.43359141,22.0703137 8.92578398,22.1875 8.37890625,22.1875 C7.40233887,22.1875 6.64062773,21.6992236 6.09375,20.7226562 C5.58593496,19.863277 4.90234805,19.3945316 4.04296875,19.3164062 C3.22265215,19.3164062 3.20312109,19.589841 3.984375,20.1367188 C4.57031543,20.4492203 5.0585918,21.1132762 5.44921875,22.1289062 C5.48828145,22.285157 5.56640566,22.4707021 5.68359375,22.6855469 C5.80078184,22.9003917 6.12304424,23.183592 6.65039062,23.5351562 C7.17773701,23.8867205 7.81249629,24.0625 8.5546875,24.0625 C9.10156523,24.0625 9.53124844,24.0234379 9.84375,23.9453125 L9.84375,26.2304688 C9.84375,26.6601584 9.6289084,26.875 9.19921875,26.875 L8.96484375,26.875 C6.30858047,25.976558 4.15039893,24.365246 2.49023438,22.0410156 C0.830069824,19.7167853 0,17.0703273 0,14.1015625 C0,10.3906064 1.26951855,7.22657559 3.80859375,4.609375 Z"></path>
        </g>
    </g>
</svg>