<svg id="BLACK_ON_ANY_BKG" data-name="BLACK ON ANY BKG" xmlns="http://www.w3.org/2000/svg" viewBox="0 0 502.57 139.34"><defs><style>.cls-1,.cls-2{fill:#231f20;}.cls-2{fill-rule:evenodd;}</style></defs><title>jargon_Netcetera_logo</title><path class="cls-1" d="M406.62,149.22a1.54,1.54,0,0,1-1.43-1.41v-7.5a1.57,1.57,0,0,1,1.43-1.41h7.49v-14.3c0-12.9,7.53-20.7,20.35-20.7h8.92a1.58,1.58,0,0,1,1.45,1.41v7.5a1.58,1.58,0,0,1-1.45,1.43h-7.49c-7.3,0-10.34,2.78-10.34,10v14.66h20.33a1.55,1.55,0,0,1,1.44,1.41v7.5a1.55,1.55,0,0,1-1.44,1.41Z" transform="translate(-4.02 -9.88)"/><path class="cls-1" d="M163.89,103.9a1.52,1.52,0,0,1,1.43,1.41v7.5a1.53,1.53,0,0,1-1.43,1.43h-20v17.14c0,7.23,4.57,7.52,8.56,7.52h7.14A1.51,1.51,0,0,1,161,140.3v7.5a1.54,1.54,0,0,1-1.42,1.41H150c-12.13,0-17.47-5-17.47-17.84V114.24h-8.59a1.54,1.54,0,0,1-1.44-1.43v-7.5a1.49,1.49,0,0,1,1.44-1.41Z" transform="translate(-4.02 -9.88)"/><path class="cls-1" d="M218.16,103.9H199.6c-12.91,0-20.35,7.86-20.35,20.7v4.29c0,12.85,7.44,20.34,20.35,20.34h17.14a1.51,1.51,0,0,0,1.42-1.41v-7.5a1.51,1.51,0,0,0-1.42-1.41H201c-7.5,0-10.35-2.86-10.35-10v-4.65c0-7.5,2.69-10,10-10h17.48a1.6,1.6,0,0,0,1.44-1.43v-7.5a1.53,1.53,0,0,0-1.44-1.41Z" transform="translate(-4.02 -9.88)"/><path class="cls-1" d="M30.44,103.9H21.15c-10,0-17.13,5.38-17.13,16.77V147.8a1.52,1.52,0,0,0,1.42,1.41H14a1.53,1.53,0,0,0,1.43-1.41V121.37c0-4.27,2.14-7.13,7.15-7.13h5.69c8.59,0,10,2.13,10,8.57v25a1.52,1.52,0,0,0,1.43,1.41H48.3a1.54,1.54,0,0,0,1.42-1.41v-25c0-12.86-5.7-18.92-19.28-18.92Z" transform="translate(-4.02 -9.88)"/><path class="cls-1" d="M333.85,103.9a1.52,1.52,0,0,1,1.42,1.41v7.5a1.54,1.54,0,0,1-1.42,1.43h-20v17.14c0,7.23,4.57,7.52,8.58,7.52h7.12A1.53,1.53,0,0,1,331,140.3v7.5a1.55,1.55,0,0,1-1.44,1.41h-9.63c-12.15,0-17.5-5-17.5-17.84V114.24h-8.57a1.53,1.53,0,0,1-1.41-1.43v-7.5a1.48,1.48,0,0,1,1.41-1.41Z" transform="translate(-4.02 -9.88)"/><path class="cls-2" d="M461.25,136c0,7.83,6.41,13.19,15,13.19h14.64c10.36,0,15.71-6.28,15.71-15V122.55c0-12.92-6.1-18.66-18.93-18.66H468.75a1.52,1.52,0,0,0-1.43,1.41v7.5a1.6,1.6,0,0,0,1.43,1.43h18.2c6.06,0,8.22,1.07,8.22,7.49H476.24c-8.69,0-15,4.29-15,13.57V136Zm14.64-4.65h19.28c0,.83,0,2.5,0,3.21,0,3.57-2.15,4.65-5.36,4.65H475.88A3.75,3.75,0,0,1,472,135.3v-.36c0-2.85,1.78-3.57,3.92-3.57Z" transform="translate(-4.02 -9.88)"/><path class="cls-2" d="M104,147.8a1.52,1.52,0,0,1-1.42,1.41H85.42c-13.93,0-21.06-8.14-21.06-21v-4.46c0-12.84,8.24-20.17,21.06-20.17h5c12.86,0,20,8.07,20,19.27v1.42c0,3.59-2.14,7.15-7.85,7.15H76.14c.7,6.43,3.56,7.52,10,7.52h16.44A1.55,1.55,0,0,1,104,140.3v7.5Zm-28.2-26.07H99c-.35-5.36-2.85-8.21-9.93-8.21H86.64c-7.58,0-10.85,2.86-10.85,8.21Z" transform="translate(-4.02 -9.88)"/><path class="cls-2" d="M273.88,147.8a1.53,1.53,0,0,1-1.45,1.41H255.31c-13.93,0-21.07-8.14-21.07-21v-4.46c0-12.84,8.23-20.17,21.07-20.17h5c12.86,0,20,8.07,20,19.27v1.42c0,3.59-2.14,7.15-7.86,7.15H246c.71,6.43,3.57,7.52,10,7.52h16.42a1.56,1.56,0,0,1,1.45,1.41v7.5Zm-28.22-26.07h23.21c-.35-5.36-2.83-8.21-9.95-8.21h-2.41c-7.57,0-10.85,2.86-10.85,8.21Z" transform="translate(-4.02 -9.88)"/><path class="cls-2" d="M388.13,147.8a1.51,1.51,0,0,1-1.43,1.41H369.55c-13.93,0-21.06-8.14-21.06-21v-4.46c0-12.84,8.22-20.17,21.06-20.17h5c12.88,0,19.93,8.07,19.93,19.27v1.42c0,3.59-2.14,7.15-7.78,7.15H360.27c.72,6.43,3.57,7.52,10,7.52H386.7a1.54,1.54,0,0,1,1.43,1.41v7.5Zm-28.21-26.07h23.2c-.36-5.36-2.85-8.21-9.95-8.21h-2.41c-7.58,0-10.84,2.86-10.84,8.21Z" transform="translate(-4.02 -9.88)"/><path class="cls-2" d="M34.79,20.49a1.37,1.37,0,0,1-1.34-1.34V11.22a1.37,1.37,0,0,1,1.34-1.34h9.28a1.37,1.37,0,0,1,1.34,1.34v7.94A1.39,1.39,0,0,1,44,20.49Z" transform="translate(-4.02 -9.88)"/><path class="cls-1" d="M27.61,76.39c10.38,0,17.8-5.93,17.8-18.49V28.76a1.64,1.64,0,0,0-1.48-1.57H35a1.65,1.65,0,0,0-1.48,1.57V57.11c0,4.72-2.23,7.87-7.42,7.87H9.67a1.35,1.35,0,0,0-1.34,1.34V75a1.41,1.41,0,0,0,1.34,1.42Z" transform="translate(-4.02 -9.88)"/><path class="cls-1" d="M87.32,28.8H67.47A1.61,1.61,0,0,0,66,30.3v7.87a1.66,1.66,0,0,0,1.5,1.49H86.57c6.37,0,8.62,1.12,8.62,7.87H75.33C66.23,47.54,59.6,52,59.6,61.78v.74c0,8.25,6.75,13.86,15.74,13.86H90.7c10.86,0,16.48-6.59,16.48-15.73V48.39C107.18,34.83,100.79,28.8,87.32,28.8ZM95.19,61c0,3.74-2.24,4.87-5.62,4.87H75a3.93,3.93,0,0,1-4.12-4.12V61.4c0-3,1.87-3.75,4.12-3.75H95.19C95.17,58.53,95.19,60.27,95.19,61Z" transform="translate(-4.02 -9.88)"/><path class="cls-1" d="M123.29,76.39a1.61,1.61,0,0,1-1.5-1.5V67a1.64,1.64,0,0,1,1.5-1.5h7.87v-15C131.16,37,139,28.8,152.51,28.8h9.36a1.67,1.67,0,0,1,1.5,1.5v7.87a1.64,1.64,0,0,1-1.5,1.49H154c-7.67,0-10.86,2.91-10.86,10.5V65.52H164.5A1.64,1.64,0,0,1,166,67v7.87a1.64,1.64,0,0,1-1.5,1.5Z" transform="translate(-4.02 -9.88)"/><path class="cls-1" d="M206.79,28.43h-6.74c-13.57,0-21,7.41-21,21v5.24c0,13.57,6.66,21.73,20.23,21.73h9c2.62,0,6.37-1.12,7.5-3.37v5.62c0,3.78-3.75,5.62-6,5.62H194.44a1.64,1.64,0,0,0-1.5,1.5v7.87a1.61,1.61,0,0,0,1.5,1.5h15.36c9,0,18-6.75,18-16.49V49.41C227.78,35.84,220.46,28.43,206.79,28.43Zm9,26.23c0,8.24-3,10.86-9.75,10.86H200.8c-6.74,0-9.74-2.62-9.74-10.86V50.16c0-9,3.75-11.25,10.49-11.25h3.74c6.75,0,10.5,2.25,10.5,11.25Z" transform="translate(-4.02 -9.88)"/><path class="cls-2" d="M258.93,28.82h5.35c13.56,0,21.23,7.76,21.23,21.23V55.4c0,13.47-7.67,21.23-21.23,21.23h-5.35c-13.47,0-21.14-7.76-21.14-21.23V50c0-13.47,7.67-21.23,21.14-21.23ZM249.65,55.4c0,7.67,3,10.61,10.62,10.61h2.67c7.67,0,10.62-2.94,10.62-10.61V50c0-7.67-2.94-10.62-10.62-10.62h-2.67c-7.58,0-10.62,2.94-10.62,10.62V55.4Z" transform="translate(-4.02 -9.88)"/><path class="cls-1" d="M323.57,29h-9.64c-10.38,0-17.8,5.59-17.8,17.43V74.66a1.59,1.59,0,0,0,1.48,1.48h8.9A1.59,1.59,0,0,0,308,74.66V47.22c0-4.45,2.22-7.42,7.42-7.42h5.93c8.9,0,10.38,2.23,10.38,8.9v26a1.6,1.6,0,0,0,1.48,1.48h8.9a1.62,1.62,0,0,0,1.48-1.48v-26c0-13.35-5.93-19.65-20-19.65Z" transform="translate(-4.02 -9.88)"/></svg>