<?xml version="1.0" encoding="UTF-8"?>
<svg width="23px" height="23px" viewBox="0 0 23 23" version="1.1" xmlns="http://www.w3.org/2000/svg" xmlns:xlink="http://www.w3.org/1999/xlink">
    <!-- Generator: Sketch 47.1 (45422) - http://www.bohemiancoding.com/sketch -->
    <title>icon / link</title>
    <desc>Created with Sketch.</desc>
    <defs></defs>
    <g id="Symbols" stroke="none" stroke-width="1" fill="none" fill-rule="evenodd">
        <g id="icon-/-link" fill="#FFFFFF">
            <path d="M6.16601562,15.6289062 C6.16601562,15.4427074 6.23762949,15.2779955 6.38085938,15.1347656 L14.6953125,6.75585938 C14.8385424,6.61262949 15.0032543,6.54101562 15.1894531,6.54101562 C15.375652,6.54101562 15.5367832,6.6090488 15.6728516,6.74511719 C15.80892,6.88118558 15.8769531,7.04231678 15.8769531,7.22851562 C15.8769531,7.41471447 15.8125006,7.57942637 15.6835938,7.72265625 L7.34765625,16.1015625 C7.27604131,16.1731774 7.20084675,16.2268878 7.12207031,16.2626953 C7.04329388,16.2985028 6.95377654,16.3164062 6.85351562,16.3164062 C6.66731678,16.3164062 6.50618558,16.2483731 6.37011719,16.1123047 C6.2340488,15.9762363 6.16601562,15.8151051 6.16601562,15.6289062 Z M10.2480469,14.640625 L11.34375,13.5664062 C11.7018247,14.3684936 11.8020841,15.2063758 11.6445313,16.0800781 C11.4869784,16.9537804 11.0787793,17.7200488 10.4199219,18.3789062 L7.6484375,21.0644531 C6.77473521,21.9381554 5.72201137,22.375 4.49023438,22.375 C3.25845738,22.375 2.20573354,21.9381554 1.33203125,21.0644531 C0.458328965,20.1907508 0.021484375,19.138027 0.021484375,17.90625 C0.021484375,16.674473 0.458328965,15.6217492 1.33203125,14.7480469 L4.0390625,11.9550781 C4.91276479,11.0813758 5.96548863,10.6445312 7.19726563,10.6445312 C7.85612309,10.6445312 8.48632512,10.787759 9.08789063,11.0742188 L8.01367188,12.1484375 C7.71288912,12.0624996 7.44075643,12.0195312 7.19726563,12.0195312 C6.33788633,12.0195312 5.60742488,12.3203095 5.00585938,12.921875 L2.29882813,15.7363281 C1.69726262,16.3235706 1.39648438,17.0468707 1.39648438,17.90625 C1.39648438,18.7656293 1.69726262,19.4960907 2.29882813,20.0976562 C2.90039363,20.6992218 3.63085508,21 4.49023438,21 C5.34961367,21 6.08007512,20.6992218 6.68164063,20.0976562 L9.453125,17.4121094 C9.83984568,17.0253887 10.0976556,16.5957055 10.2265625,16.1230469 C10.3554694,15.6503883 10.3626308,15.1562526 10.2480469,14.640625 Z M20.7109375,1.68554688 C21.4700559,2.44466525 21.8997391,3.36848414 22,4.45703125 C22.1145839,5.84636111 21.6849007,7.02798992 20.7109375,8.00195312 L17.9394531,10.7734375 C17.5097635,11.2031271 17.0227892,11.5289702 16.4785156,11.7509766 C15.9342421,11.9729829 15.3684925,12.0839844 14.78125,12.0839844 C14.5807282,12.0839844 14.3909514,12.0732423 14.2119141,12.0517578 C14.0328767,12.0302733 13.8466807,11.9980471 13.6533203,11.9550781 C13.45996,11.9121092 13.2701832,11.8548181 13.0839844,11.7832031 L14.1796875,10.6875 C14.2513024,10.701823 14.4518213,10.7089844 14.78125,10.7089844 C15.1966167,10.7089844 15.5940736,10.6302091 15.9736328,10.4726562 C16.353192,10.3151034 16.6861965,10.0931004 16.9726562,9.80664062 L19.7441406,7.01367188 C20.3457061,6.42642936 20.6464844,5.7031293 20.6464844,4.84375 C20.6464844,3.9843707 20.3457061,3.25390926 19.7441406,2.65234375 C19.1425751,2.05077824 18.4121137,1.75 17.5527344,1.75 C17.3522125,1.75 17.1516937,1.76790347 16.9511719,1.80371094 C16.75065,1.83951841 16.5572926,1.8968095 16.3710938,1.97558594 C16.1848949,2.05436237 16.0058602,2.15104109 15.8339844,2.265625 C15.6621085,2.38020891 15.504558,2.50911387 15.3613281,2.65234375 L12.5898438,5.33789062 C12.1888001,5.75325729 11.9202481,6.24023158 11.7841797,6.79882812 C11.6481113,7.35742467 11.6660148,7.89452867 11.8378906,8.41015625 L10.7636719,9.484375 C10.3483052,8.65364168 10.2158196,7.76204903 10.3662109,6.80957031 C10.5166023,5.85709159 10.9355434,5.0442742 11.6230469,4.37109375 L14.3945313,1.68554688 C15.2682335,0.826167578 16.3209574,0.389322988 17.5527344,0.375 C18.1399769,0.375 18.7057264,0.486001494 19.25,0.708007812 C19.7942736,0.930014131 20.2812479,1.25585723 20.7109375,1.68554688 Z"></path>
        </g>
    </g>
</svg>