<svg xmlns="http://www.w3.org/2000/svg" width="20.5" height="20.5" viewBox="0 0 20.5 20.5">
  <path id="Union_11" data-name="Union 11" d="M10.193,20.5a43.3,43.3,0,0,1-5.255-.181,5.459,5.459,0,0,1-3.327-1.43,5.461,5.461,0,0,1-1.43-3.327A43.3,43.3,0,0,1,0,10.307v-.114A43.288,43.288,0,0,1,.181,4.938a5.459,5.459,0,0,1,1.43-3.327A5.448,5.448,0,0,1,4.938.181,43.3,43.3,0,0,1,10.193,0h.113a43.3,43.3,0,0,1,5.255.181,5.451,5.451,0,0,1,3.327,1.43,5.459,5.459,0,0,1,1.43,3.327,43.288,43.288,0,0,1,.181,5.254v.114a43.3,43.3,0,0,1-.181,5.255,5.461,5.461,0,0,1-1.43,3.327,5.461,5.461,0,0,1-3.327,1.43,43.3,43.3,0,0,1-5.255.181ZM5.138,1.667a3.992,3.992,0,0,0-2.466,1A4,4,0,0,0,1.667,5.138,43.067,43.067,0,0,0,1.5,10.25a43.075,43.075,0,0,0,.166,5.112,3.992,3.992,0,0,0,1.005,2.466,3.982,3.982,0,0,0,2.466,1A42.843,42.843,0,0,0,10.25,19a42.843,42.843,0,0,0,5.112-.167,3.984,3.984,0,0,0,2.466-1,4,4,0,0,0,1.005-2.466A43.076,43.076,0,0,0,19,10.25a43.067,43.067,0,0,0-.167-5.112,4,4,0,0,0-1.005-2.467,4,4,0,0,0-2.466-1A42.881,42.881,0,0,0,10.25,1.5,42.881,42.881,0,0,0,5.138,1.667ZM8.227,13.288c-.091-.088-.273-.234-.544-.447l-.06-.047c-.242-.19-.526-.413-.8-.643a7.323,7.323,0,0,1-.826-.8,2.651,2.651,0,0,1-.324-.462,1.263,1.263,0,0,1,0-1.284A2.61,2.61,0,0,1,6,9.147a7.323,7.323,0,0,1,.826-.8c.272-.229.555-.453.8-.643l.06-.047c.271-.213.453-.359.544-.447A.75.75,0,1,1,9.273,8.288c-.162.157-.418.359-.663.551l-.058.045c-.245.193-.508.4-.757.61L7.788,9.5H14.25a.75.75,0,1,1,0,1.5H7.788l.007.006c.249.211.512.417.757.61l.058.044c.245.193.5.4.663.552a.75.75,0,1,1-1.046,1.076Z" fill="#fff"/>
</svg>
