<svg xmlns="http://www.w3.org/2000/svg" xmlns:xlink="http://www.w3.org/1999/xlink" width="163" height="277" viewBox="0 0 163 277">
    <defs>
        <path id="a" d="M10.15 45.964l-.102-.058a5.265 5.265 0 1 1-9.233.348 5.25 5.25 0 0 1-.01-5.365l-.053-.029L19.033.183 30.47 3.876 10.15 45.964zm139.268 0l.102-.058a5.265 5.265 0 1 0 9.237.35 5.25 5.25 0 0 0 .006-5.367l.054-.03L140.535.18 129.1 3.868l20.318 42.095z"/>
        <linearGradient id="c" x1="39.511%" x2="41.409%" y1="99.198%" y2="-19.25%">
            <stop offset="0%" stop-color="#FF656E"/>
            <stop offset="100%" stop-color="#C5C9FF"/>
        </linearGradient>
        <radialGradient id="e" cx="51.412%" cy="37.949%" r="110.456%" fx="51.412%" fy="37.949%" gradientTransform="matrix(0 .52659 -.59494 0 .74 .109)">
            <stop offset="0%" stop-color="#FFF"/>
            <stop offset="76.599%" stop-color="#FAFCFF"/>
            <stop offset="100%" stop-color="#F2F2F2"/>
        </radialGradient>
        <path id="d" d="M120.998 53.314c0 5.747-.92 10.511-2.434 14.461-4.615 12.044-14.747 16.512-21.13 18.17-4.244 1.04-13.399 4.08-34.14 4.08s-30.806-3.25-34.278-4.08c-6.04-1.402-15.465-5.248-20.241-16.328A33.584 33.584 0 0 1 6.99 64.22c-.768-3.166-1.205-6.78-1.205-10.909V33.665c0-3.22.276-6.132.775-8.764a35.374 35.374 0 0 1 1.66-5.962C15.373.067 35.817.056 35.817.056h55.148s17.697.01 25.922 15.21c2.49 4.601 4.11 10.594 4.11 18.399v19.649zm-7.486 100.109s.126-2.252 2.62-30.843c2.515-28.828-22.07-27.023-22.07-27.023l-31.53-.72-28.585.72S10.023 93.118 11.88 122.58c1.802 28.644 2.096 30.843 2.096 30.843s.776 8.362.798 11.001c.07 8.66 2.599 38.274 16.174 46.465 17.375 10.484 48.356 10.737 65.332 0 13.402-8.476 16.102-37.805 16.174-46.465.02-2.64 1.058-11.001 1.058-11.001z"/>
        <radialGradient id="f" cx="50.002%" cy="43.962%" r="74.962%" fx="50.002%" fy="43.962%" gradientTransform="matrix(-.73232 0 0 -.79074 .866 .787)">
            <stop offset="0%" stop-color="#FFF"/>
            <stop offset="76.599%" stop-color="#FAFCFF"/>
            <stop offset="100%" stop-color="#E0E0E0"/>
        </radialGradient>
        <path id="g" d="M.082.29h35.986s.06 11.79-18.112 11.79C.72 12.08.082.29.082.29z"/>
        <filter id="h" width="108.3%" height="125.4%" x="-4.2%" y="-12.7%" filterUnits="objectBoundingBox">
            <feOffset dy="-3" in="SourceAlpha" result="shadowOffsetInner1"/>
            <feComposite in="shadowOffsetInner1" in2="SourceAlpha" k2="-1" k3="1" operator="arithmetic" result="shadowInnerInner1"/>
            <feColorMatrix in="shadowInnerInner1" values="0 0 0 0 0.290196078 0 0 0 0 0.290196078 0 0 0 0 0.290196078 0 0 0 1 0"/>
        </filter>
        <path id="i" d="M52.558 29.092c1.097-8.896 1.332-17.422.092-25.47a2.875 2.875 0 0 0-2.846-2.527A352.865 352.865 0 0 0 3.852.677a2.865 2.865 0 0 0-2.844 2.53c-1.271 7.569-1.356 18.51.113 25.907a2.97 2.97 0 0 0 2.586 2.465 229.83 229.83 0 0 0 46.264-.02 2.735 2.735 0 0 0 2.587-2.467z"/>
        <linearGradient id="j" x1="25.796%" x2="25.796%" y1="100%" y2="-30.127%">
            <stop offset="0%" stop-color="#FF656E"/>
            <stop offset="100%" stop-color="#C5C9FF"/>
        </linearGradient>
        <filter id="l" width="100%" height="100%" x="0%" y="0%" filterUnits="objectBoundingBox">
            <feGaussianBlur in="SourceGraphic"/>
        </filter>
    </defs>
    <g fill="none" fill-rule="evenodd" transform="translate(2 3)">
        <path fill="#E5E5E5" stroke="#000" stroke-width="2.4" d="M26.105 203.647c4.112-2.232 6.487 1.005 8.432 4.573 1.945 3.569 2.722 6.118-1.39 8.35-4.112 2.23-9.022 1.146-10.966-2.423-1.944-3.568-.188-8.27 3.924-10.5zm110.012-.227c-4.108-2.223-9.014-1.142-10.956 2.416-1.942 3.558-.186 8.244 3.923 10.468 4.108 2.224 9.014 1.143 10.956-2.415 1.942-3.557.185-8.244-3.923-10.469z"/>
        <g transform="translate(0 148.64)">
            <mask id="b" fill="#fff">
                <use xlink:href="#a"/>
            </mask>
            <use fill="#E5E5E5" stroke="#000" stroke-width="2.4" xlink:href="#a"/>
            <path fill="#E5E5E5" d="M149.531 17.471s-6.582 6.998-15.935 9.336c-9.354 2.337-3.847-17.573-3.847-17.573l18.683-1.647 1.1 9.884zM9.958 16.372s8.654 11.105 18.134 10.983c9.48-.121 2.2-10.433 2.2-10.433l-11.54-7.688-8.794 7.138z" mask="url(#b)" style="mix-blend-mode:multiply"/>
        </g>
        <path fill="#FFF" stroke="#000" stroke-width="2.4" d="M2.954 197.38l.058-.103a5.261 5.261 0 0 1-.387-9.255 5.277 5.277 0 0 1 5.4.007l24.13 11.146 1.91 11.902L2.954 197.38zm153.658 0l-.058-.103a5.267 5.267 0 0 0-1.596-9.932c-2.454-.347-3.447.63-3.447.63l-40.654 18.293 3.69 11.446 42.065-20.334z"/>
        <path stroke="#000007" stroke-width="2.4" d="M105.728 5.506l.217-.286-.25-.008-.2.005.233.289zm-.287 26.124l.024.905.162.168.172-.176.029-.897h-.387zm.287-26.124l.511.633c-.28.226-.74.226-1.01.021l.499-.654zm-.996-1.234c.59-.477 1.352-.477 1.951-.021l.458.348.763 29.43h-4.556l.956-29.412.428-.345zm.97-5.419a3.336 3.336 0 0 1 3.336 3.335 3.336 3.336 0 0 1-3.337 3.334 3.336 3.336 0 0 1-2.36-5.693 3.339 3.339 0 0 1 2.36-.976z"/>
        <path fill="url(#c)" stroke="#000" stroke-width="2.4" d="M49.251 129.211s-21.12-1.192-35.732 18.378a38.533 38.533 0 0 0-3.076 4.874 2.928 2.928 0 0 0 .03 3.048c1.795 3.155 7.355 10.913 21.694 11.445 8.24-35.19 17.084-37.745 17.084-37.745zm65.08-.188s21.776.377 34.356 18.934a38.48 38.48 0 0 1 3.07 4.873 2.93 2.93 0 0 1-.029 3.048c-1.795 3.155-6.537 10.317-20.857 10.849-5.425-33.433-16.54-37.704-16.54-37.704z"/>
        <g stroke="#000" stroke-width="2.4" transform="translate(17.376 33.545)">
            <path fill="url(#c)" d="M118.077 67.04c3.595-.064 8.353 2.87 8.353-23.998 0-26.869-4.758-23.935-8.353-23.998M8.87 67.04C5.275 66.976.04 67.04.04 43.042s5.235-23.935 8.83-23.998"/>
            <use fill="url(#e)" xlink:href="#d"/>
        </g>
        <ellipse cx="101.792" cy="201.912" stroke="#000005" stroke-width=".8" rx="1.864" ry="1.853"/>
        <ellipse cx="95.104" cy="201.912" fill="#000007" fill-rule="nonzero" rx="1.855" ry="1.853"/>
        <path stroke="#000007" stroke-linecap="round" stroke-linejoin="round" stroke-width="2.4" d="M87.326 219.61c9.697.03 19.38-.76 28.943-2.36m-70.529-.74a264.96 264.96 0 0 0 27.307 2.754"/>
        <path stroke="#000007" stroke-width="2.4" d="M53.04 237.201c-9.532-7.094-10.976-49.146-11.873-67.868-1.288-26.885 17.791-24.66 17.791-24.66h43.816s19.54-1.648 17.792 24.66c-1.803 27.144-2.72 59.38-12.743 67.868-9.559 8.095-45.218 7.119-54.783 0z"/>
        <path stroke="#000005" stroke-linecap="round" stroke-linejoin="round" stroke-width="2.4" d="M148.362 148.075c-.91 3.12-2.922 5.189-3.14 4.68-4.489-10.535-14.134-18.474-20.697-22.045m-85.951.509c-11.476 3.484-19.223 16.613-21.043 21.536-2.536-.719-4.376-4.68-4.376-4.68"/>
        <path fill="url(#f)" stroke="#000" stroke-width="2.4" d="M59.864 43.671s-25.511.016-25.511 29.917v5.937c0 21.415 15.049 27.945 19.511 29.23 4.811 1.388 8.735 3.448 27.198 3.448 9.793 0 46.88 1.208 46.88-32.677v-5.938c0-29.902-25.511-29.917-25.511-29.917H59.864z"/>
        <g transform="translate(62.552 86.755)">
            <use fill="#000007" xlink:href="#g"/>
            <use fill="#000" filter="url(#h)" xlink:href="#g"/>
        </g>
        <path fill="#E5E5E5" stroke="#000" stroke-width="2.4" d="M80.275 126.8c11.463 0 18.547-.152 18.547 4.527 0 5.055-7.084 4.528-18.547 4.528-11.463 0-18.547-.037-18.547-4.528 0-4.46 7.085-4.527 18.547-4.527z"/>
        <g transform="translate(53.864 160.785)">
            <mask id="k" fill="#fff">
                <use xlink:href="#i"/>
            </mask>
            <path stroke="#E5E5E5" stroke-width="2.4" d="M53.75 29.224c-.195 1.934-1.775 3.435-3.658 3.528a231.067 231.067 0 0 1-46.525.019C1.72 32.554.24 31.143-.056 29.347c-1.451-7.31-1.46-18.357-.127-26.28C.057 1.022 1.79-.52 3.785-.52a353.204 353.204 0 0 1 46.023.416c2.056.007 3.786 1.543 4.028 3.545 1.186 7.698 1.105 16.123-.086 25.784z"/>
            <path fill="url(#j)" d="M-1.11 11.365c-.363-1.794 1.325-2.69 5.065-2.69 5.608 0 3.455 6.067 16.246 6.067 12.79 0 8.59 5.236 16.626 5.236 8.036 0 4.808-12.46 17.34-12.46 1.106 0 1.66 2.772 1.66 8.315l-1.66 16.65-26.21 3.123L1.3 33.242l-2.41-21.877z" mask="url(#k)" opacity=".45"/>
            <path fill="url(#j)" d="M-2.317 19.28c.849-2.349 3.43-3.523 7.74-3.523 6.469 0 7.349 5.042 13.55 5.042 6.202 0 7.55-8.653 14.702-8.653 7.15 0 6.511 5.286 11.298 5.286 4.786 0 5.489-3.521 8.679-3.521 2.126 0 2.68.615 1.66 1.846l-1.66 16.651-26.21 3.122L.785 33.166l-3.1-13.886z" mask="url(#k)" opacity=".7"/>
            <path fill="url(#j)" d="M-1.662 16.9C2.371 23.871 5.92 27.59 8.983 28.057c4.595.7 6.381-3.839 11.01-3.839 4.63 0 6.192 3.84 11.884 3.84 5.69 0 7.907-8.082 15.181-8.082 4.85 0 7.533 1.414 8.05 4.242l-1.204 8.743-26.209 2.423-26.659-1.834-2.698-16.652z" mask="url(#k)"/>
        </g>
        <g fill-rule="nonzero" transform="translate(52.127 59.572)">
            <g stroke-width="2.4">
                <ellipse cx="8.091" cy="8.305" fill="#000" fill-rule="evenodd" stroke="#FFF" stroke-linejoin="square" rx="6.601" ry="6.59"/>
                <ellipse cx="8.091" cy="8.305" stroke="#CDCDCD" rx="9.001" ry="8.99"/>
            </g>
            <ellipse cx="10.95" cy="3.759" fill="#FFF" rx="2.027" ry="2.024"/>
        </g>
        <g fill-rule="nonzero" transform="translate(90.932 59.572)">
            <g stroke-width="2.4">
                <ellipse cx="8.091" cy="8.305" fill="#000" fill-rule="evenodd" stroke="#FFF" stroke-linejoin="square" rx="6.601" ry="6.59"/>
                <ellipse cx="8.091" cy="8.305" stroke="#CDCDCD" rx="9.001" ry="8.99"/>
            </g>
            <ellipse cx="10.95" cy="3.759" fill="#FFF" rx="2.027" ry="2.024"/>
        </g>
        <ellipse cx="83.982" cy="266.915" fill="#000" fill-rule="nonzero" filter="url(#l)" opacity=".1" rx="59.077" ry="7.23" style="mix-blend-mode:multiply"/>
    </g>
</svg>
