<?xml version="1.0" encoding="UTF-8"?>
<svg width="1440px" height="408px" viewBox="0 0 1440 408" version="1.1" xmlns="http://www.w3.org/2000/svg" xmlns:xlink="http://www.w3.org/1999/xlink">
    <!-- Generator: Sketch 51.2 (57519) - http://www.bohemiancoding.com/sketch -->
    <title>Group</title>
    <desc>Created with Sketch.</desc>
    <defs>
        <rect id="path-1" x="0" y="0" width="1441" height="417.73817"></rect>
        <linearGradient x1="50%" y1="13.3344611%" x2="49.2898979%" y2="95.5698651%" id="linearGradient-3">
            <stop stop-color="#E7E5E2" offset="0%"></stop>
            <stop stop-color="#F3F2F1" stop-opacity="0" offset="100%"></stop>
        </linearGradient>
        <linearGradient x1="49.2898979%" y1="32.2900312%" x2="49.2898979%" y2="95.5698651%" id="linearGradient-4">
            <stop stop-color="#E7E5E2" offset="0%"></stop>
            <stop stop-color="#F3F2F1" stop-opacity="0" offset="100%"></stop>
        </linearGradient>
        <linearGradient x1="50%" y1="0%" x2="49.7081524%" y2="52.27927%" id="linearGradient-5">
            <stop stop-color="#F3F2F1" offset="0%"></stop>
            <stop stop-color="#F3F2F1" offset="100%"></stop>
        </linearGradient>
        <path d="M17.526,79.472 L17.348,79.372 C15.8666068,82.348449 12.8779694,84.2782522 9.5556132,84.4036484 C6.23325704,84.5290445 3.10765593,82.8300118 1.40611595,79.9736967 C-0.29542402,77.1173815 -0.301221487,73.5598457 1.391,70.698 L1.298,70.648 L32.862,0.317 L52.609,6.701 L17.526,79.472 Z M257.979,79.472 L258.156,79.372 C259.635677,82.3520549 262.625558,84.2852984 265.95034,84.4117854 C269.275122,84.5382724 272.403243,82.8377802 274.10506,79.9787612 C275.806878,77.1197421 275.810307,73.5592919 274.114,70.697 L274.207,70.647 L242.643,0.308 L222.9,6.691 L257.979,79.472 Z" id="path-6"></path>
        <linearGradient x1="39.5113579%" y1="99.1975388%" x2="41.4092116%" y2="-19.2501163%" id="linearGradient-8">
            <stop stop-color="#FF656E" offset="0%"></stop>
            <stop stop-color="#C5C9FF" offset="100%"></stop>
        </linearGradient>
        <radialGradient cx="51.4115306%" cy="37.9489163%" fx="51.4115306%" fy="37.9489163%" r="110.612621%" gradientTransform="translate(0.514115,0.379489),scale(1.000000,0.525839),rotate(90.000000),scale(1.000000,0.594945),translate(-0.514115,-0.379489)" id="radialGradient-9">
            <stop stop-color="#FFFFFF" offset="0%"></stop>
            <stop stop-color="#FAFCFF" offset="76.5986272%"></stop>
            <stop stop-color="#F2F2F2" offset="100%"></stop>
        </radialGradient>
        <path d="M208.91,92.18 C208.91,102.117134 207.321244,110.355 204.708049,117.184169 C196.739747,138.008054 179.24625,145.733926 168.227,148.6 C160.89769,150.397214 145.091961,155.655 109.281,155.655 C73.4700392,155.655 56.0933297,150.034134 50.0971388,148.6 C39.6691207,146.175266 23.396023,139.526097 15.150408,120.368141 C13.933239,117.540156 12.8909882,114.439606 12.0682767,111.039844 C10.743524,105.565453 9.988,99.3152557 9.988,92.178 L9.988,58.207 C9.988,52.6395024 10.4644593,47.6054154 11.3260335,43.053634 C12.036644,39.2994084 13.0092347,35.8732782 14.1925549,32.74657 C26.5416167,0.116422762 61.841,0.096 61.841,0.096 L157.056,0.096 C157.056,0.096 187.612567,0.113678424 201.812431,26.3953692 C206.110493,34.3503987 208.91,44.7116633 208.91,58.207 L208.91,92.18 Z M195.985,265.27 C195.985,265.27 196.203,261.377 200.51,211.943 C204.852,162.098 162.405,165.219 162.405,165.219 L107.967,163.976 L58.611,165.219 C58.611,165.219 17.306,161.003 20.511,211.943 C23.623,261.468 24.13,265.27 24.13,265.27 C24.13,265.27 25.471,279.728 25.508,284.292 C25.63,299.264 29.995,350.468 53.433,364.631 C83.433,382.758 136.924,383.194 166.234,364.631 C189.373,349.975 194.034,299.264 194.159,284.292 C194.192,279.728 195.985,265.27 195.985,265.27 Z" id="path-10"></path>
        <radialGradient cx="50.0015471%" cy="43.9615936%" fx="50.0015471%" fy="43.9615936%" r="74.855661%" gradientTransform="translate(0.500015,0.439616),scale(0.733356,1.000000),rotate(180.000000),scale(1.000000,0.790740),translate(-0.500015,-0.439616)" id="radialGradient-12">
            <stop stop-color="#FFFFFF" offset="0%"></stop>
            <stop stop-color="#FAFCFF" offset="76.5986272%"></stop>
            <stop stop-color="#E0E0E0" offset="100%"></stop>
        </radialGradient>
        <path d="M0.141004737,0.5 L62.2740005,0.5 C62.2740005,0.5 62.3762228,20.888 31.0025948,20.888 C1.24197663,20.888 0.141004737,0.5 0.141004737,0.5 Z" id="path-13"></path>
        <filter x="-3.2%" y="-9.8%" width="106.4%" height="119.6%" filterUnits="objectBoundingBox" id="filter-15">
            <feOffset dx="0" dy="-4" in="SourceAlpha" result="shadowOffsetInner1"></feOffset>
            <feComposite in="shadowOffsetInner1" in2="SourceAlpha" operator="arithmetic" k2="-1" k3="1" result="shadowInnerInner1"></feComposite>
            <feColorMatrix values="0 0 0 0 0.290196078   0 0 0 0 0.290196078   0 0 0 0 0.290196078  0 0 0 1 0" type="matrix" in="shadowInnerInner1"></feColorMatrix>
        </filter>
        <path d="M90.744,50.3 C92.639,34.92 93.044,20.178 90.904,6.263 C90.6027883,3.77550558 88.495652,1.90206677 85.99,1.894 C59.5875711,-0.0730830023 33.0848925,-0.314596465 6.651,1.171 C4.14227575,1.17377975 2.03247499,3.05326417 1.741,5.545 C-0.454,18.631 -0.6,37.55 1.935,50.338 C2.30685363,52.5951514 4.12799978,54.3334996 6.4,54.6 C32.9592115,57.2788657 59.7211463,57.2671394 86.278,54.565 C88.618277,54.4474002 90.5188289,52.632386 90.744,50.3 Z" id="path-16"></path>
        <linearGradient x1="25.7962455%" y1="100%" x2="25.7962455%" y2="-30.1274252%" id="linearGradient-18">
            <stop stop-color="#FF656E" offset="0%"></stop>
            <stop stop-color="#C5C9FF" offset="100%"></stop>
        </linearGradient>
        <circle id="path-19" cx="13.969" cy="14.359" r="13.469"></circle>
        <circle id="path-20" cx="13.969" cy="14.359" r="13.469"></circle>
        <filter x="0.0%" y="0.0%" width="100.0%" height="100.0%" filterUnits="objectBoundingBox" id="filter-21">
            <feGaussianBlur stdDeviation="0" in="SourceGraphic"></feGaussianBlur>
        </filter>
    </defs>
    <g id="Homepage" stroke="none" stroke-width="1" fill="none" fill-rule="evenodd">
        <g id="Homepage_01.3" transform="translate(0.000000, -1372.000000)">
            <g id="Group" transform="translate(0.000000, 1362.000000)">
                <g id="Group-1">
                    <mask id="mask-2" fill="white">
                        <use xlink:href="#path-1"></use>
                    </mask>
                    <g id="Rectangle"></g>
                    <path d="M122.376053,87.3478748 C353.157403,84.8605956 514.991566,268.878701 613.333262,304.50351 C711.674958,340.128318 773.14146,303.132011 834.60502,266.140584 C896.068579,229.149157 971.875107,208.596195 1088.65734,307.244067 C1205.43958,405.891939 1321.95707,175.279996 1321.95707,175.279996 C1321.95707,175.279996 1355.26555,105.025683 1441.41565,90.0612361 L1441.41565,421.123264 L-0.163348179,421.123264 L-0.163348179,90.2661183 C51.4507411,87.6754848 92.297208,86.702737 122.376053,87.3478748 Z" id="_1" fill="url(#linearGradient-3)" style="mix-blend-mode: multiply;" opacity="0.200000003" mask="url(#mask-2)" transform="translate(720.626148, 254.139100) scale(-1, 1) translate(-720.626148, -254.139100) "></path>
                    <path d="M-206,418.245016 C-81.3629722,416.021553 140.574382,444.20844 190.123654,356.20534 C210.57678,319.879105 228.690863,206.741141 309.740704,206.741141 C400.580892,206.741141 386.521077,298.606553 445.242481,326.002432 C525.585975,363.484552 637.10612,209.139704 707.852729,305.684559 C751.041358,364.618305 815.637813,286.999036 831.056844,254.841304 C846.475875,222.683573 885.512676,122 964.075932,122 C1145.08808,122 1020.00195,399.599462 1453.63312,418.245016 C1311.32877,422.618345 758.117732,422.618345 -206,418.245016 Z" id="_3" fill="url(#linearGradient-4)" style="mix-blend-mode: multiply;" opacity="0.4" mask="url(#mask-2)" transform="translate(623.816562, 271.762506) scale(-1, 1) translate(-623.816562, -271.762506) "></path>
                    <path d="M66.7602074,422.281517 C175.859115,409.468127 189.366118,381.859543 203.911417,365.101182 C218.456715,348.34282 259.857197,261.587627 335.868859,261.587627 C411.880521,261.587627 434.57794,360.171521 484.450481,385.804514 C534.323023,411.437507 565.494795,366.174062 596.666566,339.556379 C627.838337,312.938697 666.280465,298.149715 725.506831,369.131237 C784.733196,440.112759 842.916682,296.180336 842.916682,296.180336 C842.916682,296.180336 863.392667,239 914.142555,239 C964.892442,239 988.381128,309.981522 1003.96701,337.583894 C1019.5529,365.186266 1013.92364,431.554967 1382.35794,431.554967 C432.560179,433.914927 -5.97239737,430.823777 66.7602074,422.281517 Z" id="_2" fill="url(#linearGradient-5)" opacity="0.5" mask="url(#mask-2)" transform="translate(720.678968, 335.660622) scale(-1, 1) translate(-720.678968, -335.660622) "></path>
                    <g id="robo/1.eq-n" mask="url(#mask-2)">
                        <g transform="translate(317.000000, 13.000000)">
                            <g id="rooo_copy_3" stroke-width="1" fill="none" fill-rule="evenodd">
                                <path d="M45.072,352.108 C52.172,348.25 56.272,353.846 59.63,360.016 C62.988,366.186 64.33,370.594 57.23,374.452 C50.13,378.31 41.653,376.434 38.297,370.264 C34.941,364.094 37.972,355.965 45.072,352.108 Z M235.014,351.717 C227.921,347.872 219.452,349.741 216.099,355.893 C212.746,362.045 215.778,370.148 222.871,373.993 C229.964,377.838 238.434,375.969 241.787,369.818 C245.14,363.667 242.108,355.563 235.014,351.717 Z" id="Ellipse_4_copy" stroke="#000000" stroke-width="3" fill="#E5E5E5"></path>
                                <g id="Shape" transform="translate(0.000000, 257.000000)">
                                    <mask id="mask-7" fill="white">
                                        <use xlink:href="#path-6"></use>
                                    </mask>
                                    <use id="Mask" stroke="#000000" stroke-width="3" fill="#E5E5E5" xlink:href="#path-6"></use>
                                    <path d="M258.175,30.208 C258.175,30.208 246.81,42.308 230.661,46.349 C214.512,50.39 224.02,15.966 224.02,15.966 L256.278,13.118 L258.175,30.208 Z M17.193,28.308 C17.193,28.308 32.134,47.508 48.502,47.298 C64.87,47.088 52.302,29.258 52.302,29.258 L32.378,15.965 L17.193,28.308 Z" fill="#E5E5E5" style="mix-blend-mode: multiply;" mask="url(#mask-7)"></path>
                                </g>
                                <path d="M5.1,341.273 L5.2,341.095 C2.1926537,339.630878 0.230918037,336.634962 0.0912671564,333.293064 C-0.0483837243,329.951166 1.65656301,326.802027 4.53127276,325.092107 C7.40598252,323.382186 10.9870294,323.387137 13.857,325.105 L55.516,344.376 L58.816,364.955 L5.1,341.273 Z M270.4,341.273 L270.3,341.095 C273.86865,339.319821 275.868954,335.430861 275.237601,331.495392 C274.606249,327.559923 271.489848,324.491816 267.545,323.922 C263.308,323.322 261.593,325.011 261.593,325.011 L191.402,356.641 L197.773,376.43 L270.4,341.273 Z" id="Ellipse_3_copy_2-2" stroke="#000000" stroke-width="3" fill="#FFFFFF"></path>
                                <path d="M182.545339,9.51764809 L182.920198,9.02611427 L182.488034,9.01209419 L182.143999,9.02100492 L182.545339,9.51764809 Z M182.545339,9.51764809 L183.07014,10.1670683 C182.794129,10.3901145 182.288567,10.3901604 182.030202,10.1931226 L182.545339,9.51764809 Z M181.184544,7.83371733 C181.997631,7.17665622 183.021898,7.17656319 183.849427,7.80766303 L184.420709,8.24334049 L185.71626,58.2634014 L179.028385,58.2634014 L180.650398,8.26536385 L181.184544,7.83371733 Z M182.500361,-1.40774182 C185.366277,-1.40698991 187.689091,0.916637131 187.68884,3.7825524 C187.68859,6.64846768 185.365369,8.9716884 182.499454,8.97193904 C179.633538,8.97218967 177.309911,6.64937534 177.30916,3.78346016 C177.308798,2.40655708 177.855611,1.08594464 178.829228,0.112327099 C179.802846,-0.861290439 181.123458,-1.40810307 182.500361,-1.40774182 Z" id="Shape" stroke="#000007" stroke-width="3"></path>
                                <path d="M85.035,223.408 C85.035,223.408 48.571,221.346 23.341,255.184 C21.363295,257.856279 19.5883389,260.67281 18.031,263.61 C17.060971,265.238188 17.0802588,267.271507 18.081,268.881 C21.181,274.336 30.781,287.75 55.538,288.669 C69.764,227.825 85.035,223.408 85.035,223.408 Z M197.398,223.082 C197.398,223.082 234.998,223.734 256.718,255.819 C258.692554,258.491407 260.464176,261.307952 262.018,264.245 C262.987117,265.873434 262.967834,267.906243 261.968,269.516 C258.868,274.971 250.681,287.354 225.957,288.273 C216.591,230.467 197.4,223.082 197.4,223.082 L197.398,223.082 Z" id="Shape_1_copy_9" stroke="#000000" stroke-width="3" fill="url(#linearGradient-8)"></path>
                                <g id="Shape_17_copy" transform="translate(30.000000, 58.000000)">
                                    <path d="M203.867,115.913 C210.075,115.803 218.29,120.87601 218.29,74.42 C218.29,27.9639899 210.075,33.037 203.867,32.927 M15.316,115.913 C9.108,115.803 0.069,115.913 0.069,74.42 C0.069,32.927 9.108,33.037 15.316,32.927" id="Ellipse_1_copy_4-2" stroke="#000000" stroke-width="3" fill="url(#linearGradient-8)"></path>
                                    <mask id="mask-11" fill="white">
                                        <use xlink:href="#path-10"></use>
                                    </mask>
                                    <use id="Mask" stroke="#000000" stroke-width="3" fill="url(#radialGradient-9)" xlink:href="#path-10"></use>
                                </g>
                                <ellipse id="Oval" stroke="#000005" cx="175.75" cy="349.109" rx="3.219" ry="3.203"></ellipse>
                                <circle id="Ellipse_15_copy_2" fill="#000007" fill-rule="nonzero" cx="164.203" cy="349.109" r="3.203"></circle>
                                <path d="M150.774,379.708 C167.516539,379.759524 184.233443,378.394995 200.746,375.629 M78.973,374.348 C94.5957042,376.749883 110.332536,378.339354 126.12,379.11" id="Shape_18_copy" stroke="#000007" stroke-width="3" stroke-linecap="round" stroke-linejoin="round"></path>
                                <path d="M91.5769237,410.124 C75.120118,397.858192 72.626,325.15 71.078,292.78 C68.854,246.294 101.795,250.141 101.795,250.141 L177.446,250.141 C177.446,250.141 211.182,247.293 208.164,292.78 C205.051,339.712 203.467269,395.449266 186.164,410.124 C169.659625,424.121201 108.091155,422.432609 91.5769237,410.124 Z" id="Shape_4_copy" stroke="#000007" stroke-width="3"></path>
                                <path d="M256.155902,256.024558 C254.584902,261.417558 251.111,264.995 250.736,264.115 C242.985,245.9 226.332,232.173 215,226 M66.6,226.879 C46.786,232.904 33.411,255.604 30.268,264.115 C25.889,262.873 22.7135136,256.024558 22.7135136,256.024558" id="Shape" stroke="#000005" stroke-width="3" stroke-linecap="round" stroke-linejoin="round"></path>
                                <path d="M103.359,75.508 C103.359,75.508 59.312,75.535 59.312,127.234 L59.312,137.5 C59.312,174.527 85.295,185.817 93,188.039 C101.306,190.439 108.081,194.001 139.958,194.001 C156.866,194.001 220.901,196.089 220.901,137.501 L220.901,127.234 C220.901,75.534 176.853,75.508 176.853,75.508 L103.359,75.508 Z" id="Shape_1_copy_2" stroke="#000000" stroke-width="3" fill="url(#radialGradient-12)"></path>
                                <g id="Rectangle-path" transform="translate(108.000000, 150.000000)">
                                    <mask id="mask-14" fill="white">
                                        <use xlink:href="#path-13"></use>
                                    </mask>
                                    <g id="Mask">
                                        <use fill="#000007" fill-rule="evenodd" xlink:href="#path-13"></use>
                                        <use fill="black" fill-opacity="1" filter="url(#filter-15)" xlink:href="#path-13"></use>
                                    </g>
                                </g>
                                <path d="M138.6,219.239 C158.391,219.239 170.622,218.976 170.622,227.067 C170.622,235.807 158.391,234.895 138.6,234.895 C118.809,234.895 106.577,234.831 106.577,227.067 C106.578,219.354 118.81,219.239 138.6,219.239 Z" id="Ellipse_2_copy" stroke="#000000" stroke-width="3" fill="#E5E5E5"></path>
                                <g id="Group" transform="translate(93.000000, 278.000000)">
                                    <mask id="mask-17" fill="white">
                                        <use xlink:href="#path-16"></use>
                                    </mask>
                                    <path stroke="#E5E5E5" stroke-width="3" d="M92.2349984,50.4651137 C91.9290032,53.5278414 89.429659,55.9085161 86.4298399,56.0572951 C59.7724573,58.7696633 32.9092172,58.7814339 6.22525152,56.0897862 C3.28905322,55.7453769 0.935511971,53.4988388 0.463631049,50.6296735 C-2.02769896,38.06197 -2.04203677,19.0309218 0.251158523,5.37072329 C0.63097711,2.12376343 3.38024062,-0.325376814 6.56683215,-0.326636729 C33.0492734,-1.81496165 59.6005838,-1.5740902 86.0516296,0.39443634 C89.2891177,0.432875474 92.0031685,2.86236637 92.3865699,6.03499429 C94.4250409,19.2898185 94.2862931,33.8068023 92.2349984,50.4651137 Z"></path>
                                    <path d="M-1.91694029,19.6494007 C-2.54317239,16.548247 0.371722446,14.9976702 6.82774421,14.9976702 C16.5117769,14.9976702 12.794614,25.489518 34.8785401,25.489518 C56.9624662,25.489518 49.710453,34.5421855 63.5841868,34.5421855 C77.4579205,34.5421855 71.8857418,13 93.5226172,13 C95.4316835,13 96.3875303,17.7917817 96.3901574,27.375345 L93.5226172,56.1650788 L48.2711173,61.562618 L2.24273671,57.4752333 L-1.91694029,19.6494007 Z" id="Path-2-Copy" fill="url(#linearGradient-18)" opacity="0.449999988" mask="url(#mask-17)"></path>
                                    <path d="M-4,33.3353595 C-2.5347165,29.274585 1.92019513,27.2441977 9.36473491,27.2441977 C20.5315446,27.2441977 22.0515732,35.9623229 32.7592667,35.9623229 C43.4669602,35.9623229 45.794882,21 58.1416981,21 C70.4885141,21 69.3843639,30.1400415 77.6482703,30.1400415 C85.9121767,30.1400415 87.1257826,24.0518335 92.6331318,24.0518335 C96.3046979,24.0518335 97.2605446,25.1159549 95.500672,27.2441977 L92.6331318,56.0339315 L47.3816319,61.4314706 L1.3532513,57.3440859 L-4,33.3353595 Z" id="Path-2" fill="url(#linearGradient-18)" opacity="0.699999988" mask="url(#mask-17)"></path>
                                    <path d="M-2.86876509,29.2189729 C4.09429444,41.2746353 10.2204484,47.7059865 15.5096967,48.5130267 C23.4435693,49.723587 26.5271662,41.8753541 34.5204997,41.8753541 C42.5138332,41.8753541 45.2105619,48.5130267 55.0368778,48.5130267 C64.8631937,48.5130267 68.6887356,34.5410482 81.2490446,34.5410482 C89.622584,34.5410482 94.2551758,36.9858168 95.14682,41.8753541 L93.06872,56.9926322 L47.8172201,61.1818786 L1.78883952,58.0094955 L-2.86876509,29.2189729 Z" id="Path-2" fill="url(#linearGradient-18)" mask="url(#mask-17)"></path>
                                </g>
                                <g id="Group" transform="translate(90.000000, 103.000000)" fill-rule="nonzero">
                                    <g id="Group-4">
                                        <g id="Ellipse_1_copy_5" stroke-width="3">
                                            <circle stroke="#FFFFFF" stroke-linejoin="square" fill="#000000" fill-rule="evenodd" cx="13.969" cy="14.359" r="11.969"></circle>
                                            <circle stroke="#CDCDCD" cx="13.969" cy="14.359" r="14.969"></circle>
                                        </g>
                                        <circle id="Ellipse_5_copy" fill="#FFFFFF" cx="18.906" cy="6.5" r="3.5"></circle>
                                    </g>
                                </g>
                                <g id="Group-Copy" transform="translate(157.000000, 103.000000)" fill-rule="nonzero">
                                    <g id="Group-4">
                                        <g id="Ellipse_1_copy_5" stroke-width="3">
                                            <circle stroke="#FFFFFF" stroke-linejoin="square" fill="#000000" fill-rule="evenodd" cx="13.969" cy="14.359" r="11.969"></circle>
                                            <circle stroke="#CDCDCD" cx="13.969" cy="14.359" r="14.969"></circle>
                                        </g>
                                        <circle id="Ellipse_5_copy" fill="#FFFFFF" cx="18.906" cy="6.5" r="3.5"></circle>
                                    </g>
                                </g>
                            </g>
                            <ellipse id="Oval-2-Copy" fill="#000000" fill-rule="nonzero" opacity="0.100000001" style="mix-blend-mode: multiply;" filter="url(#filter-21)" cx="145" cy="461.5" rx="102" ry="12.5"></ellipse>
                        </g>
                    </g>
                </g>
            </g>
        </g>
    </g>
</svg>
