<svg id="Component_348_3" data-name="Component 348 – 3" xmlns="http://www.w3.org/2000/svg" width="123.095" height="123.231" viewBox="0 0 123.095 123.231">
  <g id="Group_28830" data-name="Group 28830">
    <g id="Group_28825" data-name="Group 28825">
      <g id="Group_28831" data-name="Group 28831">
        <g id="Group_28823" data-name="Group 28823" opacity="0.3">
          <g id="Group_28822" data-name="Group 28822">
            <g id="Group_28832" data-name="Group 28832">
              <path id="Path_37346" data-name="Path 37346" d="M123.093,61.615s-.023-.338-.047-1c-.04-.658-.017-1.64-.133-2.92a61.937,61.937,0,0,0-1.757-11.083,60.84,60.84,0,0,0-2.522-7.706,59.29,59.29,0,0,0-4.276-8.641,62.1,62.1,0,0,0-15.588-17.42A61.16,61.16,0,0,0,72.963,1.407a62.259,62.259,0,0,0-24.009.282,65.424,65.424,0,0,0-8.191,2.336A61.424,61.424,0,0,0,12.29,25.384,60.2,60.2,0,0,0,7.3,33.422c-.755,1.4-1.4,2.867-2.056,4.329-.591,1.492-1.2,2.984-1.69,4.526A61.707,61.707,0,0,0,.419,61.605a66.31,66.31,0,0,0,.8,9.859A59.584,59.584,0,0,0,3.55,80.942c.487,1.543,1.1,3.034,1.689,4.527.658,1.463,1.3,2.928,2.056,4.33a60.1,60.1,0,0,0,4.993,8.041,61.418,61.418,0,0,0,28.476,21.366,65.452,65.452,0,0,0,8.192,2.337,62.3,62.3,0,0,0,24.011.279,61.163,61.163,0,0,0,25.807-11.444,62.073,62.073,0,0,0,15.586-17.42,59.289,59.289,0,0,0,4.276-8.641,60.838,60.838,0,0,0,2.522-7.706,62.016,62.016,0,0,0,1.756-11.08c.115-1.28.093-2.263.133-2.92.024-.658.047-1,.047-1s.006.338,0,1c-.026.658.011,1.642-.091,2.924a59.978,59.978,0,0,1-4.177,18.856,59.419,59.419,0,0,1-4.259,8.687,62.2,62.2,0,0,1-15.609,17.537A61.395,61.395,0,0,1,73.03,122.164a62.578,62.578,0,0,1-24.153-.252,65.692,65.692,0,0,1-8.245-2.343A61.78,61.78,0,0,1,11.955,98.084a60.648,60.648,0,0,1-5.029-8.092c-.761-1.414-1.408-2.888-2.072-4.36-.6-1.5-1.21-3.005-1.7-4.558A60.046,60.046,0,0,1,.805,71.531,66.653,66.653,0,0,1,0,61.605,61.986,61.986,0,0,1,3.158,42.146c.49-1.553,1.106-3.055,1.7-4.557.664-1.472,1.311-2.945,2.072-4.359a60.707,60.707,0,0,1,5.029-8.089A61.783,61.783,0,0,1,40.633,3.661a65.737,65.737,0,0,1,8.243-2.343,62.6,62.6,0,0,1,24.15-.254A61.433,61.433,0,0,1,98.95,12.612a62.2,62.2,0,0,1,15.609,17.537,59.277,59.277,0,0,1,4.261,8.685A59.966,59.966,0,0,1,123,57.694c.1,1.282.066,2.267.091,2.924.01.66,0,1,0,1" transform="translate(0 0)" fill="#00758a"/>
            </g>
          </g>
        </g>
        <path id="Path_37347" data-name="Path 37347" d="M113.958,58.848s-.022-.294-.043-.87c-.038-.574-.017-1.433-.12-2.551a53.666,53.666,0,0,0-21.1-39.175A53.416,53.416,0,0,0,70.146,6.26a54.416,54.416,0,0,0-20.97.248,57,57,0,0,0-7.153,2.041A53.657,53.657,0,0,0,17.156,27.2a52.794,52.794,0,0,0-4.36,7.021,50.022,50.022,0,0,0-3.272,7.733,53.489,53.489,0,0,0,0,33.768,49.864,49.864,0,0,0,3.27,7.738,52.635,52.635,0,0,0,4.361,7.022,53.651,53.651,0,0,0,24.871,18.662,57.022,57.022,0,0,0,7.155,2.041,54.393,54.393,0,0,0,20.971.247,53.416,53.416,0,0,0,22.544-9.992,53.6,53.6,0,0,0,21.1-39.174c.1-1.118.082-1.977.12-2.551.022-.576.043-.87.043-.87s.033,1.18-.078,3.426a52.742,52.742,0,0,1-1.463,9.716,53.635,53.635,0,0,1-5.9,14.36,54.317,54.317,0,0,1-13.64,15.331,53.676,53.676,0,0,1-22.661,10.1,54.733,54.733,0,0,1-21.116-.218,57.348,57.348,0,0,1-7.208-2.049A54,54,0,0,1,16.816,90.733a53.062,53.062,0,0,1-4.4-7.075,50.3,50.3,0,0,1-3.3-7.8,53.884,53.884,0,0,1,0-34.035,50.411,50.411,0,0,1,3.3-7.794,53.1,53.1,0,0,1,4.4-7.073A53.993,53.993,0,0,1,41.89,8.182,57.4,57.4,0,0,1,49.1,6.133a54.756,54.756,0,0,1,21.114-.219,53.7,53.7,0,0,1,22.661,10.1,54.324,54.324,0,0,1,13.642,15.331,53.622,53.622,0,0,1,5.9,14.362,52.628,52.628,0,0,1,1.465,9.716c.111,2.245.078,3.427.078,3.427" transform="translate(1.976 1.547)" fill="#00758a"/>
        <path id="Path_37348" data-name="Path 37348" d="M102.8,57.7A45.082,45.082,0,1,1,57.719,12.612,45.085,45.085,0,0,1,102.8,57.7" transform="translate(3.924 3.916)" fill="#00758a"/>
      </g>
    </g>
  </g>
  <g id="pause-stroke-rounded" transform="translate(49.943 49.127)">
    <path id="Path_39024" data-name="Path 39024" d="M4,7c0-1.414,0-2.121.439-2.561S5.586,4,7,4s2.121,0,2.561.439S10,5.586,10,7V17c0,1.414,0,2.121-.439,2.561S8.414,20,7,20s-2.121,0-2.561-.439S4,18.414,4,17Z" fill="none" stroke="#fff" stroke-width="1.5"/>
    <path id="Path_39025" data-name="Path 39025" d="M14,7c0-1.414,0-2.121.439-2.561S15.586,4,17,4s2.121,0,2.561.439S20,5.586,20,7V17c0,1.414,0,2.121-.439,2.561S18.414,20,17,20s-2.121,0-2.561-.439S14,18.414,14,17Z" fill="none" stroke="#fff" stroke-width="1.5"/>
  </g>
</svg>
