<svg xmlns="http://www.w3.org/2000/svg" xmlns:xlink="http://www.w3.org/1999/xlink" width="28" height="28" viewBox="0 0 28 28">
    <defs>
        <linearGradient id="b" x1="100%" x2="-.763%" y1="47.449%" y2="43.012%">
            <stop offset="0%" stop-color="#FFF" stop-opacity="0"/>
            <stop offset="53.678%" stop-color="#FFF"/>
            <stop offset="100%" stop-color="#FFF" stop-opacity="0"/>
        </linearGradient>
        <path id="a" d="M0 0h1117v25H0z"/>
        <linearGradient id="c" x1="50%" x2="53.623%" y1="91.393%" y2="9.997%">
            <stop offset="0%" stop-color="#F89096"/>
            <stop offset="100%" stop-color="#B1B4E5"/>
        </linearGradient>
        <linearGradient id="e" x1="71.508%" x2="31.776%" y1="70.54%" y2="74.04%">
            <stop offset="0%" stop-color="#88D1F1"/>
            <stop offset="100%" stop-color="#B1B5E5"/>
        </linearGradient>
        <linearGradient id="f" x1="33.951%" x2="70.183%" y1="53.616%" y2="57.995%">
            <stop offset="0%" stop-color="#F89096"/>
            <stop offset="100%" stop-color="#B1B4E5"/>
        </linearGradient>
        <linearGradient id="h" x1="100%" x2="1.677%" y1="47.449%" y2="47.449%">
            <stop offset="0%" stop-color="#FFF"/>
            <stop offset="25.513%" stop-color="#FFF" stop-opacity=".089"/>
            <stop offset="72.728%" stop-color="#FFF" stop-opacity="0"/>
            <stop offset="100%" stop-color="#FFF"/>
        </linearGradient>
        <path id="g" d="M-15-7.091h1138.363v25H-15z"/>
        <linearGradient id="i" x1="100%" x2="0%" y1="50%" y2="50%">
            <stop offset="0%" stop-color="#88D1F1"/>
            <stop offset="100%" stop-color="#B1B5E5"/>
        </linearGradient>
        <filter id="j" width="141.6%" height="141.6%" x="-20.8%" y="-20.8%" filterUnits="objectBoundingBox">
            <feGaussianBlur in="SourceGraphic" stdDeviation="7.554"/>
        </filter>
        <path id="k" d="M22.75 13.035L6.417 2.51a1.058 1.058 0 0 0-1.167 0c-.35.117-.583.468-.583.935v21.053c0 .468.233.819.583 1.053.233.117.35.117.583.117a.89.89 0 0 0 .584-.234L22.75 14.906c.35-.233.583-.584.583-.935 0-.351-.233-.819-.583-.936z"/>
    </defs>
    <g fill="none" fill-rule="evenodd">
        <g transform="translate(-543 -4)">
            <mask id="d" fill="#fff">
                <use xlink:href="#a"/>
            </mask>
            <use fill="url(#b)" xlink:href="#a"/>
            <path fill="url(#c)" d="M156.803 2.964c113.762-.112 193.537 8.193 242.014 9.8 48.476 1.608 78.776-.062 109.074-1.731 30.298-1.67 67.666-2.597 125.233 1.855 57.567 4.452 115.003-5.955 115.003-5.955s21.231-4.1 77.851-3.969c57.393.134 63.696 4.927 78.862 6.842 15.165 1.916 29.022 6.702 226.1 6.702h351.384v1.211s-353.988.49-455.973.886c-78.37.305-105.84 3.619-115.95 5.535s-33.365 7.526-81.896 7.457c-48.53-.068-67.74-1.847-103.126-6.431-35.386-4.585-94.78-3.405-120.029-2.664-25.249.742-82.816 2.288-125.233-2.102s-84.836-3.153-110.083-1.484c-25.248 1.67-116.367 12.456-213.231 12.456C-1.424 31.245-49.835 18.73-49.835 15.674c0-3.055 66.191-12.985 206.638-12.71z" mask="url(#d)" opacity=".1"/>
            <path fill="url(#e)" d="M-338.694 14.886s496.259.137 572.157-.521c75.898-.658 85.295-2.076 95.414-2.936 10.118-.86 46.984-5.263 91.8-5.314 44.816-.051 68.67 5.06 103.366 6.377 34.695 1.316 56.38-.05 78.066-1.417s48.43-2.126 89.632 1.518c41.203 3.644 81.68-3.745 81.68-3.745s14.756-2.849 49.55-2.936c34.796-.087 51.647 3.644 62.49 5.061 10.843 1.418 6.927 4.825 263.24 4.825h317.312v1.116s-427.315-.13-505.467 0c-56.138.093-63.88 3.246-71.116 4.663-7.236 1.417-23.853 5.568-58.55 5.517-34.697-.05-48.422-1.367-73.723-4.758-25.3-3.39-67.224-2.48-85.295-1.872-18.07.607-59.272 1.872-89.63-1.721-30.358-3.594-60.718-2.582-78.79-1.215-18.073 1.366-28.91 3.644-67.225 4.302-38.315.658-60.718-1.822-83.126-3.138-22.408-1.316-67.946-3.087-205.285-2.885-137.339.203-486.138.101-486.138.101l-.362-1.022z" mask="url(#d)"/>
            <path fill="url(#f)" d="M-470.104 16.045s445.33-.286 533.45-.593c88.429-.308 115.017-1.68 128.956-2.415 23.359-1.23 49.18-4.325 90.096-4.153 60.9.256 53.415 4.147 94.267 5.384 55.894 1.692 133.477-4 182.695.359 30.045 2.66 74.984-.844 85.711-2.295 10.727-1.452 29.812-6.422 84.468-6.422 54.655 0 77.539 5.052 88.01 6.333 10.471 1.28 17.142 4.104 193.529 4.341 123.834.167 191.163.347 189.728.324l267.977-.863v1.347c-3.898 0-213.158.339-255.277.346-178.878.267-289.729.657-332.553 1.17-64.236.77-69.657 4.282-77.999 5.717-8.342 1.436-34.203 5.435-74.247 5.384-40.044-.05-58.26-2.39-87.52-5.823-18.353-2.153-41.783-2.534-62.64-1.92-20.855.616-74.936 2.128-116.79-1.23-49.22-3.948-80.398-2.365-104.279-1.179-21.69 1.077-28.364 2.256-67.572 2.717-27.026.318-45.76-.843-81.753-3.024-31.923-3.523-678.48-2.642-678.48-2.642l.223-.863z" mask="url(#d)" opacity=".4"/>
            <use fill="url(#h)" xlink:href="#g"/>
        </g>
        <path fill="#FFF" d="M-708 240H735V12H-708z"/>
        <g transform="translate(-41 -41)">
            <circle cx="54.5" cy="54.5" r="54.5" fill="url(#i)" filter="url(#j)" opacity=".5"/>
            <circle cx="55" cy="55" r="44" fill="#FFF"/>
        </g>
        <g>
            <mask id="l" fill="#fff">
                <use xlink:href="#k"/>
            </mask>
            <g fill="#59CBB7" mask="url(#l)">
                <path d="M0-.117h28v28H0z"/>
            </g>
        </g>
    </g>
</svg>
