<svg xmlns="http://www.w3.org/2000/svg" xmlns:xlink="http://www.w3.org/1999/xlink" width="24" height="24" viewBox="0 0 24 24">
    <defs>
        <path id="a" d="M15.5 9.173L1.5.15c-.3-.2-.7-.2-1 0-.3.1-.5.401-.5.802v18.045c0 .401.2.702.5.903.2.1.3.1.5.1s.4-.1.5-.2l14-9.023c.3-.2.5-.501.5-.802 0-.3-.2-.702-.5-.802zM2 17.193V2.757l11.2 7.218L2 17.193z"/>
    </defs>
    <g fill="none" fill-rule="evenodd" transform="translate(4 2)">
        <mask id="b" fill="#fff">
            <use xlink:href="#a"/>
        </mask>
        <use fill="#000" fill-rule="nonzero" xlink:href="#a"/>
        <g fill="#4A4A4A" mask="url(#b)">
            <path d="M-4-1h24v24H-4z"/>
        </g>
    </g>
</svg>
