<svg id="Component_348_1" data-name="Component 348 – 1" xmlns="http://www.w3.org/2000/svg" xmlns:xlink="http://www.w3.org/1999/xlink" width="113.208" height="113.333" viewBox="0 0 113.208 113.333">
  <defs>
    <clipPath id="clip-path">
      <rect id="Rectangle_21269" data-name="Rectangle 21269" width="32.437" height="36.922" fill="#219f8a"/>
    </clipPath>
  </defs>
  <g id="Group_28830" data-name="Group 28830">
    <g id="Group_28825" data-name="Group 28825">
      <g id="Group_28831" data-name="Group 28831">
        <g id="Group_28823" data-name="Group 28823" opacity="0.3">
          <g id="Group_28822" data-name="Group 28822">
            <g id="Group_28832" data-name="Group 28832">
              <path id="Path_37346" data-name="Path 37346" d="M113.206,56.666s-.021-.311-.043-.916-.016-1.508-.122-2.685a56.963,56.963,0,0,0-1.616-10.193,55.954,55.954,0,0,0-2.32-7.087,54.528,54.528,0,0,0-3.933-7.947A57.114,57.114,0,0,0,90.837,11.817,56.248,56.248,0,0,0,67.1,1.294a57.259,57.259,0,0,0-22.081.259A60.169,60.169,0,0,0,37.49,3.7,56.491,56.491,0,0,0,11.3,23.345a55.365,55.365,0,0,0-4.591,7.393c-.695,1.29-1.286,2.637-1.891,3.981-.544,1.372-1.1,2.744-1.554,4.162A56.75,56.75,0,0,0,.385,56.657a60.984,60.984,0,0,0,.735,9.067,54.8,54.8,0,0,0,2.144,8.716c.448,1.419,1.009,2.79,1.553,4.163.605,1.346,1.2,2.693,1.891,3.983a55.268,55.268,0,0,0,4.592,7.4,56.485,56.485,0,0,0,26.189,19.65,60.194,60.194,0,0,0,7.534,2.149,57.292,57.292,0,0,0,22.082.257A56.251,56.251,0,0,0,90.84,101.513a57.087,57.087,0,0,0,14.334-16.021,54.527,54.527,0,0,0,3.933-7.947,55.951,55.951,0,0,0,2.32-7.087,57.035,57.035,0,0,0,1.615-10.19c.106-1.177.085-2.081.122-2.685s.043-.916.043-.916.005.311,0,.916.01,1.51-.084,2.689a55.161,55.161,0,0,1-3.841,17.342A54.646,54.646,0,0,1,105.36,85.6,57.2,57.2,0,0,1,91.005,101.73a56.463,56.463,0,0,1-23.841,10.622,57.552,57.552,0,0,1-22.213-.232,60.415,60.415,0,0,1-7.583-2.154A56.818,56.818,0,0,1,11,90.206,55.777,55.777,0,0,1,6.37,82.764c-.7-1.3-1.295-2.656-1.905-4.01C3.917,77.371,3.352,75.99,2.9,74.561A55.223,55.223,0,0,1,.74,65.786,61.3,61.3,0,0,1,0,56.657a57.008,57.008,0,0,1,2.9-17.9c.451-1.428,1.017-2.81,1.565-4.191.611-1.354,1.206-2.709,1.905-4.009A55.831,55.831,0,0,1,11,23.121,56.82,56.82,0,0,1,37.369,3.367,60.457,60.457,0,0,1,44.95,1.212,57.568,57.568,0,0,1,67.161.979,56.5,56.5,0,0,1,91,11.6a57.2,57.2,0,0,1,14.355,16.128,54.515,54.515,0,0,1,3.918,7.988,55.15,55.15,0,0,1,3.842,17.345c.094,1.179.06,2.085.084,2.689s0,.917,0,.917" transform="translate(0 0)" fill="#fff"/>
            </g>
          </g>
        </g>
        <path id="Path_37347" data-name="Path 37347" d="M104.071,53.9s-.02-.267-.039-.79-.016-1.3-.109-2.317A48.736,48.736,0,0,0,84.758,15.216,48.508,48.508,0,0,0,64.286,6.142a49.415,49.415,0,0,0-19.043.225,51.763,51.763,0,0,0-6.5,1.853A48.727,48.727,0,0,0,16.164,25.163,47.944,47.944,0,0,0,12.2,31.538a45.426,45.426,0,0,0-2.971,7.023,48.575,48.575,0,0,0,0,30.666,45.283,45.283,0,0,0,2.97,7.027,47.8,47.8,0,0,0,3.96,6.377A48.721,48.721,0,0,0,38.747,99.578a51.783,51.783,0,0,0,6.5,1.853,49.394,49.394,0,0,0,19.044.224,48.508,48.508,0,0,0,20.473-9.074,48.672,48.672,0,0,0,19.162-35.575c.093-1.016.075-1.8.109-2.317s.039-.79.039-.79.03,1.072-.071,3.111a47.9,47.9,0,0,1-1.329,8.824,48.707,48.707,0,0,1-5.359,13.041A49.327,49.327,0,0,1,84.926,92.8a48.743,48.743,0,0,1-20.579,9.172,49.7,49.7,0,0,1-19.175-.2,52.078,52.078,0,0,1-6.546-1.861,49.042,49.042,0,0,1-22.77-17.056,48.188,48.188,0,0,1-3.993-6.425,45.681,45.681,0,0,1-3-7.081,48.935,48.935,0,0,1,0-30.908,45.78,45.78,0,0,1,3-7.078A48.217,48.217,0,0,1,15.86,24.94,49.032,49.032,0,0,1,38.626,7.888a52.122,52.122,0,0,1,6.545-1.861,49.724,49.724,0,0,1,19.174-.2A48.763,48.763,0,0,1,84.923,15,49.333,49.333,0,0,1,97.312,28.921a48.7,48.7,0,0,1,5.359,13.042A47.793,47.793,0,0,1,104,50.787c.1,2.039.071,3.112.071,3.112" transform="translate(1.976 1.547)" fill="#fff"/>
        <path id="Path_37348" data-name="Path 37348" d="M92.913,52.75A40.138,40.138,0,1,1,52.775,12.612,40.139,40.139,0,0,1,92.913,52.75" transform="translate(3.924 3.916)" fill="#fff"/>
      </g>
    </g>
  </g>
  <g id="Group_30447" data-name="Group 30447" transform="translate(42.104 38.206)">
    <g id="Group_28848" data-name="Group 28848" transform="translate(0 0)" clip-path="url(#clip-path)">
      <path id="Path_37483" data-name="Path 37483" d="M30.609,21.665,5.611,36.4A3.722,3.722,0,0,1,0,33.193V3.725A3.722,3.722,0,0,1,5.611.521l25,14.736a3.722,3.722,0,0,1,0,6.409" transform="translate(0 0.001)" fill="#219f8a"/>
    </g>
  </g>
</svg>
