<svg xmlns="http://www.w3.org/2000/svg" width="15.5" height="16.5" viewBox="0 0 15.5 16.5">
  <path id="play-stroke-rounded" d="M7.976,20.25a2.935,2.935,0,0,1-.8-.109,4.012,4.012,0,0,1-1.752-1.035C4.25,17.923,4.25,15.943,4.25,12s0-5.923,1.174-7.107A4.012,4.012,0,0,1,7.175,3.859a2.935,2.935,0,0,1,.8-.109c1.411,0,3.013.91,5.92,2.562,3.52,2,5.286,3,5.72,4.651a4.082,4.082,0,0,1,0,2.074c-.434,1.648-2.2,2.652-5.72,4.651C10.988,19.34,9.387,20.25,7.976,20.25Zm0-15a1.417,1.417,0,0,0-.391.052,2.509,2.509,0,0,0-1.1.647C5.75,6.695,5.75,8.579,5.75,12s0,5.305.739,6.051a2.51,2.51,0,0,0,1.1.647,1.417,1.417,0,0,0,.391.052c1.015,0,2.582-.89,5.178-2.365,3.055-1.736,4.738-2.692,5.011-3.729a2.579,2.579,0,0,0,0-1.31c-.273-1.038-1.956-1.994-5.01-3.729C10.558,6.141,8.991,5.25,7.976,5.25Z" transform="translate(-4.25 -3.75)" fill="#085d3a"/>
</svg>
