<?xml version="1.0" encoding="UTF-8"?>
<svg width="15px" height="15px" viewBox="0 0 15 15" version="1.1" xmlns="http://www.w3.org/2000/svg" xmlns:xlink="http://www.w3.org/1999/xlink">
    <!-- Generator: Sketch 47.1 (45422) - http://www.bohemiancoding.com/sketch -->
    <title>icon / record</title>
    <desc>Created with Sketch.</desc>
    <defs></defs>
    <g id="Symbols" stroke="none" stroke-width="1" fill="none" fill-rule="evenodd">
        <g id="icon-/-record" fill="#FF4F5E">
            <path d="M7.5,15 C3.35786438,15 0,11.6421356 0,7.5 C0,3.35786438 3.35786438,0 7.5,0 C11.6421356,0 15,3.35786438 15,7.5 C15,11.6421356 11.6421356,15 7.5,15 Z M7.5,13.9655172 C11.0708066,13.9655172 13.9655172,11.0708066 13.9655172,7.5 C13.9655172,3.92919343 11.0708066,1.03448276 7.5,1.03448276 C3.92919343,1.03448276 1.03448276,3.92919343 1.03448276,7.5 C1.03448276,11.0708066 3.92919343,13.9655172 7.5,13.9655172 Z M7.5,2.84482759 L7.5,2.84482759 C10.0709807,2.84482759 12.1551724,4.92901927 12.1551724,7.5 L12.1551724,7.5 C12.1551724,10.0709807 10.0709807,12.1551724 7.5,12.1551724 C4.92901927,12.1551724 2.84482759,10.0709807 2.84482759,7.5 L2.84482759,7.5 L2.84482759,7.5 C2.84482759,4.92901927 4.92901927,2.84482759 7.5,2.84482759 L7.5,2.84482759 Z"></path>
        </g>
    </g>
</svg>