<svg xmlns="http://www.w3.org/2000/svg" xmlns:xlink="http://www.w3.org/1999/xlink" width="24" height="24" viewBox="0 0 24 24">
    <defs>
        <path id="a" d="M15.171 19.399c-1.105.4-2.21.601-3.315.601-4.12 0-8.038-2.604-9.445-6.711-.2-.501.1-1.102.603-1.302.502-.2 1.105.1 1.306.6 1.507 4.208 6.029 6.411 10.248 4.909 4.22-1.503 6.43-6.01 4.923-10.217-.703-2.003-2.21-3.606-4.119-4.608-1.909-.901-4.12-1.001-6.129-.3-1.105.4-2.21 1.001-3.014 1.903L3.316 6.978h3.516c.603 0 1.005.401 1.005 1.002s-.402 1.002-1.005 1.002H.603h-.1l-.101-.1c-.1 0-.1-.1-.201-.1 0 0 0-.1-.1-.1C.1 8.58 0 8.58 0 8.48v-.2-6.31C0 1.368.402.967 1.005.967c.603 0 1.004.401 1.004 1.002v3.706l3.015-2.804C6.028 1.87 7.334 1.069 8.74.568c2.512-.902 5.224-.701 7.636.4 2.411 1.202 4.22 3.206 5.124 5.71 1.708 5.209-1.105 10.918-6.33 12.721z"/>
    </defs>
    <g fill="none" fill-rule="evenodd" transform="translate(1 2)">
        <mask id="b" fill="#fff">
            <use xlink:href="#a"/>
        </mask>
        <use fill="#000" fill-rule="nonzero" xlink:href="#a"/>
        <g fill="#4A4A4A" mask="url(#b)">
            <path d="M-1-2h24v24H-1z"/>
        </g>
    </g>
</svg>
