<svg xmlns="http://www.w3.org/2000/svg" xmlns:xlink="http://www.w3.org/1999/xlink" width="24" height="24" viewBox="0 0 24 24">
    <defs>
        <path id="a" d="M18 10.987v8.01C18 20.699 16.7 22 15 22H3c-1.7 0-3-1.301-3-3.003v-8.01c0-.6.4-1 1-1s1 .4 1 1v8.01c0 .6.4 1 1 1h12c.6 0 1-.4 1-1v-8.01c0-.6.4-1 1-1s1 .4 1 1zM5.7 5.681L8 3.38V13.99c0 .6.4 1.001 1 1.001s1-.4 1-1.001V3.379l2.3 2.302c.2.2.4.3.7.3.3 0 .5-.1.7-.3.4-.4.4-1 0-1.401L9.7.275c-.1-.1-.2-.2-.3-.2-.2-.1-.5-.1-.8 0-.1.1-.2.1-.3.2l-4 4.005c-.4.4-.4 1.001 0 1.401.4.4 1 .4 1.4 0z"/>
    </defs>
    <g fill="none" fill-rule="evenodd" transform="translate(3 1)">
        <mask id="b" fill="#fff">
            <use xlink:href="#a"/>
        </mask>
        <use fill="#000" fill-rule="nonzero" xlink:href="#a"/>
        <g fill="#4A4A4A" mask="url(#b)">
            <path d="M-3-1h24v24H-3z"/>
        </g>
    </g>
</svg>
