<svg xmlns="http://www.w3.org/2000/svg" xmlns:xlink="http://www.w3.org/1999/xlink" width="28" height="28" viewBox="0 0 28 28">
    <defs>
        <path id="a" d="M19.833 0H3.5C1.517 0 0 1.517 0 3.5v16.333c0 1.984 1.517 3.5 3.5 3.5h16.333c1.984 0 3.5-1.516 3.5-3.5V3.5c0-1.983-1.516-3.5-3.5-3.5zM21 19.833c0 .7-.467 1.167-1.167 1.167H3.5c-.7 0-1.167-.467-1.167-1.167V3.5c0-.7.467-1.167 1.167-1.167h16.333c.7 0 1.167.467 1.167 1.167v16.333z"/>
    </defs>
    <g fill="none" fill-rule="evenodd" transform="translate(2.333 2.333)">
        <mask id="b" fill="#fff">
            <use xlink:href="#a"/>
        </mask>
        <use fill="#000" fill-rule="nonzero" xlink:href="#a"/>
        <g fill="#FF4F5E" mask="url(#b)">
            <path d="M-2.333-2.333h28v28h-28z"/>
        </g>
    </g>
</svg>
