<?xml version="1.0" encoding="UTF-8"?>
<svg width="30px" height="31px" viewBox="0 0 30 31" version="1.1" xmlns="http://www.w3.org/2000/svg" xmlns:xlink="http://www.w3.org/1999/xlink">
    <!-- Generator: Sketch 47.1 (45422) - http://www.bohemiancoding.com/sketch -->
    <title>icon / support</title>
    <desc>Created with Sketch.</desc>
    <defs></defs>
    <g id="Symbols" stroke="none" stroke-width="1" fill="none" fill-rule="evenodd">
        <g id="icon-/-support" fill="#000000">
            <path d="M22.5292969,2.89648438 C24.8339959,4.22461602 26.6552667,6.0410041 27.9931641,8.34570312 C29.3310614,10.6504021 30,13.1601427 30,15.875 C30,18.5898573 29.3310614,21.0995979 27.9931641,23.4042969 C26.6552667,25.7089959 24.8339959,27.5302667 22.5292969,28.8681641 C20.2245979,30.2060614 17.7148573,30.875 15,30.875 C12.2851427,30.875 9.77540215,30.2060614 7.47070312,28.8681641 C5.1660041,27.5302667 3.34473325,25.7089959 2.00683594,23.4042969 C0.668938623,21.0995979 0,18.5898573 0,15.875 C0,13.1601427 0.668938623,10.6504021 2.00683594,8.34570312 C3.34473325,6.0410041 5.1660041,4.21973325 7.47070312,2.88183594 C9.77540215,1.54393862 12.2851427,0.875 15,0.875 C17.7148573,0.875 20.2245979,1.54882139 22.5292969,2.89648438 Z M18.75,3.30664062 L18.75,9.40039062 C19.9023495,10.0644564 20.8105436,10.9726505 21.4746094,12.125 L27.5683594,12.125 C27.2558578,11.0703072 26.8164091,10.0742234 26.25,9.13671875 C25.6835909,8.19921406 25.0244178,7.35449595 24.2724609,6.60253906 C23.5205041,5.85058218 22.6757859,5.19140908 21.7382812,4.625 C20.8007766,4.05859092 19.8046928,3.61914219 18.75,3.30664062 Z M20.625,15.875 C20.625,14.8593699 20.3710963,13.9218793 19.8632812,13.0625 C19.3554662,12.2031207 18.6718793,11.5195338 17.8125,11.0117188 C16.9531207,10.5039037 16.0156301,10.25 15,10.25 C13.4570235,10.25 12.1337946,10.8017523 11.0302734,11.9052734 C9.92675229,13.0087946 9.375,14.3320235 9.375,15.875 C9.375,16.8906301 9.62890371,17.8330035 10.1367188,18.7021484 C10.6445338,19.5712934 11.3281207,20.2548803 12.1875,20.7529297 C13.0468793,21.2509791 13.9843699,21.5 15,21.5 C16.5429765,21.5 17.8662054,20.9531305 18.9697266,19.859375 C20.0732477,18.7656195 20.625,17.4375078 20.625,15.875 Z M13.125,2.89648438 L13.125,8.63867188 C13.7695345,8.46288975 14.399411,8.375 15.0146484,8.375 C15.6298859,8.375 16.2499969,8.46288975 16.875,8.63867188 L16.875,2.89648438 C16.2499969,2.79882764 15.6250031,2.75 15,2.75 C14.3749969,2.75 13.7500031,2.79882764 13.125,2.89648438 Z M11.25,3.30664062 C9.94139971,3.69726758 8.71094326,4.29296475 7.55859375,5.09375 C5.01951855,6.83203994 3.31055127,9.1757665 2.43164062,12.125 L8.52539062,12.125 C8.85742354,11.5585909 9.25292739,11.0459007 9.71191406,10.5869141 C10.1709007,10.1279274 10.6835909,9.73242354 11.25,9.40039062 L11.25,3.30664062 Z M1.875,15.875 C1.875,16.4609404 1.92382764,17.0859342 2.02148438,17.75 L7.734375,17.75 C7.57812422,17.1249969 7.5,16.5000031 7.5,15.875 C7.5,15.2499969 7.58788975,14.6250031 7.76367188,14 L2.02148438,14 L1.96289062,14.46875 C1.94335928,14.6250008 1.92871099,14.7812492 1.91894531,14.9375 L1.88964844,15.40625 C1.87988276,15.5625008 1.875,15.7187492 1.875,15.875 Z M11.25,28.4433594 L11.25,22.3496094 C10.0976505,21.6855436 9.18945645,20.7773495 8.52539062,19.625 L2.43164062,19.625 C3.05664375,21.7343855 4.15526558,23.5751875 5.72753906,25.1474609 C7.29981255,26.7197344 9.14061445,27.8183562 11.25,28.4433594 Z M16.875,28.8535156 L16.875,23.140625 C16.2499969,23.2968758 15.6298859,23.375 15.0146484,23.375 C14.399411,23.375 13.7695345,23.2968758 13.125,23.140625 L13.125,28.8535156 C13.7500031,28.9511724 14.3749969,29 15,29 C15.6250031,29 16.2499969,28.9511724 16.875,28.8535156 Z M18.75,28.4433594 C20.156257,28.0332011 21.4501894,27.4033246 22.6318359,26.5537109 C23.8134825,25.7040973 24.8242146,24.6884825 25.6640625,23.5068359 C26.5039104,22.3251894 27.1386697,21.031257 27.5683594,19.625 L21.4746094,19.625 C20.8105436,20.7773495 19.9023495,21.6855436 18.75,22.3496094 L18.75,28.4433594 Z M22.265625,17.75 L27.9785156,17.75 C28.0761724,17.0859342 28.125,16.4609404 28.125,15.875 C28.125,15.2890596 28.0761724,14.6640658 27.9785156,14 L22.2363281,14 C22.4121103,14.6250031 22.5,15.2499969 22.5,15.875 C22.5,16.1875016 22.4804689,16.4999984 22.4414062,16.8125 C22.4023436,17.1250016 22.3437504,17.4374984 22.265625,17.75 Z"></path>
        </g>
    </g>
</svg>