<svg xmlns="http://www.w3.org/2000/svg" xmlns:xlink="http://www.w3.org/1999/xlink" width="746" height="180" viewBox="0 0 746 180">
    <defs>
        <linearGradient id="b" x1="100%" x2="-.763%" y1="47.449%" y2="43.012%">
            <stop offset="0%" stop-color="#FFF" stop-opacity="0"/>
            <stop offset="53.678%" stop-color="#FFF"/>
            <stop offset="100%" stop-color="#FFF" stop-opacity="0"/>
        </linearGradient>
        <path id="a" d="M0 0h732v180H0z"/>
        <linearGradient id="c" x1="50%" x2="53.623%" y1="91.393%" y2="9.997%">
            <stop offset="0%" stop-color="#F89096"/>
            <stop offset="100%" stop-color="#B1B4E5"/>
        </linearGradient>
        <linearGradient id="e" x1="65.526%" x2="63.327%" y1="-7.66%" y2="95.977%">
            <stop offset="0%" stop-color="#88D1F1"/>
            <stop offset="100%" stop-color="#B1B5E5"/>
        </linearGradient>
        <linearGradient id="g" x1="100%" x2="-.763%" y1="47.449%" y2="43.012%">
            <stop offset="0%" stop-color="#FFF"/>
            <stop offset="25.513%" stop-color="#FFF" stop-opacity=".089"/>
            <stop offset="72.728%" stop-color="#FFF" stop-opacity="0"/>
            <stop offset="100%" stop-color="#FFF"/>
        </linearGradient>
        <path id="f" d="M-10 0h746v180H-10z"/>
    </defs>
    <g fill="none" fill-rule="evenodd" transform="translate(10 -.023)">
        <mask id="d" fill="#fff">
            <use xlink:href="#a"/>
        </mask>
        <use fill="url(#b)" xlink:href="#a"/>
        <path fill="url(#c)" d="M103.726 1.94c71.354-.704 121.39 51.355 151.797 61.433 30.405 10.078 49.41-.388 68.414-10.853 19.003-10.465 42.441-16.28 78.549 11.628 36.107 27.908 72.133-37.332 72.133-37.332s13.316-25.7 48.83-24.876c35.998.835 39.951 30.88 49.464 42.89 9.512 12.008 18.203 42.011 141.815 42.011h164.627v7.594s-166.26 3.07-230.228 5.555c-49.155 1.912-66.386 22.682-72.727 34.695-6.34 12.012-20.927 47.179-51.366 46.75-30.44-.429-42.488-11.58-64.683-40.319-22.195-28.738-59.449-21.346-75.285-16.695-15.837 4.651-51.945 14.341-78.55-13.179-26.605-27.52-53.21-19.768-69.047-9.302-15.835 10.465-72.988 78.083-133.743 78.083-148.984-1.2-141.39-74.03-141.39-93.182S-51.784-1.112 103.726 1.94z" mask="url(#d)" opacity=".1"/>
        <path fill="url(#e)" d="M-150.366 76.674s283.153.856 326.458-3.268c43.306-4.124 48.667-13.01 54.441-18.403 5.774-5.393 26.808-32.996 52.38-33.315 25.57-.319 39.18 31.728 58.977 39.978 19.796 8.25 32.17-.318 44.543-8.884 12.373-8.567 27.632-13.327 51.142 9.518 23.509 22.845 46.604-23.479 46.604-23.479s8.42-17.857 28.273-18.403c19.853-.545 29.468 22.845 35.654 31.729 6.187 8.883 3.953 30.244 150.199 30.244h181.05v6.998s-243.816-.813-288.407 0c-32.031.584-36.448 20.346-40.577 29.23-4.129 8.884-13.61 34.903-33.407 34.585-19.797-.318-27.629-8.567-42.065-29.824-14.436-21.258-38.356-15.547-48.667-11.74-10.31 3.807-33.819 11.74-51.14-10.79-17.322-22.528-34.645-16.18-44.957-7.614-10.311 8.567-16.494 22.846-38.356 26.97-21.862 4.123-34.644-11.422-47.43-19.672-12.785-8.25-38.768-19.355-117.13-18.085-78.362 1.27-277.379.634-277.379.634l-.206-6.409z" mask="url(#d)"/>
        <path fill="url(#c)" d="M-225.346 83.939S28.75 82.148 79.028 80.22c50.455-1.926 65.625-10.529 73.58-15.136 13.327-7.714 28.06-27.116 51.405-26.036 34.748 1.607 30.478 25.998 53.787 33.75 31.891 10.608 76.159-25.071 104.24 2.251 17.144 16.678 42.785-5.288 48.906-14.389 6.12-9.1 17.01-40.255 48.195-40.255s44.242 31.67 50.216 39.697c5.975 8.025 9.781 25.728 110.423 27.216 70.657 1.046 109.073 2.177 108.254 2.028l152.901-5.408v8.447c-2.224 0-121.622 2.121-145.655 2.166-102.063 1.676-165.311 4.121-189.746 7.335-36.651 4.822-39.744 26.84-44.504 35.841-4.76 9-19.516 34.07-42.364 33.751-22.848-.32-33.242-14.978-49.937-36.502-10.471-13.5-23.84-15.89-35.74-12.033-11.9 3.857-42.757 13.333-66.638-7.714-28.084-24.751-45.873-14.825-59.499-7.393-12.375 6.75-16.183 14.143-38.555 17.035-15.42 1.993-26.11-5.288-46.646-18.962-18.215-22.08-387.124-16.563-387.124-16.563l.127-5.408z" mask="url(#d)" opacity=".4"/>
        <path fill="#0A1B56" d="M627.226 85.543c-.329.08-.664-.098-.815-.43v-1.055c.199-.273.499-.43.815-.43.317 0 .617.157.816.43v1.054c-.151.334-.487.51-.816.43zm-6.218 0c-.329.08-.665-.097-.815-.43v-4.089c.199-.272.498-.43.815-.43.317 0 .616.158.815.43v4.088c-.15.334-.486.51-.815.43zm-6.218 0c-.33.082-.669-.096-.82-.43v-4.089c.2-.272.499-.43.816-.43.316 0 .616.158.816.43v4.088c-.151.332-.485.508-.812.43zm-6.22 0c-.328.08-.664-.097-.815-.43v-7.3c.2-.273.499-.431.816-.431.316 0 .616.158.815.43v7.3c-.15.333-.487.51-.815.43zm-6.219 0c-.328.08-.664-.098-.815-.43v-4.089c.2-.272.499-.43.815-.43.317 0 .617.158.816.43v4.088c-.151.335-.489.512-.818.43h.002zm-6.218 0c-.329.08-.665-.097-.815-.43v-7.3c.199-.273.499-.431.815-.431.317 0 .616.158.816.43v7.3c-.151.334-.487.51-.816.43zm-6.218 0c-.33.082-.668-.096-.82-.43V74.437c.2-.272.5-.43.816-.43.316 0 .616.158.816.43v10.674c-.15.332-.485.508-.812.43zm-6.22 0c-.328.08-.664-.098-.815-.43v-7.3c.2-.273.5-.431.816-.431.316 0 .616.158.815.43v7.3c-.15.334-.486.51-.815.43zm-6.218 0c-.328.08-.664-.097-.815-.43v-4.089c.2-.272.499-.43.815-.43.317 0 .617.158.816.43v4.088c-.151.334-.488.512-.817.43h.001zm-6.219 0c-.33.082-.669-.095-.82-.43v-7.3c.2-.273.5-.431.816-.431.316 0 .616.158.815.43v7.3c-.15.331-.483.508-.81.43zm-6.218 0c-.329.08-.665-.097-.815-.43V67.711c.199-.272.498-.43.815-.43.317 0 .616.158.815.43v17.4c-.15.333-.486.51-.815.43zm-6.22 0c-.328.08-.664-.098-.815-.43V74.634c.2-.273.5-.432.816-.432.317 0 .616.16.815.432v10.477c-.15.334-.486.51-.815.43zm-6.217 0c-.33.082-.67-.095-.82-.43v-4.089c.199-.272.498-.43.815-.43.317 0 .616.158.816.43v4.088c-.15.331-.484.508-.811.43zm-6.219 0c-.33.082-.668-.096-.82-.43V70.747c.2-.272.5-.43.816-.43.317 0 .617.158.816.43v14.364c-.15.332-.484.508-.812.43zm-6.219 0c-.329.08-.665-.097-.815-.43v-23.55c.199-.272.499-.43.815-.43.317 0 .617.158.816.43v23.55c-.151.333-.487.51-.816.43zm-6.219 0c-.329.08-.664-.098-.815-.43V71.544c.199-.273.498-.43.815-.43.317 0 .616.157.815.43v13.567c-.15.334-.486.51-.815.43zm-6.218 0c-.329.08-.665-.097-.816-.43v-7.3c.2-.273.5-.431.816-.431.316 0 .616.158.815.43v7.3c-.15.333-.485.51-.813.43h-.002zm-6.218 0c-.33.082-.669-.096-.82-.43V64.378c.199-.272.499-.43.815-.43.317 0 .617.158.816.43v20.733c-.15.332-.484.508-.811.43zm-6.22 0c-.328.08-.664-.098-.815-.43v-33.64c.199-.273.499-.431.815-.431.317 0 .617.158.816.43v33.64c-.15.334-.487.51-.816.43zm-6.218 0c-.329.08-.665-.097-.815-.43V61.203c.199-.272.498-.43.815-.43.317 0 .616.158.816.43v23.908c-.151.334-.487.51-.816.43zm-6.218 0c-.33.082-.669-.096-.82-.43V74.108c.2-.273.5-.43.816-.43.316 0 .616.157.816.43v11.003c-.15.33-.483.507-.81.43h-.002zm-6.22 0c-.328.08-.664-.097-.815-.43v-7.438c.2-.272.499-.43.816-.43.316 0 .616.158.815.43v7.437c-.15.333-.487.51-.815.43zm-6.218 0c-.33.082-.67-.096-.82-.43V71.217c.199-.272.498-.43.815-.43.317 0 .616.158.815.43v13.894c-.15.331-.483.508-.81.43zm-6.219 0c-.329.08-.665-.097-.815-.43V61.337c.199-.273.499-.431.815-.431.317 0 .617.158.816.43v23.775c-.151.334-.487.51-.816.43zm-6.218 0c-.329.08-.665-.097-.815-.43V67.798c.198-.273.498-.432.815-.432.317 0 .617.159.815.432v17.313c-.15.331-.483.508-.81.43h-.005zm-6.22 0c-.33.082-.668-.096-.82-.43v-7.3c.2-.273.5-.431.816-.431.317 0 .617.158.816.43v7.3c-.15.331-.484.508-.811.43zm-6.217 0c-.33.08-.665-.097-.816-.43V67.966c.2-.272.499-.43.816-.43.316 0 .616.158.815.43v17.145c-.15.334-.487.51-.815.43zm-6.22 0c-.328.08-.664-.097-.815-.43V51.467c.2-.273.499-.43.815-.43.317 0 .617.157.816.43v33.644c-.15.334-.487.51-.816.43zm-6.218 0c-.33.082-.669-.095-.82-.43V61.203c.2-.272.499-.43.816-.43.316 0 .616.158.815.43v23.908c-.15.331-.484.508-.81.43zm-6.219 0c-.329.08-.665-.098-.815-.43V71.131c.199-.273.498-.431.815-.431.317 0 .616.158.815.43v13.981c-.15.334-.486.51-.815.43zm-6.218 0c-.33.08-.665-.097-.816-.43v-4.089c.2-.272.5-.43.816-.43.316 0 .616.158.815.43v4.088c-.15.334-.486.51-.815.43zm-6.219 0c-.33.082-.668-.095-.82-.43V71.113c.2-.272.5-.43.816-.43.317 0 .616.158.815.43v13.998c-.15.331-.483.508-.81.43zm-6.219 0c-.329.08-.664-.097-.815-.43V54.464c.199-.273.499-.431.815-.431.317 0 .617.158.816.431v30.647c-.151.333-.487.51-.816.43zm-6.219 0c-.329.08-.664-.098-.815-.43V38.4c.199-.272.498-.43.815-.43.317 0 .616.158.816.43v46.712c-.151.333-.487.51-.816.43zm-6.218 0c-.329.08-.665-.097-.816-.43V44.616c.2-.273.5-.431.816-.431.317 0 .616.158.815.43v40.496c-.15.334-.486.51-.815.43zm-6.218 0c-.33.08-.665-.097-.816-.43V57.84c.2-.272.499-.43.816-.43.316 0 .616.158.815.43v27.271c-.15.333-.487.51-.815.43zm-6.22 0c-.328.08-.664-.098-.815-.43V67.906c.199-.273.499-.432.815-.432.317 0 .617.159.816.432v17.205c-.15.334-.487.51-.816.43zm-6.218 0c-.329.08-.665-.097-.815-.43v-7.3c.199-.273.499-.431.815-.431.317 0 .617.158.816.43v7.3c-.151.334-.487.51-.816.43zm-6.219 0c-.33.082-.669-.095-.82-.43V71.237c.199-.272.499-.43.815-.43.317 0 .617.158.816.43v13.874c-.15.331-.484.508-.811.43zm-6.218 0c-.33.08-.665-.097-.816-.43V54.64c.2-.272.5-.43.816-.43.316 0 .616.158.815.43v30.471c-.15.334-.486.51-.815.43zm-6.22 0c-.328.08-.664-.098-.815-.43V41.746c.2-.272.5-.43.816-.43.317 0 .617.158.816.43v43.365c-.151.333-.487.51-.816.43zm-6.218 0c-.328.08-.664-.097-.815-.43V28.146c.199-.273.499-.431.815-.431.317 0 .617.158.816.43v56.966c-.15.334-.487.51-.816.43zm-6.218 0c-.329.08-.665-.097-.815-.43v-56.96c.199-.273.498-.431.815-.431.317 0 .616.158.816.43v56.96c-.151.333-.487.51-.816.43zm-6.22 0c-.328.08-.664-.098-.815-.43V38.117c.2-.272.5-.43.816-.43.317 0 .617.158.816.43v46.994c-.151.333-.487.51-.816.43zm-6.218 0c-.329.08-.665-.098-.816-.43v-33.82c.2-.273.5-.43.816-.43.317 0 .617.157.816.43v33.82c-.151.332-.487.51-.816.43zm-6.219 0c-.328.08-.664-.097-.815-.43V64.154c.199-.273.499-.431.815-.431.317 0 .617.158.816.431v20.957c-.15.334-.487.51-.816.43zm-6.218 0c-.329.08-.665-.097-.815-.43V74.416c.199-.272.499-.43.815-.43.317 0 .617.158.816.43v10.695c-.151.334-.487.51-.816.43zm-6.219 0c-.329.08-.664-.098-.815-.43V61.324c.199-.272.499-.431.816-.431.316 0 .616.159.815.431v23.792c-.152.332-.488.506-.816.426zm-6.218 0c-.329.08-.665-.097-.816-.43V44.618c.2-.273.5-.431.816-.431.316 0 .616.158.815.43v40.494c-.15.334-.486.51-.815.43zm-6.218 0c-.33.08-.665-.097-.816-.43V54.396c.2-.272.499-.43.816-.43.316 0 .616.158.815.43v30.715c-.15.333-.487.51-.815.43zm-6.22 0c-.33.082-.668-.095-.82-.43V64.4c.2-.273.5-.431.816-.431.317 0 .616.158.815.431v20.712c-.15.331-.483.508-.81.43zm-6.219 0c-.329.08-.664-.098-.815-.43V71.287c.199-.273.499-.432.816-.432.317 0 .616.159.816.432v13.824c-.152.333-.488.51-.817.43zm-6.218 0c-.33.082-.669-.095-.82-.43v-7.3c.2-.273.499-.431.815-.431.317 0 .617.158.816.43v7.3c-.15.331-.484.508-.811.43zm-6.218 0c-.33.082-.67-.095-.82-.43V64.316c.199-.273.499-.431.815-.431.317 0 .616.158.816.43v20.796c-.15.331-.484.508-.811.43zm-6.22 0c-.328.08-.664-.098-.815-.43V54.708c.2-.273.5-.431.816-.431.317 0 .617.158.816.431v30.403c-.151.333-.487.51-.816.43zm-6.218 0c-.33.082-.669-.095-.82-.43V45.155c.2-.273.5-.43.816-.43.316 0 .616.157.815.43v39.957c-.15.331-.484.508-.81.43zm-6.219 0c-.329.08-.665-.097-.815-.43V34.997c.199-.273.498-.43.815-.43.317 0 .616.157.816.43v50.114c-.151.334-.487.51-.816.43zm-6.218 0c-.329.08-.665-.097-.816-.43V48.461c.2-.273.5-.431.816-.431.317 0 .616.158.815.43v36.651c-.15.334-.486.51-.815.43zm-6.22 0c-.328.08-.664-.098-.815-.43V58.194c.2-.273.5-.431.816-.431.317 0 .617.158.816.431v26.917c-.151.333-.487.51-.816.43zm-6.218 0c-.328.08-.664-.097-.815-.43V64.445c.2-.273.499-.431.815-.431.317 0 .617.158.816.43v20.667c-.151.335-.49.513-.82.43h.004zm-6.218 0c-.329.08-.665-.097-.815-.43V74.324c.199-.272.498-.431.815-.431.317 0 .617.159.816.431v10.787c-.151.334-.487.51-.816.43zm-6.219 0c-.329.08-.665-.097-.815-.43v-4.089c.199-.272.498-.43.815-.43.317 0 .616.158.815.43v4.088c-.15.334-.486.51-.815.43zm-6.22 0c-.33.082-.668-.096-.82-.43v-7.3c.2-.273.5-.43.817-.43.316 0 .616.157.816.43v7.3c-.151.33-.485.507-.812.43zm-6.217 0c-.33.08-.665-.097-.816-.43v-13.77c.2-.273.499-.431.816-.431.316 0 .616.158.815.43v13.77c-.15.334-.488.512-.817.43h.002zm-6.219 0c-.328.08-.664-.097-.815-.43v-7.3c.199-.273.499-.431.815-.431.317 0 .617.158.816.43v7.3c-.15.334-.487.51-.816.43zm-6.219 0c-.33.082-.668-.096-.82-.43v-4.089c.2-.272.5-.43.816-.43.317 0 .616.158.816.43v4.088c-.15.331-.484.508-.812.43zm-6.218 0c-.329.08-.665-.097-.816-.43V74.453c.2-.272.5-.431.816-.431.317 0 .616.159.815.431v10.658c-.15.334-.486.51-.815.43zm-6.22 0c-.33.082-.668-.095-.82-.43V64.64c.2-.272.5-.43.816-.43.317 0 .617.158.816.43v20.471c-.15.331-.484.508-.811.43zm-6.218 0c-.33.082-.668-.095-.82-.43v-13.96c.2-.273.5-.431.816-.431.317 0 .616.158.815.43v13.96c-.15.331-.483.508-.81.43zm-6.219 0c-.328.08-.664-.098-.815-.43v-7.3c.2-.273.5-.43.816-.43.316 0 .616.157.816.43v7.3c-.152.332-.488.51-.817.43zm-6.218 0c-.33.082-.669-.095-.82-.43v-4.089c.2-.272.499-.43.816-.43.316 0 .616.158.815.43v4.088c-.15.331-.484.508-.81.43zm-6.218 0c-.33.082-.67-.095-.82-.43v-7.3c.199-.273.499-.431.815-.431.317 0 .617.158.816.43v7.3c-.15.331-.483.508-.81.43h-.001zm-6.22 0c-.328.08-.664-.098-.815-.43v-10.99c.2-.272.5-.43.816-.43.317 0 .617.158.816.43v10.99c-.151.332-.487.51-.816.43zm-6.219 0c-.328.08-.664-.098-.815-.43v-7.3c.2-.273.5-.43.816-.43.317 0 .616.157.816.43v7.3c-.151.332-.487.51-.817.43zm-6.218 0c-.329.08-.665-.097-.815-.43v-4.089c.199-.272.499-.43.815-.43.317 0 .617.158.816.43v4.088c-.151.334-.487.51-.816.43zm-6.218 0c-.329.08-.665-.097-.815-.43v-7.3c.199-.273.498-.431.815-.431.317 0 .616.158.815.43v7.3c-.15.332-.484.51-.812.43h-.003zm-6.218 0c-.33.082-.669-.096-.82-.43v-4.089c.2-.272.499-.43.816-.43.316 0 .616.158.815.43v4.088c-.15.332-.484.508-.811.43zm-6.22 0c-.328.08-.664-.097-.815-.43v-4.089c.2-.272.499-.43.816-.43.316 0 .616.158.815.43v4.088c-.15.334-.487.51-.815.43zm-6.218 0c-.329.08-.664-.097-.815-.43v-1.055c.199-.273.499-.43.815-.43.317 0 .617.157.816.43v1.054c-.151.334-.487.51-.816.43zm-6.219 0c-.329.08-.665-.097-.815-.43v-1.055c.199-.273.498-.43.815-.43.317 0 .616.157.816.43v1.054c-.15.331-.484.508-.811.43h-.005zm491.274 3.204c-.329.08-.665-.098-.815-.432v-1.053c.199-.273.499-.431.815-.431.317 0 .617.158.816.43v1.054c-.15.334-.487.512-.816.432zm-6.218 3.033c-.329.08-.665-.097-.815-.43v-4.088c.199-.273.498-.431.815-.431.317 0 .616.158.815.43v4.089c-.15.333-.486.51-.815.43zm-6.218 0c-.33.082-.669-.095-.82-.43v-4.088c.2-.272.499-.43.816-.43.316 0 .616.158.816.43v4.088c-.151.33-.485.508-.812.43zm-6.22 3.212c-.329.08-.665-.098-.815-.431v-7.3c.2-.272.499-.43.816-.43.316 0 .616.158.815.43v7.3c-.15.333-.486.511-.815.431zm-6.219-3.212c-.328.08-.664-.097-.815-.43v-4.088c.2-.273.499-.431.815-.431.317 0 .617.158.816.43v4.089c-.151.334-.489.512-.818.43h.002zm-6.218 3.212c-.329.08-.665-.098-.815-.431v-7.3c.199-.272.499-.43.815-.43.317 0 .616.158.816.43v7.3c-.15.333-.487.511-.816.431zm-6.218 3.374c-.33.082-.668-.095-.82-.43V87.262c.2-.272.5-.43.816-.43.316 0 .616.158.816.43v10.674c-.15.331-.485.508-.812.43zm-6.22-3.374c-.328.08-.664-.098-.815-.431v-7.3c.2-.272.5-.43.816-.43.316 0 .616.158.815.43v7.3c-.15.333-.486.511-.815.431zm-6.218-3.212c-.328.08-.664-.097-.815-.43v-4.088c.2-.273.499-.431.815-.431.317 0 .617.158.816.43v4.089c-.151.334-.488.511-.817.43h.001zm-6.219 3.212c-.33.083-.67-.095-.82-.431v-7.3c.2-.272.5-.43.816-.43.316 0 .616.158.815.43v7.3c-.15.331-.483.509-.81.431zm-6.218 10.1c-.329.08-.665-.097-.815-.43v-17.4c.199-.273.498-.431.815-.431.317 0 .616.158.815.43v17.401c-.15.333-.486.51-.815.43zm-6.22-6.922c-.328.08-.664-.098-.815-.43V87.261c.2-.273.5-.431.816-.431.317 0 .616.158.815.43V97.74c-.15.333-.486.51-.815.43zm-6.217-6.39c-.33.083-.67-.095-.82-.43v-4.088c.199-.273.498-.431.815-.431.317 0 .616.158.816.43v4.089c-.15.33-.484.508-.811.43zm-6.219 10.277c-.33.082-.669-.096-.82-.431V87.262c.2-.272.5-.43.816-.43.317 0 .617.158.816.43v14.364c-.15.332-.484.509-.812.431zm-6.219 9.184c-.329.08-.665-.097-.815-.43V87.26c.199-.272.499-.43.815-.43.317 0 .617.158.816.43v23.55c-.151.333-.487.51-.816.43zm-6.219-9.98c-.329.08-.665-.098-.815-.432V87.262c.199-.273.498-.431.815-.431.317 0 .616.158.815.43v13.567c-.15.334-.486.512-.815.432zm-6.218-6.268c-.33.08-.666-.098-.816-.431v-7.3c.2-.272.5-.43.816-.43.316 0 .616.158.815.43v7.3c-.15.332-.485.51-.813.43l-.002.001zm-6.218 13.434c-.33.081-.669-.096-.82-.43V87.261c.199-.272.499-.43.815-.43.317 0 .617.158.816.43v20.733c-.15.331-.484.508-.811.43v.002zm-6.22 12.904c-.329.08-.665-.098-.815-.432V87.262c.199-.273.499-.431.815-.431.317 0 .617.158.816.43v33.64c-.15.334-.487.512-.816.432v-.002zm-6.218-9.733c-.329.08-.665-.097-.815-.43V87.262c.199-.273.498-.431.815-.431.317 0 .616.158.816.43v23.909c-.151.333-.487.51-.816.43v-.002zm-6.218-12.904c-.33.082-.669-.096-.82-.43V87.262c.2-.272.5-.43.816-.43.316 0 .616.158.816.43v11.004c-.15.33-.483.506-.81.43l-.002-.002zm-6.22-3.567c-.328.08-.664-.097-.815-.43V87.26c.2-.273.499-.431.816-.431.316 0 .616.158.815.43v7.438c-.15.333-.486.512-.815.432v-.002zm-6.218 6.457c-.33.083-.67-.095-.82-.43V87.262c.199-.273.498-.431.815-.431.317 0 .616.158.815.43v13.895c-.15.33-.483.508-.81.43v-.002zm-6.219 9.88c-.329.08-.665-.098-.815-.431V87.262c.199-.273.499-.431.815-.431.317 0 .617.158.816.43v23.775c-.15.333-.487.511-.816.431v-.003zm-6.218-6.46c-.33.08-.665-.098-.815-.432v-17.31c.199-.273.498-.431.815-.431.317 0 .616.158.815.43v17.314c-.15.332-.483.51-.81.432l-.005-.003zm-6.22-10.015c-.33.083-.668-.096-.82-.431v-7.3c.2-.272.5-.43.816-.43.317 0 .617.158.816.43v7.3c-.15.332-.483.511-.811.434v-.003zm-6.217 9.846c-.33.08-.666-.098-.816-.432V87.262c.2-.273.499-.431.816-.431.316 0 .616.158.815.43v17.145c-.15.334-.486.512-.815.432v-.003zm-6.22 16.499c-.328.08-.664-.098-.815-.43V87.261c.2-.273.499-.431.815-.431.317 0 .617.158.816.43v33.645c-.15.333-.487.51-.816.43v-.002zm-6.218-9.737c-.33.083-.669-.095-.82-.43V87.262c.2-.273.499-.431.816-.431.316 0 .616.158.815.43v23.909c-.15.33-.484.507-.81.43v-.003zm-6.219-9.927c-.329.08-.665-.098-.815-.43V87.262c.199-.273.498-.431.815-.431.317 0 .616.158.815.43v13.982c-.15.333-.486.51-.815.43v-.003zm-6.218-9.893c-.33.08-.665-.097-.816-.43v-4.088c.2-.273.5-.431.816-.431.316 0 .616.158.815.43v4.089c-.15.334-.486.513-.815.433v-.003zm-6.219 9.91c-.33.083-.668-.095-.82-.43V87.262c.2-.273.5-.431.816-.431.317 0 .616.158.815.43v13.999c-.15.33-.483.507-.81.43v-.003zm-6.219 16.66c-.329.08-.664-.098-.815-.43V87.268c.199-.273.499-.43.815-.43.317 0 .617.157.816.43v30.647c-.151.333-.487.51-.816.43zm-6.219 16.06c-.329.08-.664-.097-.815-.43V87.262c.199-.273.498-.431.815-.431.317 0 .616.158.816.43v46.712c-.15.333-.487.511-.816.431v.003zm-6.218-6.216c-.329.08-.665-.097-.816-.43v-40.5c.2-.272.5-.43.816-.43.317 0 .616.158.815.43v40.497c-.15.333-.486.51-.815.43v.003zm-6.218-13.225c-.33.08-.665-.097-.816-.43V87.262c.2-.273.499-.431.816-.431.316 0 .616.158.815.43v27.272c-.15.333-.487.51-.815.43v.003zm-6.22-10.064c-.329.08-.664-.098-.815-.431V87.26c.2-.272.499-.43.815-.43.317 0 .617.158.816.43v17.207c-.15.333-.487.511-.816.431v.003zm-6.218-9.907c-.329.08-.665-.098-.815-.431v-7.3c.199-.272.499-.43.815-.43.317 0 .617.158.816.43v7.3c-.151.332-.487.509-.816.428v.003zm-6.219 6.575c-.33.083-.67-.095-.82-.431V87.262c.2-.273.499-.431.815-.431.317 0 .617.158.816.43v13.875c-.15.331-.483.509-.811.431v.003zm-6.218 16.596c-.33.08-.665-.097-.816-.43V87.262c.2-.273.5-.431.816-.431.316 0 .616.158.815.43v30.472c-.15.333-.486.51-.815.43v.003zm-6.22 12.894c-.328.08-.664-.097-.815-.43V87.262c.2-.272.5-.43.816-.43.317 0 .616.158.816.43v43.365c-.151.333-.487.51-.816.43v.003zm-6.218 13.599c-.329.08-.665-.098-.815-.431V87.262c.199-.273.499-.431.815-.431.317 0 .617.158.816.43v56.967c-.15.333-.487.511-.816.431zm-6.218-.01c-.329.08-.665-.097-.815-.43v-56.96c.199-.273.498-.431.815-.431.317 0 .616.158.816.43v56.96c-.151.333-.487.51-.816.43zm-6.22-9.962c-.328.08-.664-.098-.815-.43V87.261c.2-.272.5-.43.816-.43.317 0 .617.158.816.43v46.994c-.151.333-.487.51-.816.43zm-6.218-13.175c-.329.08-.665-.097-.816-.43v-33.82c.2-.272.5-.43.816-.43.317 0 .617.158.816.43v33.82c-.151.333-.487.51-.816.43zm-6.219-12.863c-.328.08-.664-.097-.815-.43V87.262c.2-.273.499-.431.815-.431.317 0 .617.158.816.43v20.958c-.15.333-.487.51-.816.43zm-6.218-10.263c-.329.08-.665-.098-.815-.43V87.261c.199-.273.499-.431.815-.431.317 0 .617.158.816.43v10.696c-.152.332-.487.509-.816.429zm-6.219 13.092c-.329.08-.665-.098-.815-.431V87.262c.2-.272.499-.43.816-.43.316 0 .616.158.815.43v23.792c-.152.331-.488.507-.816.426v-.002zm-6.218 16.706c-.329.08-.665-.097-.816-.43V87.262c.2-.273.5-.431.816-.431.316 0 .616.158.815.43v40.495c-.15.333-.486.51-.815.43v-.002zm-6.218-9.779c-.33.08-.665-.097-.816-.43V87.262c.2-.273.499-.431.816-.431.316 0 .616.158.815.43v30.716c-.15.333-.487.51-.815.43v-.002zm-6.22-10.002c-.33.083-.669-.095-.82-.431v-20.71c.2-.273.5-.431.816-.431.316 0 .616.158.815.43v20.713c-.15.331-.483.509-.81.431v-.002zm-6.219-6.888c-.329.08-.664-.098-.815-.43V87.261c.2-.272.499-.43.816-.43.316 0 .616.158.816.43v13.824c-.152.333-.488.51-.817.43v-.001zm-6.218-6.525c-.33.083-.67-.095-.82-.431v-7.3c.2-.272.499-.43.815-.43.317 0 .617.158.816.43v7.3c-.15.332-.483.51-.811.433v-.002zm-6.218 13.496c-.33.083-.67-.095-.82-.43V87.262c.199-.273.499-.431.815-.431.317 0 .616.158.816.43v20.797c-.15.33-.484.507-.811.43v-.002zm-6.22 9.609c-.328.08-.664-.099-.815-.432V87.262c.2-.272.5-.43.816-.43.317 0 .616.158.816.43v30.403c-.151.334-.487.511-.816.432v-.002zm-6.218 9.553c-.33.082-.669-.095-.82-.43V87.261c.2-.273.5-.431.816-.431.316 0 .616.158.815.43v39.957c-.15.332-.483.51-.81.432v-.002zm-6.219 10.156c-.329.08-.665-.098-.815-.43V87.258c.199-.273.498-.431.815-.431.317 0 .616.158.816.43v50.115c-.151.333-.487.51-.816.43zm-6.218-13.464c-.329.08-.665-.097-.816-.43V87.262c.2-.273.5-.431.816-.431.317 0 .616.158.815.43v36.652c-.15.333-.486.51-.815.43v-.003zm-6.22-9.73c-.328.079-.664-.099-.815-.432V87.261c.2-.272.5-.43.816-.43.317 0 .617.158.816.43v26.917c-.149.336-.485.517-.816.439v-.008zm-6.221-6.244c-.329.08-.665-.097-.816-.43V87.269c.2-.273.5-.43.816-.43.316 0 .616.157.815.43v20.667c-.15.333-.486.51-.815.43zm-6.218-9.88c-.33.08-.666-.097-.816-.431V87.268c.2-.273.499-.431.816-.431.316 0 .616.158.815.43v10.788c-.15.332-.484.51-.812.431h-.003zm-6.22-6.7c-.328.08-.664-.098-.815-.431v-4.088c.199-.273.499-.431.815-.431.317 0 .617.158.816.43v4.089c-.152.33-.485.504-.812.425l-.004.005zm-6.219 3.211c-.33.083-.669-.096-.82-.431v-7.3c.2-.271.5-.43.816-.43.317 0 .617.159.816.43v7.3c-.151.328-.483.502-.808.426l-.004.005zm-6.218 6.47c-.329.08-.665-.097-.815-.43V87.262c.199-.273.498-.431.815-.431.317 0 .616.158.815.43v13.77c-.15.333-.485.51-.813.431l-.002.005zm-6.218-6.47c-.33.08-.666-.097-.816-.431v-7.3c.2-.272.499-.43.816-.43.316 0 .616.158.815.43v7.3c-.151.33-.485.505-.812.426l-.003.005zm-6.22-3.212c-.33.082-.668-.095-.82-.43v-4.088c.2-.272.5-.43.816-.43.317 0 .617.158.816.43v4.088c-.152.327-.483.501-.808.425l-.003.005zm-6.218 6.571c-.329.08-.665-.098-.815-.431V87.262c.199-.273.499-.431.815-.431.317 0 .617.158.816.43V97.92c-.15.332-.484.51-.812.431l-.004.005zm-6.215 9.808c-.33.083-.67-.095-.82-.43V87.262c.199-.273.499-.431.815-.431.317 0 .617.158.816.43v20.472c-.15.331-.484.509-.811.431zm-6.219-6.511c-.33.082-.668-.095-.82-.43V87.261c.2-.273.5-.431.816-.431.317 0 .616.158.815.43v13.96c-.15.331-.483.508-.81.43v.002zm-6.219-6.66c-.329.08-.665-.098-.815-.431v-7.3c.2-.271.5-.43.816-.43.316 0 .616.159.816.43v7.3c-.151.333-.488.51-.817.43v.001zm-6.218-3.212c-.33.083-.669-.095-.82-.43v-4.088c.2-.273.499-.431.816-.431.316 0 .616.158.815.43v4.089c-.15.33-.484.507-.81.43zm-6.218 3.212c-.33.083-.67-.095-.82-.431v-7.3c.199-.272.499-.43.815-.43.317 0 .617.158.816.43v7.3c-.15.33-.483.507-.81.43l-.001.001zm-6.22 3.69c-.328.08-.664-.097-.815-.43v-10.99c.2-.271.5-.43.816-.43.317 0 .617.159.816.43v10.99c-.15.335-.486.514-.816.435v-.004zm-6.219-3.69c-.329.08-.665-.098-.815-.431v-7.3c.2-.271.5-.43.816-.43.317 0 .616.159.816.43v7.3c-.151.333-.487.51-.817.43v.001zm-6.218-3.212c-.329.08-.665-.097-.815-.43v-4.088c.199-.273.499-.431.815-.431.317 0 .617.158.816.43v4.089c-.151.333-.487.51-.816.43zm-6.218 3.212c-.33.08-.665-.098-.815-.431v-7.3c.199-.272.498-.43.815-.43.317 0 .616.158.815.43v7.3c-.15.332-.484.509-.812.43l-.003.001zm-6.218-3.212c-.33.082-.669-.095-.82-.43v-4.088c.2-.272.499-.43.816-.43.316 0 .616.158.815.43v4.088c-.15.33-.484.507-.811.43zm-6.22 0c-.328.08-.664-.097-.815-.43v-4.088c.2-.273.499-.431.816-.431.316 0 .616.158.815.43v4.089c-.151.333-.487.51-.815.43zm-6.218-3.033c-.329.08-.665-.098-.815-.432v-1.053c.199-.273.499-.431.815-.431.317 0 .617.158.816.43v1.054c-.15.334-.487.511-.816.43v.002zm-6.219 0c-.329.08-.665-.098-.815-.432v-1.053c.199-.273.498-.431.815-.431.317 0 .616.158.816.43v1.054c-.15.332-.484.509-.811.43l-.005.002z" mask="url(#d)"/>
        <use fill="url(#g)" xlink:href="#f"/>
    </g>
</svg>
