<svg viewBox="0 0 336.8 83.6" version="1.1" xmlns="http://www.w3.org/2000/svg">
  <defs>
    <style>
      .cls-1{fill:none}.cls-2{fill:#fff}
    </style>
  </defs>
  <path class="cls-1" d="M260.3 14.8a5.6 5.6 0 0 0-4.7 2.1 8.8 8.8 0 0 0-1.6 5.7 9.6 9.6 0 0 0 1.6 5.6 5.3 5.3 0 0 0 4.7 2.3 5.7 5.7 0 0 0 4.7-2.2 9.1 9.1 0 0 0 1.7-5.8 8.2 8.2 0 0 0-1.8-5.7 6 6 0 0 0-4.6-2Z" />
  <path class="cls-1" d="M45.4 30.5a5.7 5.7 0 0 0 4.7-2.2 9.1 9.1 0 0 0 1.7-5.8 8.2 8.2 0 0 0-1.8-5.7 6 6 0 0 0-4.7-2 5.6 5.6 0 0 0-4.6 2.1 8.8 8.8 0 0 0-1.6 5.7 9.6 9.6 0 0 0 1.6 5.6 5.3 5.3 0 0 0 4.7 2.3Z" />
  <path class="cls-1" d="M163 14.8a5.6 5.6 0 0 0-4.6 2.1 8.8 8.8 0 0 0-1.7 5.7 9.6 9.6 0 0 0 1.6 5.6 5.3 5.3 0 0 0 4.7 2.3 5.7 5.7 0 0 0 4.7-2.2 9.1 9.1 0 0 0 1.8-5.8 8.2 8.2 0 0 0-1.8-5.7 6 6 0 0 0-4.7-2Z" />
  <path class="cls-1" d="M330 16.5a4.3 4.3 0 0 0-4-1.9 4.5 4.5 0 0 0-3.8 1.7 8.2 8.2 0 0 0-1.6 4h10.3a6 6 0 0 0-1-3.8Z" id="path1501"/>
  <path d="M16.9 34.8a23.9 23.9 0 0 0 6.9-1 12.9 12.9 0 0 0 5.2-2.7l.7-7.4-4.7-.5-.8 5a14 14 0 0 1-6.8 1.5 10.8 10.8 0 0 1-8.1-3q-3-3.2-3-9.2 0-5.8 2.8-9.1A9.7 9.7 0 0 1 16.7 5a13.4 13.4 0 0 1 7.5 2l.9 4.7 4.7-.5-.9-7.3a15.6 15.6 0 0 0-4.8-2.8A19.8 19.8 0 0 0 16.8 0a16 16 0 0 0-9.5 2.7 16.2 16.2 0 0 0-5.5 6.8A20.9 20.9 0 0 0 0 17.8a16.6 16.6 0 0 0 4.8 12.3 16.4 16.4 0 0 0 12 4.7Z" id="path1503"/>
  <path d="M45.2 34.8a12.3 12.3 0 0 0 9-3.3 11.7 11.7 0 0 0 3.4-8.8 13 13 0 0 0-3-8.6q-3-3.6-9-3.6T36.3 14a13.2 13.2 0 0 0-3 8.8 11.8 11.8 0 0 0 3.2 8.7 11.7 11.7 0 0 0 8.6 3.2ZM40.8 17a5.6 5.6 0 0 1 4.6-2 6 6 0 0 1 4.7 2 8.2 8.2 0 0 1 1.7 5.6 9.1 9.1 0 0 1-1.7 5.8 5.7 5.7 0 0 1-4.7 2.2 5.3 5.3 0 0 1-4.7-2.3 9.6 9.6 0 0 1-1.6-5.6 8.8 8.8 0 0 1 1.7-5.7Z" id="path1505"/>
  <path d="M73.9 30h-4.4V21a7.5 7.5 0 0 1 1.4-4.2 4.6 4.6 0 0 1 4-1.9 4 4 0 0 1 3.2 1.4q1.2 1.4 1.2 4.7v9.2H78v4.2h10.3v-4.2H85V21a7.7 7.7 0 0 1 1.3-4.3 4.5 4.5 0 0 1 4-1.8 4.1 4.1 0 0 1 3.3 1.4q1.2 1.3 1.2 4.7V30h-1.3v4.3h10.3V30h-3.5V18.9q0-4.3-2.4-6.4a8.3 8.3 0 0 0-5.5-2 8 8 0 0 0-4.9 1.5 9 9 0 0 0-3 3.8 6.8 6.8 0 0 0-2.9-4 8.8 8.8 0 0 0-4.7-1.3 7.9 7.9 0 0 0-4.4 1.2 9 9 0 0 0-2.9 3.1V11h-9v4.3H64v14.8h-3.5v4.2h13.4Z" id="path1507"/>
  <path d="M145.6 18.9q0-4.3-2.4-6.4a8.3 8.3 0 0 0-5.6-2 8 8 0 0 0-4.8 1.5 9 9 0 0 0-3 3.8 6.8 6.8 0 0 0-3-4 8.8 8.8 0 0 0-4.6-1.3 7.9 7.9 0 0 0-4.4 1.2 9 9 0 0 0-3 3.1V11h-9v4.3h3.5v14.8h-3.5v4.2h13.4v-4.2h-4.4v-9.2a7.5 7.5 0 0 1 1.4-4.2 4.6 4.6 0 0 1 4-1.9 4 4 0 0 1 3.2 1.4q1.2 1.4 1.2 4.7v9.2h-1.2v4.2h10.3v-4.2h-3.5V21a7.7 7.7 0 0 1 1.3-4.3 4.5 4.5 0 0 1 4-1.8 4.1 4.1 0 0 1 3.3 1.4q1.2 1.3 1.2 4.6v9.2h-1.3v4.2H149v-4.2h-3.4Z" id="path1509"/>
  <path d="M163 10.4q-6 0-9 3.7a13.2 13.2 0 0 0-3.1 8.8 11.8 11.8 0 0 0 3.3 8.7 11.7 11.7 0 0 0 8.6 3.2 12.3 12.3 0 0 0 9-3.3 11.7 11.7 0 0 0 3.4-8.8 13 13 0 0 0-3-8.6q-3-3.7-9.1-3.7Zm4.7 17.9a5.7 5.7 0 0 1-4.7 2.2 5.3 5.3 0 0 1-4.7-2.3 9.6 9.6 0 0 1-1.6-5.6 8.8 8.8 0 0 1 1.7-5.7 5.6 5.6 0 0 1 4.6-2 6 6 0 0 1 4.7 2 8.2 8.2 0 0 1 1.7 5.6 9.1 9.1 0 0 1-1.7 5.8Z" id="path1511"/>
  <path d="M203 18.9q0-4.3-2.4-6.4a8.6 8.6 0 0 0-5.7-2 8.3 8.3 0 0 0-7.8 4.3V11H178v4.3h3.7v14.8H178v4.2h12.5v-4.2h-3.4v-9.4a6.3 6.3 0 0 1 1.5-4.2 5.3 5.3 0 0 1 4.2-1.7 4.2 4.2 0 0 1 3.4 1.4q1.2 1.4 1.2 4.7v9.2H194v4.2h12.5v-4.2H203Z" id="path1513"/>
  <path id="polygon1515" d="M250.5.5h-12.8v5h3.8l-7.8 20h-.3l-8-20h3.8v-5h-13.3v5h3.2l12 28.8h4.2l12-28.8h3.2z"/>
  <path d="M260.4 10.4q-6 0-9.1 3.7a13.2 13.2 0 0 0-3.1 8.8 11.8 11.8 0 0 0 3.2 8.7 11.7 11.7 0 0 0 8.6 3.2 12.3 12.3 0 0 0 9-3.3 11.7 11.7 0 0 0 3.5-8.8 13 13 0 0 0-3-8.6q-3-3.7-9.1-3.7Zm4.6 17.9a5.7 5.7 0 0 1-4.7 2.2 5.3 5.3 0 0 1-4.7-2.3 9.6 9.6 0 0 1-1.6-5.6 8.8 8.8 0 0 1 1.7-5.7 5.6 5.6 0 0 1 4.6-2 6 6 0 0 1 4.6 2 8.2 8.2 0 0 1 1.8 5.6 9.1 9.1 0 0 1-1.7 5.8Z" id="path1517"/>
  <path id="polygon1519" d="M284.5 11h-9.2v4.3h3.7V30h-3.4v4.2H288v-4.2h-3.5z"/>
  <path id="rect1521" d="M278.7 0h5.7v6.1h-5.7z"/>
  <path d="M302.2 30.4q-6 0-6-7.6 0-7.8 5.8-7.8a9.2 9.2 0 0 1 4.1 1l.8 3.8 4.5-.5-1-6.5a15.5 15.5 0 0 0-4-1.8 17.1 17.1 0 0 0-4.2-.5 11.2 11.2 0 0 0-8.5 3.4 12.7 12.7 0 0 0-3.3 9.1q0 5.8 3.2 8.8a11.3 11.3 0 0 0 8.1 3q5.3 0 7.7-2.9a11.5 11.5 0 0 0 2.8-6l-4.7-.9q-1 5.4-5.3 5.4Z" id="path1523"/>
  <path d="M332.2 26.3a6.5 6.5 0 0 1-1.6 2.8 5 5 0 0 1-3.8 1.3q-5.8 0-6.3-6.6h15.8a17 17 0 0 0 .3-3.1 10.2 10.2 0 0 0-2.9-7.3 11.6 11.6 0 0 0-16 .7 13.5 13.5 0 0 0-3 9q0 5.8 3.3 8.7a12 12 0 0 0 8.4 3 11.2 11.2 0 0 0 7.4-2.2 8 8 0 0 0 3-5.4Zm-10-10a4.5 4.5 0 0 1 3.8-1.7 4.3 4.3 0 0 1 3.9 1.9 6 6 0 0 1 1 4h-10.3a8.2 8.2 0 0 1 1.6-4.2Z" id="path1525"/>
  <path d="M101 72.3a1.5 1.5 0 0 0 1.7 1.7c1.5 0 3-1 3.1-3.5a15.4 15.4 0 0 0-2-.2c-1.5 0-2.8.5-2.8 2Z" id="path1527"/>
  <path d="M43.6 73.8c2.1 0 3.6-1.7 3.6-4.5 0-3-1.6-4.3-3.6-4.3-2.1 0-3.5 1.6-3.5 4.3 0 2.6 1.2 4.5 3.5 4.5Z" id="path1529"/>
  <path d="M0 83.6h116.9V50H0ZM98 63a14 14 0 0 1 6.3-1.3c3.1 0 5.8 1.6 5.8 5V73c0 .9.3 1.2 1 1.2a2.2 2.2 0 0 0 .6-.1v2.2a5.7 5.7 0 0 1-2.6.6 3 3 0 0 1-3.3-2.9 5.3 5.3 0 0 1-4.7 3c-2 0-4.5-1.2-4.5-4.2 0-3.6 3.5-4.5 6.8-4.5a19.1 19.1 0 0 1 2.4.2V68c0-1.5 0-3.3-2.4-3.3a4.5 4.5 0 0 0-2.2.5l-.5 1.6-3.3-.4Zm-1-8.7-6.3 22.3h-4l6.2-22.3Zm-12.5 0h4.1l-6.4 22.3h-4ZM71 62h4.4v5.2H71Zm0 9.3h4.4v5.3H71Zm-16.8-9.3H67l.3 2.2-8 9.2H64l.7-2.3 3.3.4-1 5H54.3l-.5-2.1 8-9.3h-4.5l-.6 2.3-3-.3Zm-10.5-.3c5.2 0 7.8 3.5 7.8 7.6 0 4.7-3.4 7.6-8 7.6-4.5 0-7.6-2.7-7.6-7.4 0-4.3 2.5-7.8 7.8-7.8ZM6.9 73.5h2v-8.3h-2v-3.1h6.2v2.2a4.8 4.8 0 0 1 4.4-2.5 4.7 4.7 0 0 1 4.8 3.1 4.9 4.9 0 0 1 4.7-3.1 4.7 4.7 0 0 1 5 5v6.7h2v3.2h-6.1v-8.2c0-2.6-.8-3.5-2.5-3.5-2 0-2.8 1.4-2.8 3.4v5.1h2v3.2h-6.2v-8.2c0-2.6-.9-3.5-2.5-3.5-2 0-2.8 1.4-2.8 3.4v5.1h2.7v3.2H7Z" id="path1531"/>
  <path id="polygon1533" d="m90.7 76.7 6.4-22.3h-4.2l-6.3 22.3h4.1z"/>
  <path id="polygon1535" class="cls-2" style="fill:#fff" d="m90.7 76.7 6.4-22.3h-4.2l-6.3 22.3Z"/>
  <path d="M43.5 77c4.6 0 8-3 8-7.6 0-4.1-2.6-7.6-7.9-7.6s-7.8 3.5-7.8 7.8c0 4.7 3.2 7.4 7.7 7.4Zm.1-12c2 0 3.6 1.3 3.6 4.3 0 2.8-1.5 4.5-3.6 4.5s-3.5-2-3.5-4.4c0-2.8 1.4-4.4 3.5-4.4Z" id="path1537"/>
  <path class="cls-2" d="M43.5 77c4.6 0 8-3 8-7.6 0-4.1-2.6-7.6-7.9-7.6s-7.8 3.5-7.8 7.8c0 4.7 3.2 7.4 7.7 7.4Zm.1-12c2 0 3.6 1.3 3.6 4.3 0 2.8-1.5 4.5-3.6 4.5s-3.5-2-3.5-4.4c0-2.8 1.4-4.4 3.5-4.4Z" id="path1539"/>
  <path d="M15.9 73.5H13v-5c0-2 .8-3.5 2.8-3.5 1.6 0 2.5 1 2.5 3.5v8.2h6.1v-3.2h-2v-5c0-2 .9-3.5 2.9-3.5 1.6 0 2.5 1 2.5 3.5v8.2H34v-3.2h-2v-6.7a4.7 4.7 0 0 0-5-5 4.9 4.9 0 0 0-4.7 3.1 4.7 4.7 0 0 0-4.8-3.1 4.8 4.8 0 0 0-4.4 2.5V62H6.9v3.2h2v8.2h-2v3.2h9Z" id="path1541"/>
  <path class="cls-2" d="M15.9 73.5H13v-5c0-2 .8-3.5 2.8-3.5 1.6 0 2.5 1 2.5 3.5v8.2h6.1v-3.2h-2v-5c0-2 .9-3.5 2.9-3.5 1.6 0 2.5 1 2.5 3.5v8.2H34v-3.2h-2v-6.7a4.7 4.7 0 0 0-5-5 4.9 4.9 0 0 0-4.7 3.1 4.7 4.7 0 0 0-4.8-3.1 4.8 4.8 0 0 0-4.4 2.5V62H6.9v3.2h2v8.2h-2v3.2h9Z" id="path1543"/>
  <path id="polygon1545" d="M57.3 65.3h4.6l-8.1 9.2.5 2.2H67l.9-5.1-3.3-.3-.6 2.2h-4.8l8.1-9.2-.3-2.2H54.2l-.5 5.1 3 .3.6-2.2z"/>
  <path id="polygon1547" class="cls-2" style="fill:#fff" d="M57.3 65.3H62l-8 9.2.4 2.2H67l1-5.1-3.4-.4-.6 2.3h-4.8l8.1-9.2L67 62H54.2l-.6 5 3 .4z"/>
  <path id="rect1549" d="M71 71.4h4.4v5.3H71z"/>
  <path class="cls-2" id="rect1551" d="M71 71.4h4.4v5.3H71z"/>
  <path id="polygon1553" d="M88.6 54.4h-4.2l-6.3 22.3h4.1l6.4-22.3z"/>
  <path id="polygon1555" class="cls-2" style="fill:#fff" d="M88.6 54.4h-4.2l-6.3 22.3h4.1z"/>
  <path id="rect1557" d="M71 62.1h4.4v5.3H71z"/>
  <path class="cls-2" id="rect1559" d="M71 62.1h4.4v5.3H71z"/>
  <path d="M101.2 65.2a4.5 4.5 0 0 1 2.2-.4c2.4 0 2.4 1.7 2.4 3.2v.5a19.1 19.1 0 0 0-2.4-.1c-3.3 0-6.8.8-6.8 4.4 0 3 2.4 4.2 4.5 4.2a5.3 5.3 0 0 0 4.7-3 3 3 0 0 0 3.3 3 5.7 5.7 0 0 0 2.6-.7v-2.2a2.2 2.2 0 0 1-.6.1c-.7 0-1-.3-1-1.1v-6.4c0-3.3-2.7-5-5.8-5a14 14 0 0 0-6.3 1.4l-.6 3.4 3.4.3Zm1.5 8.8a1.5 1.5 0 0 1-1.7-1.7c0-1.5 1.3-2 2.8-2a15.4 15.4 0 0 1 2.1.2c-.2 2.5-1.7 3.5-3.2 3.5Z" id="path1561"/>
  <path class="cls-2" d="M101.2 65.2a4.5 4.5 0 0 1 2.2-.4c2.4 0 2.4 1.7 2.4 3.2v.5a19.1 19.1 0 0 0-2.4-.1c-3.3 0-6.8.8-6.8 4.4 0 3 2.4 4.2 4.5 4.2a5.3 5.3 0 0 0 4.7-3 3 3 0 0 0 3.3 3 5.7 5.7 0 0 0 2.6-.7v-2.2a2.2 2.2 0 0 1-.6.1c-.7 0-1-.3-1-1.1v-6.4c0-3.3-2.7-5-5.8-5a14 14 0 0 0-6.3 1.4l-.6 3.4 3.4.3Zm1.5 8.8a1.5 1.5 0 0 1-1.7-1.7c0-1.5 1.3-2 2.8-2a15.4 15.4 0 0 1 2.1.2c-.2 2.5-1.7 3.5-3.2 3.5Z" id="path1563"/>
</svg>
