<svg xmlns="http://www.w3.org/2000/svg" xmlns:xlink="http://www.w3.org/1999/xlink" width="774" height="370" viewBox="0 0 774 370">
    <defs>
        <path id="a" d="M0 0h774v389.62H0z"/>
        <linearGradient id="b" x1="70.929%" x2="70.929%" y1="0%" y2="100%">
            <stop offset="0%" stop-color="#F89096"/>
            <stop offset="58.368%" stop-color="#B1B4E5"/>
            <stop offset="100%" stop-color="#B1B4E5" stop-opacity="0"/>
        </linearGradient>
        <linearGradient id="d" x1="57.087%" x2="66.38%" y1="44.664%" y2="100%">
            <stop offset="0%" stop-color="#F89096"/>
            <stop offset="58.368%" stop-color="#B1B4E5" stop-opacity=".497"/>
            <stop offset="100%" stop-color="#B1B4E5" stop-opacity="0"/>
        </linearGradient>
        <linearGradient id="e" x1="66.135%" x2="66.763%" y1="13.446%" y2="116.705%">
            <stop offset="0%" stop-color="#F89096"/>
            <stop offset="100%" stop-color="#B1B4E5" stop-opacity="0"/>
        </linearGradient>
    </defs>
    <g fill="none" fill-rule="evenodd" transform="translate(0 -20)">
        <mask id="c" fill="#fff">
            <use xlink:href="#a"/>
        </mask>
        <path fill="url(#b)" d="M-197.33-6.269C33.89-8.76 196.03 175.553 294.56 211.235c98.527 35.681 160.11-1.374 221.69-38.425 61.581-37.05 137.531-57.636 254.535 41.17 117.004 98.805 233.743-132.176 233.743-132.176s33.371-70.367 119.685-85.355v331.592H-320.102V-3.346c51.712-2.595 92.636-3.569 122.772-2.923z" mask="url(#c)" opacity=".2"/>
        <path fill="url(#d)" d="M-557.528 328.938c129.445-2.312 359.943 26.997 411.404-64.508 21.242-37.771 40.055-155.41 124.232-155.41 94.344 0 79.059 124.006 185.26 124.006 94.518 0 154.733-121.513 228.21-21.127 44.854 61.279 111.942-19.429 127.956-52.866 16.014-33.437 56.556-138.127 138.15-138.127 187.995 0 58.084 288.645 508.443 308.032-57.94 1.783-181.467 93.546-370.581 93.931-201.176.41-476.572.029-826.189-1.144-106.713-.357-282.342-31.286-526.885-92.787z" mask="url(#c)" opacity=".6"/>
        <path fill="url(#e)" d="M-121.743 390.372c109.3-12.85 125.987-49.834 140.56-66.639 14.572-16.805 54.018-84.851 130.17-84.851 76.15 0 100.92 79.908 150.884 105.612 49.965 25.704 80.864 9.972 112.093-16.72 31.229-26.691 65.235-71.179 124.57 0 59.335 71.18 122.463-73.154 122.463-73.154s20.513-57.34 71.356-57.34c50.844 0 74.376 71.18 89.99 98.86 15.615 27.678 9.975 94.232 379.087 94.232-953.648 8.566-1394.039 8.566-1321.173 0z" mask="url(#c)" opacity=".7"/>
    </g>
</svg>
