<svg xmlns="http://www.w3.org/2000/svg" xmlns:xlink="http://www.w3.org/1999/xlink" width="508" height="169" viewBox="0 0 508 169">
    <defs>
        <linearGradient id="b" x1="100%" x2="-.763%" y1="49.992%" y2="49.978%">
            <stop offset="0%" stop-color="#FFF" stop-opacity="0"/>
            <stop offset="53.678%" stop-color="#FFF"/>
            <stop offset="100%" stop-color="#FFF" stop-opacity="0"/>
        </linearGradient>
        <path id="a" d="M0 0h500v28H0z"/>
        <linearGradient id="c" x1="50%" x2="53.623%" y1="50.045%" y2="49.956%">
            <stop offset="0%" stop-color="#F89096"/>
            <stop offset="100%" stop-color="#B1B4E5"/>
        </linearGradient>
        <linearGradient id="e" x1="71.508%" x2="31.776%" y1="50.009%" y2="50.01%">
            <stop offset="0%" stop-color="#88D1F1"/>
            <stop offset="100%" stop-color="#B1B5E5"/>
        </linearGradient>
        <linearGradient id="f" x1="33.951%" x2="70.183%" y1="50.002%" y2="50.004%">
            <stop offset="0%" stop-color="#F89096"/>
            <stop offset="100%" stop-color="#B1B4E5"/>
        </linearGradient>
        <linearGradient id="h" x1="100%" x2="1.677%" y1="47.449%" y2="47.449%">
            <stop offset="0%" stop-color="#FFF"/>
            <stop offset="25.513%" stop-color="#FFF" stop-opacity=".089"/>
            <stop offset="72.728%" stop-color="#FFF" stop-opacity="0"/>
            <stop offset="100%" stop-color="#FFF"/>
        </linearGradient>
        <path id="g" d="M0-2h509v31H0z"/>
    </defs>
    <g fill="none" fill-rule="evenodd">
        <path fill="#FFF" d="M-407-209h1440v1216H-407z"/>
        <g transform="translate(-1 73)">
            <mask id="d" fill="#fff">
                <use xlink:href="#a"/>
            </mask>
            <use fill="url(#b)" xlink:href="#a"/>
            <path fill="url(#c)" d="M25.19-1.994C92.46-2.112 139.632 6.587 168.298 8.27c28.665 1.684 46.582-.065 64.498-1.813 17.915-1.749 40.012-2.72 74.053 1.943 34.04 4.663 68.004-6.238 68.004-6.238s12.554-4.295 46.035-4.157c33.937.14 37.665 5.16 46.632 7.167 8.968 2.006 17.162 7.02 133.699 7.02H809v1.269s-209.321.513-269.627.928c-46.342.32-62.586 3.79-68.564 5.797-5.978 2.008-19.73 7.884-48.427 7.812-28.697-.071-40.056-1.935-60.98-6.737-20.925-4.802-56.046-3.567-70.976-2.79-14.93.778-48.971 2.397-74.054-2.202-25.082-4.598-50.165-3.303-65.094-1.554-14.93 1.749-68.81 13.047-126.088 13.047C-68.374 27.63-97 14.52-97 11.32c0-3.2 39.14-13.602 122.19-13.313z" mask="url(#d)" opacity=".1"/>
            <path fill="url(#e)" d="M-268 11.321s293.404.142 338.277-.541c44.874-.683 50.43-2.155 56.412-3.049 5.982-.893 27.779-5.466 54.275-5.52 26.497-.052 40.6 5.257 61.113 6.624 20.513 1.367 33.334-.053 46.156-1.472 12.821-1.42 28.633-2.208 52.993 1.577 24.36 3.785 48.292-3.89 48.292-3.89s8.724-2.958 29.296-3.048c20.571-.09 30.535 3.784 36.945 5.256 6.41 1.472 4.096 5.01 155.636 5.01H799v1.16s-252.643-.135-298.848 0c-33.191.096-37.768 3.37-42.046 4.842-4.278 1.472-14.103 5.782-34.617 5.73-20.514-.053-28.629-1.42-43.587-4.941-14.959-3.522-39.745-2.576-50.43-1.945-10.683.63-35.043 1.945-52.991-1.788-17.95-3.732-35.899-2.68-46.584-1.261-10.685 1.42-17.092 3.785-39.745 4.468-22.653.683-35.898-1.892-49.147-3.26-13.248-1.366-40.172-3.205-121.37-2.995-81.2.21-287.421.105-287.421.105L-268 11.32z" mask="url(#d)"/>
            <path fill="url(#f)" d="M-345.868 11.513s263.416-.296 315.54-.615c52.306-.319 68.033-1.742 76.279-2.504 13.817-1.277 29.09-4.488 53.292-4.309 36.023.266 31.596 4.302 55.76 5.585 33.062 1.755 78.953-4.149 108.065.372 17.773 2.76 44.354-.875 50.7-2.38C320.112 6.155 331.401 1 363.73 1s45.865 5.24 52.059 6.569c6.193 1.328 10.14 4.257 114.473 4.504 73.25.173 113.075.36 112.226.335L801 11.513v1.398c-2.306 0-126.085.351-150.999.359-105.807.277-171.377.682-196.707 1.214-37.996.797-41.203 4.441-46.138 5.93-4.934 1.49-20.23 5.638-43.917 5.585-23.687-.052-34.462-2.478-51.77-6.04-10.855-2.234-24.714-2.63-37.05-1.991-12.337.638-44.326 2.206-69.084-1.277-29.114-4.095-47.555-2.453-61.681-1.223-12.83 1.117-16.778 2.34-39.97 2.819-15.986.33-27.067-.875-48.358-3.138C36.444 11.495-346 12.41-346 12.41l.132-.896z" mask="url(#d)" opacity=".4"/>
            <use fill="url(#h)" xlink:href="#g"/>
        </g>
    </g>
</svg>
